<?xml version="1.0" encoding="utf-8"?>
<!-- Generated by IcoMoon.io -->
<!DOCTYPE svg PUBLIC "-//W3C//DTD SVG 1.1//EN" "http://www.w3.org/Graphics/SVG/1.1/DTD/svg11.dtd">
<svg version="1.1" xmlns="http://www.w3.org/2000/svg" xmlns:xlink="http://www.w3.org/1999/xlink" width="32" height="32" viewBox="0 0 32 32">
<path fill="#000" d="M16 2c-7.732 0-14 6.268-14 14s6.268 14 14 14 14-6.268 14-14-6.268-14-14-14zM24.485 24.485c-2.267 2.266-5.28 3.515-8.485 3.515s-6.219-1.248-8.485-3.515c-2.266-2.267-3.515-5.28-3.515-8.485s1.248-6.219 3.515-8.485c2.267-2.266 5.28-3.515 8.485-3.515s6.219 1.248 8.485 3.515c2.266 2.267 3.515 5.28 3.515 8.485s-1.248 6.219-3.515 8.485z"></path>
<path fill="#000" d="M12.503 6.629c-2.539 0.948-4.59 2.899-5.67 5.371h9.167l-3.497-5.371z"></path>
<path fill="#000" d="M25.8 18c0.131-0.646 0.2-1.315 0.2-2 0-2.289-0.77-4.398-2.064-6.083l-4.499 8.083h6.362z"></path>
<path fill="#000" d="M22.498 8.4c-1.748-1.496-4.017-2.4-6.498-2.4-0.498 0-0.987 0.037-1.466 0.107l4.894 7.893 3.070-5.6z"></path>
<path fill="#000" d="M6.2 14c-0.131 0.646-0.2 1.315-0.2 2 0 2.29 0.77 4.4 2.065 6.085l4.497-8.085h-6.362z"></path>
<path fill="#000" d="M19.497 25.371c2.539-0.948 4.59-2.899 5.67-5.371h-9.167l3.497 5.371z"></path>
<path fill="#000" d="M9.503 23.601c1.748 1.495 4.017 2.399 6.497 2.399 0.498 0 0.987-0.037 1.466-0.107l-4.893-7.893-3.070 5.601z"></path>
</svg>
