<?xml version="1.0" encoding="utf-8"?>
<!-- Generated by IcoMoon.io -->
<!DOCTYPE svg PUBLIC "-//W3C//DTD SVG 1.1//EN" "http://www.w3.org/Graphics/SVG/1.1/DTD/svg11.dtd">
<svg version="1.1" xmlns="http://www.w3.org/2000/svg" xmlns:xlink="http://www.w3.org/1999/xlink" width="32" height="32" viewBox="0 0 32 32">
<path fill="#000" d="M16 19.231l8-7.231h-5v-6h-6.025v6h-4.975z"></path>
<path fill="#000" d="M29.087 18.575l-4.462-3.438h-2.625l3.875 3.863h-3.163c-0.144 0-0.269 0.075-0.337 0.181l-1.15 2.844h-10.469l-1.15-2.844c-0.063-0.113-0.194-0.181-0.338-0.181h-3.156l3.887-3.863h-2.638l-4.463 3.438c-0.663 0.387-0.988 1.188-0.881 1.975l0.544 4.181c0.144 0.819 0.606 1.269 1.756 1.269h23.362c1.194 0 1.613-0.475 1.756-1.269l0.544-4.181c0.106-0.806-0.231-1.587-0.894-1.975z"></path>
</svg>
