<?xml version="1.0" encoding="utf-8"?>
<!-- Generated by IcoMoon.io -->
<!DOCTYPE svg PUBLIC "-//W3C//DTD SVG 1.1//EN" "http://www.w3.org/Graphics/SVG/1.1/DTD/svg11.dtd">
<svg version="1.1" xmlns="http://www.w3.org/2000/svg" xmlns:xlink="http://www.w3.org/1999/xlink" width="32" height="32" viewBox="0 0 32 32">
<path fill="#000" d="M28.363 25.444c-1.494 1.581-3.269 2.738-5.325 3.462-2.056 0.731-4.225 1.094-6.506 1.094-2.181 0-4.169-0.344-5.956-1.038-1.787-0.688-3.319-1.65-4.581-2.881-1.269-1.231-2.25-2.706-2.95-4.425s-1.044-3.594-1.044-5.625c0-2.006 0.381-3.863 1.144-5.569s1.8-3.188 3.119-4.444c1.319-1.256 2.856-2.237 4.625-2.956 1.756-0.706 3.644-1.063 5.644-1.063 1.725 0 3.4 0.25 5.019 0.75 1.625 0.5 3.063 1.256 4.319 2.256 1.256 1.006 2.256 2.256 3.006 3.762s1.125 3.275 1.125 5.306c0 1.506-0.206 2.838-0.625 3.987-0.419 1.156-0.975 2.119-1.675 2.9s-1.494 1.363-2.394 1.75c-0.9 0.387-1.844 0.581-2.831 0.581-1.012 0-1.825-0.238-2.438-0.712-0.606-0.475-0.913-1.081-0.913-1.806h-0.188c-0.381 0.6-0.962 1.175-1.75 1.712s-1.75 0.813-2.894 0.813c-1.725 0-3.056-0.563-3.994-1.694s-1.406-2.594-1.406-4.406c0-1.056 0.175-2.094 0.531-3.125s0.863-1.944 1.519-2.75c0.656-0.8 1.444-1.45 2.356-1.938s1.925-0.731 3.044-0.731c0.962 0 1.775 0.2 2.438 0.6 0.656 0.4 1.087 0.894 1.294 1.469h0.038l0.306-1.506h3.387l-1.494 7.119c-0.050 0.35-0.119 0.738-0.206 1.169-0.087 0.425-0.131 0.825-0.131 1.206 0 0.425 0.081 0.781 0.25 1.075 0.163 0.288 0.488 0.431 0.969 0.431 0.988 0 1.806-0.525 2.456-1.581 0.644-1.056 0.969-2.469 0.969-4.25 0-1.506-0.256-2.844-0.762-4.006-0.506-1.169-1.212-2.144-2.113-2.938-0.9-0.787-1.975-1.388-3.212-1.787-1.244-0.4-2.6-0.6-4.069-0.6-1.6 0-3.063 0.281-4.394 0.844s-2.469 1.344-3.406 2.331c-0.938 0.994-1.669 2.156-2.188 3.5-0.525 1.338-0.787 2.787-0.787 4.344 0 1.656 0.275 3.15 0.819 4.481s1.313 2.462 2.3 3.406c0.988 0.944 2.169 1.663 3.537 2.163s2.881 0.75 4.525 0.75c2.056 0 3.825-0.325 5.306-0.981 1.481-0.65 2.844-1.556 4.087-2.712l2.1 2.262zM16.456 11.75c-0.606 0-1.144 0.175-1.6 0.525s-0.844 0.794-1.162 1.338c-0.319 0.537-0.556 1.137-0.725 1.787-0.162 0.65-0.25 1.281-0.25 1.881 0 0.3 0.031 0.619 0.094 0.962 0.063 0.337 0.188 0.65 0.381 0.944 0.188 0.288 0.438 0.525 0.744 0.712s0.713 0.281 1.219 0.281c0.688 0 1.269-0.169 1.75-0.506s0.875-0.762 1.181-1.281c0.306-0.512 0.525-1.075 0.669-1.675 0.137-0.6 0.206-1.156 0.206-1.656 0-0.4-0.038-0.794-0.113-1.188-0.075-0.387-0.206-0.738-0.4-1.056-0.188-0.313-0.45-0.569-0.781-0.769-0.325-0.2-0.731-0.3-1.212-0.3z"></path>
</svg>
