<?xml version="1.0" encoding="utf-8"?>
<!-- Generated by IcoMoon.io -->
<!DOCTYPE svg PUBLIC "-//W3C//DTD SVG 1.1//EN" "http://www.w3.org/Graphics/SVG/1.1/DTD/svg11.dtd">
<svg version="1.1" xmlns="http://www.w3.org/2000/svg" xmlns:xlink="http://www.w3.org/1999/xlink" width="32" height="32" viewBox="0 0 32 32">
<path fill="#000" d="M25.84 20.769c0.096 0.094 0.148 0.223 0.148 0.357s-0.053 0.263-0.148 0.357l-1.364 1.369c-0.098 0.099-0.227 0.148-0.356 0.148s-0.259-0.049-0.356-0.148l-4.764-4.779-4.764 4.779c-0.097 0.099-0.227 0.148-0.356 0.148s-0.257-0.049-0.356-0.148l-1.364-1.369c-0.095-0.094-0.148-0.222-0.148-0.357s0.053-0.262 0.148-0.357l4.784-4.769-4.796-4.769c-0.197-0.197-0.197-0.517 0-0.714l1.363-1.37c0.095-0.094 0.222-0.147 0.356-0.147s0.262 0.053 0.356 0.147l4.778 4.721 4.778-4.721c0.094-0.094 0.221-0.147 0.356-0.147s0.261 0.053 0.356 0.147l1.363 1.37c0.197 0.197 0.197 0.517 0 0.714l-4.796 4.769 4.784 4.769z"></path>
<path fill="#000" d="M31.184 5.847c-0.556-0.557-1.265-0.847-2.067-0.847h-18.617c-1.519 0-2.732 0.588-3.607 1.778l-6.893 9.219 6.923 9.187c0.431 0.553 0.901 0.981 1.437 1.276 0.633 0.349 1.353 0.541 2.14 0.541h18.625c1.637 0 2.875-1.391 2.875-3.063v-16c0-0.801-0.26-1.534-0.816-2.090zM30 23.938c0 0.552-0.323 1.063-0.875 1.063h-18.625c-0.948 0-1.521-0.417-2-1.031l-6-7.969 6-8.027c0.594-0.813 1.323-0.973 2-0.973h18.594c0.552 0 0.906 0.385 0.906 0.938v16z"></path>
</svg>
