<?xml version="1.0" encoding="utf-8"?>
<!-- Generated by IcoMoon.io -->
<!DOCTYPE svg PUBLIC "-//W3C//DTD SVG 1.1//EN" "http://www.w3.org/Graphics/SVG/1.1/DTD/svg11.dtd">
<svg version="1.1" xmlns="http://www.w3.org/2000/svg" xmlns:xlink="http://www.w3.org/1999/xlink" width="32" height="32" viewBox="0 0 32 32">
<path fill="#000" d="M28 10h-4v-0.281c0-4.281-3.438-7.719-7.719-7.719h-0.5c-4.281 0-7.781 3.438-7.781 7.719v0.281h-4l-2 20h28l-2-20zM10 9.719c0-3.169 2.613-5.719 5.781-5.719h0.5c3.169 0 5.719 2.55 5.719 5.719v0.281h-12v-0.281zM4.237 28l1.556-16h2.206v2.269c-0.6 0.344-1 0.994-1 1.731 0 1.106 0.894 2 2 2s2-0.894 2-2c0-0.738-0.4-1.387-1-1.731v-2.269h12v2.269c-0.6 0.344-1 0.994-1 1.731 0 1.106 0.894 2 2 2s2-0.894 2-2c0-0.738-0.4-1.387-1-1.731v-2.269h2.212l1.556 16h-23.531z"></path>
</svg>
