<?xml version="1.0" encoding="utf-8"?>
<!-- Generated by IcoMoon.io -->
<!DOCTYPE svg PUBLIC "-//W3C//DTD SVG 1.1//EN" "http://www.w3.org/Graphics/SVG/1.1/DTD/svg11.dtd">
<svg version="1.1" xmlns="http://www.w3.org/2000/svg" xmlns:xlink="http://www.w3.org/1999/xlink" width="32" height="32" viewBox="0 0 32 32">
<path fill="#000" d="M2.631 24h23.819c0.344 0 0.619-0.281 0.619-0.625v-3.375h2.306c0.35 0 0.631-0.281 0.631-0.625v-6.75c0-0.344-0.281-0.625-0.631-0.625h-2.313v-3.375c0-0.344-0.269-0.625-0.619-0.625h-23.813c-0.35 0-0.631 0.281-0.631 0.625v14.75c0 0.344 0.281 0.625 0.631 0.625zM16.087 10l-1.744 5.063h3.844l-6.275 6.938 1.744-5.063h-3.844l6.275-6.938z"></path>
</svg>
