<?xml version="1.0" encoding="utf-8"?>
<!-- Generated by IcoMoon.io -->
<!DOCTYPE svg PUBLIC "-//W3C//DTD SVG 1.1//EN" "http://www.w3.org/Graphics/SVG/1.1/DTD/svg11.dtd">
<svg version="1.1" xmlns="http://www.w3.org/2000/svg" xmlns:xlink="http://www.w3.org/1999/xlink" width="32" height="32" viewBox="0 0 32 32">
<path fill="#000" d="M8.969 12.031v13.969c0 0.552 0.491 1.031 1.043 1.031h13c0.552 0 0.957-0.479 0.957-1.031v-13.969h-15zM22.469 21.5c0 0.276-0.224 0.5-0.5 0.5s-0.5-0.224-0.5-0.5v-3c0-0.276 0.224-0.5 0.5-0.5s0.5 0.224 0.5 0.5v3zM22.012 17c-0.276 0-0.5-0.224-0.5-0.5s0.224-0.5 0.5-0.5 0.5 0.224 0.5 0.5-0.224 0.5-0.5 0.5z"></path>
<path fill="#000" d="M27.817 2.031h-19.79c-3.397 0-4.037 1.714-4.037 2.484 1.891 0.266 1.979 0.297 1.979 2.297 0 1 0 19.188 0 19.188 0 2.209 1.834 4.031 4.043 4.031h12.984c2.209 0 3.973-1.822 3.973-4.031 0 0 0-19.797 0-20.969 0-1.272 0.769-2.392 0.845-2.511s0.188-0.237 0.188-0.31c0-0.073-0.026-0.179-0.184-0.179zM24.969 5.031v20.969c0 1.12-0.778 2.031-1.863 2.031h-13.094c-1.101 0-2.043-0.93-2.043-2.031v-19.188c0-0.738 0.068-2.328-0.239-2.747 0.058-0.050 0.195-0.034 0.282-0.034h17.041c-0.046 0-0.084 0.675-0.084 1z"></path>
</svg>
