<?xml version="1.0" encoding="utf-8"?>
<!-- Generated by IcoMoon.io -->
<!DOCTYPE svg PUBLIC "-//W3C//DTD SVG 1.1//EN" "http://www.w3.org/Graphics/SVG/1.1/DTD/svg11.dtd">
<svg version="1.1" xmlns="http://www.w3.org/2000/svg" xmlns:xlink="http://www.w3.org/1999/xlink" width="32" height="32" viewBox="0 0 32 32">
<path fill="#000" d="M26 10h-2v-1c0.906-0.219 2-1.519 2-3 0-2.206-1.794-4-4-4-1.019 0-1.944 0.381-2.65 1.006-0.775-0.631-1.762-1.006-2.837-1.006-0.988 0-1.9 0.319-2.644 0.856-0.619-0.531-1.431-0.856-2.313-0.856-1.069 0-2.025 0.475-2.675 1.219-0.731-0.75-1.75-1.219-2.881-1.219-2.206 0-4 1.794-4 4 0 1.013 0.381 1.938 1 2.644 0 0.012 0 0.025 0 0.044v3.375c0 1.656 1.344 3 3 3v13.938c0 0.55 0.45 1 1 1h16c0.55 0 1-0.45 1-1v-5h2c2.206 0 4-1.794 4-4v-6c0-2.206-1.794-4-4-4zM20.488 19c-0.1 0-0.188-0.038-0.269-0.087-0.137-0.087-0.219-0.25-0.219-0.425v-2.988c0-0.275 0.225-0.5 0.5-0.5s0.5 0.225 0.5 0.5v3.006c0 0.313-0.238 0.494-0.512 0.494zM20.938 14.275c-0.075 0.113-0.188 0.188-0.319 0.219-0.131 0.025-0.269 0-0.375-0.069-0.113-0.075-0.188-0.188-0.219-0.319-0.025-0.131 0-0.269 0.069-0.375 0.075-0.113 0.188-0.188 0.319-0.219 0.131-0.025 0.269 0 0.375 0.069 0.113 0.075 0.188 0.188 0.219 0.319 0.031 0.125 0.006 0.262-0.069 0.375zM22 10v2h-7.988c-0.006-0.269-0.225-0.488-0.5-0.488s-0.494 0.219-0.5 0.488h-5.013v-2.537c0.406-0.238 0.769-0.537 1.063-0.894 0.075-0.094 0.15-0.188 0.219-0.287 0.094 0.075 0.188 0.15 0.287 0.213 0.569 0.381 1.25 0.606 1.981 0.606 0.4 0 0.787-0.069 1.144-0.188 0.8 1.262 2.206 2.106 3.813 2.106 1.375 0 2.606-0.619 3.431-1.588 0.356-0.419 0.637-0.9 0.819-1.431h1.244v2zM23.913 6.575c-0.156-0.344-0.506-0.575-0.913-0.575h-3.438c0 0-0.544-0.044-0.544 0.513s-0.181 1.069-0.488 1.481c-0.456 0.619-1.194 1.025-2.025 1.025-0.931 0-1.744-0.506-2.175-1.263-0.1-0.169-0.175-0.35-0.231-0.537-0.006-0.037-0.019-0.069-0.025-0.1-0.125-0.369-0.469-0.638-0.881-0.638-0.244 0-0.469 0.094-0.637 0.25 0 0 0 0-0.006 0.006-0.15 0.131-0.331 0.231-0.525 0.294-0.15 0.050-0.313 0.075-0.481 0.075-0.469 0-0.919-0.25-1.175-0.537-0.625-0.713-1.481-0.425-1.856-0.344s-0.763 0.731-0.763 0.731c-0.069 0.131-0.156 0.25-0.25 0.362-0.369 0.419-0.906 0.688-1.506 0.688v5.063c-0.55 0-1-0.45-1-1v-4.331c-0.481-0.281-0.838-0.756-0.956-1.313-0.031-0.131-0.044-0.275-0.044-0.419 0-1.1 0.9-2 2-2 0.737 0 1.456 0.481 1.881 0.963s1.669 0.481 2.119 0c0.425-0.456 0.894-0.963 1.55-0.963 0.375 0 0.725 0.138 0.994 0.362 0.119 0.1 0.225 0.219 0.306 0.35 0.069 0.112 0.125 0.263 0.194 0.362 0.169 0.213 0.406 0.344 0.7 0.344 0.275 0 0.519-0.119 0.688-0.313 0.037-0.044 0.075-0.094 0.106-0.144 0.125-0.156 0.262-0.3 0.419-0.425 0.425-0.338 0.969-0.537 1.55-0.537 0.663 0 1.262 0.256 1.712 0.681 0.106 0.1 0.419 0.281 0.825 0.319 0.281 0.025 0.381 0.019 0.512 0 0.644-0.081 0.9-0.294 1.025-0.412 0.363-0.362 0.863-0.588 1.413-0.588 1.1 0 2 0.9 2 2 0.012 0.194-0.019 0.388-0.075 0.569zM28 20c0 1.106-0.894 2-2 2h-2v-10h2c1.106 0 2 0.894 2 2v6z"></path>
<path fill="#000" d="M11.012 10.512c0 0.276-0.224 0.5-0.5 0.5s-0.5-0.224-0.5-0.5c0-0.276 0.224-0.5 0.5-0.5s0.5 0.224 0.5 0.5z"></path>
<path fill="#000" d="M21.012 10.512c0 0.276-0.224 0.5-0.5 0.5s-0.5-0.224-0.5-0.5c0-0.276 0.224-0.5 0.5-0.5s0.5 0.224 0.5 0.5z"></path>
</svg>
