<?xml version="1.0" encoding="utf-8"?>
<!-- Generated by IcoMoon.io -->
<!DOCTYPE svg PUBLIC "-//W3C//DTD SVG 1.1//EN" "http://www.w3.org/Graphics/SVG/1.1/DTD/svg11.dtd">
<svg version="1.1" xmlns="http://www.w3.org/2000/svg" xmlns:xlink="http://www.w3.org/1999/xlink" width="32" height="32" viewBox="0 0 32 32">
<path fill="#000" d="M8.75 8.975c-0.994 0.994-0.731 1.081-0.662 1.15s5.612 5.35 5.612 5.35 0.244 0.213 0.244 0.525v0c0 0.313-0.244 0.525-0.244 0.525s-5.544 5.281-5.613 5.35c-0.069 0.069-0.331 0.156 0.662 1.15s1.15 0.762 1.2 0.712l4.213-4.019c0.006-0.006 0.012-0.012 0.019-0.019s0.019-0.012 0.025-0.019c0.144-0.119 0.613-0.663 0.613-0.2 0 0.456 0 9.488 0 9.775v0.113c0 0.344 0.325 0.631 0.725 0.631 0.219 0 0.419-0.081 0.556-0.219v0c0 0 7.387-7.050 7.675-7.325s0.313-0.669 0.063-0.919l-5.244-5.019c0 0-0.275-0.269-0.275-0.519s0.275-0.519 0.275-0.519l5.244-5.019c0.25-0.25 0.225-0.65-0.063-0.919-0.288-0.275-7.675-7.325-7.675-7.325v0c-0.131-0.131-0.331-0.219-0.55-0.219-0.4 0-0.725 0.288-0.725 0.631v0.119c0 0.288 0 9.319 0 9.775 0 0.463-0.469-0.081-0.613-0.2-0.006-0.006-0.019-0.012-0.025-0.019s-0.012-0.012-0.019-0.019l-4.213-4.019c-0.063-0.056-0.213-0.287-1.206 0.706zM17.5 7.494c0-0.412 0.469 0.144 0.613 0.275l1.906 1.825c0.131 0.125 0.181 0.294 0.181 0.45s-0.063 0.35-0.175 0.456c-0.113 0.106-1.925 1.844-1.925 1.844-0.144 0.113-0.6 0.613-0.6 0.106 0 0 0-4.544 0-4.956zM17.5 19.55c0-0.512 0.45-0.012 0.6 0.106 0 0 1.819 1.738 1.931 1.844s0.175 0.306 0.175 0.456-0.050 0.325-0.181 0.45l-1.906 1.825c-0.144 0.131-0.613 0.688-0.613 0.275-0.006-0.413-0.006-4.956-0.006-4.956z"></path>
</svg>
