<?xml version="1.0" encoding="utf-8"?>
<!-- Generated by IcoMoon.io -->
<!DOCTYPE svg PUBLIC "-//W3C//DTD SVG 1.1//EN" "http://www.w3.org/Graphics/SVG/1.1/DTD/svg11.dtd">
<svg version="1.1" xmlns="http://www.w3.org/2000/svg" xmlns:xlink="http://www.w3.org/1999/xlink" width="32" height="32" viewBox="0 0 32 32">
<path fill="#000" d="M16.933 21.913c-0.044-0.511-0.473-0.913-0.996-0.913-0.477 0-0.876 0.334-0.975 0.782l-0-0-0.976 5.781c-0.031 0.141-0.049 0.287-0.049 0.437 0 1.105 0.895 2 2 2s2-0.895 2-2c0-0.181-0.025-0.357-0.070-0.524l-0.935-5.564z"></path>
<path fill="#000" d="M19.119 22.19l-0-0-0 0z"></path>
<path fill="#000" d="M24.555 24.391c-0.107-0.088-0.206-0.18-0.321-0.246l-3.977-2.969c-0.361-0.237-0.75-0.231-1.033 0.053-0.258 0.259-0.293 0.648-0.105 0.961l3.060 4.11c0.059 0.093 0.135 0.175 0.21 0.262 0.488 0.567 1.567 0.599 2.165-0s0.589-1.688 0-2.171z"></path>
<path fill="#000" d="M23.282 20.939h-0v0z"></path>
<path fill="#000" d="M27.214 20.155l-3.72-0.143c-0.243-0.035-0.462 0.128-0.504 0.376-0.038 0.226 0.084 0.446 0.292 0.551l0.001-0.002c0.003 0.001 0.004 0 0.007 0.002l3.607 1.11c0.518 0.121 1.104-0.146 1.104-0.728-0-0.736-0.193-1.090-0.786-1.165z"></path>
<path fill="#000" d="M8.701 20.939v-0h-0z"></path>
<path fill="#000" d="M8.701 20.936l0.001 0.002c0.208-0.105 0.329-0.325 0.292-0.551-0.042-0.247-0.261-0.41-0.504-0.376l-3.72 0.143c-0.593 0.075-0.769 0.428-0.769 1.165 0 0.582 0.569 0.849 1.087 0.728l3.607-1.11c0.003-0.001 0.004-0 0.007-0.002z"></path>
<path fill="#000" d="M11.744 21.175l-3.975 2.964c-0.115 0.066-0.223 0.148-0.321 0.246-0.598 0.598-0.598 1.568-0 2.166s1.566 0.599 2.164 0c0.081-0.081 0.15-0.168 0.21-0.262l3.060-4.103c0.188-0.313 0.153-0.701-0.105-0.959-0.283-0.283-0.732-0.306-1.032-0.053z"></path>
<path fill="#000" d="M22 8c0-3.813-4.522-6-6-6 0.751 5.347-6.354 7.479-7 12s3 6 3 6c1.021-3.744 4.524-5 6.854-6.604 2.542-1.75 3.146-3.392 3.146-5.396z"></path>
<path fill="#000" d="M22 16c0.314-0.976 0.307-3.063 0-4-0.562 1.156-1.643 2.144-2.949 3.043-0.537 0.369-1.241 0.715-1.802 1.050-1.17 0.698-2.187 1.366-2.958 2.275 0.709 1.085 1.77 1.632 2.709 1.632 2.25 0 4-0.896 5-4z"></path>
<path fill="#000" d="M9.502 10c0.733-0.997 1.553-1.576 2.387-2.398 0.84-0.828 1.38-1.404 1.716-2.073-0.667-1.333-1.741-1.663-2.606-1.529 0.146 1.896-1.873 2.91-2 4.291-0.077 0.834 0.156 1.459 0.502 1.709z"></path>
</svg>
