<?xml version="1.0" encoding="utf-8"?>
<!-- Generated by IcoMoon.io -->
<!DOCTYPE svg PUBLIC "-//W3C//DTD SVG 1.1//EN" "http://www.w3.org/Graphics/SVG/1.1/DTD/svg11.dtd">
<svg version="1.1" xmlns="http://www.w3.org/2000/svg" xmlns:xlink="http://www.w3.org/1999/xlink" width="32" height="32" viewBox="0 0 32 32">
<path fill="#000" d="M13.997 13.251c0 0 0.503-0.292 1.249-0.438 1.332-0.26 2.467-0.344 2.967 0.531 0.611 1.070 1.15 3.339 1.030 5.344-0.063 1.047-0.289 1.383-0.289 1.383s-0.958 0.595-2.959 0.43c-2.17-0.18-2.498-0.938-2.498-0.938s0.281-0.707 0.5-2.656c0.219-1.95 0-3.655 0-3.655z"></path>
<path fill="#000" d="M11.499 17.813c0.784-0.208 1.439-0.449 1.729-0.562 0.043-0.294 0.080-0.607 0.106-0.938 0.017-0.216 0.029-0.422 0.038-0.619-0.428-0.146-0.846-0.303-1.798-0.631-2.416-0.833-3.572-1.063-3.572-1.063s0.89-0.156 2.639 0.188c1.249 0.246 2.149 0.594 2.747 0.896 0.048-1-0.155-2.036-0.155-2.036-1.374-2.516-5.761-6.047-7.959-6.047-1.655 0-3.273 4.281-3.273 9s1.439 9 3.219 9c2.085 0 7.279-5 7.279-5s0.359-0.786 0.617-2.098c-1.174 0.325-3.99 0.536-3.99 0.536s1.312-0.344 2.373-0.625z"></path>
<path fill="#000" d="M26.727 7c-2.273 0-6.398 3.531-7.772 6.047l-0.048 0.086c0 0 0.087 0.158 0.117 0.211 0.214 0.375 0.419 0.897 0.59 1.503 0.507-0.175 1.475-0.51 2.345-0.815 1.249-0.438 2.186-0.594 2.186-0.594s-3.311 1.484-4.35 2.142c0.136 0.635 0.231 1.325 0.264 2.015 0.339 0.139 1.034 0.405 1.87 0.625 1.187 0.313 2.525 0.719 2.525 0.719s-3.388-0.329-4.382-0.783c-0.001 0.179-0.006 0.357-0.016 0.533-0.062 1.045-0.288 1.381-0.289 1.383 0.476 0.659 4.688 4.93 7.014 4.93 1.78 0 3.219-4.281 3.219-9s-1.618-9-3.273-9z"></path>
</svg>
