<?xml version="1.0" encoding="utf-8"?>
<!-- Generated by IcoMoon.io -->
<!DOCTYPE svg PUBLIC "-//W3C//DTD SVG 1.1//EN" "http://www.w3.org/Graphics/SVG/1.1/DTD/svg11.dtd">
<svg version="1.1" xmlns="http://www.w3.org/2000/svg" xmlns:xlink="http://www.w3.org/1999/xlink" width="32" height="32" viewBox="0 0 32 32">
<path fill="#000" d="M17 17h-2v-0.5h-13v11c0 0.275 0.206 0.5 0.487 0.5h27.031c0.275 0 0.481-0.225 0.481-0.5v-11h-13v0.5z"></path>
<path fill="#000" d="M29.512 9h-7.512v-1.919c-0.063-1.763-1.356-3.081-3.2-3.081h-5.6c-1.838 0-3.138 1.319-3.2 3.081v1.919h-7.513c-0.275 0-0.488 0.225-0.488 0.5v6h13v-0.5h2v0.5h13v-6c0-0.275-0.206-0.5-0.488-0.5zM20 7.263c0 0.019 0 0.037 0 0.063v1.675h-8v-1.675c0-0.025 0-0.044 0-0.063s0-0.037 0-0.063c0-0.606 0.537-1.2 1.175-1.2h5.65c0.631 0 1.175 0.588 1.175 1.2 0 0.025 0 0.044 0 0.063z"></path>
</svg>
