<?xml version="1.0" encoding="utf-8"?>
<!-- Generated by IcoMoon.io -->
<!DOCTYPE svg PUBLIC "-//W3C//DTD SVG 1.1//EN" "http://www.w3.org/Graphics/SVG/1.1/DTD/svg11.dtd">
<svg version="1.1" xmlns="http://www.w3.org/2000/svg" xmlns:xlink="http://www.w3.org/1999/xlink" width="32" height="32" viewBox="0 0 32 32">
<path fill="#000" d="M23.415 7.958c-1.83-2.426-4.474-3.958-7.415-3.958s-5.585 1.532-7.415 3.958c0.397 0.977 0.99 1.875 1.758 2.644 1.511 1.511 3.52 2.343 5.657 2.343s4.146-0.832 5.657-2.343c0.769-0.769 1.361-1.666 1.758-2.644z"></path>
<path fill="#000" d="M7.927 8.927c-0.108 0.177-0.212 0.356-0.312 0.54-0.183-0.115-0.332-0.234-0.484-0.361-0.073-0.061-0.185-0.247-0.284-0.459 0.338-0.707 0.074-1.565-0.62-1.954-0.723-0.405-1.637-0.148-2.042 0.574s-0.148 1.637 0.574 2.042c0.078 0.044 0.159 0.079 0.24 0.108 0.176 0.392 0.457 0.896 0.847 1.222 0.261 0.219 0.55 0.445 0.95 0.667-0.45 1.266-0.723 2.644-0.784 4.089-0.689 0.013-1.164 0.131-1.592 0.258-0.26 0.077-0.512 0.212-0.739 0.366-0.060-0.007-0.12-0.011-0.182-0.011-0.828 0-1.5 0.672-1.5 1.5s0.672 1.5 1.5 1.5c0.808 0 1.467-0.639 1.499-1.439 0.315-0.093 0.618-0.166 1.068-0.173 0.198 2.063 0.832 3.968 1.788 5.576-0.885 0.688-1.43 1.439-1.663 2.27 0 0-0.047 0.027-0.117 0.085-0.061 0.050-0.121 0.103-0.175 0.164-0.554 0.616-0.504 1.564 0.112 2.118s1.564 0.504 2.118-0.112c0.505-0.562 0.506-1.399 0.035-1.962 0.192-0.348 0.39-0.563 0.854-0.935 1.691 1.978 3.963 3.252 6.48 3.401v-14.070c-3.327-0.182-6.173-2.171-7.573-5.003z"></path>
<path fill="#000" d="M28.5 16.007c-0.062 0-0.122 0.004-0.182 0.011-0.227-0.154-0.479-0.289-0.739-0.366-0.428-0.126-0.903-0.245-1.592-0.258-0.061-1.445-0.334-2.823-0.784-4.089 0.401-0.222 0.689-0.448 0.95-0.667 0.389-0.326 0.671-0.83 0.847-1.222 0.082-0.029 0.162-0.064 0.24-0.108 0.722-0.405 0.98-1.32 0.574-2.042s-1.32-0.98-2.042-0.574c-0.693 0.389-0.958 1.247-0.62 1.954-0.099 0.213-0.211 0.398-0.284 0.459-0.152 0.127-0.301 0.246-0.484 0.361-0.1-0.184-0.204-0.364-0.312-0.54-1.4 2.832-4.245 4.821-7.573 5.003v14.071c2.517-0.149 4.79-1.423 6.48-3.401 0.465 0.372 0.662 0.587 0.854 0.935-0.471 0.563-0.471 1.4 0.035 1.962 0.554 0.616 1.502 0.666 2.118 0.112s0.666-1.502 0.112-2.118c-0.055-0.061-0.114-0.114-0.175-0.164-0.070-0.058-0.117-0.085-0.117-0.085-0.233-0.831-0.777-1.582-1.663-2.27 0.957-1.609 1.59-3.513 1.788-5.576 0.45 0.007 0.753 0.081 1.068 0.173 0.032 0.8 0.69 1.439 1.498 1.439 0.828 0 1.5-0.672 1.5-1.5s-0.672-1.5-1.5-1.5z"></path>
</svg>
