<?xml version="1.0" encoding="utf-8"?>
<!-- Generated by IcoMoon.io -->
<!DOCTYPE svg PUBLIC "-//W3C//DTD SVG 1.1//EN" "http://www.w3.org/Graphics/SVG/1.1/DTD/svg11.dtd">
<svg version="1.1" xmlns="http://www.w3.org/2000/svg" xmlns:xlink="http://www.w3.org/1999/xlink" width="32" height="32" viewBox="0 0 32 32">
<path fill="#000" d="M9 8c1.106 0 2-0.894 2-2v-2c0-1.106-0.894-2-2-2s-2 0.894-2 2v2c0 1.106 0.894 2 2 2z"></path>
<path fill="#000" d="M23 8c1.106 0 2-0.894 2-2v-2c0-1.106-0.894-2-2-2s-2 0.894-2 2v2c0 1.106 0.894 2 2 2z"></path>
<path fill="#000" d="M29.5 4h-3.5v2.544c0 1.406-1.45 2.456-2.95 2.456s-3.050-1.050-3.050-2.456v-2.544h-8v2.544c0 1.406-1.5 2.456-3 2.456s-3-1.050-3-2.456v-2.544h-3.5c-0.275 0-0.5 0.225-0.5 0.5v25c0 0.275 0.225 0.5 0.5 0.5h27c0.275 0 0.5-0.225 0.5-0.5v-25c0-0.275-0.225-0.5-0.5-0.5zM27 27h-22v-16h22v16z"></path>
</svg>
