<?xml version="1.0" encoding="utf-8"?>
<!-- Generated by IcoMoon.io -->
<!DOCTYPE svg PUBLIC "-//W3C//DTD SVG 1.1//EN" "http://www.w3.org/Graphics/SVG/1.1/DTD/svg11.dtd">
<svg version="1.1" xmlns="http://www.w3.org/2000/svg" xmlns:xlink="http://www.w3.org/1999/xlink" width="32" height="32" viewBox="0 0 32 32">
<path fill="#000" d="M26.9 9.188h-4.219l-2.525-2.55c0 0-0.012-0.013-0.019-0.013l-0.012-0.013c-0.375-0.375-0.881-0.612-1.456-0.612h-5.25c-0.613 0-1.156 0.263-1.537 0.681v0.006l-2.469 2.5h-4.313c-1.163 0-2.1 0.912-2.1 2.075v12.631c0 1.163 0.938 2.106 2.1 2.106h21.8c1.156 0 2.1-0.944 2.1-2.106v-12.631c0-1.162-0.944-2.075-2.1-2.075zM16 22.844c-3.181 0-5.775-2.6-5.775-5.788 0-3.194 2.594-5.787 5.775-5.787 3.188 0 5.775 2.594 5.775 5.787 0 3.188-2.587 5.788-5.775 5.788zM26.506 12.531c-0.481 0-0.875-0.394-0.875-0.881s0.394-0.881 0.875-0.881c0.481 0 0.875 0.394 0.875 0.881s-0.394 0.881-0.875 0.881z"></path>
<path fill="#000" d="M16 12.681c-2.412 0-4.363 1.956-4.363 4.375 0 2.413 1.95 4.375 4.363 4.375 2.406 0 4.363-1.956 4.363-4.375s-1.956-4.375-4.363-4.375z"></path>
</svg>
