<?xml version="1.0" encoding="utf-8"?>
<!-- Generated by IcoMoon.io -->
<!DOCTYPE svg PUBLIC "-//W3C//DTD SVG 1.1//EN" "http://www.w3.org/Graphics/SVG/1.1/DTD/svg11.dtd">
<svg version="1.1" xmlns="http://www.w3.org/2000/svg" xmlns:xlink="http://www.w3.org/1999/xlink" width="32" height="32" viewBox="0 0 32 32">
<path fill="#000" d="M0 6v16h32v-16h-32zM12.032 20h-7.024c0-1.661-1.347-3.008-3.008-3.008v-4.992c2.209 0 4-1.791 4-4h6.032c-1.246 1.466-2.032 3.61-2.032 6s0.786 4.534 2.032 6zM18.631 16.328c-0.161 0.261-0.374 0.475-0.637 0.641s-0.563 0.288-0.898 0.365c-0.176 0.040-0.353 0.070-0.533 0.090v0.577h-1.125v-0.589c-0.173-0.022-0.341-0.054-0.505-0.096-0.355-0.092-0.665-0.229-0.928-0.419s-0.474-0.425-0.632-0.723c-0.151-0.285-0.233-0.672-0.245-0.984h1.233c0.006 0.188 0.052 0.408 0.138 0.574 0.092 0.178 0.22 0.305 0.385 0.419 0.161 0.111 0.346 0.193 0.554 0.245v-2.147c-0.152-0.038-0.313-0.078-0.485-0.121-0.303-0.074-0.555-0.171-0.755-0.29s-0.36-0.254-0.479-0.401c-0.118-0.147-0.202-0.304-0.252-0.47s-0.074-0.335-0.074-0.507c0-0.332 0.074-0.619 0.222-0.862s0.344-0.444 0.587-0.604c0.243-0.16 0.52-0.278 0.829-0.355 0.135-0.033 0.27-0.059 0.406-0.078v-0.589h1.125v0.594c0.154 0.022 0.303 0.052 0.449 0.092 0.326 0.089 0.612 0.223 0.859 0.401s0.443 0.398 0.587 0.659c0.132 0.238 0.204 0.505 0.215 0.817h-1.242c-0.047-0.375-0.198-0.645-0.455-0.808-0.123-0.078-0.262-0.137-0.414-0.18v1.898c0.162 0.040 0.322 0.079 0.478 0.117 0.214 0.052 0.367 0.091 0.459 0.115 0.23 0.068 0.431 0.16 0.602 0.277s0.314 0.251 0.43 0.401c0.115 0.151 0.201 0.312 0.257 0.484s0.084 0.344 0.084 0.516c0 0.369-0.081 0.684-0.242 0.945zM30 16.992c-1.625 0-3 1.347-3 3.008h-7.032c1.246-1.466 2.032-3.61 2.032-6s-0.786-4.534-2.032-6h6.032c0 2.209 1.791 4 4 4v4.992z"></path>
<path fill="#000" d="M8 14c0 1.105-0.895 2-2 2s-2-0.895-2-2c0-1.105 0.895-2 2-2s2 0.895 2 2z"></path>
<path fill="#000" d="M28 14c0 1.105-0.895 2-2 2s-2-0.895-2-2c0-1.105 0.895-2 2-2s2 0.895 2 2z"></path>
<path fill="#000" d="M17.056 14.701c-0.15-0.051-0.314-0.101-0.493-0.149v1.929c0.099-0.014 0.192-0.034 0.276-0.060 0.191-0.058 0.346-0.134 0.464-0.226s0.204-0.198 0.257-0.318c0.053-0.12 0.079-0.241 0.079-0.364 0-0.252-0.061-0.438-0.183-0.558s-0.255-0.204-0.4-0.253z"></path>
<path fill="#000" d="M14.75 11.935c-0.082 0.111-0.123 0.249-0.123 0.415 0 0.234 0.077 0.416 0.232 0.549 0.149 0.127 0.342 0.224 0.579 0.291v-1.647c-0.136 0.028-0.262 0.071-0.376 0.13-0.125 0.065-0.229 0.152-0.311 0.263z"></path>
<path fill="#000" d="M0 24h32v2h-32v-2z"></path>
</svg>
