<?xml version="1.0" encoding="utf-8"?>
<!-- Generated by IcoMoon.io -->
<!DOCTYPE svg PUBLIC "-//W3C//DTD SVG 1.1//EN" "http://www.w3.org/Graphics/SVG/1.1/DTD/svg11.dtd">
<svg version="1.1" xmlns="http://www.w3.org/2000/svg" xmlns:xlink="http://www.w3.org/1999/xlink" width="32" height="32" viewBox="0 0 32 32">
<path fill="#000" d="M4.581 24.438c0 0 0 0 0 0 0.112 0.188 0.175 0.4 0.175 0.637l-0.756 3.925 3.512-1.381c0.169-0.069 0.35-0.106 0.544-0.106 0.175 0 0.344 0.031 0.5 0.087 0 0 0.006 0 0.012 0 0.025 0.012 0.050 0.019 0.075 0.031 1.113 0.456 2.338 0.712 3.619 0.712 2.894 0 5.475-1.281 7.175-3.288-0.881 0.225-1.806 0.356-2.756 0.356-5.994 0-10.856-4.688-10.856-10.469 0-0.738 0.081-1.45 0.231-2.144-1.875 1.631-3.056 3.988-3.056 6.613 0 1.775 0.538 3.45 1.469 4.844 0.037 0.050 0.075 0.119 0.112 0.181z"></path>
<path fill="#000" d="M18.144 3c-5.231 0-9.6 3.575-10.625 8.325-0.15 0.694-0.231 1.406-0.231 2.144 0 5.781 4.856 10.469 10.856 10.469 0.956 0 1.875-0.131 2.756-0.356 0.506-0.131 1.006-0.281 1.488-0.475 0.031-0.012 0.056-0.025 0.087-0.038 0.006 0 0.012 0 0.012-0.006 0.181-0.069 0.381-0.106 0.581-0.106 0.225 0 0.438 0.044 0.631 0.125l4.288 1.613-1.063-4.613c0-0.275 0.075-0.538 0.206-0.762 0 0 0 0 0 0 0.038-0.069 0.087-0.131 0.131-0.194 1.087-1.631 1.719-3.575 1.719-5.656 0.019-5.781-4.838-10.469-10.838-10.469z"></path>
</svg>
