<?xml version="1.0" encoding="utf-8"?>
<!-- Generated by IcoMoon.io -->
<!DOCTYPE svg PUBLIC "-//W3C//DTD SVG 1.1//EN" "http://www.w3.org/Graphics/SVG/1.1/DTD/svg11.dtd">
<svg version="1.1" xmlns="http://www.w3.org/2000/svg" xmlns:xlink="http://www.w3.org/1999/xlink" width="32" height="32" viewBox="0 0 32 32">
<path fill="#000" d="M18.381 22.844c-0.163-0.113-0.45-0.281-1.094-0.281h-7.256c-2.169 0-4.031-1.631-4.031-3.7v-6.3h-0.112c-1.644 0-2.888 1.281-2.888 2.844v8.056c0 1.563 1.338 2.538 2.981 2.538h1.019v3l3.319-2.813c0.119-0.087 0.331-0.188 0.825-0.188h5.613c1.438 0 2.962-0.712 3.244-2l-1.619-1.156z"></path>
<path fill="#000" d="M25.063 3h-13.581c-2.169 0-3.481 1.675-3.481 3.737v10.512c0 2.069 1.75 3.75 3.919 3.75h6.319c0.65 0 0.938 0.144 1.094 0.262l4.669 3.738v-4h1.063c2.175 0 3.938-1.681 3.938-3.744v-10.519c0-2.063-1.762-3.737-3.938-3.737z"></path>
</svg>
