<?xml version="1.0" encoding="utf-8"?>
<!-- Generated by IcoMoon.io -->
<!DOCTYPE svg PUBLIC "-//W3C//DTD SVG 1.1//EN" "http://www.w3.org/Graphics/SVG/1.1/DTD/svg11.dtd">
<svg version="1.1" xmlns="http://www.w3.org/2000/svg" xmlns:xlink="http://www.w3.org/1999/xlink" width="32" height="32" viewBox="0 0 32 32">
<path fill="#000" d="M16 28.087c1.806 0 3.525-0.356 5.081-0.994 0.038-0.019 0.069-0.031 0.106-0.044 0.006 0 0.012 0 0.012-0.006 0.219-0.081 0.456-0.125 0.7-0.125 0.269 0 0.525 0.050 0.756 0.15l5.25 1.931-1.381-5.525c0-0.331 0.094-0.644 0.244-0.913 0 0 0 0 0 0 0.050-0.081 0.1-0.163 0.156-0.231 1.306-1.956 2.063-4.281 2.063-6.775 0.012-6.938-5.806-12.556-12.988-12.556s-13 5.619-13 12.544c0 6.931 5.819 12.544 13 12.544z"></path>
</svg>
