<?xml version="1.0" encoding="utf-8"?>
<!-- Generated by IcoMoon.io -->
<!DOCTYPE svg PUBLIC "-//W3C//DTD SVG 1.1//EN" "http://www.w3.org/Graphics/SVG/1.1/DTD/svg11.dtd">
<svg version="1.1" xmlns="http://www.w3.org/2000/svg" xmlns:xlink="http://www.w3.org/1999/xlink" width="32" height="32" viewBox="0 0 32 32">
<path fill="#000" d="M28.85 6.85l-3.431-2.706c-0.106-0.088-0.238-0.15-0.387-0.15s-0.288 0.063-0.394 0.156l-12.481 16.038c0 0-4.906-4.719-5.044-4.856s-0.319-0.369-0.594-0.369c-0.275 0-0.4 0.194-0.544 0.338-0.106 0.113-1.856 1.95-2.719 2.863-0.050 0.056-0.081 0.087-0.125 0.131-0.075 0.106-0.125 0.225-0.125 0.356 0 0.137 0.050 0.25 0.125 0.356l0.175 0.163c0 0 8.706 8.363 8.85 8.506s0.319 0.325 0.575 0.325c0.25 0 0.456-0.269 0.575-0.387l15.569-20c0.075-0.106 0.125-0.225 0.125-0.362 0-0.156-0.063-0.287-0.15-0.4z"></path>
</svg>
