<?xml version="1.0" encoding="utf-8"?>
<!-- Generated by IcoMoon.io -->
<!DOCTYPE svg PUBLIC "-//W3C//DTD SVG 1.1//EN" "http://www.w3.org/Graphics/SVG/1.1/DTD/svg11.dtd">
<svg version="1.1" xmlns="http://www.w3.org/2000/svg" xmlns:xlink="http://www.w3.org/1999/xlink" width="32" height="32" viewBox="0 0 32 32">
<path fill="#000" d="M16 2c-7.731 0-14 6.269-14 14s6.269 14 14 14c7.731 0 14-6.269 14-14s-6.269-14-14-14zM23.181 11.319l-8.694 11.156c-0.069 0.069-0.181 0.219-0.319 0.219-0.144 0-0.238-0.1-0.319-0.181s-4.931-4.744-4.931-4.744l-0.094-0.094c-0.037-0.056-0.069-0.125-0.069-0.2s0.031-0.144 0.069-0.2c0.025-0.025 0.044-0.044 0.069-0.075 0.481-0.506 1.456-1.531 1.519-1.594 0.081-0.081 0.15-0.188 0.3-0.188 0.156 0 0.256 0.131 0.331 0.206s2.813 2.706 2.813 2.706l6.956-8.938c0.063-0.050 0.137-0.088 0.219-0.088s0.156 0.031 0.219 0.081l1.913 1.506c0.050 0.063 0.081 0.137 0.081 0.219 0.006 0.081-0.025 0.15-0.063 0.206z"></path>
</svg>
