<?xml version="1.0" encoding="utf-8"?>
<!-- Generated by IcoMoon.io -->
<!DOCTYPE svg PUBLIC "-//W3C//DTD SVG 1.1//EN" "http://www.w3.org/Graphics/SVG/1.1/DTD/svg11.dtd">
<svg version="1.1" xmlns="http://www.w3.org/2000/svg" xmlns:xlink="http://www.w3.org/1999/xlink" width="32" height="32" viewBox="0 0 32 32">
<path fill="#000" d="M10.063 10.031h12c-0.105-1.25-0.608-2.216-1.745-2.522-0.028-0.007-0.070-0.027-0.098-0.034-0.75-0.214-1.313-0.478-1.313-1.299v-1.287c0-1.596-1.283-2.889-2.876-2.889-1.592 0-2.874 1.293-2.874 2.889v1.287c0 0.821-0.537 1.073-1.287 1.287-0.028 0.007-0.050 0.038-0.079 0.046-1.137 0.307-1.607 1.272-1.727 2.522zM16.062 4.025c0.476 0 0.862 0.387 0.862 0.865 0 0.478-0.386 0.866-0.862 0.866s-0.861-0.387-0.861-0.866c0-0.477 0.385-0.864 0.861-0.864z"></path>
<path fill="#000" d="M25.351 3.969h-4.632v0.874c0 0.661 0.575 1.188 1.219 1.188h2.326c0.417 0 0.756 0.34 0.777 0.762l0.005 20.444c-0.020 0.402-0.331 0.722-0.72 0.751l-16.526 0.002c-0.388-0.029-0.697-0.356-0.717-0.758l-0.005-20.438c0.020-0.423 0.366-0.763 0.782-0.763h2.327c0.645 0 1.157-0.527 1.157-1.188v-0.874h-4.571c-0.945 0-1.742 0.785-1.742 1.755v22.524c0 0.969 0.797 1.784 1.742 1.784h18.578c0.946 0 1.681-0.815 1.681-1.784v-22.524c0-0.97-0.734-1.755-1.681-1.755z"></path>
<path fill="#000" d="M9.031 12.031h7v2h-7v-2z"></path>
<path fill="#000" d="M9.031 24.031h10v2h-10v-2z"></path>
<path fill="#000" d="M9.031 20.031h8.063v2h-8.063v-2z"></path>
<path fill="#000" d="M9.031 16.031h13v2h-13v-2z"></path>
</svg>
