<?xml version="1.0" encoding="utf-8"?>
<!-- Generated by IcoMoon.io -->
<!DOCTYPE svg PUBLIC "-//W3C//DTD SVG 1.1//EN" "http://www.w3.org/Graphics/SVG/1.1/DTD/svg11.dtd">
<svg version="1.1" xmlns="http://www.w3.org/2000/svg" xmlns:xlink="http://www.w3.org/1999/xlink" width="32" height="32" viewBox="0 0 32 32">
<path fill="#000" d="M15.999 2c-7.731 0-13.999 6.269-13.999 14s6.268 14 13.999 14c7.732 0 14.001-6.268 14.001-14s-6.269-14-14.001-14zM24.485 24.485c-0.631 0.631-1.32 1.183-2.055 1.651l-0.997-1.726-0.866 0.5 0.997 1.727c-1.552 0.814-3.273 1.278-5.064 1.352v-1.989h-1v1.989c-1.791-0.073-3.512-0.537-5.064-1.351l0.997-1.728-0.866-0.5-0.997 1.727c-0.735-0.468-1.424-1.020-2.056-1.651s-1.183-1.32-1.651-2.056l1.726-0.997-0.5-0.866-1.728 0.997c-0.814-1.552-1.278-3.273-1.351-5.064h1.989v-1h-1.989c0.073-1.791 0.537-3.512 1.351-5.064l1.727 0.997 0.5-0.866-1.726-0.997c0.468-0.735 1.020-1.424 1.651-2.055s1.321-1.183 2.056-1.652l0.997 1.726 0.866-0.5-0.997-1.728c1.553-0.815 3.274-1.279 5.064-1.351v1.989h1v-1.989c1.791 0.073 3.512 0.537 5.064 1.352l-0.997 1.727 0.866 0.5 0.997-1.726c0.735 0.468 1.424 1.020 2.055 1.651s1.183 1.32 1.651 2.055l-1.726 0.997 0.5 0.866 1.727-0.997c0.814 1.552 1.279 3.273 1.352 5.064h-1.989v1h1.989c-0.073 1.791-0.537 3.512-1.351 5.064l-1.727-0.997-0.5 0.866 1.726 0.997c-0.468 0.735-1.020 1.425-1.652 2.056z"></path>
<path fill="#000" d="M25 15.063h-7.233c-0.176-0.331-0.443-0.607-0.767-0.794v-4.268h-2v4.268c-0.598 0.346-1 0.992-1 1.732 0 1.105 0.895 2 2 2 0.714 0 1.34-0.375 1.694-0.938h7.306v-2z"></path>
</svg>
