<?xml version="1.0" encoding="utf-8"?>
<!-- Generated by IcoMoon.io -->
<!DOCTYPE svg PUBLIC "-//W3C//DTD SVG 1.1//EN" "http://www.w3.org/Graphics/SVG/1.1/DTD/svg11.dtd">
<svg version="1.1" xmlns="http://www.w3.org/2000/svg" xmlns:xlink="http://www.w3.org/1999/xlink" width="32" height="32" viewBox="0 0 32 32">
<path fill="#000" d="M27.344 24.163l-8.163-8.163 8.163-8.162c0.881-0.881 0.881-2.3 0-3.181s-2.3-0.881-3.181 0l-8.163 8.162-8.162-8.162c-0.881-0.881-2.3-0.881-3.181 0s-0.881 2.3 0 3.181l8.162 8.162-8.162 8.163c-0.881 0.881-0.881 2.3 0 3.181s2.3 0.881 3.181 0l8.162-8.163 8.163 8.163c0.881 0.881 2.3 0.881 3.181 0 0.875-0.881 0.875-2.306 0-3.181z"></path>
</svg>
