<?xml version="1.0" encoding="utf-8"?>
<!-- Generated by IcoMoon.io -->
<!DOCTYPE svg PUBLIC "-//W3C//DTD SVG 1.1//EN" "http://www.w3.org/Graphics/SVG/1.1/DTD/svg11.dtd">
<svg version="1.1" xmlns="http://www.w3.org/2000/svg" xmlns:xlink="http://www.w3.org/1999/xlink" width="32" height="32" viewBox="0 0 32 32">
<path fill="#000" d="M16 2.063c-7.731 0-14 6.269-14 14s6.269 14 14 14c7.731 0 14-6.269 14-14s-6.269-14-14-14zM22.769 20.781c0.094 0.094 0.144 0.219 0.144 0.35s-0.050 0.262-0.144 0.35l-1.35 1.356c-0.1 0.1-0.225 0.144-0.35 0.144s-0.256-0.050-0.35-0.144l-4.719-4.725-4.713 4.731c-0.094 0.1-0.225 0.144-0.35 0.144s-0.256-0.050-0.35-0.144l-1.35-1.356c-0.094-0.094-0.144-0.219-0.144-0.35s0.050-0.262 0.144-0.35l4.731-4.75-4.744-4.688c-0.194-0.194-0.194-0.512 0-0.706l1.35-1.356c0.094-0.094 0.219-0.144 0.35-0.144s0.256 0.050 0.35 0.144l4.731 4.669 4.731-4.669c0.094-0.094 0.219-0.144 0.35-0.144s0.256 0.050 0.35 0.144l1.35 1.356c0.194 0.194 0.194 0.512 0 0.706l-4.744 4.688 4.725 4.744z"></path>
</svg>
