<?xml version="1.0" encoding="utf-8"?>
<!-- Generated by IcoMoon.io -->
<!DOCTYPE svg PUBLIC "-//W3C//DTD SVG 1.1//EN" "http://www.w3.org/Graphics/SVG/1.1/DTD/svg11.dtd">
<svg version="1.1" xmlns="http://www.w3.org/2000/svg" xmlns:xlink="http://www.w3.org/1999/xlink" width="32" height="32" viewBox="0 0 32 32">
<path fill="#000" d="M27.725 24.194l-8.2-8.231 8.219-8.125c0.337-0.338 0.337-0.888 0-1.225l-2.337-2.35c-0.163-0.162-0.381-0.25-0.613-0.25s-0.45 0.094-0.613 0.25l-8.181 8.1-8.194-8.094c-0.162-0.162-0.381-0.25-0.612-0.25s-0.45 0.094-0.612 0.25l-2.331 2.35c-0.337 0.338-0.337 0.888 0 1.225l8.219 8.125-8.194 8.225c-0.162 0.163-0.256 0.381-0.256 0.613s0.088 0.45 0.256 0.613l2.338 2.35c0.169 0.169 0.388 0.256 0.612 0.256 0.219 0 0.444-0.081 0.612-0.256l8.162-8.2 8.169 8.194c0.169 0.169 0.387 0.256 0.613 0.256 0.219 0 0.444-0.081 0.613-0.256l2.337-2.35c0.163-0.163 0.256-0.381 0.256-0.613-0.006-0.225-0.1-0.444-0.262-0.606z"></path>
</svg>
