<?xml version="1.0" encoding="utf-8"?>
<!-- Generated by IcoMoon.io -->
<!DOCTYPE svg PUBLIC "-//W3C//DTD SVG 1.1//EN" "http://www.w3.org/Graphics/SVG/1.1/DTD/svg11.dtd">
<svg version="1.1" xmlns="http://www.w3.org/2000/svg" xmlns:xlink="http://www.w3.org/1999/xlink" width="32" height="32" viewBox="0 0 32 32">
<path fill="#000" d="M0 4v24h32v-24h-32zM29 15.989c0.003 1.67-0.097 2.946-0.237 5.014s-1.2 3.528-3.694 3.758c-2.494 0.229-5.983 0.247-9.069 0.239-3.063 0.008-6.575-0.010-9.068-0.239s-3.553-1.69-3.694-3.758-0.24-3.344-0.237-5.014c-0.003-1.67 0.006-2.758 0.237-5.014s1.438-3.517 3.694-3.746 5.683-0.229 8.612-0.229c0.152 0 0.331 0 0.456 0 0.152 0 0.304 0 0.456 0 2.929 0 6.356 0 8.612 0.229s3.463 1.49 3.694 3.746 0.24 3.344 0.237 5.014z"></path>
<path fill="#000" d="M23.25 17.74v0.048c0 1.165-0.724 1.848-1.688 1.848s-1.613-0.769-1.705-1.848c0 0-0.083-0.567-0.083-1.706s0.097-1.86 0.097-1.86c0.169-1.217 0.762-1.848 1.725-1.848 0.96 0 1.724 0.829 1.724 2.087 0.001 0.005 0.001 0.039 0.001 0.039h3.221c0-1.563-0.394-2.972-1.183-3.859s-1.963-1.33-3.523-1.33c-0.78 0-1.496 0.103-2.146 0.309s-1.211 0.566-1.682 1.081c-0.472 0.515-0.837 1.203-1.097 2.066s-0.39 1.951-0.39 3.265c0 1.282 0.105 2.355 0.317 3.218s0.524 1.552 0.939 2.066c0.415 0.515 0.935 0.871 1.56 1.069s1.361 0.297 2.206 0.297c1.788 0 3.068-0.454 3.84-1.332s1.158-2.162 1.158-3.85h-3.292c0 0 0 0.18 0 0.24z"></path>
<path fill="#000" d="M12.188 17.74v0.048c0 1.165-0.724 1.848-1.688 1.848s-1.613-0.769-1.705-1.848c0 0-0.083-0.567-0.083-1.706s0.097-1.86 0.097-1.86c0.169-1.217 0.762-1.848 1.725-1.848 0.96 0 1.724 0.829 1.724 2.087 0.001 0.005 0.001 0.039 0.001 0.039h3.221c0-1.563-0.394-2.972-1.183-3.859s-1.963-1.33-3.523-1.33c-0.78 0-1.496 0.103-2.146 0.309s-1.211 0.566-1.682 1.081c-0.472 0.515-0.837 1.203-1.097 2.066s-0.39 1.951-0.39 3.265c0 1.282 0.106 2.355 0.317 3.218s0.524 1.552 0.939 2.066c0.415 0.515 0.935 0.871 1.56 1.069s1.361 0.297 2.207 0.297c1.788 0 3.068-0.454 3.84-1.332s1.158-2.162 1.158-3.85h-3.292c0 0 0 0.18 0 0.24z"></path>
</svg>
