<?xml version="1.0" encoding="utf-8"?>
<!-- Generated by IcoMoon.io -->
<!DOCTYPE svg PUBLIC "-//W3C//DTD SVG 1.1//EN" "http://www.w3.org/Graphics/SVG/1.1/DTD/svg11.dtd">
<svg version="1.1" xmlns="http://www.w3.org/2000/svg" xmlns:xlink="http://www.w3.org/1999/xlink" width="32" height="32" viewBox="0 0 32 32">
<path fill="#000" d="M20.685 17.756c0.405-0.404 0.405-1.059 0-1.464s-1.084-0.404-1.489 0l-2.197 2.172v-7.428c0-0.572-0.427-1.035-1-1.035s-1 0.463-1 1.035v7.428l-2.188-2.172c-0.405-0.404-1.068-0.404-1.473 0s-0.409 1.060-0.004 1.464l3.942 3.939c0.001 0.001 0.002 0.002 0.003 0.004 0.045 0.045 0.095 0.085 0.148 0.122 0.006 0.004 0.012 0.008 0.019 0.012 0.020 0.013 0.041 0.025 0.062 0.037 0.007 0.004 0.014 0.008 0.022 0.012 0.026 0.014 0.053 0.026 0.081 0.038 0 0 0 0 0 0 0.025 0.010 0.051 0.019 0.077 0.028 0.007 0.002 0.014 0.005 0.021 0.007 0.009 0.003 0.019 0.005 0.029 0.007 0.089 0.024 0.18 0.037 0.27 0.037s0.181-0.013 0.27-0.037c0.010-0.003 0.020-0.004 0.029-0.007 0.007-0.002 0.014-0.005 0.021-0.007 0.026-0.008 0.052-0.017 0.077-0.028 0-0 0-0 0-0 0.028-0.011 0.054-0.024 0.081-0.038 0.008-0.004 0.015-0.008 0.023-0.012 0.021-0.012 0.041-0.023 0.061-0.036 0.007-0.004 0.014-0.009 0.020-0.013 0.026-0.017 0.050-0.035 0.074-0.055 0-0 0-0 0.001-0 0.025-0.021 0.049-0.043 0.073-0.066 0.002-0.001 0.003-0.003 0.005-0.004l3.944-3.939z"></path>
<path fill="#000" d="M10.5 24.5c-0.384 0-0.768-0.146-1.061-0.439l-7-7c-0.586-0.586-0.586-1.536 0-2.121l7-7c0.586-0.586 1.536-0.586 2.121 0s0.586 1.536 0 2.121l-5.939 5.939 5.939 5.939c0.586 0.586 0.586 1.535 0 2.121-0.293 0.293-0.677 0.439-1.061 0.439z"></path>
<path fill="#000" d="M21.5 24.5c0.384 0 0.768-0.146 1.061-0.439l7-7c0.586-0.586 0.586-1.536 0-2.121l-7-7c-0.586-0.586-1.535-0.586-2.121 0s-0.586 1.536 0 2.121l5.939 5.939-5.939 5.939c-0.586 0.586-0.586 1.535 0 2.121 0.293 0.293 0.677 0.439 1.061 0.439z"></path>
</svg>
