<?xml version="1.0" encoding="utf-8"?>
<!-- Generated by IcoMoon.io -->
<!DOCTYPE svg PUBLIC "-//W3C//DTD SVG 1.1//EN" "http://www.w3.org/Graphics/SVG/1.1/DTD/svg11.dtd">
<svg version="1.1" xmlns="http://www.w3.org/2000/svg" xmlns:xlink="http://www.w3.org/1999/xlink" width="32" height="32" viewBox="0 0 32 32">
<path fill="#000" d="M10.5 24.5c-0.384 0-0.768-0.146-1.061-0.439l-7-7c-0.586-0.586-0.586-1.536 0-2.121l7-7c0.586-0.586 1.536-0.586 2.121 0s0.586 1.536 0 2.121l-5.939 5.939 5.939 5.939c0.586 0.586 0.586 1.535 0 2.121-0.293 0.293-0.677 0.439-1.061 0.439z"></path>
<path fill="#000" d="M21.5 24.5c0.384 0 0.768-0.146 1.061-0.439l7-7c0.586-0.586 0.586-1.536 0-2.121l-7-7c-0.586-0.586-1.535-0.586-2.121 0s-0.586 1.536 0 2.121l5.939 5.939-5.939 5.939c-0.586 0.586-0.586 1.535 0 2.121 0.293 0.293 0.677 0.439 1.061 0.439z"></path>
</svg>
