<?xml version="1.0" encoding="utf-8"?>
<!-- Generated by IcoMoon.io -->
<!DOCTYPE svg PUBLIC "-//W3C//DTD SVG 1.1//EN" "http://www.w3.org/Graphics/SVG/1.1/DTD/svg11.dtd">
<svg version="1.1" xmlns="http://www.w3.org/2000/svg" xmlns:xlink="http://www.w3.org/1999/xlink" width="32" height="32" viewBox="0 0 32 32">
<path fill="#000" d="M23.944 16.087c0.038-0.338 0.056-0.625 0.056-0.863 0-1.225-0.206-1.231-1-1.231h-4.719c0.456-0.75 0.719-1.525 0.719-2.313 0-2.369-3.581-3.525-3.581-5.5 0-0.731 0.319-1.331 0.581-2.181-1.656 0.437-2.963 2.094-2.963 3.85 0 3.019 3.519 3.044 3.519 5.3 0 0.281-0.087 0.531-0.131 0.844h-3.494c0.050-0.188 0.081-0.387 0.081-0.581 0-1.425-2.444-2.119-2.444-3.3 0-0.438 0.063-0.8 0.2-1.313-0.806 0.319-1.769 1.25-1.769 2.3 0 1.669 1.994 1.831 2.3 2.894h-6.3c-0.794 0-1 0.006-1 1.231s0.481 3.831 1.769 6.938c1.287 3.106 2.775 4.475 3.825 5.387l0.006-0.012c0.319 0.288 0.738 0.456 1.2 0.456h6.4c0.462 0 0.881-0.169 1.2-0.456l0.006 0.012c0.563-0.488 1.25-1.113 1.962-2.056 0.294 0.125 0.613 0.231 0.962 0.313 0.525 0.125 1.050 0.188 1.55 0.188 1.5 0 2.85-0.575 3.8-1.613 0.837-0.913 1.319-2.15 1.319-3.387 0-2.431-1.75-4.462-4.056-4.906zM22.881 24.012c-0.538 0-0.975-0.075-1.381-0.262 0.25-0.5 0.494-0.994 0.731-1.569 0.631-1.525 1.069-2.938 1.35-4.113 1.375 0.269 2.419 1.488 2.419 2.944 0 1.419-1.075 3-3.119 3z"></path>
</svg>
