<?xml version="1.0" encoding="utf-8"?>
<!-- Generated by IcoMoon.io -->
<!DOCTYPE svg PUBLIC "-//W3C//DTD SVG 1.1//EN" "http://www.w3.org/Graphics/SVG/1.1/DTD/svg11.dtd">
<svg version="1.1" xmlns="http://www.w3.org/2000/svg" xmlns:xlink="http://www.w3.org/1999/xlink" width="32" height="32" viewBox="0 0 32 32">
<path fill="#000" d="M29.206 10.505c-0.113 0-0.22 0.021-0.317 0.060l-0.143 0.072-10.96 5.683c0 0-0.003 0.001-0.003 0.003-0.473 0.292-0.783 0.782-0.783 1.339v11.616c0 0.399 0.353 0.721 0.793 0.721 0.136 0 0.266-0.032 0.379-0.088 0.010-0.006 0.023-0.012 0.032-0.018l10.937-5.802c0.515-0.282 0.858-0.796 0.858-1.382v-11.487c0-0.397-0.356-0.719-0.794-0.719z"></path>
<path fill="#000" d="M28.392 7.408l-11.356-5.108c0 0-0.666-0.299-1.036-0.299s-1.033 0.299-1.033 0.299l-11.366 5.108c0 0-0.499 0.206-0.499 0.592 0 0.41 0.519 0.719 0.519 0.719l11.593 6.116c0.236 0.105 0.505 0.166 0.787 0.166 0.285 0 0.557-0.060 0.796-0.168l0.159-0.082 11.431-6.034c0 0 0.469-0.252 0.469-0.716 0-0.406-0.463-0.592-0.463-0.592z"></path>
<path fill="#000" d="M14.217 16.324l-0.249-0.128-10.857-5.63c-0.093-0.040-0.204-0.060-0.317-0.060-0.437 0-0.793 0.321-0.793 0.719v11.487c0 0.587 0.343 1.1 0.858 1.382l0.013 0.009 10.921 5.793c0.12 0.067 0.262 0.105 0.415 0.105 0.437 0 0.793-0.323 0.793-0.721v-11.616c-0-0.557-0.311-1.047-0.783-1.339z"></path>
</svg>
