<?xml version="1.0" encoding="utf-8"?>
<!-- Generated by IcoMoon.io -->
<!DOCTYPE svg PUBLIC "-//W3C//DTD SVG 1.1//EN" "http://www.w3.org/Graphics/SVG/1.1/DTD/svg11.dtd">
<svg version="1.1" xmlns="http://www.w3.org/2000/svg" xmlns:xlink="http://www.w3.org/1999/xlink" width="32" height="32" viewBox="0 0 32 32">
<path fill="#000" d="M16 9.931c-3.356 0-6.075 2.719-6.075 6.075s2.719 6.069 6.075 6.069c3.356 0 6.075-2.719 6.075-6.069 0-3.356-2.719-6.075-6.075-6.075zM16 18.719c-1.5 0-2.719-1.219-2.719-2.719s1.219-2.719 2.719-2.719c1.5 0 2.719 1.219 2.719 2.719s-1.219 2.719-2.719 2.719z"></path>
<path fill="#000" d="M16 2c-7.731 0-14 6.269-14 14s6.269 14 14 14 14-6.269 14-14c0-7.731-6.269-14-14-14zM16 23.675c-4.238 0-7.675-3.438-7.675-7.675s3.438-7.675 7.675-7.675c4.238 0 7.675 3.438 7.675 7.675s-3.438 7.675-7.675 7.675z"></path>
</svg>
