<?xml version="1.0" encoding="utf-8"?>
<!-- Generated by IcoMoon.io -->
<!DOCTYPE svg PUBLIC "-//W3C//DTD SVG 1.1//EN" "http://www.w3.org/Graphics/SVG/1.1/DTD/svg11.dtd">
<svg version="1.1" xmlns="http://www.w3.org/2000/svg" xmlns:xlink="http://www.w3.org/1999/xlink" width="32" height="32" viewBox="0 0 32 32">
<path fill="#000" d="M24.913 10.575c-0.056-0.137-0.125-0.269-0.219-0.381l-5.238-5.731c-0.119-0.131-0.262-0.225-0.419-0.306-0.181-0.094-0.381-0.131-0.594-0.131h-9.994c-0.775 0-1.419 0.662-1.419 1.494v20.95c0 0.837 0.644 1.556 1.419 1.556h15.194c0.775 0 1.387-0.719 1.387-1.556v-15.256c0-0.225-0.031-0.444-0.119-0.637zM10.031 11.162c0-0.094 0.113-0.131 0.213-0.131h4.425c0.1 0 0.175 0.037 0.175 0.131v0.675c0 0.088-0.069 0.194-0.175 0.194h-4.425c-0.1 0-0.213-0.106-0.213-0.194v-0.675zM10.031 19.163c0-0.094 0.113-0.131 0.213-0.131h7.638c0.1 0 0.15 0.038 0.15 0.131v0.675c0 0.087-0.044 0.194-0.15 0.194h-7.637c-0.1 0-0.213-0.106-0.213-0.194v-0.675zM20.031 23.837c0 0.087-0.044 0.194-0.15 0.194h-9.637c-0.1 0-0.213-0.106-0.213-0.194v-0.675c0-0.094 0.113-0.131 0.213-0.131h9.637c0.1 0 0.15 0.038 0.15 0.131v0.675zM22.031 15.838c0 0.088-0.044 0.194-0.15 0.194h-11.637c-0.1 0-0.213-0.106-0.213-0.194v-0.675c0-0.094 0.113-0.131 0.213-0.131h11.637c0.1 0 0.15 0.037 0.15 0.131v0.675zM19.1 11.094c-0.35 0-0.694-0.325-0.694-0.706v-4.125l4.45 4.831h-3.756z"></path>
</svg>
