<?xml version="1.0" encoding="utf-8"?>
<!-- Generated by IcoMoon.io -->
<!DOCTYPE svg PUBLIC "-//W3C//DTD SVG 1.1//EN" "http://www.w3.org/Graphics/SVG/1.1/DTD/svg11.dtd">
<svg version="1.1" xmlns="http://www.w3.org/2000/svg" xmlns:xlink="http://www.w3.org/1999/xlink" width="32" height="32" viewBox="0 0 32 32">
<path fill="#000" d="M24.956 10.556c-0.044-0.181-0.125-0.313-0.219-0.425l-5.231-5.731c-0.119-0.131-0.256-0.194-0.413-0.275-0.181-0.094-0.381-0.1-0.587-0.1h-9.994c-0.775 0-1.481 0.6-1.481 1.431v20.95c0 0.837 0.706 1.619 1.481 1.619h15.194c0.775 0 1.325-0.781 1.325-1.619v-15.256c0-0.225-0.025-0.387-0.075-0.594zM19.094 6.938l3.625 3.969h-3.625v-3.969zM9.031 26.031v-20h8.063v5.106c0 0.925 0.837 1.769 1.756 1.769h4.181v13.125h-14z"></path>
</svg>
