<?xml version="1.0" encoding="utf-8"?>
<!-- Generated by IcoMoon.io -->
<!DOCTYPE svg PUBLIC "-//W3C//DTD SVG 1.1//EN" "http://www.w3.org/Graphics/SVG/1.1/DTD/svg11.dtd">
<svg version="1.1" xmlns="http://www.w3.org/2000/svg" xmlns:xlink="http://www.w3.org/1999/xlink" width="32" height="32" viewBox="0 0 32 32">
<path fill="#000" d="M22.33 7.845c-0.138-0.249-0.594-0.74-0.874-0.833-0.374-0.058-0.15 0.276-0.15 0.419-0.096 0.072-0.246 0.153-0.319 0.25-0.044 0.037 0.107 0.381 0.396 0.271s0.123 0.112 0.323 0.554 0.6 0.45 0.781 0.317c0.228-0.169-0.031-0.751-0.157-0.978z"></path>
<path fill="#000" d="M23.488 10.662c-0 0-0 0.001-0 0.001s0 0.001 0-0.001z"></path>
<path fill="#000" d="M27.163 12.319c0.025 0-0.113-0.025 0 0v0z"></path>
<path fill="#000" d="M16 2c-7.731 0-14 6.269-14 14s6.269 14 14 14c7.731 0 14-6.269 14-14s-6.269-14-14-14zM10.837 26.839c-0.345-0.196-0.586-0.473-0.685-0.996-0.247-1.3-0.019-2.004 1.123-2.765 0.538-0.358 0.626-0.792 1.056-1.222 0.105-0.134 0.388-0.648 0.575-0.675 0.227-0.049 0.857-0.158 0.981-0.406 0.237-0.322 0.758-1.712 0.988-1.85 0.375-0.245 0.901-0.997 0.519-1.444-0.439-0.54-1.050-0.548-1.619-0.831-0.501-0.25-0.723-1.393-1.106-1.788-0.745-0.758-1.875-1.2-2.813-1.669-0.507-0.203-0.459-0.266-0.856 0.131-0.51 0.51-1.256-0.129-1.331-0.656-0.006-0.175-0.206-1.139-0.088-1.213 1.122-0.702-0.521-0.54-0.656-0.863-0.335-0.937 0.813-1.679 1.587-1.756 0.868-0.109 1.049 1.368 1.381 1.244 0.16-0.080 0.16-0.775 0.181-0.925 0.079-0.502 0.224-0.58 0.713-0.761 0.569-0.211 1.004-0.476 1.606-0.577 0.688-0.2 1.27-0.096 1.8-0.537 0.243-0.182 0.419 0.099 0.65 0.15 0.5 0.1 0.606-0.694 0.606-0.994-0.002-0.292 0.079-0.539-0.294-0.85-0.488-0.379-1.189-0.054-1.581 0.338-0.473 0.44-1.022 0.409-0.863-0.35 0.040-0.277 0.638-0.599 0.875-0.75 0.231-0.139 0.369 0.158 0.65 0.088 0.411-0.091 0.565 0.296 1.050 0.3 0.202-0.046 0.925-0.43 0.538-1.21 0.058-0.001 0.116-0.002 0.174-0.002 0.116 0 0.232 0.002 0.347 0.005 0.175 0.555-0.373 1.028-0.097 1.726 0.549 1.342 1 0.188 1.544-0.438 0.178-0.178 0.29-0.138 0.581-0.194 0.181-0.030 0.441-0.579 0.525-0.749 1.254 0.31 2.445 0.82 3.535 1.516-0.465 0.050-0.584-0.087-0.577 0.461 0.003 0.207 0.019 0.832 0.33 0.884 0.517 0.061 0.424 0.427 0.909 0.491 0.465 0.061 0.176 0.472 0.366 0.878 0.212 0.639-1.238 0.831-1.519 0.925-0.852 0.285 0.396 1.526 0.95 1.394 0.176-0.044 0.763-0.119 0.804-0.317-0.001-0.020-0.115-0.688-0.054-0.765 0.096-0.121 0.32-0.184 0.674 0.016 0.836 0.473 1.259 1.606 2.244 1.831 0.134 0.031 0.366-0.009 0.531 0.127 0.139 0.188 0.495 0.526 0.071 0.526-0.564-0.125-0.861 0.054-1.325-0.305-0.483-0.374-0.784-0.681-1.422-0.692-0.549-0.010-1.043-0.239-1.609-0.147-0.316 0.051-0.627 0.176-0.932 0.269-0.289 0.096-0.344 0.61-0.637 0.669-1.217 0.286-0.954 1.448-1.173 2.37-0.084 0.354-0.377 1.313-0.058 1.63 0.57 0.553 1.236 1.315 2.073 1.435 0.45 0.065 1.435-0.286 1.739 0.171 0.129 0.256 0.465-0.189 0.556 0.038 0.229 0.687-0.266 1.137-0.271 1.784-0.007 0.95 0.574 1.286-0.204 2.134-0.853 0.85-0.271 1.924-0.744 2.938-0.253 0.521-0.3 1.243-0.68 1.486-0.833 0.533-1.731 0.962-2.67 1.274-1.664 0.552-3.447 0.73-5.189 0.529-0.914-0.105-1.815-0.316-2.68-0.629-0.236-0.085-0.455-0.157-0.655-0.232-0.15-0.064-0.299-0.131-0.447-0.201zM8.231 25.146c-0.029-0.025-0.058-0.050-0.087-0.075-0.215-0.187-0.425-0.382-0.629-0.586-0.212-0.212-0.415-0.43-0.608-0.654-0.002-0.003-0.004-0.005-0.007-0.008-0.040-0.046-0.079-0.093-0.118-0.14-3.23-3.904-3.704-9.62-0.995-13.989 0.38 0.38-0.256 1.127 0.469 1.625 0.32 0.225 0.626 0.135 0.563 0.55-0.062 0.403 0.335 0.396 0.394 0.75 0.178 0.777 1.2 1.165 0.619 2.037-0.57 0.789-1.062 1.671-0.631 2.675 0.141 0.366 0.495 0.741 0.764 1.015 0.488 0.498 0.461 0.199 0.461 0.828-0.010 0.273 0.329 0.556 0.294 0.731-0.063 0.501-0.181 0.996-0.244 1.494-0.112 1.79-0.008 3.541 1.331 4.881-0.498-0.3-0.977-0.641-1.435-1.018-0.047-0.039-0.093-0.078-0.139-0.118z"></path>
</svg>
