<?xml version="1.0" encoding="utf-8"?>
<!-- Generated by IcoMoon.io -->
<!DOCTYPE svg PUBLIC "-//W3C//DTD SVG 1.1//EN" "http://www.w3.org/Graphics/SVG/1.1/DTD/svg11.dtd">
<svg version="1.1" xmlns="http://www.w3.org/2000/svg" xmlns:xlink="http://www.w3.org/1999/xlink" width="32" height="32" viewBox="0 0 32 32">
<path fill="#000" d="M5 9h22v12h-22v-12z"></path>
<path fill="#000" d="M29 6h-26c-0.552 0-1 0.448-1 1v16c0 0.552 0.433 1 0.986 1h26.014c0.552 0 1-0.448 1-1v-16c0-0.552-0.448-1-1-1zM28 22h-24v-14h24v14z"></path>
<path fill="#000" d="M5 30h2l1.759-5h-1.957z"></path>
<path fill="#000" d="M16.927 2h-1.835l-1.081 3h3.995z"></path>
<path fill="#000" d="M23.241 25l1.759 5h2l-1.799-5z"></path>
<path fill="#000" d="M15 25h2v3h-2v-3z"></path>
</svg>
