<?xml version="1.0" encoding="utf-8"?>
<!-- Generated by IcoMoon.io -->
<!DOCTYPE svg PUBLIC "-//W3C//DTD SVG 1.1//EN" "http://www.w3.org/Graphics/SVG/1.1/DTD/svg11.dtd">
<svg version="1.1" xmlns="http://www.w3.org/2000/svg" xmlns:xlink="http://www.w3.org/1999/xlink" width="32" height="32" viewBox="0 0 32 32">
<path fill="#000" d="M24.938 20v0c0.625 0 1.050-0.444 1.050-0.994 0-0.206-0.069-0.381-0.175-0.563l-8.606-11.9c-0.288-0.331-0.719-0.544-1.206-0.544-0.481 0-0.912 0.213-1.2 0.544l-8.625 11.925c-0.106 0.163-0.162 0.344-0.162 0.544 0 0.544 0.425 0.988 1.050 0.988v0h17.875z"></path>
<path fill="#000" d="M25.231 22h-18.456c-0.425 0-0.775 0.337-0.775 0.762v2.475c0 0.419 0.344 0.762 0.775 0.762h18.456c0.425 0 0.769-0.344 0.769-0.762v-2.475c0-0.425-0.344-0.762-0.769-0.762z"></path>
</svg>
