<?xml version="1.0" encoding="utf-8"?>
<!-- Generated by IcoMoon.io -->
<!DOCTYPE svg PUBLIC "-//W3C//DTD SVG 1.1//EN" "http://www.w3.org/Graphics/SVG/1.1/DTD/svg11.dtd">
<svg version="1.1" xmlns="http://www.w3.org/2000/svg" xmlns:xlink="http://www.w3.org/1999/xlink" width="32" height="32" viewBox="0 0 32 32">
<path fill="#000" d="M31 10c0 2.209-1.791 4-4 4s-4-1.791-4-4c0-2.209 1.791-4 4-4s4 1.791 4 4z"></path>
<path fill="#000" d="M14.063 10h-11.95c-0.694 0-0.869 0.188-0.706 0.656 0.094 0.275 0.525 0.506 0.781 0.637 0.688 0.363 10.237 5.569 10.594 5.756s0.719 0.275 1.281 0.275 0.925-0.087 1.281-0.275c0.237-0.125 4.539-2.469 7.597-4.132-0.592-0.821-0.941-1.829-0.941-2.918h-7.938z"></path>
<path fill="#000" d="M18.325 17.081l5.138 5.781c0.125 0.125 0.181 0.275 0.112 0.35-0.075 0.069-0.237 0.031-0.369-0.087l-6.163-5.2c-0.931 0.6-1.588 1.012-1.7 1.075-0.481 0.244-0.819 0.275-1.281 0.275s-0.8-0.031-1.281-0.275c-0.119-0.063-0.769-0.475-1.7-1.075l-6.162 5.2c-0.125 0.125-0.294 0.163-0.369 0.087-0.075-0.069-0.019-0.225 0.106-0.35l5.131-5.781c-3.044-1.969-7.694-5.244-8.206-5.506-0.55-0.281-0.581 0.050-0.581 0.306s0 12.813 0 12.813c0 0.581 0.856 1.306 1.469 1.306h23.188c0.612 0 1.344-0.731 1.344-1.306 0 0 0-5.9 0-9.694-1.358 0-2.588-0.542-3.489-1.421-1.625 1.119-3.613 2.485-5.186 3.502z"></path>
</svg>
