<?xml version="1.0" encoding="utf-8"?>
<!-- Generated by IcoMoon.io -->
<!DOCTYPE svg PUBLIC "-//W3C//DTD SVG 1.1//EN" "http://www.w3.org/Graphics/SVG/1.1/DTD/svg11.dtd">
<svg version="1.1" xmlns="http://www.w3.org/2000/svg" xmlns:xlink="http://www.w3.org/1999/xlink" width="32" height="32" viewBox="0 0 32 32">
<path fill="#000" d="M4.188 9.294c0.688 0.363 10.238 5.569 10.594 5.756s0.719 0.275 1.281 0.275c0.563 0 0.925-0.088 1.281-0.275s9.906-5.394 10.594-5.756c0.256-0.131 0.688-0.369 0.781-0.637 0.163-0.475-0.012-0.656-0.706-0.656h-23.9c-0.694 0-0.869 0.188-0.706 0.656 0.094 0.275 0.525 0.506 0.781 0.637z"></path>
<path fill="#000" d="M28.481 9.575c-0.512 0.262-5.113 3.537-8.156 5.506l5.137 5.781c0.125 0.125 0.181 0.275 0.113 0.35-0.075 0.069-0.238 0.031-0.369-0.087l-6.162-5.2c-0.931 0.6-1.587 1.012-1.7 1.075-0.481 0.244-0.819 0.275-1.281 0.275s-0.8-0.031-1.281-0.275c-0.119-0.063-0.769-0.475-1.7-1.075l-6.162 5.2c-0.125 0.125-0.294 0.163-0.369 0.087-0.075-0.069-0.019-0.225 0.106-0.35l5.131-5.781c-3.044-1.969-7.694-5.244-8.206-5.506-0.55-0.281-0.581 0.050-0.581 0.306s0 12.813 0 12.813c0 0.581 0.856 1.306 1.469 1.306h23.188c0.613 0 1.344-0.731 1.344-1.306 0 0 0-12.563 0-12.813 0-0.262 0.038-0.588-0.519-0.306z"></path>
</svg>
