<?xml version="1.0" encoding="utf-8"?>
<!-- Generated by IcoMoon.io -->
<!DOCTYPE svg PUBLIC "-//W3C//DTD SVG 1.1//EN" "http://www.w3.org/Graphics/SVG/1.1/DTD/svg11.dtd">
<svg version="1.1" xmlns="http://www.w3.org/2000/svg" xmlns:xlink="http://www.w3.org/1999/xlink" width="32" height="32" viewBox="0 0 32 32">
<path fill="#000" d="M27.869 26.694l-7.369-12.45v-9.369c0-0.481-0.406-0.875-0.906-0.875s-0.906 0.388-0.906 0.875v9.6c0 0.113 0.038 0.225 0.081 0.331-0.475-0.694-1.288-1.15-2.212-1.15-1.469 0-2.656 1.144-2.656 2.562 0 1.050 0.656 1.969 1.588 2.344h-4.5l2.188-3.656c0.075-0.131 0.131-0.281 0.131-0.431v-1.9c0.25 0.2 0.625 0.319 1.006 0.319 0.956 0 1.719-0.744 1.719-1.662s-0.762-1.662-1.719-1.662c-0.381 0-0.756 0.119-1.006 0.319v-5.013c0-0.481-0.406-0.875-0.906-0.875s-0.906 0.388-0.906 0.875v9.369l-7.362 12.45c-0.156 0.269-0.163 0.6 0 0.869s0.45 0.438 0.775 0.438h22.188c0.319 0 0.613-0.163 0.775-0.438 0.163-0.262 0.156-0.6 0-0.869zM17.637 18.563c0.931-0.375 1.587-1.3 1.587-2.344 0-0.356-0.075-0.7-0.212-1.006l1.938 3.35h-3.313z"></path>
<path fill="#000" d="M16.569 8.037c0.75 0 1.356-0.588 1.356-1.306 0-0.725-0.606-1.306-1.356-1.306s-1.356 0.588-1.356 1.306c-0.006 0.719 0.606 1.306 1.356 1.306z"></path>
</svg>
