<?xml version="1.0" encoding="utf-8"?>
<!-- Generated by IcoMoon.io -->
<!DOCTYPE svg PUBLIC "-//W3C//DTD SVG 1.1//EN" "http://www.w3.org/Graphics/SVG/1.1/DTD/svg11.dtd">
<svg version="1.1" xmlns="http://www.w3.org/2000/svg" xmlns:xlink="http://www.w3.org/1999/xlink" width="32" height="32" viewBox="0 0 32 32">
<path fill="#000" d="M27.426 24.731l-6.269-9.344c-0.8-1.269-1.188-2.775-1.188-4.387 0 0 0-4.594 0-5.813s0.787-2.078 0.938-2.63c0.143-0.524 0.032-0.526-0.949-0.526h-7.925c-1 0-1.159 0.001-1.019 0.526 0.151 0.568 0.955 1.462 0.955 2.662s0 5.781 0 5.781c0 1.613-0.455 3.113-1.255 4.387l-3.080 4.781-3.069 4.556c-0.362 0.563-0.566 1.294-0.566 2.012 0 1.75 1.022 3.294 3.953 3.294h16.099c2.937 0 3.95-1.544 3.95-3.294-0.006-0.719-0.213-1.444-0.575-2.006zM25.576 27.563c-0.275 0.262-0.725 0.469-1.531 0.469h-16.099c-0.8 0-1.3-0.219-1.575-0.481-0.169-0.163-0.375-0.441-0.375-0.834 0-0.313 0.088-0.633 0.244-0.883l6.19-9.399c0.981-1.575 1.54-3.452 1.54-5.433v-6.969h4v6.963c0 1.95 0.485 3.831 1.491 5.438l6.283 9.375c0.156 0.25 0.248 0.578 0.248 0.891-0 0.4-0.246 0.703-0.415 0.866z"></path>
<path fill="#000" d="M24.326 25.706c0.003 0.005 0.006 0.025 0 0.016l-5.117-7.691h-6.478l-5.067 7.697c-0.094 0.131-0.144 0.323-0.144 0.498 0 0.469 0.393 0.867 0.855 0.867h15.25c0.469 0 0.85-0.42 0.85-0.883-0-0.156-0.069-0.38-0.15-0.505zM18.876 21.356c-0.094-0.094-0.144-0.225-0.144-0.356s0.056-0.262 0.144-0.356c0.094-0.094 0.225-0.144 0.35-0.144 0.131 0 0.262 0.050 0.35 0.144 0.094 0.094 0.144 0.225 0.144 0.356s-0.056 0.262-0.144 0.356c-0.094 0.094-0.219 0.144-0.35 0.144-0.125 0-0.256-0.056-0.35-0.144zM21.808 25.044c-0.087 0.056-0.181 0.081-0.269 0.081-0.156 0-0.319-0.081-0.412-0.225l-1.469-2.244c-0.15-0.231-0.087-0.544 0.144-0.694 0.087-0.056 0.181-0.081 0.275-0.081 0.163 0 0.319 0.081 0.406 0.225l1.469 2.244c0.15 0.231 0.087 0.544-0.144 0.694z"></path>
</svg>
