<?xml version="1.0" encoding="utf-8"?>
<!-- Generated by IcoMoon.io -->
<!DOCTYPE svg PUBLIC "-//W3C//DTD SVG 1.1//EN" "http://www.w3.org/Graphics/SVG/1.1/DTD/svg11.dtd">
<svg version="1.1" xmlns="http://www.w3.org/2000/svg" xmlns:xlink="http://www.w3.org/1999/xlink" width="32" height="32" viewBox="0 0 32 32">
<path fill="#000" d="M23.525 9.894l4.475-4.481-1.413-1.413-4.85 4.85c-1.738-0.869-3.644-1.412-5.738-1.412-5.119 0-9.106 3.262-14 8.563 2.175 2.337 4.175 4.544 6.456 6.131l-4.456 4.456 1.413 1.413 4.806-4.806c1.688 0.856 3.563 1.369 5.781 1.369 6.244 0 10.838-5.113 14-8.469-1.75-2.131-3.9-4.488-6.475-6.2zM10.4 16c0-3.15 2.513-5.706 5.6-5.706 1.206 0 2.325 0.387 3.238 1.056l-3.169 3.169c-0.044-0.162-0.069-0.338-0.069-0.519 0-0.494 0.181-0.944 0.475-1.294-0.156-0.025-0.313-0.037-0.475-0.037-1.8 0-3.269 1.494-3.269 3.331 0 0.538 0.125 1.050 0.35 1.5l-1.706 1.712c-0.613-0.919-0.975-2.025-0.975-3.213zM16 21.706c-1.206 0-2.325-0.387-3.238-1.056l1.713-1.712c0.456 0.25 0.975 0.387 1.525 0.387 1.8 0 3.269-1.494 3.269-3.331 0-0.144-0.012-0.287-0.025-0.431-0.344 0.269-0.769 0.431-1.238 0.431-0.181 0-0.35-0.025-0.519-0.069l3.144-3.144c0.613 0.912 0.975 2.019 0.975 3.213-0.006 3.156-2.519 5.713-5.606 5.713z"></path>
</svg>
