<?xml version="1.0" encoding="utf-8"?>
<!-- Generated by IcoMoon.io -->
<!DOCTYPE svg PUBLIC "-//W3C//DTD SVG 1.1//EN" "http://www.w3.org/Graphics/SVG/1.1/DTD/svg11.dtd">
<svg version="1.1" xmlns="http://www.w3.org/2000/svg" xmlns:xlink="http://www.w3.org/1999/xlink" width="32" height="32" viewBox="0 0 32 32">
<path fill="#000" d="M16 8c-5.119 0-9.106 3.050-14 8 4.213 4.231 7.75 8 14 8 6.244 0 10.837-4.775 14-7.913-3.238-3.675-7.825-8.088-14-8.088zM16 21.706c-3.088 0-5.6-2.563-5.6-5.706 0-3.15 2.513-5.706 5.6-5.706s5.6 2.563 5.6 5.706c0 3.15-2.512 5.706-5.6 5.706z"></path>
<path fill="#000" d="M16 14c0-0.494 0.181-0.944 0.475-1.294-0.156-0.025-0.313-0.037-0.475-0.037-1.8 0-3.269 1.494-3.269 3.331s1.469 3.331 3.269 3.331 3.269-1.494 3.269-3.331c0-0.144-0.012-0.287-0.025-0.431-0.344 0.269-0.769 0.431-1.238 0.431-1.113 0-2.006-0.894-2.006-2z"></path>
</svg>
