<?xml version="1.0" encoding="utf-8"?>
<!-- Generated by IcoMoon.io -->
<!DOCTYPE svg PUBLIC "-//W3C//DTD SVG 1.1//EN" "http://www.w3.org/Graphics/SVG/1.1/DTD/svg11.dtd">
<svg version="1.1" xmlns="http://www.w3.org/2000/svg" xmlns:xlink="http://www.w3.org/1999/xlink" width="32" height="32" viewBox="0 0 32 32">
<path fill="#000" d="M23.813 8.037h-15.556c-0.756 0-1.219 0-1.219 1.275v1.756h18v-1.756c0-1.275-0.462-1.275-1.225-1.275z"></path>
<path fill="#000" d="M20.813 6.031h-9.563c-0.819 0-1.219 0.019-1.219 1.169h12c-0.006-1.15-0.4-1.169-1.219-1.169z"></path>
<path fill="#000" d="M27.025 10.6l-0.994-0.588v2.019h-20.063v-2.019l-0.95 0.588c-0.894 0.556-1.112 0.956-0.938 2.556l1.094 11.55c0.231 1.294 0.994 1.325 1.5 1.325h18.744c0.506 0 1.262-0.031 1.494-1.325l1.075-11.525c0.144-1.525-0.125-2.050-0.962-2.581z"></path>
</svg>
