<?xml version="1.0" encoding="utf-8"?>
<!-- Generated by IcoMoon.io -->
<!DOCTYPE svg PUBLIC "-//W3C//DTD SVG 1.1//EN" "http://www.w3.org/Graphics/SVG/1.1/DTD/svg11.dtd">
<svg version="1.1" xmlns="http://www.w3.org/2000/svg" xmlns:xlink="http://www.w3.org/1999/xlink" width="32" height="32" viewBox="0 0 32 32">
<path fill="#000" d="M28.025 13h-21.5l21.325-4.25c0.531-0.1 0.875-0.606 0.775-1.131l-0.556-2.838c-0.1-0.525-0.613-0.862-1.144-0.763l-23.131 4.6c-0.531 0.1-0.875 0.606-0.775 1.125l0.556 2.838c0.038 0.175 0.131 0.325 0.244 0.45-0.462 0.075-0.819 0.45-0.819 0.931v13.075c0 0.531 0.438 0.962 0.975 0.962h24.050c0.538 0 0.975-0.431 0.975-0.962v-13.075c0-0.531-0.438-0.963-0.975-0.963zM19.063 25.15l-3.169-2.269-3.169 2.269 1.219-3.65-3.175-2.25h3.919l1.2-3.65 1.206 3.65h3.919l-3.175 2.25 1.225 3.65z"></path>
</svg>
