<?xml version="1.0" encoding="utf-8"?>
<!-- Generated by IcoMoon.io -->
<!DOCTYPE svg PUBLIC "-//W3C//DTD SVG 1.1//EN" "http://www.w3.org/Graphics/SVG/1.1/DTD/svg11.dtd">
<svg version="1.1" xmlns="http://www.w3.org/2000/svg" xmlns:xlink="http://www.w3.org/1999/xlink" width="32" height="32" viewBox="0 0 32 32">
<path fill="#000" d="M24.579 14.88l-0.014 0.65c-0.051 0.728-0.237 1.995-0.881 3.421 0.203-0.951 0.311-1.936 0.311-2.948 0-0.756-0.060-1.498-0.175-2.221-0.943-5.931-5.602-10.62-11.509-11.595-0.704-0.17-1.12-0.188-1.12-0.188 0.015 0.018 0.029 0.035 0.044 0.053 2.466 2.949 2.756 6.041 2.359 8.241-0.143 0.789-0.374 1.464-0.624 1.975 0 0 0.21-0.869 0.19-1.857-0.018-0.89-0.223-1.875-0.937-2.409 0.219 1.149-0.047 2.094-0.57 2.983-1.546 2.628-5.339 4.602-5.652 9.478v0.24c0 3.356 1.601 6.186 4.295 7.813-0.428-0.771-0.935-2.2-0.546-3.759 0.25 1.479 0.622 2.253 1.305 3.235 0.51 0.733 1.194 1.204 2.068 1.558s1.815 0.45 2.871 0.45c3.488 0 6.577-1.785 8.365-4.497l0.017 0.004v-0c1-1.578 1.631-3.469 1.631-5.501-0-1.873-0.532-3.626-1.427-5.125z"></path>
</svg>
