<?xml version="1.0" encoding="utf-8"?>
<!-- Generated by IcoMoon.io -->
<!DOCTYPE svg PUBLIC "-//W3C//DTD SVG 1.1//EN" "http://www.w3.org/Graphics/SVG/1.1/DTD/svg11.dtd">
<svg version="1.1" xmlns="http://www.w3.org/2000/svg" xmlns:xlink="http://www.w3.org/1999/xlink" width="32" height="32" viewBox="0 0 32 32">
<path fill="#000" d="M26.65 11.406c-2.238 0.369-5.887 0.469-8.313-4.131-2.6-4.944-6.8-5.094-9.256-4.644-1.194 0.219-2.088 1.219-2.088 2.188v12.287c0.706 0.269 1.463-0.012 1.656-0.050 0.050-0.012 0.094-0.019 0.15-0.031 1.563-0.344 3.213-0.506 7.3 1.456 5.125 2.456 9.613-2.069 11.35-5.219 0.125-0.219 0.544-1.262 0.544-2.262-0.606 0.25-1.344 0.406-1.344 0.406z"></path>
<path fill="#000" d="M5.5 2h-1c-0.275 0-0.5 0.225-0.5 0.5v27c0 0.275 0.225 0.5 0.5 0.5h1c0.275 0 0.5-0.225 0.5-0.5v-27c0-0.275-0.225-0.5-0.5-0.5z"></path>
</svg>
