<?xml version="1.0" encoding="utf-8"?>
<!-- Generated by IcoMoon.io -->
<!DOCTYPE svg PUBLIC "-//W3C//DTD SVG 1.1//EN" "http://www.w3.org/Graphics/SVG/1.1/DTD/svg11.dtd">
<svg version="1.1" xmlns="http://www.w3.org/2000/svg" xmlns:xlink="http://www.w3.org/1999/xlink" width="32" height="32" viewBox="0 0 32 32">
<path fill="#000" d="M9.213 28.244c0.025 0.012 0.044 0.031 0.069 0.044 0.681 0.375 1.406 0.669 2.15 0.925 0.113 0.038 0.225 0.075 0.338 0.113 1.338 0.425 2.75 0.681 4.231 0.681 7.731 0 14-6.269 14-14 0-5.269-2.913-9.856-7.219-12.244-0.025-0.013-0.044-0.025-0.063-0.038-0.681-0.375-1.406-0.669-2.15-0.925-0.113-0.038-0.225-0.075-0.337-0.112-1.337-0.431-2.756-0.688-4.231-0.688-7.731 0-14 6.269-14 14 0 5.269 2.912 9.85 7.213 12.244zM7.388 9.787l3.4 3.4 2.269-2.531-3.275-3.275c1.75-1.263 3.881-2.037 6.213-2.037 0.581 0 1.144 0.056 1.7 0.15 0.613 0.1 1.206 0.256 1.781 0.456 0.113 0.037 0.231 0.075 0.35 0.119 0.387 0.15 0.762 0.313 1.125 0.506 3.387 1.781 5.7 5.331 5.7 9.425 0 2.325-0.775 4.456-2.044 6.212l-3.4-3.4-2.269 2.525 3.275 3.275c-1.75 1.269-3.887 2.044-6.213 2.044-0.581 0-1.15-0.056-1.7-0.15-0.613-0.1-1.206-0.256-1.781-0.456-0.119-0.038-0.238-0.075-0.35-0.119-0.406-0.156-0.806-0.331-1.188-0.538-3.35-1.794-5.631-5.325-5.631-9.394 0-2.325 0.775-4.456 2.037-6.213z"></path>
<path fill="#000" d="M13.106 24.363l8.7-9.675h-5.331l2.413-7.050-8.694 9.675h5.331z"></path>
</svg>
