<?xml version="1.0" encoding="utf-8"?>
<!-- Generated by IcoMoon.io -->
<!DOCTYPE svg PUBLIC "-//W3C//DTD SVG 1.1//EN" "http://www.w3.org/Graphics/SVG/1.1/DTD/svg11.dtd">
<svg version="1.1" xmlns="http://www.w3.org/2000/svg" xmlns:xlink="http://www.w3.org/1999/xlink" width="32" height="32" viewBox="0 0 32 32">
<path fill="#000" d="M26.881 12h-21.762c-1.106 0-1.163 0.575-1.1 1.281l0.813 11.438c0.056 0.7 0.219 1.281 1.319 1.281h19.762c1.125 0 1.256-0.575 1.319-1.281l0.756-11.581c0.056-0.7 0-1.137-1.106-1.137z"></path>
<path fill="#000" d="M26.637 8.956c-0.031-0.775-0.281-0.956-0.944-0.956 0 0-7.588 0-8.95 0s-1.525 0.019-2.556-1.088c-0.856-0.925-0.519-0.912-2.287-0.912-1.412 0-4.706 0-4.706 0-1.087 0-1.475-0.094-1.575 1.037-0.094 1.044-0.313 3.575-0.344 3.963h21.462l-0.1-2.044z"></path>
</svg>
