<?xml version="1.0" encoding="utf-8"?>
<!-- Generated by IcoMoon.io -->
<!DOCTYPE svg PUBLIC "-//W3C//DTD SVG 1.1//EN" "http://www.w3.org/Graphics/SVG/1.1/DTD/svg11.dtd">
<svg version="1.1" xmlns="http://www.w3.org/2000/svg" xmlns:xlink="http://www.w3.org/1999/xlink" width="32" height="32" viewBox="0 0 32 32">
<path fill="#000" d="M16.887 9.306c0 0.006-0.006 0.006 0 0v0z"></path>
<path fill="#000" d="M20 10.375c0-2.7-0.938-5.825-1.5-8.356v-0.019h-0.5l-0.012 7.306c0 0.381-0.181 0.694-0.563 0.694-0.356 0-0.5-0.269-0.538-0.619-0.006-0.025 0-0.050 0-0.075l-0.644-7.306h-0.5l-0.563 7.313-0.006 0.069c-0.037 0.35-0.231 0.619-0.594 0.619-0.381 0-0.569-0.313-0.569-0.694l-0.025-7.306h-0.5c-0.55 2.563-1.488 5.681-1.488 8.381 0 1.606 0.912 3.006 2.294 3.637 0.7 0.319 0.706 0.644 0.706 0.644s-1 12.606-1 13.319c0 0.712 0.25 1.156 0.594 1.5s0.887 0.512 1.4 0.512c0.006 0 0.006 0 0.013 0s0.006 0 0.012 0c0.512 0 1.050-0.169 1.4-0.512 0.344-0.344 0.581-0.681 0.581-1.5s-1-13.319-1-13.319-0.063-0.313 0.712-0.662c1.35-0.613 2.288-2.012 2.288-3.625z"></path>
</svg>
