<?xml version="1.0" encoding="utf-8"?>
<!-- Generated by IcoMoon.io -->
<!DOCTYPE svg PUBLIC "-//W3C//DTD SVG 1.1//EN" "http://www.w3.org/Graphics/SVG/1.1/DTD/svg11.dtd">
<svg version="1.1" xmlns="http://www.w3.org/2000/svg" xmlns:xlink="http://www.w3.org/1999/xlink" width="32" height="32" viewBox="0 0 32 32">
<path fill="#000" d="M26 5h-3v-3h-4v3h-3v4h3v3h4v-3h3z"></path>
<path fill="#000" d="M19 15c0 2.413-0.281 2.644-0.9 3.144-0.462 0.375-1.387 0.444-2.463 0.519-0.594 0.044-1.275 0.094-1.963 0.206-0.588 0.094-1.15 0.294-1.675 0.55v-9.956c1.194-0.694 2-1.981 2-3.463 0-2.206-1.794-4-4-4s-4 1.794-4 4c0 1.481 0.806 2.769 2 3.463v13.075c-1.194 0.694-2 1.981-2 3.462 0 2.206 1.794 4 4 4s4-1.794 4-4c0-0.981-0.356-1.881-0.938-2.575 0.419-0.3 0.869-0.544 1.262-0.606 0.506-0.081 1.037-0.119 1.6-0.163 1.525-0.106 3.256-0.231 4.7-1.406 1.931-1.569 2.344-3.256 2.375-5.931v0-0.319h-4zM10 4c1.1 0 2 0.9 2 2s-0.9 2-2 2-2-0.9-2-2 0.9-2 2-2zM10 28c-1.1 0-2-0.9-2-2s0.9-2 2-2 2 0.9 2 2-0.9 2-2 2z"></path>
</svg>
