<?xml version="1.0" encoding="utf-8"?>
<!-- Generated by IcoMoon.io -->
<!DOCTYPE svg PUBLIC "-//W3C//DTD SVG 1.1//EN" "http://www.w3.org/Graphics/SVG/1.1/DTD/svg11.dtd">
<svg version="1.1" xmlns="http://www.w3.org/2000/svg" xmlns:xlink="http://www.w3.org/1999/xlink" width="32" height="32" viewBox="0 0 32 32">
<path fill="#000" d="M16.005 2c-7.737 0-14.006 2.239-14.006 5 0 0.53 0.233 1.040 0.661 1.519l-0.004 0.001c1.994 2.431 9.344 11.043 9.344 13.48v5.438c0 1.418 1.806 2.563 4 2.563s4-1.145 4-2.563v0-5.193c0-0.078 0-0.159 0-0.244 0-2.438 7.25-10.911 9.437-13.621v-0c0.375-0.438 0.561-0.901 0.561-1.379 0-2.761-6.256-5-13.993-5zM16.011 10c-5.754 0-11.007-1.375-11.007-3s5.191-3 11.007-3c5.816 0 11.007 1.401 11.007 3s-5.253 3-11.007 3z"></path>
</svg>
