<?xml version="1.0" encoding="utf-8"?>
<!-- Generated by IcoMoon.io -->
<!DOCTYPE svg PUBLIC "-//W3C//DTD SVG 1.1//EN" "http://www.w3.org/Graphics/SVG/1.1/DTD/svg11.dtd">
<svg version="1.1" xmlns="http://www.w3.org/2000/svg" xmlns:xlink="http://www.w3.org/1999/xlink" width="32" height="32" viewBox="0 0 32 32">
<path fill="#000" d="M25.694 16c0-1.494 0.925-2.675 2.306-3.488-0.25-0.831-0.581-1.637-0.988-2.387-1.556 0.406-2.813-0.2-3.875-1.262-1.056-1.056-1.381-2.319-0.975-3.875-0.75-0.406-1.55-0.737-2.387-0.987-0.813 1.388-2.275 2.306-3.775 2.306-1.494 0-2.963-0.919-3.775-2.306-0.838 0.25-1.637 0.581-2.387 0.987 0.406 1.556 0.081 2.813-0.975 3.875-1.056 1.056-2.319 1.669-3.869 1.262-0.412 0.75-0.744 1.55-0.994 2.387 1.387 0.813 2.312 1.994 2.312 3.488s-0.925 2.962-2.313 3.775c0.25 0.837 0.581 1.637 0.987 2.387 1.556-0.406 2.813-0.081 3.869 0.975 1.063 1.056 1.381 2.319 0.975 3.875 0.756 0.406 1.55 0.738 2.387 0.988 0.813-1.387 2.281-2.306 3.775-2.306s2.963 0.919 3.775 2.306c0.837-0.25 1.637-0.581 2.387-0.988-0.406-1.556-0.081-2.813 0.975-3.875 1.056-1.056 2.319-1.669 3.875-1.262 0.406-0.756 0.738-1.556 0.988-2.387-1.381-0.813-2.3-1.994-2.3-3.488zM16 22.144c-3.387 0-6.144-2.75-6.144-6.144s2.75-6.144 6.144-6.144c3.394 0 6.144 2.75 6.144 6.144s-2.75 6.144-6.144 6.144z"></path>
</svg>
