<?xml version="1.0" encoding="utf-8"?>
<!-- Generated by IcoMoon.io -->
<!DOCTYPE svg PUBLIC "-//W3C//DTD SVG 1.1//EN" "http://www.w3.org/Graphics/SVG/1.1/DTD/svg11.dtd">
<svg version="1.1" xmlns="http://www.w3.org/2000/svg" xmlns:xlink="http://www.w3.org/1999/xlink" width="32" height="32" viewBox="0 0 32 32">
<path fill="#000" d="M28 18.4v-4.8h-2.675c-0.212-0.9-0.556-1.75-1.006-2.531l1.863-1.856-3.394-3.394-1.819 1.819c-0.788-0.481-1.65-0.844-2.569-1.081v-2.556h-4.8v2.556c-0.919 0.237-1.781 0.606-2.569 1.081l-1.819-1.819-3.394 3.394 1.862 1.856c-0.45 0.781-0.787 1.631-1.006 2.531h-2.675v4.8h2.756c0.237 0.856 0.594 1.663 1.044 2.413l-1.981 1.981 3.394 3.394 2.019-2.019c0.731 0.425 1.531 0.744 2.369 0.962v2.875h4.8v-2.875c0.844-0.219 1.637-0.538 2.369-0.962l2.019 2.019 3.394-3.394-1.975-1.981c0.45-0.744 0.806-1.55 1.044-2.413h2.75zM16 19.363c-1.856 0-3.356-1.506-3.356-3.363s1.5-3.363 3.356-3.363 3.363 1.506 3.363 3.363-1.506 3.363-3.363 3.363z"></path>
</svg>
