<?xml version="1.0" encoding="utf-8"?>
<!-- Generated by IcoMoon.io -->
<!DOCTYPE svg PUBLIC "-//W3C//DTD SVG 1.1//EN" "http://www.w3.org/Graphics/SVG/1.1/DTD/svg11.dtd">
<svg version="1.1" xmlns="http://www.w3.org/2000/svg" xmlns:xlink="http://www.w3.org/1999/xlink" width="32" height="32" viewBox="0 0 32 32">
<path fill="#000" d="M10 9.581c0 0.231-0.188 0.419-0.419 0.419h-3.156c-0.231 0-0.419-0.188-0.419-0.419v-3.156c0-0.231 0.188-0.419 0.419-0.419h3.156c0.231 0 0.419 0.188 0.419 0.419v3.156z"></path>
<path fill="#000" d="M18 9.581c0 0.231-0.188 0.419-0.419 0.419h-3.156c-0.231 0-0.419-0.188-0.419-0.419v-3.156c0-0.231 0.188-0.419 0.419-0.419h3.156c0.231 0 0.419 0.188 0.419 0.419v3.156z"></path>
<path fill="#000" d="M26 9.581c0 0.231-0.188 0.419-0.419 0.419h-3.156c-0.231 0-0.419-0.188-0.419-0.419v-3.156c0-0.231 0.188-0.419 0.419-0.419h3.156c0.231 0 0.419 0.188 0.419 0.419v3.156z"></path>
<path fill="#000" d="M10 17.581c0 0.231-0.188 0.419-0.419 0.419h-3.156c-0.231 0-0.419-0.188-0.419-0.419v-3.156c0-0.231 0.188-0.419 0.419-0.419h3.156c0.231 0 0.419 0.188 0.419 0.419v3.156z"></path>
<path fill="#000" d="M18 17.581c0 0.231-0.188 0.419-0.419 0.419h-3.156c-0.231 0-0.419-0.188-0.419-0.419v-3.156c0-0.231 0.188-0.419 0.419-0.419h3.156c0.231 0 0.419 0.188 0.419 0.419v3.156z"></path>
<path fill="#000" d="M26 17.581c0 0.231-0.188 0.419-0.419 0.419h-3.156c-0.231 0-0.419-0.188-0.419-0.419v-3.156c0-0.231 0.188-0.419 0.419-0.419h3.156c0.231 0 0.419 0.188 0.419 0.419v3.156z"></path>
<path fill="#000" d="M10 25.581c0 0.231-0.188 0.419-0.419 0.419h-3.156c-0.231 0-0.419-0.188-0.419-0.419v-3.156c0-0.231 0.188-0.419 0.419-0.419h3.156c0.231 0 0.419 0.188 0.419 0.419v3.156z"></path>
<path fill="#000" d="M18 25.581c0 0.231-0.188 0.419-0.419 0.419h-3.156c-0.231 0-0.419-0.188-0.419-0.419v-3.156c0-0.231 0.188-0.419 0.419-0.419h3.156c0.231 0 0.419 0.188 0.419 0.419v3.156z"></path>
<path fill="#000" d="M26 25.581c0 0.231-0.188 0.419-0.419 0.419h-3.156c-0.231 0-0.419-0.188-0.419-0.419v-3.156c0-0.231 0.188-0.419 0.419-0.419h3.156c0.231 0 0.419 0.188 0.419 0.419v3.156z"></path>
</svg>
