<?xml version="1.0" encoding="utf-8"?>
<!-- Generated by IcoMoon.io -->
<!DOCTYPE svg PUBLIC "-//W3C//DTD SVG 1.1//EN" "http://www.w3.org/Graphics/SVG/1.1/DTD/svg11.dtd">
<svg version="1.1" xmlns="http://www.w3.org/2000/svg" xmlns:xlink="http://www.w3.org/1999/xlink" width="32" height="32" viewBox="0 0 32 32">
<path fill="#000" d="M25.625 2h-3.25c-0.206 0-0.375 0.169-0.375 0.375v0.35c-0.25 0.25-0.681 0.613-1.113 0.613-0.656 0-0.925-1.025-1.631-1.15s-1.7-0.188-2.369-0.188-3.25 0.044-6.375 1.344c-3.125 1.3-4.481 4.056-4.519 5.088-0.019 0.544 0.169 1.319 0.625 0.694s2.206-2.644 3.606-2.794c1.394-0.144 2.856 0.050 3.981 1.075 1.081 0.981 1.331 1.925 1.331 4.594l-0.412 0.125c-0.269 0.081-0.438 0.356-0.438 0.563 0 0-0.012 0.406-0.012 4.4 0 5.913-0.675 12.538-0.675 12.538 0 0.206 0.169 0.375 0.375 0.375h5.25c0.206 0 0.375-0.169 0.375-0.375 0 0-0.675-6.625-0.675-12.538 0-3.994-0.012-4.4-0.012-4.4 0-0.206-0.144-0.488-0.438-0.563l-0.5-0.125c0-2.388-0.025-3.375 0.394-4.119 0.438-0.775 1.394-1.431 1.856-1.569 0.369-0.112 1 0.081 1.375 0.406v0.906c0 0.206 0.169 0.375 0.375 0.375h3.25c0.206 0 0.375-0.169 0.375-0.375v-5.25c0-0.206-0.169-0.375-0.375-0.375z"></path>
</svg>
