<?xml version="1.0" encoding="utf-8"?>
<!-- Generated by IcoMoon.io -->
<!DOCTYPE svg PUBLIC "-//W3C//DTD SVG 1.1//EN" "http://www.w3.org/Graphics/SVG/1.1/DTD/svg11.dtd">
<svg version="1.1" xmlns="http://www.w3.org/2000/svg" xmlns:xlink="http://www.w3.org/1999/xlink" width="32" height="32" viewBox="0 0 32 32">
<path fill="#000" d="M16 2c-7.732 0-14 6.268-14 14s6.268 14 14 14 14-6.268 14-14-6.268-14-14-14zM6.455 15.833c-0.517-0.348-0.578-0.947-0.234-1.388 0.659-0.847 1.483-1.445 2.788-1.445s2.136 0.6 2.791 1.448c0.341 0.442 0.235 1.063-0.237 1.384-0.182 0.123-0.396 0.168-0.62 0.168-0.338 0-0.659-0.132-0.857-0.389-0.212-0.276-0.476-0.611-1.077-0.611-0.598 0-0.864 0.337-1.079 0.614-0.198 0.254-0.517 0.386-0.854 0.386-0.224-0-0.438-0.045-0.62-0.167zM24.64 19.434c-1.477 2.861-4.869 4.566-8.64 4.566-3.867 0-7.347-1.765-8.66-4.605-0.229-0.496-0.012-1.086 0.483-1.316 0.134-0.061 0.273-0.091 0.416-0.091 0.385 0 0.739 0.226 0.9 0.575 0.995 2.152 3.751 3.437 6.86 3.437 3.038 0 5.738-1.267 6.878-3.476 0.172-0.331 0.509-0.537 0.881-0.537 0.158 0 0.316 0.039 0.457 0.112 0.483 0.25 0.674 0.849 0.424 1.334zM25.563 15.832c-0.182 0.123-0.396 0.168-0.62 0.168-0.338 0-0.659-0.132-0.857-0.389-0.212-0.276-0.476-0.611-1.077-0.611-0.598 0-0.864 0.337-1.079 0.614-0.198 0.254-0.517 0.386-0.854 0.386-0.224 0-0.438-0.045-0.62-0.167-0.517-0.348-0.578-0.947-0.234-1.388 0.659-0.847 1.483-1.445 2.788-1.445s2.136 0.6 2.791 1.448c0.341 0.442 0.235 1.063-0.237 1.384z"></path>
</svg>
