<?xml version="1.0" encoding="utf-8"?>
<!-- Generated by IcoMoon.io -->
<!DOCTYPE svg PUBLIC "-//W3C//DTD SVG 1.1//EN" "http://www.w3.org/Graphics/SVG/1.1/DTD/svg11.dtd">
<svg version="1.1" xmlns="http://www.w3.org/2000/svg" xmlns:xlink="http://www.w3.org/1999/xlink" width="32" height="32" viewBox="0 0 32 32">
<path fill="#000" d="M24.217 18.1c-0.14-0.073-0.298-0.112-0.457-0.112-0.372 0-0.71 0.205-0.881 0.537-1.141 2.209-3.841 3.476-6.878 3.476-3.108 0-5.865-1.285-6.86-3.437-0.162-0.349-0.515-0.575-0.9-0.575-0.143 0-0.283 0.030-0.416 0.091-0.495 0.23-0.712 0.82-0.483 1.316 1.313 2.84 4.793 4.605 8.66 4.605 3.771 0 7.163-1.705 8.64-4.566 0.251-0.485 0.060-1.084-0.424-1.334z"></path>
<path fill="#000" d="M25.8 14.448c-0.655-0.849-1.486-1.448-2.791-1.448s-2.129 0.598-2.788 1.445c-0.344 0.441-0.283 1.040 0.234 1.388 0.182 0.123 0.397 0.167 0.62 0.167 0.337-0 0.657-0.132 0.854-0.386 0.216-0.277 0.482-0.614 1.079-0.614 0.601 0 0.864 0.335 1.077 0.611 0.199 0.257 0.519 0.389 0.857 0.389 0.224 0 0.438-0.044 0.62-0.168 0.472-0.321 0.578-0.942 0.237-1.384z"></path>
<path fill="#000" d="M11.8 14.448c-0.655-0.849-1.486-1.448-2.791-1.448s-2.129 0.598-2.788 1.445c-0.344 0.441-0.283 1.040 0.234 1.388 0.182 0.123 0.397 0.167 0.62 0.167 0.337-0 0.657-0.132 0.854-0.386 0.216-0.277 0.482-0.614 1.079-0.614 0.601 0 0.864 0.335 1.077 0.611 0.199 0.257 0.519 0.389 0.857 0.389 0.224 0 0.438-0.044 0.62-0.168 0.472-0.321 0.578-0.942 0.237-1.384z"></path>
<path fill="#000" d="M16 2c-7.732 0-14 6.268-14 14s6.268 14 14 14 14-6.268 14-14-6.268-14-14-14zM24.485 24.485c-2.267 2.266-5.28 3.515-8.485 3.515s-6.219-1.248-8.485-3.515c-2.266-2.267-3.515-5.28-3.515-8.485s1.248-6.219 3.515-8.485c2.267-2.266 5.28-3.515 8.485-3.515s6.219 1.248 8.485 3.515c2.266 2.267 3.515 5.28 3.515 8.485s-1.248 6.219-3.515 8.485z"></path>
</svg>
