<?xml version="1.0" encoding="utf-8"?>
<!-- Generated by IcoMoon.io -->
<!DOCTYPE svg PUBLIC "-//W3C//DTD SVG 1.1//EN" "http://www.w3.org/Graphics/SVG/1.1/DTD/svg11.dtd">
<svg version="1.1" xmlns="http://www.w3.org/2000/svg" xmlns:xlink="http://www.w3.org/1999/xlink" width="32" height="32" viewBox="0 0 32 32">
<path fill="#000" d="M27.962 14.887c-0.2-3.738-1.369-6.787-3.5-9.075-0.006-0.006-0.006-0.006-0.012-0.013-0.481-0.525-1.006-0.994-1.55-1.413-0.563-0.431-1.163-0.813-1.781-1.131-1.581-0.819-3.313-1.25-5.131-1.25-1.813 0-3.537 0.431-5.119 1.25-0.619 0.319-1.213 0.7-1.775 1.131-0.544 0.419-1.063 0.888-1.544 1.412-0.006 0.006-0.006 0.006-0.013 0.013-2.125 2.288-3.294 5.344-3.494 9.075-0.175 3.169 0.206 8.113 0.813 10.113 1.269 4.188 2.525 5 4.506 5s3.637-1.65 3.637-3.681v-6.625c0-2.031-1.456-3.688-3.331-3.688-1.125 0-2.125 0.606-2.737 1.525 0 0-0.694-0.506-0.819-1.438-0.131-0.931-0.194-2.025 0.35-3.938 0.544-1.906 1.3-1.262 2.225-2.438 0.156-0.206 0.325-0.4 0.5-0.594 0.2-0.213 0.4-0.419 0.613-0.606 0.1-0.094 0.2-0.175 0.3-0.262 0.688-0.581 1.313-1.063 2.106-1.425 1.181-0.537 2.463-0.831 3.781-0.831 1.313 0 2.606 0.294 3.794 0.831 0.794 0.362 1.431 0.844 2.119 1.425 0.1 0.088 0.2 0.169 0.3 0.262 0.212 0.188 0.413 0.394 0.613 0.606 0.175 0.194 0.344 0.387 0.5 0.594 0.925 1.175 1.681 0.531 2.225 2.438s0.475 3.006 0.35 3.938c-0.131 0.931-0.819 1.438-0.819 1.438-0.613-0.919-1.606-1.525-2.738-1.525-1.875 0-3.331 1.65-3.331 3.688v6.631c0 2.025 1.656 3.681 3.637 3.681s3.238-0.813 4.506-5c0.606-2.006 0.988-6.95 0.819-10.119z"></path>
</svg>
