<?xml version="1.0" encoding="utf-8"?>
<!-- Generated by IcoMoon.io -->
<!DOCTYPE svg PUBLIC "-//W3C//DTD SVG 1.1//EN" "http://www.w3.org/Graphics/SVG/1.1/DTD/svg11.dtd">
<svg version="1.1" xmlns="http://www.w3.org/2000/svg" xmlns:xlink="http://www.w3.org/1999/xlink" width="32" height="32" viewBox="0 0 32 32">
<path fill="#000" d="M14.313 18c0.063-1.125 0-2.375 0.5-3.438 0.125-0.313 0.063-0.625 0.063-0.938-0.25-1.313-0.875-2.5-0.938-3.75 0-0.087 0.063-0.298 0.063-0.385-0.201 0.14-0.475 0.252-0.688 0.322-1.25 0.375-1.094 0.161-2.157 0.848l-0.746 0.452c1.021-1.121 2.408-1.549 3.533-2.42 0.012-0.965 0.054-1.917 0.196-2.865-2.538-2.484-6.527-2.436-9.006 0.145-2.844 2.959-2.844 7.756 0 10.715l9.553 9.944c-0.005-0.666-0.028-1.323-0.123-1.944-0.375-2.25-0.25-4.438-0.25-6.688z"></path>
<path fill="#000" d="M20.125 18.813c-0.688-1.625-2.063-2.75-3.938-3.125-0.053 0-0.117-0.034-0.183-0.082-0.001 0.007-0.003 0.013-0.004 0.020-0.688 3-1.438 5.875-1.313 8.875 0 0.764 0.249 1.57 0.24 2.383l1.073 1.117 6.5-6.766c-0.928-0.655-1.848-1.321-2.375-2.422z"></path>
<path fill="#000" d="M26.867 5.973c-2.527-2.631-6.624-2.631-9.151 0l-1.217 1.24c0.005 0.823 0.013 1.638-0.188 2.412-0.125 0.625-1.188 1.188-1 1.938 0.188 0.826 0.51 1.607 0.671 2.41 0.955 0.533 1.815 1.209 2.579 2.028 1.425 1.673 2.359 3.591 4.080 5.086l4.224-4.397c2.844-2.959 2.844-7.756 0-10.715z"></path>
</svg>
