<?xml version="1.0" encoding="utf-8"?>
<!-- Generated by IcoMoon.io -->
<!DOCTYPE svg PUBLIC "-//W3C//DTD SVG 1.1//EN" "http://www.w3.org/Graphics/SVG/1.1/DTD/svg11.dtd">
<svg version="1.1" xmlns="http://www.w3.org/2000/svg" xmlns:xlink="http://www.w3.org/1999/xlink" width="32" height="32" viewBox="0 0 32 32">
<path fill="#000" d="M21.569 4.819c-1.719-1.306-3.656-1.756-6.113-1.756-1.863 0-3.456 0.381-4.719 1.231-1.863 1.269-2.738 3.4-2.738 6.769h4.8c0-0.9-0.088-1.869 0.438-2.7s1.256-1.469 2.512-1.469c1.275 0 1.931 0.369 2.55 1.131 0.525 0.65 0.725 1.425 0.725 2.25 0 0.713-0.363 1.369-0.794 1.963-0.238 0.35-0.55 0.662-0.944 0.963 0 0-2.594 1.544-3.506 3.006-0.681 1.087-0.925 2.45-0.981 4.081-0.006 0.119 0.037 0.363 0.45 0.363 0.406 0 3.5 0 3.862 0s0.438-0.275 0.444-0.387c0.025-0.594 0.1-1.506 0.206-1.85 0.206-0.65 0.606-1.219 1.231-1.706l1.294-0.894c1.169-0.912 2.1-1.656 2.512-2.244 0.706-0.963 1.2-2.15 1.2-3.556 0-2.294-0.844-3.987-2.431-5.194zM15.125 23.137c-1.619-0.050-2.956 1.075-3.012 2.831-0.050 1.762 1.219 2.919 2.844 2.969 1.688 0.050 2.994-1.038 3.044-2.794s-1.188-2.956-2.875-3.006z"></path>
</svg>
