<?xml version="1.0" encoding="utf-8"?>
<!-- Generated by IcoMoon.io -->
<!DOCTYPE svg PUBLIC "-//W3C//DTD SVG 1.1//EN" "http://www.w3.org/Graphics/SVG/1.1/DTD/svg11.dtd">
<svg version="1.1" xmlns="http://www.w3.org/2000/svg" xmlns:xlink="http://www.w3.org/1999/xlink" width="32" height="32" viewBox="0 0 32 32">
<path fill="#000" d="M16 2c-7.731 0-14 6.269-14 14s6.269 14 14 14c7.731 0 14-6.269 14-14s-6.269-14-14-14zM17.262 22.419c-0.031 1.113-0.856 1.8-1.925 1.769-1.025-0.031-1.831-0.762-1.8-1.881 0.031-1.113 0.881-1.819 1.906-1.788 1.075 0.031 1.856 0.788 1.819 1.9zM20.306 14.463c-0.262 0.369-0.85 0.844-1.587 1.419l-0.819 0.563c-0.4 0.306-0.65 0.669-0.781 1.081-0.069 0.219-0.119 0.788-0.131 1.169-0.006 0.075-0.050 0.244-0.281 0.244s-2.188 0-2.444 0c-0.256 0-0.287-0.15-0.281-0.225 0.037-1.038 0.188-1.894 0.619-2.581 0.581-0.925 2.219-1.9 2.219-1.9 0.25-0.188 0.444-0.387 0.594-0.606 0.275-0.375 0.5-0.794 0.5-1.244 0-0.519-0.125-1.012-0.456-1.425-0.387-0.481-0.806-0.713-1.613-0.713-0.794 0-1.256 0.4-1.588 0.925s-0.275 1.144-0.275 1.706h-3.044c0-2.125 0.556-3.481 1.731-4.281 0.794-0.544 1.806-0.781 2.988-0.781 1.55 0 2.781 0.287 3.869 1.113 1.006 0.762 1.538 1.838 1.538 3.287 0 0.894-0.313 1.644-0.756 2.25z"></path>
</svg>
