<?xml version="1.0" encoding="utf-8"?>
<!-- Generated by IcoMoon.io -->
<!DOCTYPE svg PUBLIC "-//W3C//DTD SVG 1.1//EN" "http://www.w3.org/Graphics/SVG/1.1/DTD/svg11.dtd">
<svg version="1.1" xmlns="http://www.w3.org/2000/svg" xmlns:xlink="http://www.w3.org/1999/xlink" width="32" height="32" viewBox="0 0 32 32">
<path fill="#000" d="M8 16l8 14 8-14z"></path>
<path fill="#000" d="M25.156 10.787c-0.050-0.025-0.094-0.050-0.144-0.081-0.275-0.175-0.525-0.531-0.544-0.794l0.006-0.044c0.2-0.563 0.313-1.2 0.313-1.863 0-3.319-2.688-6.006-6.006-6.006-1.962 0-3.7 0.938-4.8 2.394 0 0-0.569 0.875-0.675 1.813 0 0 0.069-1.212 0.262-1.969-0.463-0.156-0.963-0.237-1.475-0.237-2.606 0-4.725 2.112-4.725 4.725 0 0.4 0.050 0.787 0.144 1.156 0 0.025-0.006 0.044-0.013 0.063-0.056 0.319-0.25 0.594-0.525 0.769-0.044 0.031-0.094 0.056-0.138 0.081-0.513 0.313-0.844 0.85-0.844 1.463 0 0.963 0.844 1.75 1.869 1.75h16.262c1.025 0 1.863-0.781 1.863-1.75 0.012-0.613-0.325-1.156-0.831-1.469z"></path>
</svg>
