<?xml version="1.0" encoding="utf-8"?>
<!-- Generated by IcoMoon.io -->
<!DOCTYPE svg PUBLIC "-//W3C//DTD SVG 1.1//EN" "http://www.w3.org/Graphics/SVG/1.1/DTD/svg11.dtd">
<svg version="1.1" xmlns="http://www.w3.org/2000/svg" xmlns:xlink="http://www.w3.org/1999/xlink" width="32" height="32" viewBox="0 0 32 32">
<path fill="#000" d="M28.6 8.762l-5.156-0.25-0.3-3.362c-0.063-0.706-0.694-1.2-1.431-1.144l-18.5 1.519c-0.737 0.063-1.269 0.656-1.212 1.356l1.325 14.737c0.063 0.706 0.7 1.2 1.431 1.144l0.938-0.075-0.15 2.863c-0.037 0.788 0.575 1.425 1.4 1.469l20.637 0.981c0.825 0.038 1.506-0.538 1.55-1.325l0.869-16.456c0.038-0.781-0.581-1.419-1.4-1.456zM6.412 9.094l-0.444 8.425-1.088 1.544-1-11.125c0-0.013 0-0.019 0-0.031s0-0.019 0-0.031c0.031-0.313 0.269-0.563 0.594-0.588l16.313-1.338c0.325-0.025 0.606 0.188 0.656 0.494 0 0.013 0.019 0.013 0.019 0.025 0 0.006 0.019 0.013 0.019 0.025l0.169 1.925-13.688-0.656c-0.825-0.025-1.513 0.55-1.55 1.331zM27.294 23.9l-2.919-3.456-1.719-2.044c-0.15-0.181-0.394-0.331-0.663-0.344s-0.469 0.094-0.694 0.256l-1.025 0.744c-0.219 0.131-0.387 0.219-0.619 0.206-0.225-0.012-0.425-0.1-0.569-0.238-0.050-0.050-0.144-0.137-0.219-0.212l-2.675-3.056c-0.194-0.244-0.512-0.4-0.863-0.419-0.356-0.019-0.7 0.131-0.925 0.35l-6.744 7.262 0.019-0.425 0.425-8.056 0.206-3.931c0-0.012 0-0.025 0-0.031 0-0.012 0-0.025 0-0.031 0.088-0.338 0.387-0.581 0.744-0.563l18.2 0.875c0.363 0.019 0.644 0.294 0.65 0.637 0 0.012 0.019 0.019 0.019 0.031s0.019 0.019 0.019 0.031l-0.65 12.413z"></path>
<path fill="#000" d="M23.325 16.394c1.212 0 2.2-0.988 2.2-2.2s-0.981-2.2-2.2-2.2c-1.212 0-2.2 0.981-2.2 2.2s0.981 2.2 2.2 2.2z"></path>
</svg>
