<?xml version="1.0" encoding="utf-8"?>
<!-- Generated by IcoMoon.io -->
<!DOCTYPE svg PUBLIC "-//W3C//DTD SVG 1.1//EN" "http://www.w3.org/Graphics/SVG/1.1/DTD/svg11.dtd">
<svg version="1.1" xmlns="http://www.w3.org/2000/svg" xmlns:xlink="http://www.w3.org/1999/xlink" width="32" height="32" viewBox="0 0 32 32">
<path fill="#000" d="M30 15.813c-0.106-7.731-6.456-13.912-14.188-13.813s-13.912 6.456-13.813 14.188c0.106 7.731 6.456 13.913 14.188 13.813 7.731-0.106 13.919-6.456 13.813-14.188zM16 6.994c1.106 0 2 0.894 2 2s-0.894 2-2 2c-1.106 0-2-0.894-2-2s0.894-2 2-2zM18.75 24.688h-5.5v-0.688h1.375v-10h-1.375v-0.75h4.125v10.75h1.375v0.688z"></path>
</svg>
