<?xml version="1.0" encoding="utf-8"?>
<!-- Generated by IcoMoon.io -->
<!DOCTYPE svg PUBLIC "-//W3C//DTD SVG 1.1//EN" "http://www.w3.org/Graphics/SVG/1.1/DTD/svg11.dtd">
<svg version="1.1" xmlns="http://www.w3.org/2000/svg" xmlns:xlink="http://www.w3.org/1999/xlink" width="32" height="32" viewBox="0 0 32 32">
<path fill="#000" d="M26.474 8.3c0.213-0.318 0.338-0.701 0.338-1.113 0-1.105-0.896-2-2-2-0.412 0-0.795 0.125-1.113 0.338-2.155-1.587-4.818-2.526-7.7-2.526-7.18 0-13 5.82-13 13s5.82 13 13 13c7.18 0 13-5.82 13-13 0-2.882-0.939-5.544-2.526-7.7zM24.489 24.489c-1.103 1.103-2.387 1.969-3.817 2.573-1.48 0.626-3.052 0.943-4.673 0.943s-3.193-0.317-4.673-0.943c-1.43-0.605-2.714-1.47-3.816-2.573s-1.969-2.387-2.573-3.817c-0.626-1.48-0.943-3.052-0.943-4.673s0.317-3.193 0.943-4.673c0.605-1.43 1.47-2.714 2.573-3.816s2.387-1.969 3.816-2.573c1.48-0.626 3.052-0.943 4.673-0.943s3.193 0.317 4.673 0.943c0.84 0.355 1.63 0.802 2.363 1.333-0.142 0.275-0.223 0.587-0.223 0.917 0 1.105 0.895 2 2 2 0.331 0 0.642-0.081 0.917-0.223 0.531 0.733 0.978 1.522 1.333 2.363 0.626 1.479 0.943 3.052 0.943 4.673s-0.317 3.194-0.943 4.673c-0.605 1.43-1.47 2.714-2.573 3.817z"></path>
<path fill="#000" d="M22 16c0 3.314-2.686 6-6 6s-6-2.686-6-6c0-3.314 2.686-6 6-6s6 2.686 6 6z"></path>
</svg>
