<?xml version="1.0" encoding="utf-8"?>
<!-- Generated by IcoMoon.io -->
<!DOCTYPE svg PUBLIC "-//W3C//DTD SVG 1.1//EN" "http://www.w3.org/Graphics/SVG/1.1/DTD/svg11.dtd">
<svg version="1.1" xmlns="http://www.w3.org/2000/svg" xmlns:xlink="http://www.w3.org/1999/xlink" width="32" height="32" viewBox="0 0 32 32">
<path fill="#000" d="M12.075 23.825l-0.725 0.712 4.656 4.588 4.656-4.587-0.725-0.712-3.419 3.363v-15.131h-1.025v15.131z"></path>
<path fill="#000" d="M24.95 10.275c0-0.075 0.012-0.144 0.012-0.219 0-3.969-3.306-7.181-7.3-7.181-2.881 0-5.363 1.675-6.525 4.088-0.506-0.25-1.069-0.394-1.675-0.394-1.85 0-3.381 1.456-3.681 3.206-2.2 0.75-3.788 2.713-3.788 5.15 0 3.069 2.506 5.575 5.6 5.575h5.719v-1h-5.669c-2.556 0-4.638-2.075-4.638-4.606 0-1.963 1.263-3.594 3.138-4.231l0.525-0.175 0.094-0.544c0.225-1.331 1.381-2.425 2.744-2.425 0.431 0 0.856 0.1 1.244 0.294l0.844 0.419 0.406-0.85c1.037-2.15 3.256-3.538 5.65-3.538 3.456 0 6.306 2.675 6.306 6.1 0 0.819-0.012 1.256-0.012 1.256l0.95 0.006c2.294 0.031 4.1 1.875 4.1 4.15 0 2.269-1.863 4.131-4.156 4.144l-0.2 0.006h-6.075v1h6.313c2.813 0 5.119-2.325 5.119-5.131 0-2.813-2.212-5.094-5.044-5.1z"></path>
</svg>
