<?xml version="1.0" encoding="utf-8"?>
<!-- Generated by IcoMoon.io -->
<!DOCTYPE svg PUBLIC "-//W3C//DTD SVG 1.1//EN" "http://www.w3.org/Graphics/SVG/1.1/DTD/svg11.dtd">
<svg version="1.1" xmlns="http://www.w3.org/2000/svg" xmlns:xlink="http://www.w3.org/1999/xlink" width="32" height="32" viewBox="0 0 32 32">
<path fill="#000" d="M22 6.5c0.552 0 1 0.448 1 1s-0.448 1-1 1-1-0.448-1-1 0.448-1 1-1zM22 5.5c-1.103 0-2 0.897-2 2s0.897 2 2 2 2-0.897 2-2-0.897-2-2-2v0z"></path>
<path fill="#000" d="M22 23.5c0.552 0 1 0.448 1 1s-0.448 1-1 1-1-0.448-1-1 0.448-1 1-1zM22 22.5c-1.103 0-2 0.897-2 2s0.897 2 2 2 2-0.897 2-2-0.897-2-2-2v0z"></path>
<path fill="#000" d="M10 15c0.552 0 1 0.448 1 1s-0.448 1-1 1-1-0.448-1-1 0.448-1 1-1zM10 14c-1.103 0-2 0.897-2 2s0.897 2 2 2 2-0.897 2-2-0.897-2-2-2v0z"></path>
<path fill="#000" d="M12.957 15.5h17.043v1h-17.043c0.027-0.163 0.043-0.33 0.043-0.5s-0.015-0.337-0.043-0.5z"></path>
<path fill="#000" d="M7 16c0 0.17 0.015 0.337 0.043 0.5h-5.043v-1h5.043c-0.027 0.163-0.043 0.33-0.043 0.5z"></path>
<path fill="#000" d="M24.957 24h5.043v1h-5.043c0.027-0.163 0.043-0.33 0.043-0.5s-0.015-0.337-0.043-0.5z"></path>
<path fill="#000" d="M19 24.5c0 0.17 0.015 0.337 0.043 0.5h-17.043v-1h17.043c-0.027 0.163-0.043 0.33-0.043 0.5z"></path>
<path fill="#000" d="M24.957 7h5.043v1h-5.043c0.027-0.163 0.043-0.33 0.043-0.5s-0.015-0.337-0.043-0.5z"></path>
<path fill="#000" d="M19.043 7c-0.027 0.163-0.043 0.33-0.043 0.5s0.015 0.337 0.043 0.5h-17.043v-1h17.043z"></path>
</svg>
