<?xml version="1.0" encoding="utf-8"?>
<!-- Generated by IcoMoon.io -->
<!DOCTYPE svg PUBLIC "-//W3C//DTD SVG 1.1//EN" "http://www.w3.org/Graphics/SVG/1.1/DTD/svg11.dtd">
<svg version="1.1" xmlns="http://www.w3.org/2000/svg" xmlns:xlink="http://www.w3.org/1999/xlink" width="32" height="32" viewBox="0 0 32 32">
<path fill="#000" d="M24.137 9c-3.788 0-6.863 3.131-6.863 7 0 2.525 1.313 4.731 3.281 5.962h-9.113c1.969-1.231 3.281-3.438 3.281-5.963 0-3.869-3.075-7-6.862-7s-6.862 3.131-6.862 7c0 3.869 3.075 7 6.862 7h16.275c3.788 0 6.863-3.131 6.863-7s-3.075-7-6.863-7zM2.019 16c0-3.287 2.625-5.963 5.844-5.963 3.225 0 5.844 2.675 5.844 5.963s-2.625 5.962-5.844 5.962c-3.225 0-5.844-2.675-5.844-5.963zM24.137 21.962c-3.225 0-5.844-2.675-5.844-5.963s2.625-5.963 5.844-5.963 5.844 2.675 5.844 5.963-2.619 5.963-5.844 5.963z"></path>
<path fill="#000" d="M24 13c1.656 0 3 1.344 3 3s-1.344 3-3 3-3-1.344-3-3c0-1.656 1.344-3 3-3zM24 12c-2.206 0-4 1.794-4 4s1.794 4 4 4 4-1.794 4-4c0-2.206-1.794-4-4-4v0z"></path>
<path fill="#000" d="M8 13c1.656 0 3 1.344 3 3s-1.344 3-3 3-3-1.344-3-3c0-1.656 1.344-3 3-3zM8 12c-2.206 0-4 1.794-4 4s1.794 4 4 4 4-1.794 4-4c0-2.206-1.794-4-4-4v0z"></path>
</svg>
