<?xml version="1.0" encoding="utf-8"?>
<!-- Generated by IcoMoon.io -->
<!DOCTYPE svg PUBLIC "-//W3C//DTD SVG 1.1//EN" "http://www.w3.org/Graphics/SVG/1.1/DTD/svg11.dtd">
<svg version="1.1" xmlns="http://www.w3.org/2000/svg" xmlns:xlink="http://www.w3.org/1999/xlink" width="32" height="32" viewBox="0 0 32 32">
<path fill="#000" d="M16 3c1.755 0 3.458 0.344 5.060 1.021 1.548 0.655 2.938 1.592 4.133 2.786s2.132 2.585 2.786 4.133c0.678 1.602 1.021 3.304 1.021 5.060s-0.344 3.458-1.021 5.060c-0.655 1.548-1.592 2.938-2.786 4.133s-2.585 2.132-4.133 2.786c-1.602 0.678-3.304 1.021-5.060 1.021s-3.458-0.344-5.060-1.021c-1.548-0.655-2.938-1.592-4.133-2.786s-2.132-2.585-2.786-4.133c-0.678-1.602-1.021-3.304-1.021-5.060s0.344-3.458 1.021-5.060c0.655-1.548 1.592-2.938 2.786-4.133s2.585-2.132 4.133-2.786c1.602-0.678 3.304-1.021 5.060-1.021zM16 2c-7.732 0-14 6.268-14 14s6.268 14 14 14 14-6.268 14-14-6.268-14-14-14v0z"></path>
<path fill="#000" d="M6.736 20c-1.578 0-2.573-1.153-2.619-1.207-0.178-0.21-0.15-0.523 0.061-0.7s0.525-0.149 0.703 0.059c0.038 0.044 0.913 1.037 2.225 0.824 0.756-0.123 1.755-1.605 2.416-2.586 0.266-0.394 0.495-0.735 0.701-0.991 1.048-1.304 2.119-1.458 2.833-1.358 1.509 0.212 2.772 1.719 3.356 3.118 0.466 1.118 1.19 1.766 2.039 1.825 0.963 0.066 1.971-0.618 2.694-1.834 0.077-0.129 0.16-0.281 0.249-0.442 0.593-1.079 1.488-2.709 3.234-2.709 1.947 0 3.247 2.143 3.302 2.234 0.141 0.236 0.062 0.541-0.175 0.68s-0.544 0.062-0.685-0.174c-0.002-0.004-0.281-0.463-0.741-0.911-0.393-0.382-1.007-0.837-1.7-0.837-1.152 0-1.82 1.215-2.357 2.192-0.093 0.169-0.18 0.328-0.265 0.471-0.92 1.547-2.275 2.415-3.626 2.319-1.247-0.087-2.274-0.953-2.893-2.436-0.626-1.501-1.767-2.401-2.572-2.514-0.662-0.093-1.306 0.241-1.911 0.994-0.179 0.223-0.409 0.564-0.651 0.924-0.847 1.257-1.901 2.822-3.086 3.014-0.184 0.030-0.361 0.043-0.532 0.043z"></path>
</svg>
