<?xml version="1.0" encoding="utf-8"?>
<!-- Generated by IcoMoon.io -->
<!DOCTYPE svg PUBLIC "-//W3C//DTD SVG 1.1//EN" "http://www.w3.org/Graphics/SVG/1.1/DTD/svg11.dtd">
<svg version="1.1" xmlns="http://www.w3.org/2000/svg" xmlns:xlink="http://www.w3.org/1999/xlink" width="32" height="32" viewBox="0 0 32 32">
<path fill="#000" d="M8.53 2.507l0.863-0.505 16.1 27.494-0.863 0.505-16.1-27.494z"></path>
<path fill="#000" d="M16.012 22.087c0.769 0 1.488-0.181 2.137-0.512l-7.088-12.050v7.35c0 2.875 2.213 5.212 4.95 5.212z"></path>
<path fill="#000" d="M20.938 16.875v-9.656c0-2.875-2.2-5.219-4.938-5.219-1.588 0-2.988 0.788-3.894 2.013l8.556 14.581c0.181-0.538 0.275-1.119 0.275-1.719z"></path>
<path fill="#000" d="M24 16.981v-4.981h-1.063v4.981c0 1.344-0.387 2.6-1.069 3.656l0.619 1.063c0.956-1.325 1.512-2.956 1.512-4.719z"></path>
<path fill="#000" d="M16.688 24.95c1.063-0.075 2.063-0.363 2.956-0.813l-0.587-1.006c-0.906 0.438-1.919 0.681-2.981 0.681-3.769 0-6.881-3.063-6.881-6.819v-4.994h-1.188v4.981c0 4.2 3.313 7.662 7.5 7.963v3.931h-4.563v1.125h10.062v-1.125h-4.313v-3.925z"></path>
</svg>
