<?xml version="1.0" encoding="utf-8"?>
<!-- Generated by IcoMoon.io -->
<!DOCTYPE svg PUBLIC "-//W3C//DTD SVG 1.1//EN" "http://www.w3.org/Graphics/SVG/1.1/DTD/svg11.dtd">
<svg version="1.1" xmlns="http://www.w3.org/2000/svg" xmlns:xlink="http://www.w3.org/1999/xlink" width="32" height="32" viewBox="0 0 32 32">
<path fill="#000" d="M17 17l1-3h-4.5l-0.938 5h3.269l-1.831 6 5.5-8z"></path>
<path fill="#000" d="M12.669 13h6.719l-1 3h3.012l-2.063 3h1.188c2.231 0 4.038-1.881 4.038-4.119s-1.806-4.094-4.038-4.094c-0.169 0-0.337 0-0.5 0.019-0.494-2.188-2.444-3.838-4.775-3.838-2.706 0-4.894 2.2-4.894 4.906 0 0.162 0.006 0.325 0.025 0.488-1.65 0.144-2.944 1.606-2.944 3.3 0 1.788 1.45 3.331 3.231 3.331h0.875z"></path>
</svg>
