<?xml version="1.0" encoding="utf-8"?>
<!-- Generated by IcoMoon.io -->
<!DOCTYPE svg PUBLIC "-//W3C//DTD SVG 1.1//EN" "http://www.w3.org/Graphics/SVG/1.1/DTD/svg11.dtd">
<svg version="1.1" xmlns="http://www.w3.org/2000/svg" xmlns:xlink="http://www.w3.org/1999/xlink" width="32" height="32" viewBox="0 0 32 32">
<path fill="#000" d="M12.65 12.606v0 0z"></path>
<path fill="#000" d="M22.706 22.744c-0.806-0.288-1.962-0.387-2.7-0.55-0.425-0.094-1.044-0.331-1.25-0.575-0.206-0.25-0.081-2.556-0.081-2.556s0.381-0.6 0.587-1.125 0.431-1.963 0.431-1.963 0.425 0 0.575-0.744c0.163-0.813 0.413-1.15 0.381-1.756-0.031-0.563-0.325-0.594-0.356-0.594v0c0 0 0.306-0.85 0.35-2.65 0.050-2.131-1.581-4.231-4.644-4.231s-4.688 2.094-4.644 4.225c0.037 1.794 0.35 2.65 0.35 2.65v0c-0.031 0-0.325 0.031-0.356 0.594-0.031 0.606 0.225 0.931 0.381 1.744 0.15 0.744 0.575 0.75 0.575 0.75s0.225 1.444 0.431 1.969c0.206 0.531 0.588 1.125 0.588 1.125s0.125 2.306-0.081 2.556c-0.206 0.25-0.825 0.481-1.25 0.575-0.744 0.163-1.894 0.269-2.7 0.556s-3.294 1.256-3.294 3.256h20c0-2-2.488-2.969-3.294-3.256zM16 25h-8.581c0.125-0.188 0.294-0.319 0.513-0.475 0.437-0.319 1.006-0.613 1.694-0.85 0.425-0.15 1.044-0.25 1.588-0.331 0.356-0.056 0.694-0.106 0.994-0.175 0.213-0.050 1.3-0.313 1.8-0.913 0.281-0.337 0.363-0.794 0.35-2.019-0.006-0.625-0.037-1.206-0.037-1.231l-0.012-0.262-0.144-0.219c-0.094-0.144-0.363-0.594-0.5-0.956-0.113-0.294-0.287-1.2-0.375-1.756 0 0 0.025 0.063-0.031-0.231s-0.525-0.269-0.588-0.5c-0.056-0.225-0.113-0.431-0.269-1.137s0.175-0.7 0.244-1.012c0.037-0.194 0-0.356 0-0.363v0c-0.019-0.063-0.256-0.838-0.294-2.356-0.019-0.825 0.287-1.6 0.863-2.181 0.662-0.675 1.625-1.031 2.781-1.031 1.188 0 2.125 0.356 2.788 1.031 0.575 0.581 0.881 1.356 0.863 2.181-0.031 1.512-0.269 2.287-0.294 2.356v0c0 0.006-0.038 0.106-0.025 0.325 0.012 0.338 0.425 0.344 0.269 1.050s-0.212 0.912-0.269 1.137c-0.056 0.225-0.531 0.206-0.587 0.5s-0.031 0.231-0.031 0.231c-0.087 0.556-0.262 1.462-0.375 1.756-0.144 0.363-0.413 0.813-0.5 0.956l-0.144 0.219-0.012 0.262c0 0.025-0.031 0.606-0.038 1.231-0.012 1.225 0.069 1.681 0.35 2.019 0.5 0.594 1.587 0.863 1.8 0.913 0.3 0.069 0.637 0.119 0.994 0.175 0.544 0.081 1.163 0.181 1.587 0.331 0.688 0.244 1.262 0.538 1.694 0.856 0.219 0.156 0.387 0.288 0.512 0.475l-8.575-0.006z"></path>
</svg>
