<?xml version="1.0" encoding="utf-8"?>
<!-- Generated by IcoMoon.io -->
<!DOCTYPE svg PUBLIC "-//W3C//DTD SVG 1.1//EN" "http://www.w3.org/Graphics/SVG/1.1/DTD/svg11.dtd">
<svg version="1.1" xmlns="http://www.w3.org/2000/svg" xmlns:xlink="http://www.w3.org/1999/xlink" width="32" height="32" viewBox="0 0 32 32">
<path fill="#000" d="M16 2c-7.731 0-14 6.269-14 14s6.269 14 14 14c7.731 0 14-6.269 14-14s-6.269-14-14-14zM25.194 25.194c-1.194 1.194-2.587 2.131-4.131 2.788-1.6 0.675-3.306 1.019-5.063 1.019s-3.456-0.344-5.063-1.019c-1.55-0.656-2.938-1.594-4.131-2.788s-2.131-2.587-2.787-4.131c-0.675-1.606-1.019-3.306-1.019-5.063s0.344-3.456 1.019-5.063c0.656-1.55 1.594-2.938 2.787-4.131s2.588-2.131 4.131-2.787c1.606-0.675 3.306-1.019 5.063-1.019s3.456 0.344 5.063 1.019c1.55 0.656 2.938 1.594 4.131 2.787s2.131 2.588 2.788 4.131c0.675 1.6 1.019 3.306 1.019 5.063s-0.344 3.456-1.019 5.063c-0.656 1.544-1.594 2.938-2.788 4.131z"></path>
<path fill="#000" d="M16.5 5c0 0.276-0.224 0.5-0.5 0.5s-0.5-0.224-0.5-0.5c0-0.276 0.224-0.5 0.5-0.5s0.5 0.224 0.5 0.5z"></path>
<path fill="#000" d="M16.5 27c0 0.276-0.224 0.5-0.5 0.5s-0.5-0.224-0.5-0.5c0-0.276 0.224-0.5 0.5-0.5s0.5 0.224 0.5 0.5z"></path>
<path fill="#000" d="M27.5 16c0 0.276-0.224 0.5-0.5 0.5s-0.5-0.224-0.5-0.5c0-0.276 0.224-0.5 0.5-0.5s0.5 0.224 0.5 0.5z"></path>
<path fill="#000" d="M5.5 16c0 0.276-0.224 0.5-0.5 0.5s-0.5-0.224-0.5-0.5c0-0.276 0.224-0.5 0.5-0.5s0.5 0.224 0.5 0.5z"></path>
<path fill="#000" d="M11 6.475c0 0.276-0.224 0.5-0.5 0.5s-0.5-0.224-0.5-0.5c0-0.276 0.224-0.5 0.5-0.5s0.5 0.224 0.5 0.5z"></path>
<path fill="#000" d="M22 25.525c0 0.276-0.224 0.5-0.5 0.5s-0.5-0.224-0.5-0.5c0-0.276 0.224-0.5 0.5-0.5s0.5 0.224 0.5 0.5z"></path>
<path fill="#000" d="M26.025 10.5c0 0.276-0.224 0.5-0.5 0.5s-0.5-0.224-0.5-0.5c0-0.276 0.224-0.5 0.5-0.5s0.5 0.224 0.5 0.5z"></path>
<path fill="#000" d="M6.975 21.5c0 0.276-0.224 0.5-0.5 0.5s-0.5-0.224-0.5-0.5c0-0.276 0.224-0.5 0.5-0.5s0.5 0.224 0.5 0.5z"></path>
<path fill="#000" d="M6.975 10.5c0 0.276-0.224 0.5-0.5 0.5s-0.5-0.224-0.5-0.5c0-0.276 0.224-0.5 0.5-0.5s0.5 0.224 0.5 0.5z"></path>
<path fill="#000" d="M26.025 21.5c0 0.276-0.224 0.5-0.5 0.5s-0.5-0.224-0.5-0.5c0-0.276 0.224-0.5 0.5-0.5s0.5 0.224 0.5 0.5z"></path>
<path fill="#000" d="M22 6.475c0 0.276-0.224 0.5-0.5 0.5s-0.5-0.224-0.5-0.5c0-0.276 0.224-0.5 0.5-0.5s0.5 0.224 0.5 0.5z"></path>
<path fill="#000" d="M11 25.525c0 0.276-0.224 0.5-0.5 0.5s-0.5-0.224-0.5-0.5c0-0.276 0.224-0.5 0.5-0.5s0.5 0.224 0.5 0.5z"></path>
<path fill="#000" d="M16.869 15.5c-0.181-0.313-0.506-0.488-0.837-0.5l-2.375-3.963c-0.144-0.238-0.45-0.313-0.688-0.169s-0.313 0.45-0.169 0.688l2.35 3.931c-0.181 0.3-0.2 0.694-0.012 1.019 0.094 0.156 0.219 0.281 0.369 0.363v7.631c0 0.275 0.225 0.5 0.5 0.5s0.5-0.225 0.5-0.5v-7.631c0.475-0.281 0.637-0.887 0.363-1.369z"></path>
</svg>
