<?xml version="1.0" encoding="utf-8"?>
<!-- Generated by IcoMoon.io -->
<!DOCTYPE svg PUBLIC "-//W3C//DTD SVG 1.1//EN" "http://www.w3.org/Graphics/SVG/1.1/DTD/svg11.dtd">
<svg version="1.1" xmlns="http://www.w3.org/2000/svg" xmlns:xlink="http://www.w3.org/1999/xlink" width="32" height="32" viewBox="0 0 32 32">
<path fill="#000" d="M22.839 9.5h0.863l-3.171 2.599 1.269 1.536 6.2-5.135-6.196-5.25-1.273 1.561 3.199 2.689h-0.891c-6.483 0-9.156 4.976-11.304 8.983-0.085 0.159-0.17 0.312-0.254 0.468l-0.004 0.006c-0.099 0.185-0.198 0.382-0.297 0.565-2.223 4.102-4.181 5.201-6.98 5.228v2.001c2.352 0 3.598-0.591 4.515-1.136 1.558-0.927 2.94-2.785 4.224-5.154 0.096-0.178 0.193-0.36 0.29-0.539l0.014-0.027c0.091-0.169 0.183-0.33 0.274-0.501 2.082-3.885 4.234-7.892 9.522-7.892z"></path>
<path fill="#000" d="M21.8 18.365l-1.269 1.536 3.171 2.599h-0.863c-4.421 0-6.65-2.8-8.478-5.988l-1.103 2.039c1.965 3.114 4.687 5.95 9.581 5.95h0.891l-3.199 2.689 1.273 1.561 6.196-5.25-6.2-5.135z"></path>
<path fill="#000" d="M10.98 14.478c0.099 0.183 0.198 0.38 0.297 0.565l0.004 0.006c0.076 0.141 0.153 0.281 0.23 0.424 0.364-0.671 0.749-1.359 1.168-2.041-1.267-2.317-2.63-4.133-4.165-5.046-0.917-0.545-2.163-1.136-4.515-1.136v2.001c2.799 0.027 4.758 1.126 6.98 5.228z"></path>
</svg>
