<?xml version="1.0" encoding="utf-8"?>
<!-- Generated by IcoMoon.io -->
<!DOCTYPE svg PUBLIC "-//W3C//DTD SVG 1.1//EN" "http://www.w3.org/Graphics/SVG/1.1/DTD/svg11.dtd">
<svg version="1.1" xmlns="http://www.w3.org/2000/svg" xmlns:xlink="http://www.w3.org/1999/xlink" width="32" height="32" viewBox="0 0 32 32">
<path fill="#000" d="M27.375 11.732l-1.995-3.464-7.38 4.268v-8.536h-4v8.536l-7.38-4.268-1.996 3.464 7.381 4.268-7.381 4.268 1.995 3.464 7.38-4.268v8.536h4v-8.536l7.38 4.268 1.996-3.464-7.381-4.268 7.381-4.268zM26.011 20.633l-0.998 1.742-8.013-4.624v9.25h-2v-9.25l-8.013 4.625-0.998-1.737 8.014-4.637-8.014-4.635 0.998-1.741 8.013 4.625v-9.25h2v9.25l8.013-4.625 0.998 1.737-8.014 4.636 8.014 4.635z"></path>
</svg>
