<?xml version="1.0" encoding="utf-8"?>
<!-- Generated by IcoMoon.io -->
<!DOCTYPE svg PUBLIC "-//W3C//DTD SVG 1.1//EN" "http://www.w3.org/Graphics/SVG/1.1/DTD/svg11.dtd">
<svg version="1.1" xmlns="http://www.w3.org/2000/svg" xmlns:xlink="http://www.w3.org/1999/xlink" width="32" height="32" viewBox="0 0 32 32">
<path fill="#000" d="M22.775 20.056c-0.331 0.469-0.725 0.919-1.175 1.337-0.444 0.413-0.944 0.781-1.481 1.087s-1.119 0.55-1.719 0.719-1.238 0.256-1.894 0.256c-0.994 0-1.95-0.163-2.844-0.475-0.887-0.313-1.675-0.781-2.344-1.4-0.669-0.613-1.356-1.619-1.762-2.563-0.363-0.837-0.506-1.738-0.506-3.094 0-0.975 0.225-2.063 0.613-2.975 0.375-0.875 0.894-1.65 1.556-2.306 0.65-0.644 1.438-1.162 2.35-1.55 0.819-0.344 1.781-0.512 2.944-0.512 0.931 0 1.813 0.15 2.619 0.438 0.8 0.287 1.494 0.7 2.069 1.225 0.544 0.494 0.875 1.088 1.231 1.887 0.313 0.7 0.425 1.306 0.425 2.244 0 0.775-0.137 1.506-0.406 2.181-0.269 0.663-0.469 1.063-0.875 1.563-0.413 0.494-0.663 0.794-1.131 1.069-0.538 0.313-0.956 0.462-1.313 0.462-0.225 0-0.394-0.044-0.488-0.125s-0.15-0.188-0.169-0.337c-0.025-0.175-0.006-0.394 0.063-0.65 0.069-0.275 0.175-0.538 0.306-0.856l2.369-6.369h-1.113l-0.387 1.031c-0.238-0.381-0.569-0.719-0.994-0.969-0.656-0.381-1.219-0.55-1.95-0.55-0.844 0-1.625 0.219-2.325 0.65-0.688 0.425-1.281 0.975-1.762 1.644-0.469 0.644-0.581 0.981-0.806 1.65l-0.037 0.106c-0.262 0.775-0.394 1.537-0.394 2.263 0 0.481 0.088 0.938 0.256 1.363s0.4 0.8 0.694 1.113c0.294 0.319 0.65 0.569 1.056 0.756s0.856 0.281 1.331 0.281c0.531 0 1.037-0.087 1.631-0.294 0.394-0.137 0.744-0.363 1.087-0.712 0.063 0.2 0.169 0.375 0.331 0.531 0.313 0.313 0.731 0.475 1.244 0.475 0.538 0 1.113-0.188 1.813-0.581 0.619-0.35 0.981-0.75 1.456-1.319 0.512-0.613 0.769-1.125 1.056-1.856 0.313-0.781 0.469-1.625 0.469-2.519 0-1.125-0.15-1.887-0.531-2.725-0.413-0.894-0.825-1.613-1.5-2.213-0.681-0.6-1.494-1.069-2.406-1.394-0.906-0.319-1.894-0.481-2.919-0.481-1.256 0-2.325 0.188-3.262 0.569-1.031 0.419-1.931 1-2.688 1.725-0.762 0.738-1.375 1.619-1.813 2.619-0.456 1.037-0.713 2.294-0.713 3.444 0 1.569 0.194 2.663 0.644 3.65 0.5 1.081 1.313 2.212 2.081 2.875 0.787 0.681 1.694 1.194 2.7 1.512 0.994 0.319 2.019 0.481 3.050 0.481 0.712 0 1.425-0.1 2.125-0.288 0.7-0.194 1.375-0.462 2.006-0.819 0.631-0.35 1.219-0.781 1.762-1.288 0.538-0.506 1.163-1.3 1.375-1.681 0.081-0.15 0.137-0.269 0.181-0.363h-1.156l-0.031 0.056zM17.238 18.4c-0.275 0.35-0.481 0.594-0.738 0.762-0.275 0.188-0.494 0.306-0.775 0.369-0.287 0.075-0.581 0.106-0.856 0.106-0.35 0-0.675-0.063-0.963-0.188-0.294-0.125-0.544-0.3-0.756-0.525s-0.381-0.494-0.506-0.794c-0.119-0.3-0.181-0.637-0.181-1 0-0.594 0.113-1.231 0.331-1.894 0.025-0.075 0.050-0.15 0.069-0.213 0.175-0.537 0.269-0.719 0.594-1.25 0.356-0.588 0.881-1.037 1.438-1.406 0.537-0.363 1.137-0.544 1.781-0.544 0.262 0 0.538 0.031 0.825 0.094 0.225 0.050 0.35 0.119 0.563 0.244 0.038 0.019 0.069 0.037 0.106 0.063 0.244 0.137 0.462 0.319 0.65 0.544 0.169 0.2 0.3 0.463 0.394 0.769l-1.288 3.613c-0.2 0.506-0.431 0.925-0.688 1.25z"></path>
</svg>
