<?xml version="1.0" encoding="utf-8"?>
<!-- Generated by IcoMoon.io -->
<!DOCTYPE svg PUBLIC "-//W3C//DTD SVG 1.1//EN" "http://www.w3.org/Graphics/SVG/1.1/DTD/svg11.dtd">
<svg version="1.1" xmlns="http://www.w3.org/2000/svg" xmlns:xlink="http://www.w3.org/1999/xlink" width="32" height="32" viewBox="0 0 32 32">
<path fill="#000" d="M25 7.081h-5v-1.25c0-1.013-0.819-1.831-1.831-1.831h-4.344c-1.006 0-1.825 0.819-1.825 1.831v1.25h-5v0.919h1.319l1.475 18.169c0 1.012 0.819 1.831 1.831 1.831h8.813c1.012 0 1.831-0.819 1.831-1.831l1.456-18.169h1.275v-0.919zM12.912 5.831c0-0.506 0.412-0.919 0.912-0.919h4.344c0.506 0 0.913 0.412 0.913 0.919v1.25h-6.169v-1.25zM21.35 26.119v0.050c0 0.506-0.413 0.919-0.913 0.919h-8.813c-0.506 0-0.912-0.413-0.912-0.919v-0.050l-1.481-18.119h13.575l-1.456 18.119z"></path>
<path fill="#000" d="M15.563 10h0.875v15.063h-0.875v-15.063z"></path>
<path fill="#000" d="M20 10h-0.913l-0.669 15.063h0.913z"></path>
<path fill="#000" d="M12.906 10h-0.906l0.669 15.063h0.912z"></path>
</svg>
