<?xml version="1.0" encoding="utf-8"?>
<!-- Generated by IcoMoon.io -->
<!DOCTYPE svg PUBLIC "-//W3C//DTD SVG 1.1//EN" "http://www.w3.org/Graphics/SVG/1.1/DTD/svg11.dtd">
<svg version="1.1" xmlns="http://www.w3.org/2000/svg" xmlns:xlink="http://www.w3.org/1999/xlink" width="32" height="32" viewBox="0 0 32 32">
<path fill="#000" d="M25.994 20.969c-0.913-0.938-3.506-2.694-5.206-2.694-0.394 0-0.738 0.087-1.019 0.269-0.831 0.531-1.494 0.944-1.813 0.944-0.175 0-0.363-0.156-0.775-0.512l-0.069-0.063c-1.144-0.994-1.387-1.25-1.831-1.712l-0.113-0.119c-0.081-0.081-0.15-0.156-0.219-0.225-0.387-0.4-0.669-0.688-1.662-1.813l-0.044-0.050c-0.475-0.537-0.787-0.887-0.806-1.144-0.019-0.25 0.2-0.656 0.756-1.412 0.675-0.912 0.7-2.037 0.081-3.344-0.494-1.031-1.3-2.019-2.013-2.888l-0.063-0.075c-0.613-0.75-1.325-1.125-2.119-1.125-0.881 0-1.612 0.475-2 0.725-0.031 0.019-0.063 0.044-0.094 0.063-0.869 0.55-1.5 1.306-1.737 2.075-0.356 1.156-0.594 2.656 1.112 5.775 1.475 2.7 2.813 4.512 4.938 6.694 2 2.050 2.888 2.712 4.875 4.15 2.212 1.6 4.337 2.519 5.825 2.519 1.381 0 2.469 0 4.019-1.869 1.625-1.962 0.95-3.163-0.025-4.169zM25.275 24.462c-1.25 1.512-1.969 1.512-3.269 1.512-1.269 0-3.238-0.875-5.262-2.331-1.938-1.4-2.8-2.044-4.744-4.038-2.056-2.106-3.35-3.863-4.775-6.469-1.506-2.756-1.338-3.963-1.031-4.956 0.162-0.531 0.65-1.1 1.313-1.513 0.031-0.019 0.063-0.044 0.1-0.063 0.331-0.213 0.881-0.569 1.481-0.569 0.5 0 0.944 0.25 1.369 0.769l0.063 0.075c1.594 1.95 2.838 3.675 1.9 4.95-0.662 0.894-1.012 1.5-0.956 2.125 0.050 0.606 0.456 1.063 1.069 1.75l0.044 0.050c1.006 1.138 1.294 1.437 1.694 1.844 0.069 0.069 0.137 0.144 0.219 0.225l0.113 0.119c0.463 0.481 0.719 0.744 1.894 1.775l0.069 0.063c0.5 0.438 0.869 0.756 1.406 0.756 0.556 0 1.169-0.35 2.331-1.094 0.119-0.075 0.288-0.119 0.5-0.119 1.356 0 3.694 1.55 4.512 2.394 0.75 0.762 1.125 1.337-0.038 2.744z"></path>
</svg>
