<?xml version="1.0" encoding="utf-8"?>
<!-- Generated by IcoMoon.io -->
<!DOCTYPE svg PUBLIC "-//W3C//DTD SVG 1.1//EN" "http://www.w3.org/Graphics/SVG/1.1/DTD/svg11.dtd">
<svg version="1.1" xmlns="http://www.w3.org/2000/svg" xmlns:xlink="http://www.w3.org/1999/xlink" width="32" height="32" viewBox="0 0 32 32">
<path fill="#000" d="M16.5 19.312c0-1.373 1.279-2.417 2.515-3.427 0.494-0.403 0.961-0.784 1.345-1.185 1.659-1.731 1.64-3.234 1.64-4.441v-0.259c0-2.766-1.926-7.785-2.001-8h-7.999c-0.075 0.215-2 5.219-2 8v0.259c0 1.205-0.020 2.71 1.639 4.441 0.384 0.401 0.851 0.782 1.345 1.185 1.237 1.009 2.516 2.053 2.516 3.426v9.688h-4.5v1h10v-1h-4.5v-9.688zM12.671 3h6.658c0.335 0.999 1.219 3.92 1.552 6h-9.762c0.333-2.080 1.217-5.001 1.552-6z"></path>
</svg>
