<?xml version="1.0" encoding="utf-8"?>
<!-- Generated by IcoMoon.io -->
<!DOCTYPE svg PUBLIC "-//W3C//DTD SVG 1.1//EN" "http://www.w3.org/Graphics/SVG/1.1/DTD/svg11.dtd">
<svg version="1.1" xmlns="http://www.w3.org/2000/svg" xmlns:xlink="http://www.w3.org/1999/xlink" width="32" height="32" viewBox="0 0 32 32">
<path fill="#000" d="M23.381 8l-0.85 0.644c1.506 2.056 2.406 4.6 2.406 7.356s-0.9 5.3-2.413 7.356l0.85 0.644c1.644-2.231 2.619-5 2.619-8s-0.969-5.769-2.613-8z"></path>
<path fill="#000" d="M20 21.988c1.25-1.675 2-3.744 2-5.988s-0.75-4.313-2-5.988l-0.85 0.631c1.119 1.5 1.788 3.35 1.788 5.356s-0.669 3.856-1.788 5.356l0.85 0.631z"></path>
<path fill="#000" d="M17.069 19.994c0.856-1.119 1.369-2.494 1.369-3.994s-0.512-2.875-1.369-3.994l-0.844 0.613c0.725 0.944 1.156 2.113 1.156 3.381s-0.431 2.431-1.156 3.381l0.844 0.613z"></path>
<path fill="#000" d="M9.619 13.5h-3.619v5h3.619l4.381 3.5v-12z"></path>
</svg>
