<?xml version="1.0" encoding="utf-8"?>
<!-- Generated by IcoMoon.io -->
<!DOCTYPE svg PUBLIC "-//W3C//DTD SVG 1.1//EN" "http://www.w3.org/Graphics/SVG/1.1/DTD/svg11.dtd">
<svg version="1.1" xmlns="http://www.w3.org/2000/svg" xmlns:xlink="http://www.w3.org/1999/xlink" width="32" height="32" viewBox="0 0 32 32">
<path fill="#000" d="M28.551 11.399c-1.252-1.224-2.922-1.899-4.702-1.899s-3.45 0.674-4.701 1.897l-2.444 2.368 1.566 1.543 2.428-2.361c0.841-0.818 1.958-1.269 3.144-1.269s2.303 0.451 3.143 1.268c0.835 0.817 1.294 1.904 1.293 3.061-0.001 1.153-0.46 2.234-1.292 3.046-0.841 0.818-1.957 1.269-3.144 1.269s-2.303-0.451-3.143-1.269l-7.846-7.656c-1.26-1.224-2.929-1.897-4.701-1.897-1.78 0-3.45 0.674-4.702 1.898-1.256 1.226-1.948 2.86-1.95 4.601-0.002 1.739 0.691 3.373 1.95 4.602 1.253 1.224 2.922 1.899 4.702 1.899s3.45-0.674 4.701-1.898l2.437-2.369-1.568-1.531-2.427 2.351c-0.841 0.818-1.958 1.269-3.144 1.269s-2.302-0.451-3.143-1.268c-0.835-0.817-1.295-1.904-1.293-3.061 0.001-1.153 0.46-2.234 1.292-3.045 0.841-0.818 1.958-1.269 3.144-1.269s2.303 0.451 3.143 1.269l7.846 7.656c1.26 1.224 2.929 1.898 4.701 1.898 1.78 0 3.45-0.674 4.701-1.897 1.261-1.223 1.956-2.858 1.957-4.602 0.001-1.74-0.691-3.374-1.949-4.602z"></path>
</svg>
