<?xml version="1.0" encoding="utf-8"?>
<!-- Generated by IcoMoon.io -->
<!DOCTYPE svg PUBLIC "-//W3C//DTD SVG 1.1//EN" "http://www.w3.org/Graphics/SVG/1.1/DTD/svg11.dtd">
<svg version="1.1" xmlns="http://www.w3.org/2000/svg" xmlns:xlink="http://www.w3.org/1999/xlink" width="32" height="32" viewBox="0 0 32 32">
<path fill="#000" d="M28 17.063c-1.329 0-2.456 0.875-2.85 2.062h-2.429l-1.773-5.339c-0.136-0.41-0.519-0.685-0.949-0.685-0.007 0-0.014 0-0.021 0-0.439 0.009-0.82 0.303-0.941 0.724l-2.78 9.704-3.272-19.632c-0.078-0.468-0.466-0.898-0.986-0.898s-0.856 0.361-0.97 0.821l-3.811 15.304h-6.218v2h7c0.459 0 0.859-0.313 0.97-0.758l2.835-11.386 3.208 19.246c0.077 0.461 0.462 0.745 0.929 0.771 0.019 0.001 0.038 0.002 0.057 0.002 0.444 0 0.838-0.231 0.961-0.662l3.109-10.851 0.981 2.953c0.136 0.409 0.518 0.685 0.949 0.685h3.194c0.429 1.125 1.523 1.938 2.806 1.938 1.657 0 3-1.406 3-3.063s-1.343-2.937-3-2.937z"></path>
</svg>
