<?xml version="1.0" encoding="utf-8"?>
<!-- Generated by IcoMoon.io -->
<!DOCTYPE svg PUBLIC "-//W3C//DTD SVG 1.1//EN" "http://www.w3.org/Graphics/SVG/1.1/DTD/svg11.dtd">
<svg version="1.1" xmlns="http://www.w3.org/2000/svg" xmlns:xlink="http://www.w3.org/1999/xlink" width="32" height="32" viewBox="0 0 32 32">
<path fill="#000" d="M23.744 19.813l-1.794-1.019c0.381-0.363 0.813-0.606 1.294-0.769 0.269-0.087 0.406-0.369 0.319-0.631s-0.375-0.406-0.644-0.319c-0.725 0.238-1.387 0.688-1.881 1.2l-4.019-2.275 4.012-2.275c0.525 0.569 1.163 0.963 1.887 1.2 0.269 0.088 0.556-0.050 0.644-0.313s-0.050-0.544-0.319-0.631c-0.488-0.162-0.925-0.406-1.306-0.769l1.8-1.019c0.244-0.137 0.325-0.444 0.188-0.681s-0.45-0.319-0.694-0.181l-1.794 1c-0.125-0.506-0.131-0.994-0.031-1.488 0.056-0.269-0.125-0.531-0.4-0.588s-0.544 0.119-0.6 0.387c-0.15 0.738-0.087 1.525 0.113 2.2l-4.019 2.294v-4.563c0.688-0.169 1.4-0.506 1.969-1.006 0.206-0.181 0.225-0.5 0.044-0.706s-0.494-0.225-0.706-0.044c-0.375 0.331-0.806 0.575-1.306 0.719v-2.037c0-0.275-0.225-0.5-0.5-0.5s-0.5 0.225-0.5 0.5v2.044c-0.5-0.144-0.925-0.387-1.306-0.725-0.206-0.181-0.525-0.162-0.706 0.044s-0.162 0.525 0.044 0.706c0.569 0.5 1.219 0.844 1.969 1.006v4.563l-4.031-2.287c0.2-0.681 0.262-1.469 0.119-2.2-0.056-0.269-0.325-0.444-0.6-0.387s-0.45 0.313-0.4 0.588c0.1 0.494 0.1 0.981-0.031 1.488l-1.787-1.025c-0.244-0.137-0.556-0.056-0.694 0.181s-0.056 0.544 0.188 0.681l1.8 1.019c-0.381 0.363-0.813 0.606-1.3 0.769-0.269 0.088-0.406 0.375-0.319 0.631 0.088 0.262 0.381 0.4 0.644 0.313 0.725-0.244 1.363-0.631 1.887-1.2l4.019 2.281-4.025 2.281c-0.494-0.512-1.162-0.956-1.881-1.2-0.269-0.087-0.55 0.056-0.644 0.319-0.088 0.262 0.050 0.544 0.319 0.631 0.481 0.163 0.912 0.406 1.294 0.769l-1.794 1.019c-0.244 0.137-0.325 0.444-0.188 0.681s0.45 0.319 0.694 0.181l1.8-1.019c0.131 0.506 0.131 0.994 0.025 1.494-0.056 0.269 0.125 0.531 0.4 0.587s0.544-0.119 0.6-0.394c0.15-0.738 0.119-1.475-0.119-2.206l4.031-2.288v4.569c-0.75 0.163-1.4 0.506-1.969 1.006-0.206 0.181-0.225 0.5-0.044 0.706s0.494 0.225 0.706 0.044c0.381-0.337 0.806-0.581 1.306-0.725v2.056c0 0.275 0.225 0.5 0.5 0.5s0.5-0.225 0.5-0.5v-2.038c0.5 0.144 0.925 0.387 1.306 0.719 0.206 0.181 0.519 0.163 0.706-0.044 0.181-0.206 0.163-0.525-0.044-0.706-0.563-0.494-1.275-0.837-1.962-1.006v-4.569l4.025 2.281c-0.238 0.731-0.262 1.469-0.113 2.206 0.056 0.269 0.325 0.444 0.6 0.394 0.275-0.056 0.456-0.319 0.4-0.587-0.1-0.5-0.1-0.988 0.025-1.494l1.8 1.019c0.244 0.137 0.556 0.056 0.694-0.181 0.131-0.238 0.044-0.544-0.2-0.681z"></path>
</svg>
