<?xml version="1.0" encoding="utf-8"?>
<!-- Generated by IcoMoon.io -->
<!DOCTYPE svg PUBLIC "-//W3C//DTD SVG 1.1//EN" "http://www.w3.org/Graphics/SVG/1.1/DTD/svg11.dtd">
<svg version="1.1" xmlns="http://www.w3.org/2000/svg" xmlns:xlink="http://www.w3.org/1999/xlink" width="32" height="32" viewBox="0 0 32 32">
<path fill="#000" d="M2 23.5h17.709c0.387-0.882 1.268-1.5 2.291-1.5s1.904 0.618 2.291 1.5h5.709v2h-5.709c-0.387 0.882-1.268 1.5-2.291 1.5s-1.904-0.618-2.291-1.5h-17.709z"></path>
<path fill="#000" d="M2 15h5.709c0.387-0.882 1.268-1.5 2.291-1.5s1.904 0.618 2.291 1.5h17.709v2h-17.709c-0.387 0.882-1.268 1.5-2.291 1.5s-1.904-0.618-2.291-1.5h-5.709z"></path>
<path fill="#000" d="M2 6.5h17.709c0.387-0.882 1.268-1.5 2.291-1.5s1.904 0.618 2.291 1.5h5.709v2h-5.709c-0.387 0.882-1.268 1.5-2.291 1.5s-1.904-0.618-2.291-1.5h-17.709z"></path>
</svg>
