<?xml version="1.0" encoding="utf-8"?>
<!-- Generated by IcoMoon.io -->
<!DOCTYPE svg PUBLIC "-//W3C//DTD SVG 1.1//EN" "http://www.w3.org/Graphics/SVG/1.1/DTD/svg11.dtd">
<svg version="1.1" xmlns="http://www.w3.org/2000/svg" xmlns:xlink="http://www.w3.org/1999/xlink" width="32" height="32" viewBox="0 0 32 32">
<path fill="#000" d="M26.594 8.425c0.294-0.369 0.469-0.844 0.469-1.35 0-1.2-0.975-2.181-2.175-2.181-0.512 0-0.981 0.175-1.35 0.469-2.125-1.513-4.688-2.362-7.494-2.362-7.181 0-13.044 5.781-13.044 12.975s5.856 13.025 13.037 13.025c7.181 0 12.962-5.831 12.962-13.025 0-2.813-0.894-5.419-2.406-7.55zM24.875 5.706c0.762 0 1.375 0.619 1.375 1.375 0 0.763-0.619 1.375-1.375 1.375-0.762 0-1.375-0.619-1.375-1.375s0.613-1.375 1.375-1.375zM24.488 24.481c-1.1 1.1-2.387 1.975-3.819 2.581-1.481 0.625-3.012 0.95-4.637 0.95-1.619 0-3.231-0.319-4.713-0.95-1.431-0.606-2.713-1.469-3.819-2.581-1.1-1.1-1.969-2.394-2.575-3.825-0.625-1.481-0.944-3.056-0.944-4.681 0-1.619 0.319-3.2 0.944-4.681 0.606-1.431 1.469-2.719 2.575-3.825s2.387-1.975 3.819-2.581c1.481-0.625 3.088-0.881 4.713-0.881 1.619 0 3.156 0.25 4.637 0.881 0.794 0.338 1.544 0.756 2.244 1.25-0.131 0.281-0.206 0.594-0.206 0.931 0 1.2 0.975 2.181 2.175 2.181 0.331 0 0.644-0.075 0.931-0.206 0.494 0.7 0.913 1.45 1.25 2.25 0.625 1.481 0.944 3.056 0.944 4.681 0 1.619-0.319 3.2-0.944 4.681-0.606 1.431-1.469 2.719-2.575 3.825z"></path>
<path fill="#000" d="M16.031 10.006c-3.313 0-6 2.675-6 5.994s2.681 6.006 6 6.006c3.313 0 6-2.688 6-6.006s-2.688-5.994-6-5.994zM16.031 20.988c-2.756 0-4.981-2.238-4.981-4.988 0-2.756 2.225-4.975 4.981-4.975s4.981 2.225 4.981 4.975c0 2.756-2.231 4.988-4.981 4.988z"></path>
</svg>
