<?xml version="1.0" encoding="utf-8"?>
<!-- Generated by IcoMoon.io -->
<!DOCTYPE svg PUBLIC "-//W3C//DTD SVG 1.1//EN" "http://www.w3.org/Graphics/SVG/1.1/DTD/svg11.dtd">
<svg version="1.1" xmlns="http://www.w3.org/2000/svg" xmlns:xlink="http://www.w3.org/1999/xlink" width="32" height="32" viewBox="0 0 32 32">
<path fill="#000" d="M22.438 14.601l-0.007-0.002c-0.009-0.009-0.019-0.028-0.028-0.036l-4.931-4.938c-0.366-0.375-0.889-0.636-1.472-0.636-0.74 0-1.386 0.386-1.732 1.011h-0c0 0-0.444 0.709-1.145 1.828l2.039 2.491c0.184 0.236 0.207 0.493 0.088 0.612l-0.007 0.007c-0.143 0.143-0.368 0.096-0.612-0.088l-2.248-1.84c-1.476 2.356-3.552 5.671-5.229 8.35l1.195 1.46c0.184 0.236 0.207 0.493 0.088 0.612l-0.007 0.007c-0.143 0.143-0.368 0.096-0.612-0.088l-1.264-1.034c-1.25 1.996-2.168 3.461-2.242 3.58v0c-0.188 0.317-0.313 0.697-0.313 1.105 0 1.105 0.89 2 1.995 2 0.49 0 0.899-0.212 1.289-0.469l7.178-5.262-1.811-2.212c-0.184-0.236-0.207-0.493-0.088-0.612l0.007-0.007c0.143-0.143 0.368-0.096 0.612 0.088l2.373 1.951c3.437-2.518 6.636-4.852 6.636-4.852h0c0.491-0.375 0.814-0.957 0.814-1.616 0-0.545-0.192-1.047-0.567-1.408v-0z"></path>
<path fill="#000" d="M28 8.674l-1.030-1.731-4.139 2.388 3.077-5.326-1.726-1.005-4.375 7.568 1.787 1.787z"></path>
</svg>
