<?xml version="1.0" encoding="utf-8"?>
<!-- Generated by IcoMoon.io -->
<!DOCTYPE svg PUBLIC "-//W3C//DTD SVG 1.1//EN" "http://www.w3.org/Graphics/SVG/1.1/DTD/svg11.dtd">
<svg version="1.1" xmlns="http://www.w3.org/2000/svg" xmlns:xlink="http://www.w3.org/1999/xlink" width="32" height="32" viewBox="0 0 32 32">
<path fill="#000" d="M22.006 6.394c0-0.006 0-0.013 0-0.013-0.006-0.019-0.006-0.031-0.012-0.050 0 0 0-0.006 0-0.006-0.038-0.094-0.113-0.188-0.219-0.213l-0.125-0.025-5.65-1.212v17.038c-0.5 0-1.4 0.025-2.781 0.081-2.613 0.1-3.213 1.35-3.213 2.556 0 1.538 0.825 2.694 3.844 2.563 3.237-0.144 3.213-3.031 3.213-5.106v-12.031l4.6 0.844c0.188 0.037 0.337-0.144 0.337-0.331v-4.025c0-0.025 0.006-0.050 0.006-0.069z"></path>
</svg>
