<?xml version="1.0" encoding="utf-8"?>
<!-- Generated by IcoMoon.io -->
<!DOCTYPE svg PUBLIC "-//W3C//DTD SVG 1.1//EN" "http://www.w3.org/Graphics/SVG/1.1/DTD/svg11.dtd">
<svg version="1.1" xmlns="http://www.w3.org/2000/svg" xmlns:xlink="http://www.w3.org/1999/xlink" width="32" height="32" viewBox="0 0 32 32">
<path fill="#000" d="M27.4 12.025c0.762-0.887 1.225-2.019 1.225-3.263 0.006-2.737-2.219-4.975-5.025-5.131-0.1-0.006-0.194-0.006-0.3-0.006-1.275-0.006-2.444 0.425-3.363 1.131l3.363 3.275-0.656 0.65c-1.606-1.213-3.563-2-5.688-2.181v-0.006c0-0.531-0.438-0.969-0.969-0.969s-0.969 0.438-0.969 0.969v0.006c-2.119 0.181-4.069 0.969-5.669 2.181l-0.65-0.65 3.362-3.275c-0.919-0.713-2.088-1.138-3.356-1.131-0.1 0-0.2 0.006-0.3 0.006-2.813 0.156-5.037 2.394-5.025 5.131 0 1.238 0.462 2.375 1.225 3.262l3.375-3.287 0.594 0.594c-2.194 1.994-3.569 4.875-3.569 8.075 0 2.744 1.013 5.25 2.688 7.169l-2.275 2.788 0.769 0.637 2.2-2.681c1.975 1.887 4.65 3.056 7.6 3.056h0.006c0 0 0.012 0 0.019 0 2.95 0 5.637-1.169 7.613-3.056l2.2 2.688 0.769-0.631-2.281-2.794c1.675-1.925 2.688-4.431 2.688-7.169 0-3.194-1.375-6.081-3.575-8.081l0.594-0.594 3.381 3.287zM4.763 10.488c-0.263-0.537-0.4-1.15-0.406-1.75-0.006-2.194 1.775-4.037 4.094-4.175 0.794-0.044 1.444 0.088 2.006 0.381l-5.694 5.544zM25.994 17.281c0 5.481-4.5 9.819-10.006 9.819-5.5 0-9.988-4.337-9.988-9.819s4.487-9.919 9.994-9.919c5.506 0 10 4.431 10 9.919zM21.544 4.95c0.55-0.3 1.206-0.425 2.006-0.381 2.325 0.125 4.1 1.969 4.094 4.175 0 0.6-0.144 1.213-0.406 1.756l-5.694-5.55z"></path>
<path fill="#000" d="M16 10v8h-6v1h7v-9z"></path>
</svg>
