<?xml version="1.0" encoding="utf-8"?>
<!-- Generated by IcoMoon.io -->
<!DOCTYPE svg PUBLIC "-//W3C//DTD SVG 1.1//EN" "http://www.w3.org/Graphics/SVG/1.1/DTD/svg11.dtd">
<svg version="1.1" xmlns="http://www.w3.org/2000/svg" xmlns:xlink="http://www.w3.org/1999/xlink" width="32" height="32" viewBox="0 0 32 32">
<path fill="#000" d="M18.863 19.913c-0.82 0.689-1.81 1.085-2.863 1.085-2.273 0-4.143-1.81-4.431-3.873h1.913l-2.429-3.125-2.346 3.125h1.842c0.293 2.625 2.607 4.875 5.45 4.875 1.306 0 2.573-0.473 3.567-1.326l0.148-0.135-0.725-0.729-0.127 0.103z"></path>
<path fill="#000" d="M19.733 12.43c-1.012-0.923-2.338-1.427-3.733-1.427-1.306 0-2.573 0.472-3.567 1.325l-0.148 0.128 0.725 0.726 0.127-0.107c0.808-0.679 1.825-1.063 2.863-1.063 2.271 0 4.142 1.8 4.431 3.987h-1.915l2.428 3.202 2.352-3.202h-1.845c-0.14-1.25-0.746-2.684-1.717-3.57z"></path>
<path fill="#000" d="M26.094 10h-3.858c-2.007-2.25-2.639-3-3.408-3h-5.531c-0.77 0-1.385 0.75-3.408 3h-0.827v-1h-2.125v1h-0.844c-1.103 0-2.094 0.826-2.094 1.918v11.001c0 1.092 0.991 2.081 2.094 2.081h20c1.103 0 1.906-0.989 1.906-2.081v-11.001c0-1.092-0.803-1.918-1.906-1.918zM27 22.919c0 0.579-0.389 1.081-0.906 1.081h-20c-0.546 0-1.094-0.541-1.094-1.081v-11.001c0-0.51 0.508-0.918 1.094-0.918h3.796c0 0 0.258 0 0.383 0s0.202-0.012 0.361-0.2 0.481-0.626 0.693-0.862c0.706-0.792 1.216-1.37 1.582-1.696 0.297-0.264 0.388-0.242 0.389-0.242h5.531c0.001 0 0.101-0.023 0.419 0.264 0.384 0.345 0.919 1.053 1.66 1.887 0.18 0.203 0.451 0.507 0.582 0.652s0.266 0.196 0.361 0.196 0.386 0 0.386 0h3.858c0.552 0 0.906 0.373 0.906 0.918v11.001z"></path>
</svg>
