<?xml version="1.0" encoding="utf-8"?>
<!-- Generated by IcoMoon.io -->
<!DOCTYPE svg PUBLIC "-//W3C//DTD SVG 1.1//EN" "http://www.w3.org/Graphics/SVG/1.1/DTD/svg11.dtd">
<svg version="1.1" xmlns="http://www.w3.org/2000/svg" xmlns:xlink="http://www.w3.org/1999/xlink" width="32" height="32" viewBox="0 0 32 32">
<path fill="#000" d="M28.918 17.461c0.008-0.074 0.016-0.148 0.023-0.222 0-0.002 0-0.005 0.001-0.007 0.038-0.405 0.058-0.816 0.058-1.231 0-7.179-5.821-13-13-13-0.497 0-0.987 0.029-1.47 0.083-0.006 0.001-0.011 0.001-0.017 0.002 0 0 0 0 0 0-6.063 0.69-10.861 5.552-11.452 11.645-0 0-0 0-0 0-0.005 0.047-0.008 0.094-0.012 0.14-0.009 0.098-0.016 0.197-0.022 0.296-0.002 0.026-0.003 0.052-0.005 0.078-0.004 0.070-0.007 0.14-0.010 0.211-0.001 0.018-0.001 0.035-0.002 0.053-0.006 0.163-0.010 0.326-0.010 0.491 0 7.179 5.821 13 13 13 0.164 0 0.327-0.004 0.49-0.010 0.018-0.001 0.037-0.001 0.055-0.002 0.069-0.003 0.139-0.006 0.208-0.010 0.028-0.002 0.057-0.004 0.085-0.005 0.1-0.006 0.2-0.014 0.3-0.023 0.044-0.004 0.088-0.007 0.132-0.012 0-0 0-0 0-0 6.093-0.591 10.955-5.389 11.645-11.452 0 0 0 0 0 0 0.001-0.009 0.002-0.017 0.003-0.026zM27.917 16c0 0.16-0.004 0.32-0.010 0.479-0.646-0.029-1.285-0.106-1.913-0.229l0.382-1.191-0.952-0.305-0.405 1.265c-0.474-0.132-0.942-0.291-1.403-0.477-0.311-0.126-0.616-0.264-0.914-0.413l0.72-1.063-0.828-0.561-0.772 1.14c-0.765-0.459-1.481-0.999-2.144-1.613l0.921-0.921-0.707-0.707-0.921 0.921c-0.597-0.644-1.123-1.338-1.573-2.078l1.155-0.783-0.561-0.828-1.083 0.733c-0.162-0.321-0.312-0.648-0.448-0.984-0.178-0.438-0.33-0.883-0.458-1.335l1.301-0.417-0.305-0.952-1.232 0.395c-0.132-0.651-0.213-1.313-0.243-1.983 0.159-0.006 0.319-0.010 0.479-0.010 6.571-0 11.916 5.346 11.916 11.916zM4.084 16c0-0.082 0.001-0.164 0.003-0.246 0.566 0.035 1.127 0.105 1.681 0.213l-0.445 1.387 0.952 0.305 0.469-1.462c0.481 0.133 0.955 0.294 1.421 0.483 0.323 0.131 0.64 0.275 0.95 0.431l-0.838 1.237 0.828 0.561 0.889-1.312c0.752 0.455 1.457 0.987 2.11 1.593l-1.053 1.053 0.707 0.707 1.053-1.053c0.623 0.672 1.169 1.398 1.632 2.175l-1.297 0.879 0.561 0.828 1.217-0.824c0.143 0.288 0.275 0.582 0.397 0.882 0.198 0.487 0.365 0.983 0.501 1.486l-1.427 0.457 0.305 0.952 1.346-0.431c0.101 0.532 0.167 1.070 0.201 1.614-0.082 0.002-0.164 0.003-0.246 0.003-6.571-0-11.916-5.346-11.916-11.917zM17.243 27.852c-0.039-0.623-0.119-1.244-0.241-1.859l1.506-0.483-0.305-0.952-1.431 0.459c-0.247-0.901-0.585-1.782-1.015-2.628l1.261-0.854-0.561-0.828-1.187 0.804c-0.493-0.818-1.077-1.597-1.752-2.322l1.068-1.068-0.707-0.707-1.068 1.068c-0.706-0.658-1.462-1.229-2.257-1.713l0.793-1.171-0.828-0.561-0.84 1.241c-0.847-0.436-1.729-0.779-2.631-1.031l0.447-1.395-0.952-0.305-0.47 1.466c-0.636-0.129-1.28-0.214-1.926-0.254 0.573-5.502 4.906-9.903 10.376-10.582 0.036 0.741 0.131 1.48 0.284 2.209l-1.621 0.52 0.305 0.952 1.556-0.499c0.253 0.884 0.594 1.748 1.024 2.578l-1.395 0.945 0.561 0.828 1.327-0.899c0.48 0.783 1.046 1.528 1.695 2.224l-1.2 1.2 0.707 0.707 1.2-1.2c0.715 0.667 1.483 1.245 2.29 1.734l-0.91 1.343 0.828 0.561 0.958-1.414c0.83 0.424 1.694 0.76 2.577 1.007l-0.511 1.592 0.952 0.305 0.533-1.662c0.706 0.145 1.422 0.235 2.139 0.269-0.678 5.471-5.080 9.803-10.582 10.376z"></path>
</svg>
