<?xml version="1.0" encoding="utf-8"?>
<!-- Generated by IcoMoon.io -->
<!DOCTYPE svg PUBLIC "-//W3C//DTD SVG 1.1//EN" "http://www.w3.org/Graphics/SVG/1.1/DTD/svg11.dtd">
<svg version="1.1" xmlns="http://www.w3.org/2000/svg" xmlns:xlink="http://www.w3.org/1999/xlink" width="32" height="32" viewBox="0 0 32 32">
<path fill="#000" d="M3.5 5.5v21h25v-21h-25zM8 25.5h-3.5v-3h3.5v3zM8 21.5h-3.5v-3h3.5v3zM8 17.5h-3.5v-3h3.5v3zM8 13.5h-3.5v-3h3.5v3zM8 9.5h-3.5v-3h3.5v3zM23 25.5h-14v-9h14v9zM23 15.5h-14v-9h14v9zM27.5 25.5h-3.5v-3h3.5v3zM27.5 21.5h-3.5v-3h3.5v3zM27.5 17.5h-3.5v-3h3.5v3zM27.5 13.5h-3.5v-3h3.5v3zM27.5 9.5h-3.5v-3h3.5v3z"></path>
</svg>
