<?xml version="1.0" encoding="utf-8"?>
<!-- Generated by IcoMoon.io -->
<!DOCTYPE svg PUBLIC "-//W3C//DTD SVG 1.1//EN" "http://www.w3.org/Graphics/SVG/1.1/DTD/svg11.dtd">
<svg version="1.1" xmlns="http://www.w3.org/2000/svg" xmlns:xlink="http://www.w3.org/1999/xlink" width="32" height="32" viewBox="0 0 32 32">
<path fill="#000" d="M16 3c2.137 0 4.146 0.832 5.657 2.343s2.343 3.52 2.343 5.657c0 2.683-1.506 6.695-4.354 11.605-1.392 2.4-2.798 4.477-3.646 5.683-0.845-1.202-2.245-3.27-3.635-5.665-2.855-4.918-4.365-8.937-4.365-11.623 0-2.137 0.832-4.146 2.343-5.657s3.52-2.343 5.657-2.343zM16 2c-4.971 0-9 4.029-9 9 0 7 9 19 9 19s9-12 9-19c0-4.971-4.029-9-9-9v0z"></path>
<path fill="#000" d="M16 7c-2.206 0-4 1.794-4 4s1.794 4 4 4 4-1.794 4-4-1.794-4-4-4zM16 13.931c-1.619 0-2.931-1.313-2.931-2.931s1.313-2.931 2.931-2.931 2.931 1.313 2.931 2.931-1.313 2.931-2.931 2.931z"></path>
</svg>
