<?xml version="1.0" encoding="utf-8"?>
<!-- Generated by IcoMoon.io -->
<!DOCTYPE svg PUBLIC "-//W3C//DTD SVG 1.1//EN" "http://www.w3.org/Graphics/SVG/1.1/DTD/svg11.dtd">
<svg version="1.1" xmlns="http://www.w3.org/2000/svg" xmlns:xlink="http://www.w3.org/1999/xlink" width="32" height="32" viewBox="0 0 32 32">
<path fill="#000" d="M26 8c-1.179 0.26-2.297 0.549-3.356 0.86-2.529 0.741-4.719 1.606-6.59 2.501-1.204 0.576-1.64 0.837-3.22 1.741-3.646 2.086-5.833 4.331-5.833 8.891s3.477 8.007 9 8.007 9-3.447 9-8.007-3.813-7.993 1-13.993v0z"></path>
<path fill="#000" d="M6 6c2.592 2.942 2.789 6.493 2.461 9.046 0.798-0.705 1.949-1.608 3.509-2.587 0.403-0.253 0.832-0.51 1.29-0.77 0.724-0.411 1.471-0.801 2.24-1.173-0.57-0.681-1.379-1.288-2.289-1.818-3.046-1.776-7.211-2.698-7.211-2.698v0z"></path>
<path fill="#000" d="M22 4c0 0-4.914 0.145-8.168 3.904 1.039 0.619 1.858 1.281 2.435 1.971l0.17 0.204c2.322-1.050 5.508-2.13 7.562-2.626-0.399-1.464-2-3.453-2-3.453v0z"></path>
<path fill="#000" d="M11 2c-0.954 1.4-1.605 2.831-1.896 3.75 1.319 0.397 2.217 0.826 3.837 1.661 0.594-0.713 1.276-1.352 2.038-1.909-1.832-2.523-3.979-3.502-3.979-3.502v0z"></path>
</svg>
