<?xml version="1.0" encoding="utf-8"?>
<!-- Generated by IcoMoon.io -->
<!DOCTYPE svg PUBLIC "-//W3C//DTD SVG 1.1//EN" "http://www.w3.org/Graphics/SVG/1.1/DTD/svg11.dtd">
<svg version="1.1" xmlns="http://www.w3.org/2000/svg" xmlns:xlink="http://www.w3.org/1999/xlink" width="32" height="32" viewBox="0 0 32 32">
<path fill="#000" d="M16 3c-7.181 0-13 5.819-13 13s5.819 13 13 13c7.181 0 13-5.819 13-13s-5.819-13-13-13zM16 27.919c-6.569 0-11.919-5.344-11.919-11.919 0-6.569 5.344-11.919 11.919-11.919 6.569 0 11.919 5.344 11.919 11.919 0 6.569-5.35 11.919-11.919 11.919z"></path>
<path fill="#000" d="M16.225 9.125c-2.7 0-4.206 1.269-4.225 3.887h1.175c-0.037-1.9 0.969-2.906 2.994-2.906 1.45 0 2.663 1.012 2.663 2.488 0 0.956-0.519 1.731-1.212 2.381-1.413 1.3-1.813 2.25-1.881 4.031h1.187c0.069-1.613 0.031-1.919 1.456-3.331 0.95-0.887 1.619-1.769 1.619-3.137 0-2.137-1.712-3.412-3.775-3.412z"></path>
<path fill="#000" d="M16.269 20.769c-0.588 0-1.063 0.469-1.063 1.050s0.475 1.056 1.063 1.056c0.587 0 1.063-0.469 1.063-1.056 0-0.581-0.475-1.050-1.063-1.050z"></path>
</svg>
