<?xml version="1.0" encoding="utf-8"?>
<!-- Generated by IcoMoon.io -->
<!DOCTYPE svg PUBLIC "-//W3C//DTD SVG 1.1//EN" "http://www.w3.org/Graphics/SVG/1.1/DTD/svg11.dtd">
<svg version="1.1" xmlns="http://www.w3.org/2000/svg" xmlns:xlink="http://www.w3.org/1999/xlink" width="32" height="32" viewBox="0 0 32 32">
<path fill="#000" d="M21.856 20.137c-0.194-0.194-0.5-0.188-0.706 0l-4.65 4.15v-17.788c0-0.275-0.225-0.5-0.5-0.5s-0.5 0.225-0.5 0.5v17.788l-4.65-4.144c-0.213-0.181-0.506-0.2-0.7-0.006s-0.206 0.531-0.006 0.712c0 0 5.438 4.95 5.5 5s0.175 0.15 0.356 0.15 0.306-0.1 0.356-0.15 5.5-5 5.5-5c0.094-0.094 0.144-0.225 0.144-0.356s-0.050-0.256-0.144-0.356z"></path>
</svg>
