<?xml version="1.0" encoding="utf-8"?>
<!-- Generated by IcoMoon.io -->
<!DOCTYPE svg PUBLIC "-//W3C//DTD SVG 1.1//EN" "http://www.w3.org/Graphics/SVG/1.1/DTD/svg11.dtd">
<svg version="1.1" xmlns="http://www.w3.org/2000/svg" xmlns:xlink="http://www.w3.org/1999/xlink" width="32" height="32" viewBox="0 0 32 32">
<path fill="#000" d="M22.375 14.616l0.026-0.002c-0.009-0.009-0.003-0.006-0.012-0.015l-4.902-4.911c-0.365-0.375-0.887-0.635-1.468-0.635-0.738 0-1.382 0.385-1.727 1.010h-0c0 0-0.443 0.687-1.142 1.805l2.033 2.477c0.184 0.236 0.206 0.488 0.088 0.606l-0.007 0.004c-0.057 0.057-0.126 0.083-0.205 0.083-0.119 0-0.259-0.062-0.405-0.173l-2.242-1.839c-1.472 2.353-3.542 5.665-5.216 8.341l1.192 1.459c0.184 0.236 0.206 0.493 0.088 0.611l-0.007 0.007c-0.057 0.057-0.127 0.084-0.205 0.084-0.119 0-0.258-0.061-0.404-0.172l-1.317-1.033c-1.247 1.994-2.168 3.458-2.293 3.576v0c-0.188 0.316-0.255 0.696-0.255 1.104 0 1.103 0.916 1.998 2.018 1.998 0.489 0 0.911-0.212 1.3-0.469l7.166-5.257-1.802-2.21c-0.184-0.236-0.204-0.493-0.086-0.611l0.008-0.007c0.057-0.057 0.127-0.084 0.206-0.084 0.119 0 0.259 0.061 0.405 0.172l2.367 1.974c3.427-2.515 6.618-4.822 6.618-4.822h0c0.49-0.375 0.78-0.982 0.78-1.64 0-0.544-0.223-1.071-0.598-1.431v-0zM21.596 16.865c-0.166 0.121-2.918 2.121-5.985 4.369l-1.8-1.495c-0.328-0.249-0.666-0.375-1.007-0.375-0.342 0-0.662 0.131-0.904 0.369l-0.004 0.004-0.005 0.005-0.005 0.005c-0.488 0.489-0.485 1.301 0.007 1.932l0.007 0.009 0.007 0.009 1.139 1.395-6.291 4.619c-0.317 0.206-0.527 0.291-0.721 0.291-0.551 0-1-0.448-1-0.999 0-0.193 0.043-0.378 0.126-0.539 0.149-0.198 0.412-0.617 1.166-1.834 0.159-0.257 0.328-0.53 0.508-0.821l0.412 0.333 0.013 0.009c0.328 0.249 0.667 0.375 1.007 0.375 0.345 0 0.668-0.134 0.911-0.376l0.007-0.007c0.488-0.489 0.485-1.301-0.007-1.932l-0.007-0.009-0.007-0.009-0.738-0.903 4.235-6.772 1.395 1.143c0.328 0.249 0.667 0.376 1.008 0.376 0.31 0 0.602-0.108 0.834-0.306l0.029-0.021 0.054-0.055c0.487-0.488 0.484-1.299-0.007-1.928l-0.008-0.010-1.585-1.918c0.185-0.294 0.341-0.531 0.463-0.718l0.326-0.531c0.174-0.314 0.485-0.51 0.855-0.51 0.273 0 0.547 0.128 0.754 0.339l0.294 0.308h0.008l4.301 4.33v0.024l0.324 0.295c0.175 0.168 0.284 0.424 0.284 0.702 0 0.325-0.141 0.633-0.387 0.827z"></path>
<path fill="#000" d="M27.5 7.198l-6.026 3.485 4.141-7.184-0.864-0.499-0.155 0.27-4.423 7.674 1.042 1.043 6.785-3.924z"></path>
</svg>
