<?xml version="1.0" encoding="utf-8"?>
<!-- Generated by IcoMoon.io -->
<!DOCTYPE svg PUBLIC "-//W3C//DTD SVG 1.1//EN" "http://www.w3.org/Graphics/SVG/1.1/DTD/svg11.dtd">
<svg version="1.1" xmlns="http://www.w3.org/2000/svg" xmlns:xlink="http://www.w3.org/1999/xlink" width="32" height="32" viewBox="0 0 32 32">
<path fill="#000" d="M15.25 10.988c0.906 0 1.756 0.3 2.456 0.869 0.681 0.556 1.163 1.331 1.356 2.181l0.194 0.875 0.887-0.113c0.131-0.019 0.256-0.025 0.381-0.025 1.681 0 3.050 1.381 3.050 3.075s-1.369 3.075-3.050 3.075h-9.856c-0.594 0-1.156-0.244-1.588-0.675-0.425-0.438-0.662-1.012-0.662-1.619 0-1.163 0.906-2.113 2.075-2.306 0.1-0.019 0.544-0.075 0.887-0.106 0 0-0.031-0.331-0.037-0.6s-0.006-0.588-0.006-0.719c0.006-2.15 1.756-3.912 3.912-3.912zM15.25 10c-2.688 0-4.894 2.2-4.894 4.906 0 0.162 0.006 0.325 0.025 0.488-1.65 0.144-2.944 1.594-2.944 3.288 0 1.788 1.45 3.319 3.231 3.319h9.856c2.231 0 4.038-1.869 4.038-4.106s-1.806-4.081-4.038-4.081c-0.169 0-0.337 0-0.5 0.019-0.494-2.188-2.462-3.831-4.775-3.831v0z"></path>
</svg>
