<?xml version="1.0" encoding="utf-8"?>
<!-- Generated by IcoMoon.io -->
<!DOCTYPE svg PUBLIC "-//W3C//DTD SVG 1.1//EN" "http://www.w3.org/Graphics/SVG/1.1/DTD/svg11.dtd">
<svg version="1.1" xmlns="http://www.w3.org/2000/svg" xmlns:xlink="http://www.w3.org/1999/xlink" width="32" height="32" viewBox="0 0 32 32">
<path fill="#000" d="M23 4h-14c-1.106 0-2 0.894-2 2v20c0 1.106 0.894 2 2 2h14c1.106 0 2-0.894 2-2v-20c0-1.106-0.894-2-2-2zM22.5 17.5v8h-3v-8h3zM22.5 12.5v3h-3v-3h3zM17.5 22.5v3h-3v-3h3zM17.5 17.5v3h-3v-3h3zM17.5 12.5v3h-3v-3h3zM12.5 22.5v3h-3v-3h3zM12.5 17.5v3h-3v-3h3zM12.5 12.5v3h-3v-3h3zM9.5 9.5v-3h13v3h-13z"></path>
</svg>
