<?xml version="1.0" encoding="utf-8"?>
<!-- Generated by IcoMoon.io -->
<!DOCTYPE svg PUBLIC "-//W3C//DTD SVG 1.1//EN" "http://www.w3.org/Graphics/SVG/1.1/DTD/svg11.dtd">
<svg version="1.1" xmlns="http://www.w3.org/2000/svg" xmlns:xlink="http://www.w3.org/1999/xlink" width="32" height="32" viewBox="0 0 32 32">
<path fill="#000" d="M27.4 12.025c0.762-0.887 1.225-2.019 1.225-3.263 0.006-2.737-2.219-4.975-5.025-5.131-0.1-0.006-0.194-0.006-0.3-0.006-1.275-0.006-2.444 0.425-3.363 1.131l3.363 3.275-0.663 0.65c-1.606-1.213-3.575-2-5.7-2.181v-0.006c0-0.531-0.438-0.969-0.969-0.969s-0.969 0.438-0.969 0.969v0.006c-2.125 0.181-4.063 0.969-5.662 2.181l-0.65-0.644 3.363-3.275c-0.919-0.713-2.088-1.138-3.356-1.131-0.1 0-0.2 0.006-0.3 0.006-2.813 0.156-5.037 2.394-5.025 5.131 0 1.238 0.462 2.375 1.225 3.263l3.375-3.287 0.594 0.594c-2.194 1.994-3.569 4.875-3.569 8.075 0 2.744 1.013 5.25 2.688 7.169l-2.275 2.788 0.781 0.631 2.2-2.681c1.975 1.887 4.65 3.056 7.6 3.056h0.006c0 0 0.012 0 0.019 0 2.95 0 5.637-1.169 7.613-3.056l2.2 2.688 0.769-0.631-2.281-2.794c1.675-1.925 2.688-4.431 2.688-7.169 0-3.194-1.375-6.081-3.575-8.081l0.594-0.594 3.381 3.287zM17 19h-7v-1h6v-8h1v9z"></path>
</svg>
