<?xml version="1.0" encoding="utf-8"?>
<!-- Generated by IcoMoon.io -->
<!DOCTYPE svg PUBLIC "-//W3C//DTD SVG 1.1//EN" "http://www.w3.org/Graphics/SVG/1.1/DTD/svg11.dtd">
<svg version="1.1" xmlns="http://www.w3.org/2000/svg" xmlns:xlink="http://www.w3.org/1999/xlink" width="32" height="32" viewBox="0 0 32 32">
<path fill="#000" d="M28.202 11.756c-1.159-1.133-2.705-1.756-4.353-1.756s-3.193 0.623-4.353 1.756l-2.639 2.574 0.853 0.84 2.639-2.582c0.933-0.908 2.173-1.411 3.492-1.411s2.559 0.503 3.492 1.411c1.925 1.884 1.925 4.946 0 6.822-0.933 0.908-2.173 1.411-3.492 1.411s-2.559-0.503-3.492-1.411l-7.845-7.655c-1.167-1.133-2.712-1.756-4.353-1.756-1.648 0-3.193 0.623-4.353 1.756-1.198 1.169-1.798 2.709-1.799 4.244-0.001 1.538 0.598 3.072 1.799 4.244 1.159 1.133 2.705 1.756 4.353 1.756s3.193-0.623 4.353-1.756l2.632-2.574-0.853-0.833-2.639 2.574c-0.933 0.908-2.173 1.411-3.492 1.411s-2.559-0.503-3.492-1.411c-1.925-1.884-1.925-4.946 0-6.822 0.933-0.908 2.173-1.411 3.492-1.411s2.559 0.503 3.492 1.411l7.845 7.655c1.166 1.133 2.712 1.756 4.353 1.756 1.648 0 3.193-0.623 4.353-1.756 1.203-1.167 1.805-2.706 1.805-4.244s-0.599-3.073-1.798-4.244z"></path>
</svg>
