<?xml version="1.0" encoding="utf-8"?>
<!-- Generated by IcoMoon.io -->
<!DOCTYPE svg PUBLIC "-//W3C//DTD SVG 1.1//EN" "http://www.w3.org/Graphics/SVG/1.1/DTD/svg11.dtd">
<svg version="1.1" xmlns="http://www.w3.org/2000/svg" xmlns:xlink="http://www.w3.org/1999/xlink" width="32" height="32" viewBox="0 0 32 32">
<path fill="#000" d="M14.787 16.975c0.287 0.356 0.719 0.587 1.213 0.587 0.863 0 1.563-0.7 1.563-1.563 0-0.456-0.2-0.863-0.512-1.15-0.038-0.044-0.081-0.094-0.137-0.137 0 0-7.356-5.469-7.519-5.325s5.331 7.512 5.331 7.512c0.012 0.025 0.044 0.050 0.063 0.075z"></path>
<path fill="#000" d="M16.012 3v0h-0.012v7h1v-5.919c6.113 0.519 10.956 5.656 10.956 11.906 0 6.594-5.356 11.963-11.95 11.963s-11.956-5.363-11.956-11.956c0-3.3 1.344-6.287 3.506-8.45l-0.744-0.737c-2.356 2.356-3.813 5.606-3.813 9.194 0 7.181 5.819 13 13 13s13-5.819 13-13c0-7.181-5.813-13-12.988-13z"></path>
</svg>
