<?xml version="1.0" encoding="utf-8"?>
<!-- Generated by IcoMoon.io -->
<!DOCTYPE svg PUBLIC "-//W3C//DTD SVG 1.1//EN" "http://www.w3.org/Graphics/SVG/1.1/DTD/svg11.dtd">
<svg version="1.1" xmlns="http://www.w3.org/2000/svg" xmlns:xlink="http://www.w3.org/1999/xlink" width="32" height="32" viewBox="0 0 32 32">
<path fill="#000" d="M16 6c-6.631 0-12 4.319-12 9.644 0 1.919 0.7 3.706 1.9 5.206 0.056 0.056 0.181 0.238 0.225 0.306 0 0-0.063-0.1-0.069-0.119 0 0 0 0 0 0v0c0 0 0 0 0 0 0.144 0.206 0.225 0.444 0.225 0.7 0 0.087-1.119 3.625-1.119 3.625v0c-0.081 0.275 0.131 0.556 0.475 0.625 0.050 0.012 0.1 0.012 0.15 0.012 0.081 0 0.156-0.012 0.231-0.031l0.1-0.038 3.163-1.375c0.056-0.025 0.563-0.219 0.625-0.244 0 0 0.037-0.012 0.037-0.012s-0.006 0-0.037 0.012c0.213-0.075 0.45-0.113 0.7-0.113 0.225 0 0.444 0.031 0.644 0.094 0.006 0 0.012 0 0.012 0.006 0.031 0.012 0.063 0.019 0.094 0.031 1.444 0.494 3.025 0.644 4.694 0.644 6.625 0 11.938-4.006 11.938-9.331 0.012-5.325-5.363-9.644-11.988-9.644v0z"></path>
</svg>
