<?xml version="1.0" encoding="utf-8"?>
<!-- Generated by IcoMoon.io -->
<!DOCTYPE svg PUBLIC "-//W3C//DTD SVG 1.1//EN" "http://www.w3.org/Graphics/SVG/1.1/DTD/svg11.dtd">
<svg version="1.1" xmlns="http://www.w3.org/2000/svg" xmlns:xlink="http://www.w3.org/1999/xlink" width="32" height="32" viewBox="0 0 32 32">
<path fill="#000" d="M3.003 15.722c-0 0.002-0 0.005-0 0.007 0 0 0 0 0 0 0-0.002 0-0.005 0-0.007z"></path>
<path fill="#000" d="M16.269 28.995c0.004-0 0.008-0 0.012-0-0.004 0-0.008 0-0.012 0 0 0 0 0 0 0z"></path>
<path fill="#000" d="M16 3c-0.162 0-0.331 0.004-0.491 0.010l-0.009-0c0 0 0 0 0 0-0.313 0.012-0.625 0.038-1 0.075 0-0 0-0 0-0.001s0.005 0.001 0.005 0.001c-6.061 0.691-10.853 5.561-11.446 11.651-0 0.001 0.003 0.014 0.003 0.014s0 0 0 0c-0.032 0.313-0.052 0.625-0.058 1-0 0-0 0-0 0l0-0.009c-0.002 0.089-0.003 0.174-0.003 0.263 0 7.178 5.811 12.996 12.99 12.996 0.428 0 0.885-0.024 1.26-0.064 0 0 0 0 0 0s0.013-0 0.015-0.001c6.090-0.593 10.953-5.38 11.645-11.44 0-0.001 0.006 0.005 0.006 0.005s-0 0-0 0c0.056-0.5 0.085-0.991 0.085-1.494 0-7.178-5.821-13.006-13-13.006zM8.164 16.678c-1.306-0.53-2.674-0.839-4.078-0.926 0.007-0.336 0.027-0.668 0.062-0.997 3.285 0.205 6.513 1.561 9.023 4.072s3.867 5.737 4.072 9.022c-0.329 0.034-0.661 0.055-0.997 0.062-0.087-1.403-0.396-2.771-0.926-4.077-0.654-1.612-1.615-3.059-2.856-4.3s-2.688-2.202-4.3-2.856zM18.608 13.392c-2.56-2.56-3.921-5.865-4.083-9.217 0.328-0.041 0.661-0.067 0.996-0.081 0.067 1.478 0.382 2.919 0.938 4.291 0.654 1.612 1.615 3.059 2.856 4.3s2.688 2.202 4.3 2.856c1.372 0.556 2.813 0.871 4.291 0.938-0.013 0.336-0.040 0.668-0.081 0.996-3.352-0.163-6.657-1.523-9.218-4.083z"></path>
</svg>
