<?xml version="1.0" encoding="utf-8"?>
<!-- Generated by IcoMoon.io -->
<!DOCTYPE svg PUBLIC "-//W3C//DTD SVG 1.1//EN" "http://www.w3.org/Graphics/SVG/1.1/DTD/svg11.dtd">
<svg version="1.1" xmlns="http://www.w3.org/2000/svg" xmlns:xlink="http://www.w3.org/1999/xlink" width="32" height="32" viewBox="0 0 32 32">
<path fill="#000" d="M15.5 27.188l-3.419-3.363-0.731 0.712 4.656 4.588 4.656-4.587-0.738-0.712-3.425 3.363v-6.688h-1z"></path>
<path fill="#000" d="M24.95 10.275c0-0.075 0.012-0.144 0.012-0.219 0-3.969-3.306-7.181-7.3-7.181-2.881 0-5.363 1.675-6.525 4.088-0.506-0.25-1.069-0.394-1.675-0.394-1.85 0-3.381 1.456-3.681 3.206-2.2 0.75-3.788 2.713-3.788 5.15 0 3.069 2.506 5.575 5.6 5.575h7.906v-8.438h1v8.438h8.375c2.813 0 5.119-2.325 5.119-5.131s-2.212-5.088-5.044-5.094z"></path>
</svg>
