<?xml version="1.0" encoding="utf-8"?>
<!-- Generated by IcoMoon.io -->
<!DOCTYPE svg PUBLIC "-//W3C//DTD SVG 1.1//EN" "http://www.w3.org/Graphics/SVG/1.1/DTD/svg11.dtd">
<svg version="1.1" xmlns="http://www.w3.org/2000/svg" xmlns:xlink="http://www.w3.org/1999/xlink" width="32" height="32" viewBox="0 0 32 32">
<path fill="#000" d="M24.663 21.325c-1.844 0-3.337 1.494-3.337 3.337s1.494 3.337 3.337 3.337c1.844 0 3.337-1.494 3.337-3.337s-1.494-3.337-3.337-3.337zM24.663 27c-1.288 0-2.337-1.050-2.337-2.337s1.050-2.337 2.337-2.337 2.337 1.050 2.337 2.337c0 1.288-1.050 2.337-2.337 2.337z"></path>
<path fill="#000" d="M16 21.325c-1.844 0-3.338 1.494-3.338 3.337s1.494 3.337 3.338 3.337c1.844 0 3.337-1.494 3.337-3.337s-1.494-3.337-3.338-3.337zM16 27c-1.287 0-2.338-1.050-2.338-2.337s1.050-2.337 2.338-2.337 2.337 1.050 2.337 2.337c0 1.288-1.050 2.337-2.338 2.337z"></path>
<path fill="#000" d="M7.338 21.325c-1.844 0-3.338 1.494-3.338 3.337s1.494 3.337 3.338 3.337c1.844 0 3.338-1.494 3.338-3.337s-1.494-3.337-3.338-3.337zM7.338 27c-1.287 0-2.338-1.050-2.338-2.337s1.050-2.337 2.338-2.337 2.338 1.050 2.338 2.337c0 1.288-1.044 2.337-2.338 2.337z"></path>
<path fill="#000" d="M24.663 12.662c-1.844 0-3.337 1.494-3.337 3.338s1.494 3.337 3.337 3.337c1.844 0 3.337-1.494 3.337-3.338s-1.494-3.338-3.337-3.338zM24.663 18.337c-1.288 0-2.337-1.050-2.337-2.338s1.050-2.338 2.337-2.338 2.337 1.050 2.337 2.338c0 1.287-1.050 2.338-2.337 2.338z"></path>
<path fill="#000" d="M16 12.662c-1.844 0-3.338 1.494-3.338 3.338s1.494 3.337 3.338 3.337c1.844 0 3.337-1.494 3.337-3.338s-1.494-3.338-3.338-3.338zM16 18.337c-1.287 0-2.338-1.050-2.338-2.338s1.050-2.338 2.338-2.338 2.337 1.050 2.337 2.338c0 1.287-1.050 2.338-2.338 2.338z"></path>
<path fill="#000" d="M7.338 12.662c-1.844 0-3.338 1.494-3.338 3.338s1.494 3.337 3.338 3.337c1.844 0 3.338-1.494 3.338-3.338s-1.494-3.338-3.338-3.338zM7.338 18.337c-1.287 0-2.338-1.050-2.338-2.338s1.050-2.338 2.338-2.338 2.338 1.050 2.338 2.338c0 1.287-1.044 2.338-2.338 2.338z"></path>
<path fill="#000" d="M24.663 10.675c1.844 0 3.337-1.494 3.337-3.338s-1.494-3.338-3.337-3.338c-1.844 0-3.337 1.494-3.337 3.338s1.494 3.338 3.337 3.338zM24.663 5c1.288 0 2.337 1.050 2.337 2.338s-1.050 2.338-2.337 2.338-2.337-1.050-2.337-2.338c0-1.287 1.044-2.338 2.337-2.338z"></path>
<path fill="#000" d="M16 4c-1.844 0-3.338 1.494-3.338 3.338s1.494 3.338 3.338 3.338c1.844 0 3.337-1.494 3.337-3.338s-1.494-3.338-3.338-3.338zM16 9.675c-1.287 0-2.338-1.050-2.338-2.338s1.050-2.338 2.338-2.338 2.337 1.050 2.337 2.338c0 1.287-1.050 2.338-2.338 2.338z"></path>
<path fill="#000" d="M7.338 4c-1.844 0-3.338 1.494-3.338 3.338s1.494 3.338 3.338 3.338c1.844 0 3.338-1.494 3.338-3.338s-1.494-3.338-3.338-3.338zM7.338 9.675c-1.287 0-2.338-1.050-2.338-2.338s1.050-2.338 2.338-2.338 2.338 1.050 2.338 2.338c0 1.287-1.044 2.338-2.338 2.338z"></path>
</svg>
