<?xml version="1.0" encoding="utf-8"?>
<!-- Generated by IcoMoon.io -->
<!DOCTYPE svg PUBLIC "-//W3C//DTD SVG 1.1//EN" "http://www.w3.org/Graphics/SVG/1.1/DTD/svg11.dtd">
<svg version="1.1" xmlns="http://www.w3.org/2000/svg" xmlns:xlink="http://www.w3.org/1999/xlink" width="32" height="32" viewBox="0 0 32 32">
<path fill="#000" d="M12.001 9.354l-2.128 2.128 16.006 16.006 2.121-2.128-15.999-16.006zM13.287 13.481l0.713-0.713 12.592 12.592-0.713 0.713-12.592-12.592z"></path>
<path fill="#000" d="M11.5 4h1v2.5h-1v-2.5z"></path>
<path fill="#000" d="M11.5 16.75h1v2.5h-1v-2.5z"></path>
<path fill="#000" d="M17.5 11h2.5v1h-2.5v-1z"></path>
<path fill="#000" d="M4 11h2.5v1h-2.5v-1z"></path>
<path fill="#000" d="M8.73 7.66l-0.707 0.707-1.768-1.768 0.707-0.707 1.768 1.768z"></path>
<path fill="#000" d="M6.962 17.383l-0.707-0.707 1.768-1.768 0.707 0.707-1.768 1.768z"></path>
<path fill="#000" d="M15.978 8.367l-0.707-0.707 1.768-1.768 0.707 0.707-1.768 1.768z"></path>
</svg>
