<?xml version="1.0" encoding="utf-8"?>
<!-- Generated by IcoMoon.io -->
<!DOCTYPE svg PUBLIC "-//W3C//DTD SVG 1.1//EN" "http://www.w3.org/Graphics/SVG/1.1/DTD/svg11.dtd">
<svg version="1.1" xmlns="http://www.w3.org/2000/svg" xmlns:xlink="http://www.w3.org/1999/xlink" width="32" height="32" viewBox="0 0 32 32">
<path fill="#000" d="M28 17.047v-2.001l-2.081-0.544-0.163-0.825 1.725-1.307-0.762-1.851-2.149 0.3-0.469-0.663 1.106-1.857-1.412-1.413-1.887 1.088-0.669-0.456 0.331-2.188-1.843-0.769-1.35 1.769-0.769-0.163-0.544-2.169h-1.999l-0.575 2.182-0.756 0.15-1.343-1.813-1.85 0.769 0.3 2.232-0.731 0.45-1.956-1.169-1.412 1.413 1.175 1.969-0.419 0.656-2.218-0.313-0.762 1.851 1.806 1.357-0.15 0.763-2.175 0.556v2.001l2.168 0.556 0.15 0.781-1.775 1.332 0.769 1.844 2.187-0.313 0.444 0.706-1.119 1.913 1.412 1.413 1.887-1.138 0.7 0.456-0.281 2.144 1.85 0.763 1.287-1.738 0.837 0.156 0.55 2.069h1.999l0.519-2.069 0.85-0.163 1.293 1.694 1.85-0.763-0.312-2.107 0.637-0.463 1.812 1.056 1.412-1.413-1.050-1.807 0.494-0.713 2.112 0.3 0.769-1.844-1.7-1.282 0.169-0.844 2.081-0.538zM26.232 20.048l-0.175 0.419-1.993-0.281-1.181 1.738 0.981 1.694-0.325 0.325-1.706-0.994-1.662 1.138 0.3 1.988-0.419 0.175-1.225-1.6-2.056 0.406-0.487 1.951h-0.45l-0.525-1.957-2.037-0.406-1.218 1.65-0.419-0.175 0.275-2.032-1.718-1.144-1.8 1.094-0.319-0.319 1.062-1.819-1.131-1.725-2.074 0.294-0.169-0.413 1.681-1.263-0.387-1.988-2.062-0.531v-0.45l2.062-0.525 0.394-1.976-1.706-1.282 0.169-0.413 2.106 0.3 1.112-1.675-1.125-1.876 0.312-0.313 1.862 1.113 1.743-1.138-0.281-2.113 0.419-0.175 1.268 1.713 1.968-0.381 0.55-2.075h0.45l0.519 2.063 1.981 0.394 1.256-1.675 0.412 0.175-0.312 2.069 1.7 1.132 1.768-1.013 0.319 0.319-1.043 1.75 1.15 1.688 2.031-0.288 0.175 0.419-1.637 1.232 0.406 2.032 1.956 0.506v0.45l-1.962 0.506-0.406 2.044 1.625 1.238z"></path>
<path fill="#000" d="M16 8c-4.418 0-8 3.582-8 8s3.582 8 8 8 8-3.582 8-8c0-4.418-3.582-8-8-8zM9 16c0-1.87 0.728-3.628 2.050-4.95s3.080-2.050 4.95-2.050c0.468 0 0.93 0.046 1.379 0.135l-1.736 6.496-6.51 1.743c-0.089-0.448-0.134-0.907-0.134-1.374zM16 23c-1.87 0-3.628-0.728-4.95-2.050-0.745-0.745-1.302-1.629-1.646-2.594l6.464-1.719 4.683 4.681c-1.267 1.088-2.864 1.682-4.552 1.682zM21.26 20.619l-4.685-4.688 1.753-6.536c0.975 0.343 1.869 0.903 2.622 1.655 1.322 1.322 2.050 3.080 2.050 4.95 0 1.718-0.615 3.341-1.74 4.619z"></path>
</svg>
