<?xml version="1.0" encoding="utf-8"?>
<!-- Generated by IcoMoon.io -->
<!DOCTYPE svg PUBLIC "-//W3C//DTD SVG 1.1//EN" "http://www.w3.org/Graphics/SVG/1.1/DTD/svg11.dtd">
<svg version="1.1" xmlns="http://www.w3.org/2000/svg" xmlns:xlink="http://www.w3.org/1999/xlink" width="32" height="32" viewBox="0 0 32 32">
<path fill="#000" d="M18.328 9.395l-1.753 6.536 4.685 4.688c1.125-1.278 1.74-2.901 1.74-4.619 0-1.87-0.728-3.628-2.050-4.95-0.753-0.753-1.646-1.312-2.622-1.655z"></path>
<path fill="#000" d="M17.379 9.135c-0.449-0.089-0.911-0.135-1.379-0.135-1.87 0-3.628 0.728-4.95 2.050s-2.050 3.080-2.050 4.95c0 0.467 0.045 0.927 0.134 1.374l6.51-1.743 1.736-6.496z"></path>
<path fill="#000" d="M9.405 18.356c0.344 0.964 0.9 1.848 1.646 2.594 1.322 1.322 3.080 2.050 4.95 2.050 1.688 0 3.285-0.594 4.552-1.682l-4.683-4.681-6.464 1.719z"></path>
<path fill="#000" d="M28 17.047v-2.001l-2.081-0.544-0.163-0.825 1.725-1.307-0.762-1.851-2.149 0.3-0.469-0.663 1.106-1.857-1.412-1.413-1.887 1.088-0.669-0.456 0.331-2.188-1.843-0.769-1.35 1.769-0.769-0.163-0.544-2.169h-1.999l-0.575 2.182-0.756 0.15-1.343-1.813-1.85 0.769 0.3 2.232-0.731 0.45-1.956-1.169-1.412 1.413 1.175 1.969-0.419 0.656-2.218-0.313-0.762 1.851 1.806 1.357-0.15 0.763-2.175 0.556v2l2.168 0.556 0.15 0.781-1.775 1.332 0.769 1.844 2.187-0.313 0.444 0.706-1.119 1.913 1.412 1.413 1.887-1.138 0.7 0.456-0.281 2.144 1.85 0.763 1.287-1.738 0.837 0.156 0.55 2.069h1.999l0.519-2.069 0.85-0.163 1.293 1.694 1.85-0.763-0.312-2.107 0.637-0.462 1.812 1.056 1.412-1.413-1.050-1.807 0.494-0.713 2.112 0.3 0.769-1.844-1.7-1.282 0.169-0.844 2.081-0.538zM16 24c-4.418 0-8-3.582-8-8s3.582-8 8-8 8 3.582 8 8c0 4.418-3.582 8-8 8z"></path>
</svg>
