<?xml version="1.0" encoding="utf-8"?>
<!-- Generated by IcoMoon.io -->
<!DOCTYPE svg PUBLIC "-//W3C//DTD SVG 1.1//EN" "http://www.w3.org/Graphics/SVG/1.1/DTD/svg11.dtd">
<svg version="1.1" xmlns="http://www.w3.org/2000/svg" xmlns:xlink="http://www.w3.org/1999/xlink" width="32" height="32" viewBox="0 0 32 32">
<path fill="#000" d="M27 4h-9.4c-0.644 0-1.206 0.287-1.6 0.731v0 0c-0.387-0.45-0.956-0.731-1.6-0.731h-9.4c-1.175 0-2.063 0.831-2.063 2v17.881c0 1.175 0.888 2.119 2.063 2.119 0 0 8.094 0 8.956 0s1.544 0.262 1.544 1.212c0 0.569 0 0.788 0 0.788h1c0 0 0-0.212 0-0.788 0-0.956 0.681-1.212 1.544-1.212s8.956 0 8.956 0c1.175 0 2.063-0.944 2.063-2.119v-17.881c0-1.169-0.887-2-2.063-2zM15.5 25.694c-0.294-0.488-0.844-0.694-1.488-0.694h-9.012c-0.588 0-1-0.531-1-1.119v-17.881c0-0.588 0.412-1 1-1 0 0 8.162 0 8.956 0 0.8 0 1.544 0.8 1.544 1.388v19.306zM20 5c1.175 0 2.688 0 4 0v6.275l-1.431-0.906-0.569-0.4-0.569 0.4-1.431 0.906v-6.275zM28 23.881c0 0.587-0.413 1.119-1 1.119h-9.012c-0.644 0-1.194 0.144-1.488 0.694v-19.306c0-0.588 0.744-1.388 1.544-1.388 0.137 0 0.481 0 0.956 0v8.188l3-2 3 2v-8.188c1.163 0 2 0 2 0 0.587 0 1 0.419 1 1v17.881z"></path>
</svg>
