<?xml version="1.0" encoding="utf-8"?>
<!-- Generated by IcoMoon.io -->
<!DOCTYPE svg PUBLIC "-//W3C//DTD SVG 1.1//EN" "http://www.w3.org/Graphics/SVG/1.1/DTD/svg11.dtd">
<svg version="1.1" xmlns="http://www.w3.org/2000/svg" xmlns:xlink="http://www.w3.org/1999/xlink" width="32" height="32" viewBox="0 0 32 32">
<path fill="#000" d="M15.438 6h1.125v3.5h-1.125v-3.5z"></path>
<path fill="#000" d="M15.438 22.25h1.125v3.75h-1.125v-3.75z"></path>
<path fill="#000" d="M22.5 15.438h3.5v1.125h-3.5v-1.125z"></path>
<path fill="#000" d="M6 15.438h3.75v1.125h-3.75v-1.125z"></path>
<path fill="#000" d="M23.141 22.018l-0.742 0.742-2.112-2.112 0.742-0.742 2.112 2.112z"></path>
<path fill="#000" d="M12.097 10.967l-0.742 0.742-2.117-2.117 0.742-0.742 2.117 2.117z"></path>
<path fill="#000" d="M22.396 8.859l0.742 0.742-2.112 2.112-0.742-0.742 2.112-2.112z"></path>
<path fill="#000" d="M11.348 19.9l0.742 0.743-2.117 2.117-0.742-0.743 2.117-2.117z"></path>
<path fill="#000" d="M16 20.738c-2.613 0-4.738-2.125-4.738-4.738s2.125-4.738 4.738-4.738c2.613 0 4.738 2.125 4.738 4.738s-2.125 4.738-4.738 4.738zM16 12.319c-2.031 0-3.681 1.65-3.681 3.681s1.65 3.681 3.681 3.681c2.031 0 3.681-1.65 3.681-3.681s-1.65-3.681-3.681-3.681z"></path>
</svg>
