<?xml version="1.0" encoding="utf-8"?>
<!-- Generated by IcoMoon.io -->
<!DOCTYPE svg PUBLIC "-//W3C//DTD SVG 1.1//EN" "http://www.w3.org/Graphics/SVG/1.1/DTD/svg11.dtd">
<svg version="1.1" xmlns="http://www.w3.org/2000/svg" xmlns:xlink="http://www.w3.org/1999/xlink" width="32" height="32" viewBox="0 0 32 32">
<path fill="#000" d="M16 4.031c3.194 0 6.2 1.244 8.462 3.506s3.506 5.263 3.506 8.463-1.244 6.2-3.506 8.462-5.262 3.506-8.463 3.506-6.2-1.244-8.463-3.506c-2.256-2.262-3.506-5.269-3.506-8.463s1.244-6.2 3.506-8.463c2.262-2.256 5.269-3.506 8.463-3.506zM16 3c-7.181 0-13 5.819-13 13s5.819 13 13 13c7.181 0 13-5.819 13-13s-5.819-13-13-13v0z"></path>
<path fill="#000" d="M22 10l-13.981 6h7.981v8z"></path>
</svg>
