<?xml version="1.0" encoding="utf-8"?>
<!-- Generated by IcoMoon.io -->
<!DOCTYPE svg PUBLIC "-//W3C//DTD SVG 1.1//EN" "http://www.w3.org/Graphics/SVG/1.1/DTD/svg11.dtd">
<svg version="1.1" xmlns="http://www.w3.org/2000/svg" xmlns:xlink="http://www.w3.org/1999/xlink" width="32" height="32" viewBox="0 0 32 32">
<path fill="#000" d="M29.087 15.438c-0.137-1.375-0.775-2.688-1.806-3.65-1.069-0.994-2.456-1.544-3.919-1.544-2.594 0-4.831 1.713-5.531 4.188-0.438-0.438-1.156-0.731-1.831-0.731s-1.394 0.294-1.831 0.731c-0.7-2.475-2.938-4.188-5.531-4.188-1.456 0-2.85 0.544-3.919 1.537-1.031 0.969-1.669 2.281-1.806 3.656h-0.913v1.125h0.913c0.138 1.375 0.775 2.688 1.806 3.65 1.069 0.994 2.456 1.544 3.919 1.544 3.175 0 5.756-2.575 5.756-5.75 0-0.006 0-0.006 0-0.006v0c0-0.619 0.719-1.35 1.606-1.35s1.606 0.731 1.606 1.35v0c0 0 0 0 0 0.006 0 3.175 2.581 5.75 5.756 5.75 1.456 0 2.85-0.544 3.919-1.544 1.031-0.962 1.669-2.281 1.806-3.656h0.913v-1.125h-0.913z"></path>
</svg>
