<?xml version="1.0" encoding="utf-8"?>
<!-- Generated by IcoMoon.io -->
<!DOCTYPE svg PUBLIC "-//W3C//DTD SVG 1.1//EN" "http://www.w3.org/Graphics/SVG/1.1/DTD/svg11.dtd">
<svg version="1.1" xmlns="http://www.w3.org/2000/svg" xmlns:xlink="http://www.w3.org/1999/xlink" width="32" height="32" viewBox="0 0 32 32">
<path fill="#000" d="M23.663 8.337c-4.544-4.544-11.827-5.337-16.36-5.337-2.433 0-4.074 0.229-4.074 0.229s-1.874 13.452 5.109 20.434c4.544 4.544 11.826 5.337 16.36 5.337 2.433 0 4.075-0.229 4.075-0.229s1.874-13.452-5.108-20.434zM4.071 4.075c0.687-0.063 1.827-0.138 3.232-0.138h0.009l-0.004-0.004c1.698 0 3.323 0.11 4.862 0.326l-7.912 7.911c-0.064-0.455-0.119-0.919-0.165-1.39-0.287-2.965-0.13-5.514-0.021-6.705zM8.994 23.006c-1.491-1.491-2.675-3.434-3.519-5.775-0.436-1.208-0.782-2.523-1.036-3.929l8.863-8.862c0.667 0.121 1.316 0.262 1.946 0.425 3.252 0.843 5.861 2.232 7.759 4.129 1.491 1.491 2.674 3.433 3.519 5.774 0.436 1.208 0.782 2.523 1.035 3.929l-8.863 8.863c-0.666-0.121-1.315-0.262-1.944-0.425-3.252-0.843-5.863-2.233-7.76-4.13zM27.929 27.929c-0.687 0.063-1.827 0.142-3.232 0.142-1.7 0-3.327-0.111-4.867-0.328l7.913-7.913c0.064 0.455 0.119 0.918 0.165 1.39 0.287 2.965 0.13 5.519 0.021 6.709z"></path>
<path fill="#000" d="M19.206 19.865l1.414 1.415-1.791 1.791 0.707 0.707 4.243-4.243-0.707-0.707-1.795 1.795-1.414-1.414 1.795-1.795-0.707-0.707-1.795 1.795-1.415-1.415 1.794-1.794-0.707-0.707-1.794 1.794-1.414-1.414 1.794-1.794-0.707-0.707-1.793 1.793-1.414-1.415 1.793-1.793-0.707-0.707-1.793 1.793-1.414-1.414 1.793-1.793-0.707-0.707-4.243 4.243 0.707 0.707 1.793-1.793 1.414 1.414-1.793 1.793 0.707 0.707 1.793-1.793 1.414 1.415-1.792 1.792 0.707 0.707 1.792-1.792 1.414 1.414-1.792 1.792 0.707 0.707 1.792-1.792 1.415 1.415-1.791 1.791 0.707 0.707z"></path>
</svg>
