<?xml version="1.0" encoding="utf-8"?>
<!-- Generated by IcoMoon.io -->
<!DOCTYPE svg PUBLIC "-//W3C//DTD SVG 1.1//EN" "http://www.w3.org/Graphics/SVG/1.1/DTD/svg11.dtd">
<svg version="1.1" xmlns="http://www.w3.org/2000/svg" xmlns:xlink="http://www.w3.org/1999/xlink" width="32" height="32" viewBox="0 0 32 32">
<path fill="#000" d="M11.813 13.988c0.906 0 1.756 0.3 2.456 0.869 0.681 0.556 1.162 1.331 1.356 2.181l0.194 0.875 0.888-0.113c0.131-0.019 0.256-0.025 0.381-0.025 1.681 0 3.050 1.381 3.050 3.075s-1.369 3.075-3.050 3.075h-9.856c-0.594 0-1.156-0.244-1.588-0.675-0.425-0.438-0.662-1.012-0.662-1.619 0-1.163 0.906-2.113 2.075-2.306 0.1-0.019 0.55-0.075 0.888-0.106 0 0-0.031-0.331-0.037-0.6s-0.006-0.587-0.006-0.719c0.006-2.15 1.756-3.912 3.912-3.912zM11.813 13c-2.706 0-4.894 2.2-4.894 4.906 0 0.163 0.006 0.325 0.025 0.488-1.65 0.15-2.944 1.594-2.944 3.288 0 1.788 1.45 3.319 3.231 3.319h9.856c2.231 0 4.038-1.869 4.038-4.106s-1.806-4.081-4.038-4.081c-0.169 0-0.337 0-0.5 0.019-0.494-2.188-2.444-3.831-4.775-3.831v0z"></path>
<path fill="#000" d="M26.538 19.1c-0.125 0.006-0.244 0.006-0.369 0.006-2.019 0-3.919-0.788-5.344-2.219s-2.212-3.331-2.212-5.356c0-1.15 0.256-2.262 0.738-3.275 0.212-0.444 0.469-0.869 0.769-1.263-0.525 0.056-1.038 0.169-1.525 0.319-2.325 0.737-4.194 2.513-5.063 4.781 0.369 0.075 0.725 0.188 1.063 0.338 0.631-1.594 1.837-2.9 3.363-3.662-0.288 0.869-0.444 1.794-0.444 2.756 0 1.706 0.494 3.3 1.337 4.638 0.863 1.363 2.094 2.469 3.55 3.181 0.956 0.462 2.012 0.756 3.125 0.844-0.875 0.762-1.95 1.306-3.125 1.55-0.119 0.431-0.306 0.837-0.538 1.206 2.1-0.225 3.956-1.256 5.25-2.788 0.337-0.394 0.637-0.825 0.887-1.281-0.475 0.131-0.962 0.2-1.462 0.225z"></path>
</svg>
