<?xml version="1.0" encoding="utf-8"?>
<!-- Generated by IcoMoon.io -->
<!DOCTYPE svg PUBLIC "-//W3C//DTD SVG 1.1//EN" "http://www.w3.org/Graphics/SVG/1.1/DTD/svg11.dtd">
<svg version="1.1" xmlns="http://www.w3.org/2000/svg" xmlns:xlink="http://www.w3.org/1999/xlink" width="32" height="32" viewBox="0 0 32 32">
<path fill="#000" d="M28.019 26.544l-7.081-7.088c1.3-1.625 2.081-3.694 2.081-5.944 0-5.256-4.256-9.512-9.5-9.512-5.25 0-9.5 4.263-9.5 9.512s4.256 9.513 9.5 9.513c2.262 0 4.338-0.794 5.969-2.113l7.075 7.088 1.456-1.456zM7.506 19.538c-1.606-1.606-2.487-3.744-2.487-6.019s0.888-4.412 2.487-6.019 3.744-2.5 6.013-2.5c2.269 0 4.406 0.888 6.012 2.494s2.488 3.744 2.488 6.019-0.887 4.412-2.488 6.019c-1.606 1.606-3.744 2.494-6.012 2.494-2.269 0.006-4.406-0.881-6.013-2.488z"></path>
</svg>
