<?xml version="1.0" encoding="utf-8"?>
<!-- Generated by IcoMoon.io -->
<!DOCTYPE svg PUBLIC "-//W3C//DTD SVG 1.1//EN" "http://www.w3.org/Graphics/SVG/1.1/DTD/svg11.dtd">
<svg version="1.1" xmlns="http://www.w3.org/2000/svg" xmlns:xlink="http://www.w3.org/1999/xlink" width="32" height="32" viewBox="0 0 32 32">
<path fill="#000" d="M19.255 12.746c-0.691 0-1.255 0.563-1.255 1.257s0.564 1.257 1.255 1.257c0.696 0 1.259-0.564 1.259-1.257s-0.564-1.256-1.259-1.256z"></path>
<path fill="#000" d="M21.999 15.492c-0.691 0-1.253 0.559-1.253 1.257 0 0.692 0.562 1.251 1.253 1.251 0.697 0 1.259-0.559 1.259-1.251 0-0.697-0.563-1.257-1.259-1.257z"></path>
<path fill="#000" d="M8.452 11.523c-1.353 0-2.452 1.113-2.452 2.478 0 1.367 1.1 2.476 2.452 2.476s2.453-1.11 2.453-2.476c0-1.365-1.1-2.478-2.453-2.478zM8.445 15.216c-0.668 0-1.209-0.545-1.209-1.215s0.541-1.215 1.209-1.215c0.665 0 1.206 0.545 1.206 1.215s-0.541 1.215-1.206 1.215z"></path>
<path fill="#000" d="M21.999 10c-0.691 0-1.253 0.563-1.253 1.257s0.562 1.255 1.253 1.255c0.697 0 1.259-0.562 1.259-1.255s-0.563-1.257-1.259-1.257z"></path>
<path fill="#000" d="M24.747 12.746c-0.694 0-1.256 0.563-1.256 1.257s0.562 1.257 1.256 1.257c0.691 0 1.253-0.564 1.253-1.257s-0.562-1.256-1.253-1.256z"></path>
<path fill="#000" d="M29.142 15.554c-1.322-5.529-2.727-8.468-5.528-9.302-0.61-0.181-1.13-0.252-1.609-0.252-1.725 0-2.934 0.918-6.005 0.918-3.073 0-4.281-0.918-6.004-0.918-0.479 0-0.998 0.071-1.608 0.252-2.804 0.834-4.209 3.772-5.529 9.302-1.324 5.53-1.083 9.523 0.48 10.268 0.254 0.122 0.514 0.178 0.778 0.178 1.356 0 2.821-1.49 4.229-3.253 1.603-2.007 2.007-2.060 6.892-2.060h1.521c4.884 0 5.289 0.053 6.893 2.060 1.408 1.763 2.873 3.25 4.229 3.25 0.264 0 0.524-0.055 0.779-0.176 1.563-0.745 1.803-4.737 0.482-10.267zM28.23 24.92c-0.115 0.055-0.225 0.080-0.348 0.080-0.376 0-0.88-0.253-1.456-0.732-0.574-0.477-1.207-1.157-1.992-2.14-0.81-1.014-1.479-1.764-2.721-2.122-1.040-0.3-2.414-0.319-4.953-0.319h-1.521c-2.54 0-3.913 0.019-4.954 0.319-1.241 0.357-1.91 1.105-2.72 2.119-0.785 0.983-1.418 1.664-1.991 2.141-0.576 0.479-1.079 0.732-1.456 0.732-0.121 0-0.234-0.026-0.348-0.080-0.597-0.285-1.411-2.98 0.062-9.133 1.337-5.599 2.649-7.924 4.841-8.575 0.477-0.142 0.91-0.211 1.322-0.211 0.609 0 1.162 0.145 1.863 0.328 1.004 0.263 2.255 0.59 4.141 0.59 1.884 0 3.134-0.327 4.138-0.589 0.702-0.183 1.256-0.328 1.867-0.328 0.414 0 0.847 0.069 1.324 0.211 2.19 0.652 3.502 2.976 4.841 8.576 1.47 6.154 0.657 8.848 0.060 9.133z"></path>
</svg>
