<?xml version="1.0" encoding="utf-8"?>
<!-- Generated by IcoMoon.io -->
<!DOCTYPE svg PUBLIC "-//W3C//DTD SVG 1.1//EN" "http://www.w3.org/Graphics/SVG/1.1/DTD/svg11.dtd">
<svg version="1.1" xmlns="http://www.w3.org/2000/svg" xmlns:xlink="http://www.w3.org/1999/xlink" width="32" height="32" viewBox="0 0 32 32">
<path fill="#000" d="M26.094 10h-3.856c-2.006-2.25-2.637-3-3.406-3h-5.531c-0.769 0-1.387 0.75-3.406 3h-0.831v-1h-2.125v1h-0.844c-1.1 0-2.094 0.825-2.094 1.919v11c0 1.094 0.994 2.081 2.094 2.081h20c1.1 0 1.906-0.988 1.906-2.081v-11c0-1.094-0.806-1.919-1.906-1.919zM16 22.531c-2.944 0-5.344-2.4-5.344-5.344s2.4-5.344 5.344-5.344 5.344 2.4 5.344 5.344-2.4 5.344-5.344 5.344zM23.063 13.063h-1.063v-1.063h1.063v1.063z"></path>
<path fill="#000" d="M16 12.844c-2.4 0-4.344 1.944-4.344 4.344s1.944 4.344 4.344 4.344 4.344-1.944 4.344-4.344-1.944-4.344-4.344-4.344zM16 19.188c-1.106 0-2-0.894-2-2s0.894-2 2-2 2 0.894 2 2-0.894 2-2 2z"></path>
</svg>
