<?xml version="1.0" encoding="utf-8"?>
<!-- Generated by IcoMoon.io -->
<!DOCTYPE svg PUBLIC "-//W3C//DTD SVG 1.1//EN" "http://www.w3.org/Graphics/SVG/1.1/DTD/svg11.dtd">
<svg version="1.1" xmlns="http://www.w3.org/2000/svg" xmlns:xlink="http://www.w3.org/1999/xlink" width="32" height="32" viewBox="0 0 32 32">
<path fill="#000" d="M19 4.99c0 1.657-1.343 3-3 3s-3-1.343-3-3c0-1.657 1.343-3 3-3s3 1.343 3 3z"></path>
<path fill="#000" d="M26.5 9h-21c-0.828 0-1.5 0.672-1.5 1.5s0.672 1.5 1.5 1.5h6.153c0.349 0.063 0.825 0.24 1.076 0.891 0.291 0.754 0.148 2.1-0.034 3.233l-0.236 1.337c-0.001 0.006-0.002 0.013-0.004 0.019-0 0-0 0.001-0 0.001l-1.898 10.767c-0.144 0.816 0.401 1.594 1.217 1.738s1.583-0.401 1.727-1.217l1.311-7.497v0.010c0 0 0.391-2.032 1.153-2.032h0.069c0.778 0 1.153 2.032 1.153 2.032v-0.005l1.311 7.495c0.144 0.816 0.916 1.359 1.732 1.215s1.358-0.923 1.214-1.738l-1.9-10.767c-0-0-0.001-0.001-0.001-0.002-0.001-0.006-0.003-0.014-0.004-0.020l-0.236-1.338c-0.182-1.133-0.324-2.477-0.034-3.23 0.251-0.651 0.727-0.828 1.076-0.891h6.153c0.828 0 1.5-0.672 1.5-1.5s-0.672-1.5-1.5-1.5z"></path>
</svg>
