<?xml version="1.0" encoding="utf-8"?>
<!-- Generated by IcoMoon.io -->
<!DOCTYPE svg PUBLIC "-//W3C//DTD SVG 1.1//EN" "http://www.w3.org/Graphics/SVG/1.1/DTD/svg11.dtd">
<svg version="1.1" xmlns="http://www.w3.org/2000/svg" xmlns:xlink="http://www.w3.org/1999/xlink" width="32" height="32" viewBox="0 0 32 32">
<path fill="#000" d="M23.079 9.125h-14.158c-3.825 0-6.921 2.841-6.921 6.839 0 4 3.096 6.911 6.921 6.911h14.158c3.826 0 6.921-2.911 6.921-6.911 0-3.998-3.094-6.839-6.921-6.839zM12.5 16.669c0 0.169-0.151 0.331-0.327 0.331h-2.173v2.196c0 0.177-0.194 0.304-0.363 0.304h-1.339c-0.164 0-0.298-0.12-0.298-0.283v-2.217h-2.196c-0.177 0-0.304-0.194-0.304-0.363v-1.339c0-0.164 0.12-0.298 0.283-0.298h2.217v-2.176c0-0.175 0.116-0.324 0.285-0.324h1.384c0.169 0 0.331 0.151 0.331 0.327v2.173h2.176c0.175 0 0.324 0.116 0.324 0.285v1.384zM19.985 17.218c-0.671 0-1.216-0.537-1.216-1.197s0.545-1.198 1.216-1.198c0.674 0 1.219 0.538 1.219 1.198s-0.545 1.197-1.219 1.197zM22.645 19.831c-0.671 0-1.216-0.533-1.216-1.193 0-0.665 0.545-1.197 1.216-1.197 0.674 0 1.219 0.532 1.219 1.197 0 0.66-0.545 1.193-1.219 1.193zM22.645 14.601c-0.671 0-1.216-0.536-1.216-1.197s0.545-1.198 1.216-1.198c0.674 0 1.219 0.538 1.219 1.198s-0.545 1.197-1.219 1.197zM25.304 17.218c-0.671 0-1.215-0.537-1.215-1.197s0.545-1.198 1.215-1.198c0.671 0 1.216 0.538 1.216 1.198s-0.545 1.197-1.216 1.197z"></path>
</svg>
