<?xml version="1.0" encoding="utf-8"?>
<!-- Generated by IcoMoon.io -->
<!DOCTYPE svg PUBLIC "-//W3C//DTD SVG 1.1//EN" "http://www.w3.org/Graphics/SVG/1.1/DTD/svg11.dtd">
<svg version="1.1" xmlns="http://www.w3.org/2000/svg" xmlns:xlink="http://www.w3.org/1999/xlink" width="32" height="32" viewBox="0 0 32 32">
<path fill="#000" d="M16 4c6.619 0 11.981 5.356 11.994 11.969l3.438-3.281 0.563 0.569-4.394 4.244-4.162-4.244 0.563-0.569 3.194 3.275c-0.019-6.156-5.031-11.162-11.194-11.162-6.175 0-11.2 5.025-11.2 11.2s5.025 11.2 11.2 11.2c4.913 0 9.094-3.188 10.594-7.6l0.775 0.219c-1.6 4.756-6.081 8.181-11.369 8.181-6.625 0-12-5.375-12-12s5.375-12 12-12z"></path>
</svg>
