<?xml version="1.0" encoding="utf-8"?>
<!-- Generated by IcoMoon.io -->
<!DOCTYPE svg PUBLIC "-//W3C//DTD SVG 1.1//EN" "http://www.w3.org/Graphics/SVG/1.1/DTD/svg11.dtd">
<svg version="1.1" xmlns="http://www.w3.org/2000/svg" xmlns:xlink="http://www.w3.org/1999/xlink" width="32" height="32" viewBox="0 0 32 32">
<path fill="#000" d="M28 18c-0.954 0-1.752 0.668-1.951 1.563h-3.688l-1.886-5.681c-0.069-0.208-0.265-0.346-0.485-0.342s-0.41 0.151-0.47 0.362l-3.39 11.832-3.636-21.816c-0.039-0.234-0.237-0.408-0.473-0.417-0.238-0.009-0.448 0.149-0.505 0.379l-3.906 15.683h-5.609v1h6c0.23 0 0.43-0.156 0.485-0.379l3.418-13.724 3.604 21.623c0.038 0.23 0.231 0.404 0.465 0.417 0.010 0.001 0.019 0.001 0.029 0.001 0.222 0 0.419-0.147 0.48-0.362l3.555-12.406 1.49 4.488c0.068 0.204 0.259 0.342 0.475 0.342h4.081c0.243 0.831 1.010 1.438 1.919 1.438 1.105 0 2-0.895 2-2s-0.895-2-2-2z"></path>
</svg>
