<?xml version="1.0" encoding="utf-8"?>
<!-- Generated by IcoMoon.io -->
<!DOCTYPE svg PUBLIC "-//W3C//DTD SVG 1.1//EN" "http://www.w3.org/Graphics/SVG/1.1/DTD/svg11.dtd">
<svg version="1.1" xmlns="http://www.w3.org/2000/svg" xmlns:xlink="http://www.w3.org/1999/xlink" width="32" height="32" viewBox="0 0 32 32">
<path fill="#000" d="M26.538 19.1c-0.125 0.006-0.244 0.006-0.369 0.006-2.019 0-3.919-0.788-5.344-2.219s-2.212-3.331-2.212-5.356c0-1.15 0.256-2.262 0.738-3.275 0.212-0.444 0.469-0.869 0.769-1.263-0.525 0.056-1.038 0.169-1.525 0.319-2.325 0.737-4.194 2.513-5.063 4.781-0.019 0.050-0.037 0.094-0.056 0.144 0.744 0.219 1.444 0.588 2.050 1.081 0.813 0.662 1.431 1.531 1.8 2.506 1.256 0.056 2.431 0.588 3.331 1.5 0.95 0.962 1.469 2.244 1.469 3.587 0 0.712-0.15 1.406-0.425 2.050 0.050-0.006 0.1-0.006 0.156-0.012 2.1-0.225 3.956-1.256 5.25-2.788 0.337-0.394 0.637-0.825 0.887-1.281-0.469 0.125-0.956 0.194-1.456 0.219z"></path>
<path fill="#000" d="M11.813 13.063c-2.706 0-4.894 2.2-4.894 4.906 0 0.163 0.006 0.325 0.025 0.488-1.65 0.15-2.944 1.594-2.944 3.288 0 1.788 1.45 3.319 3.231 3.319h9.856c2.231 0 4.038-1.869 4.038-4.106s-1.806-4.081-4.038-4.081c-0.169 0-0.337 0-0.5 0.019-0.494-2.188-2.444-3.831-4.775-3.831v0z"></path>
</svg>
