<?xml version="1.0" encoding="utf-8"?>
<!-- Generated by IcoMoon.io -->
<!DOCTYPE svg PUBLIC "-//W3C//DTD SVG 1.1//EN" "http://www.w3.org/Graphics/SVG/1.1/DTD/svg11.dtd">
<svg version="1.1" xmlns="http://www.w3.org/2000/svg" xmlns:xlink="http://www.w3.org/1999/xlink" width="32" height="32" viewBox="0 0 32 32">
<path fill="#000" d="M16 3c-7.181 0-13 5.819-13 13s5.819 13 13 13c7.181 0 13-5.819 13-13s-5.819-13-13-13zM9.406 9.406c0.162-0.144 7.494 5.306 7.494 5.306 0.063 0.044 0.1 0.094 0.137 0.137 0.313 0.287 0.512 0.688 0.512 1.144 0 0.856-0.694 1.556-1.556 1.556-0.488 0-0.919-0.231-1.206-0.587-0.025-0.025-0.050-0.044-0.069-0.069 0.006 0.006-5.469-7.338-5.313-7.488zM16.006 27.95c-6.606 0-11.963-5.356-11.963-11.963 0-3.3 1.338-6.294 3.5-8.456l0.738 0.738c-1.975 1.975-3.2 4.706-3.2 7.719 0 6.019 4.9 10.919 10.919 10.919s10.906-4.9 10.906-10.919c0-5.644-4.406-10.319-9.906-10.875v4.887h-1v-5.975c6.606 0 11.969 5.356 11.969 11.963s-5.363 11.963-11.962 11.963z"></path>
</svg>
