<?xml version="1.0" encoding="utf-8"?>
<!-- Generated by IcoMoon.io -->
<!DOCTYPE svg PUBLIC "-//W3C//DTD SVG 1.1//EN" "http://www.w3.org/Graphics/SVG/1.1/DTD/svg11.dtd">
<svg version="1.1" xmlns="http://www.w3.org/2000/svg" xmlns:xlink="http://www.w3.org/1999/xlink" width="32" height="32" viewBox="0 0 32 32">
<path fill="#000" d="M12.176 15h-2.176v-2.173c0-0.176-0.163-0.327-0.331-0.327h-1.384c-0.169 0-0.284 0.148-0.284 0.324v2.176h-2.217c-0.163 0-0.283 0.134-0.283 0.298v1.339c0 0.169 0.127 0.363 0.304 0.363h2.196v2.217c0 0.163 0.134 0.283 0.298 0.283h1.339c0.169 0 0.363-0.127 0.363-0.304v-2.196h2.173c0.176 0 0.327-0.163 0.327-0.331v-1.384c-0-0.169-0.148-0.284-0.324-0.284z"></path>
<path fill="#000" d="M22.645 17.441c-0.671 0-1.216 0.532-1.216 1.197 0 0.66 0.545 1.193 1.216 1.193 0.674 0 1.219-0.533 1.219-1.193 0-0.665-0.545-1.197-1.219-1.197z"></path>
<path fill="#000" d="M19.985 14.823c-0.671 0-1.216 0.538-1.216 1.198s0.545 1.197 1.216 1.197c0.674 0 1.219-0.537 1.219-1.197s-0.545-1.198-1.219-1.198z"></path>
<path fill="#000" d="M25.304 14.823c-0.671 0-1.215 0.538-1.215 1.198s0.545 1.197 1.215 1.197c0.671 0 1.216-0.537 1.216-1.197s-0.545-1.198-1.216-1.198z"></path>
<path fill="#000" d="M22.645 12.206c-0.671 0-1.216 0.538-1.216 1.198s0.545 1.197 1.216 1.197c0.674 0 1.219-0.536 1.219-1.197s-0.545-1.198-1.219-1.198z"></path>
<path fill="#000" d="M23.079 10.125c1.615 0 3.107 0.582 4.2 1.639 1.11 1.072 1.72 2.564 1.72 4.199 0 1.644-0.613 3.15-1.726 4.242-1.098 1.077-2.587 1.67-4.195 1.67h-14.158c-1.607 0-3.097-0.593-4.195-1.67-1.113-1.092-1.726-2.598-1.726-4.242 0-1.635 0.611-3.127 1.721-4.199 1.094-1.057 2.586-1.639 4.2-1.639h14.158zM23.079 9.125h-14.158c-3.825 0-6.921 2.841-6.921 6.839 0 4 3.096 6.911 6.921 6.911h14.158c3.826 0 6.921-2.911 6.921-6.911 0-3.998-3.094-6.839-6.921-6.839v0z"></path>
</svg>
