<?xml version="1.0" encoding="utf-8"?>
<!-- Generated by IcoMoon.io -->
<!DOCTYPE svg PUBLIC "-//W3C//DTD SVG 1.1//EN" "http://www.w3.org/Graphics/SVG/1.1/DTD/svg11.dtd">
<svg version="1.1" xmlns="http://www.w3.org/2000/svg" xmlns:xlink="http://www.w3.org/1999/xlink" width="32" height="32" viewBox="0 0 32 32">
<path fill="#000" d="M27.307 23.153l-7.307-12.215v-7.938h1v-1h-2v9.214l0.157 0.237 7.286 12.177c0.422 0.801 0.582 1.622 0.563 2.372-0.015 0.584-0.122 1.121-0.409 1.598-0.529 0.881-1.451 1.402-2.535 1.402h-15.993c-1.094 0-2.029-0.527-2.565-1.419-0.744-1.238-0.681-2.384 0.142-3.946l5.718-9.635h3.636v-1h-3.043l0.918-1.547 0.125-0.24v-0.213h3v-1h-3v-2h2v-1h-2v-2h3v-1h-3v-2h-2v1h1v7.938l-7.242 12.215c-0.526 0.989-0.782 1.961-0.756 2.847 0.066 2.282 1.794 4 4.067 4h15.993c2.268 0 3.883-1.725 3.937-4 0.021-0.89-0.163-1.853-0.691-2.847z"></path>
<path fill="#000" d="M6.768 23.413c-0.432 0.659-0.684 1.506-0.684 2.097 0 1.724 0.989 2.49 2.855 2.49h14.121c1.863 0 2.811-0.982 2.855-2.497 0.017-0.593-0.196-1.421-0.63-2.083l-4.49-7.42h-9.577l-4.45 7.413zM20.232 17l4.198 6.929 0.009 0.008 0.010 0.011c0.336 0.513 0.478 1.142 0.467 1.511-0.014 0.49-0.155 0.874-0.418 1.112-0.298 0.27-0.796 0.428-1.438 0.428h-14.121c-0.691 0-1.204-0.14-1.483-0.375-0.092-0.078-0.372-0.321-0.372-1.131 0-0.371 0.179-1.024 0.52-1.545l0.011-0.019 0.010-0.003 4.159-6.928h8.446z"></path>
</svg>
