<?xml version="1.0" encoding="utf-8"?>
<!-- Generated by IcoMoon.io -->
<!DOCTYPE svg PUBLIC "-//W3C//DTD SVG 1.1//EN" "http://www.w3.org/Graphics/SVG/1.1/DTD/svg11.dtd">
<svg version="1.1" xmlns="http://www.w3.org/2000/svg" xmlns:xlink="http://www.w3.org/1999/xlink" width="32" height="32" viewBox="0 0 32 32">
<path fill="#000" d="M26.022 16.003c-0-1.313 0.821-2.434 1.978-2.879-0.305-1.279-0.81-2.481-1.479-3.571-0.398 0.177-0.827 0.266-1.255 0.266-0.789 0-1.577-0.301-2.179-0.903-0.929-0.929-1.14-2.303-0.636-3.436-1.090-0.67-2.291-1.175-3.571-1.48-0.444 1.158-1.565 1.981-2.88 1.981s-2.436-0.823-2.88-1.981c-1.279 0.306-2.481 0.811-3.571 1.481 0.504 1.133 0.293 2.506-0.636 3.436-0.602 0.602-1.391 0.903-2.179 0.903-0.428 0-0.857-0.089-1.255-0.266-0.669 1.090-1.174 2.292-1.479 3.571 1.157 0.444 1.978 1.566 1.978 2.879s-0.821 2.433-1.977 2.878c0.306 1.279 0.811 2.481 1.481 3.57 0.398-0.176 0.825-0.265 1.252-0.265 0.789 0 1.577 0.301 2.179 0.903 0.928 0.928 1.14 2.299 0.638 3.431 1.090 0.669 2.292 1.174 3.571 1.48 0.446-1.155 1.565-1.975 2.877-1.975s2.432 0.82 2.877 1.975c1.279-0.306 2.481-0.81 3.571-1.48-0.501-1.132-0.289-2.503 0.639-3.43 0.602-0.602 1.39-0.903 2.179-0.903 0.427 0 0.854 0.088 1.252 0.265 0.67-1.090 1.175-2.291 1.481-3.57-1.156-0.445-1.977-1.566-1.977-2.878zM16.056 20.994c-2.769 0-5-2.244-5-5s2.231-5 5-5c2.769 0 5 2.244 5 5s-2.231 5-5 5z"></path>
</svg>
