<?xml version="1.0" encoding="utf-8"?>
<!-- Generated by IcoMoon.io -->
<!DOCTYPE svg PUBLIC "-//W3C//DTD SVG 1.1//EN" "http://www.w3.org/Graphics/SVG/1.1/DTD/svg11.dtd">
<svg version="1.1" xmlns="http://www.w3.org/2000/svg" xmlns:xlink="http://www.w3.org/1999/xlink" width="32" height="32" viewBox="0 0 32 32">
<path fill="#000" d="M16 3c-7.181 0-13 5.819-13 13s5.819 13 13 13c7.181 0 13-5.819 13-13s-5.819-13-13-13zM16 27.919c-3.662 0-6.944-1.663-9.131-4.269 1.112-0.481 3.888-1.481 5.644-1.994 0.137-0.044 0.162-0.050 0.162-0.669 0-0.663-0.075-1.131-0.238-1.475-0.219-0.469-0.481-1.262-0.575-1.975-0.262-0.306-0.619-0.906-0.85-2.056-0.2-1.012-0.106-1.381 0.025-1.725 0.012-0.037 0.031-0.075 0.037-0.113 0.050-0.231-0.019-1.469-0.194-2.425-0.119-0.656 0.031-2.050 0.938-3.206 0.569-0.731 1.662-1.625 3.625-1.75h1.094c1.994 0.125 3.087 1.019 3.656 1.75 0.906 1.156 1.056 2.55 0.931 3.206-0.175 0.956-0.244 2.188-0.194 2.425 0.006 0.037 0.025 0.075 0.038 0.106 0.131 0.344 0.231 0.713 0.025 1.725-0.231 1.15-0.587 1.75-0.85 2.056-0.094 0.712-0.356 1.5-0.575 1.975-0.206 0.431-0.413 0.944-0.413 1.456 0 0.619 0.025 0.625 0.169 0.669 1.669 0.494 4.544 1.488 5.813 2.006-2.188 2.613-5.469 4.281-9.137 4.281z"></path>
</svg>
