<?xml version="1.0" encoding="utf-8"?>
<!-- Generated by IcoMoon.io -->
<!DOCTYPE svg PUBLIC "-//W3C//DTD SVG 1.1//EN" "http://www.w3.org/Graphics/SVG/1.1/DTD/svg11.dtd">
<svg version="1.1" xmlns="http://www.w3.org/2000/svg" xmlns:xlink="http://www.w3.org/1999/xlink" width="32" height="32" viewBox="0 0 32 32">
<path fill="#000" d="M21.726 4c-2.559 0-4.945 0.875-5.724 2.781-0.846-1.906-3.165-2.781-5.724-2.781-3.45 0-6.279 1.624-6.279 4.938v17.688h1.384c0.804-1.646 2.765-2.625 4.895-2.625 2.514 0 4.617 1.721 5.101 4h1.232c0.484-2.279 2.593-4 5.108-4 2.13 0 3.822 0.729 4.902 2.625h1.378v-17.688c0-3.314-2.824-4.938-6.274-4.938zM15.5 25.683c-1.125-1.617-3.046-2.683-5.219-2.683s-4.031 0.628-5.219 2.245l-0.063 0.034v-16.466c0.188-2.614 2.506-3.813 5.268-3.813 2.823 0 5.134 1.169 5.21 3.863-0.001 0.046 0.001 0.091 0.001 0.137l0.021 0.819v15.864zM27 9.25v15.995c-1.125-1.617-3.108-2.245-5.281-2.245s-4.094 1.066-5.219 2.683v-16.683c0-2.757 2.354-4 5.224-4 2.763 0 5.088 0.698 5.276 3.313v0.938z"></path>
</svg>
