<?xml version="1.0" encoding="utf-8"?>
<!-- Generated by IcoMoon.io -->
<!DOCTYPE svg PUBLIC "-//W3C//DTD SVG 1.1//EN" "http://www.w3.org/Graphics/SVG/1.1/DTD/svg11.dtd">
<svg version="1.1" xmlns="http://www.w3.org/2000/svg" xmlns:xlink="http://www.w3.org/1999/xlink" width="32" height="32" viewBox="0 0 32 32">
<path fill="#000" d="M24.439 23.937l-0.009-0.008-4.198-6.929h-8.447l-4.159 6.928-0.010 0.003-0.011 0.019c-0.341 0.521-0.52 1.173-0.52 1.545 0 0.809 0.28 1.053 0.372 1.131 0.279 0.235 0.792 0.375 1.483 0.375h14.121c0.642 0 1.139-0.158 1.438-0.428 0.263-0.238 0.403-0.622 0.418-1.112 0.011-0.369-0.131-0.998-0.467-1.511l-0.010-0.011z"></path>
<path fill="#000" d="M27.307 23.153l-7.307-12.215v-7.938h1v-1h-10v1h1v7.938l-7.242 12.215c-0.526 0.989-0.782 1.961-0.756 2.847 0.066 2.282 1.794 4 4.067 4h15.993c2.268 0 3.883-1.725 3.937-4 0.021-0.89-0.163-1.853-0.691-2.847zM13 4h3v1h-3v-1zM13 7h2v1h-2v-1zM13 10h3v1h-3v-1zM11.954 13h3.046v1h-3.636l0.59-1zM25.915 25.503c-0.044 1.515-0.992 2.497-2.855 2.497h-14.121c-1.866 0-2.855-0.766-2.855-2.49 0-0.591 0.252-1.438 0.684-2.097l4.45-7.413h9.577l4.49 7.42c0.434 0.662 0.648 1.49 0.63 2.083z"></path>
</svg>
