<?xml version="1.0" encoding="utf-8"?>
<!-- Generated by IcoMoon.io -->
<!DOCTYPE svg PUBLIC "-//W3C//DTD SVG 1.1//EN" "http://www.w3.org/Graphics/SVG/1.1/DTD/svg11.dtd">
<svg version="1.1" xmlns="http://www.w3.org/2000/svg" xmlns:xlink="http://www.w3.org/1999/xlink" width="32" height="32" viewBox="0 0 32 32">
<path fill="#000" d="M18.981 8h-13.813c-1.175 0-2.231 0.881-2.231 2.044v11.744c0 1.163 1.056 2.212 2.231 2.212h13.813c1.175 0 2.081-1.050 2.081-2.212v-11.744c0-1.162-0.906-2.044-2.081-2.044zM20 21.788c0 0.581-0.431 1.15-1.019 1.15h-13.813c-0.588 0-1.169-0.569-1.169-1.15v-11.744c0-0.581 0.563-0.969 1.15-0.969l13.813 0.006c0.587 0 1.038 0.381 1.038 0.963v11.744z"></path>
<path fill="#000" d="M22.938 13.313v5.35l6.125 3.337v-12l-6.125 3.313zM28 11.875v8.269l-4-2.094v-4.1l4.006-2.1-0.006 0.025z"></path>
</svg>
