<?xml version="1.0" encoding="utf-8"?>
<!-- Generated by IcoMoon.io -->
<!DOCTYPE svg PUBLIC "-//W3C//DTD SVG 1.1//EN" "http://www.w3.org/Graphics/SVG/1.1/DTD/svg11.dtd">
<svg version="1.1" xmlns="http://www.w3.org/2000/svg" xmlns:xlink="http://www.w3.org/1999/xlink" width="32" height="32" viewBox="0 0 32 32">
<path fill="#000" d="M24.691 17.766c3.496 0 5.309-0.726 5.309-1.75s-1.814-1.75-5.309-1.75c-1.796 0-4.044 0.462-5.806 0.911-0.061-0.214-0.144-0.418-0.248-0.609 1.563-0.928 3.478-2.191 4.747-3.46 2.472-2.472 3.251-4.279 2.527-5.003-0.172-0.172-0.404-0.259-0.692-0.259-0.926 0-2.425 0.901-4.31 2.786-1.268 1.268-2.529 3.18-3.457 4.742-0.191-0.106-0.396-0.191-0.61-0.254 0.448-1.761 0.908-4.004 0.908-5.796 0-3.495-0.726-5.324-1.75-5.324s-1.75 1.829-1.75 5.325c0 1.792 0.46 4.035 0.909 5.796-0.214 0.063-0.418 0.148-0.61 0.254-0.928-1.562-2.189-3.474-3.457-4.742-1.885-1.885-3.384-2.786-4.31-2.786-0.288 0-0.521 0.087-0.692 0.259-0.724 0.724 0.056 2.531 2.527 5.003 1.269 1.269 3.184 2.531 4.747 3.46-0.104 0.191-0.187 0.396-0.248 0.609-1.762-0.449-4.011-0.911-5.806-0.911-3.495-0-5.309 0.711-5.309 1.734s1.813 1.766 5.309 1.766c1.799 0 4.051-0.463 5.815-0.913 0.063 0.212 0.148 0.414 0.253 0.604-1.566 0.929-3.488 2.195-4.76 3.467-2.472 2.472-3.251 4.279-2.527 5.003 0.172 0.172 0.404 0.259 0.692 0.259 0.926 0 2.425-0.901 4.31-2.786 1.274-1.274 2.541-3.199 3.47-4.765 0.19 0.104 0.392 0.187 0.603 0.248-0.451 1.765-0.916 4.023-0.916 5.825 0 3.495 0.726 5.293 1.75 5.293s1.75-1.798 1.75-5.293c0-1.802-0.465-4.060-0.916-5.825 0.212-0.061 0.414-0.144 0.603-0.248 0.929 1.566 2.197 3.491 3.47 4.765 1.885 1.885 3.384 2.786 4.31 2.786 0.288 0 0.521-0.087 0.692-0.259 0.724-0.724-0.056-2.531-2.527-5.003-1.273-1.272-3.195-2.538-4.76-3.467 0.105-0.189 0.191-0.392 0.253-0.604 1.763 0.45 4.016 0.913 5.815 0.913zM20 15.934c1.884-0.438 3.493-0.668 4.692-0.668 1.333 0 2.466 0.113 3.276 0.326 0.607 0.16 0.875 0.332 0.983 0.424-0.108 0.091-0.377 0.264-0.983 0.424-0.81 0.213-1.943 0.326-3.276 0.326-1.198 0-2.808-0.23-4.692-0.668l0.001-0.164zM21.615 9.34c2.211-2.211 3.293-2.463 3.551-2.49-0.013 0.144-0.084 0.458-0.4 0.999-0.424 0.726-1.147 1.609-2.090 2.552-0.846 0.846-2.144 1.819-3.782 2.84-0.039-0.040-0.078-0.080-0.118-0.119 1.020-1.638 1.994-2.936 2.84-3.782zM13.106 13.24c-1.638-1.020-2.936-1.994-3.782-2.84-0.943-0.943-1.666-1.825-2.090-2.552-0.316-0.542-0.387-0.855-0.4-1 0.259 0.027 1.34 0.279 3.551 2.49 0.846 0.846 1.819 2.143 2.84 3.782-0.040 0.039-0.080 0.079-0.118 0.119zM7.309 16.766c-1.334 0-2.468-0.115-3.279-0.333-0.606-0.163-0.873-0.337-0.98-0.429 0.109-0.091 0.38-0.261 0.987-0.418 0.808-0.209 1.939-0.319 3.272-0.319 1.198 0 2.808 0.23 4.691 0.668l0.001 0.163c-1.884 0.438-3.494 0.668-4.692 0.668zM10.385 22.692c-2.211 2.211-3.293 2.463-3.551 2.49 0.013-0.144 0.084-0.458 0.4-1 0.424-0.726 1.147-1.608 2.090-2.552 0.849-0.849 2.154-1.827 3.801-2.852 0.037 0.038 0.074 0.075 0.112 0.111-1.025 1.648-2.002 2.952-2.852 3.801zM18.875 18.779c1.647 1.025 2.952 2.002 3.801 2.852 0.943 0.943 1.666 1.826 2.090 2.552 0.316 0.542 0.387 0.855 0.4 1-0.259-0.027-1.34-0.279-3.551-2.49-0.849-0.849-1.827-2.154-2.852-3.801 0.038-0.036 0.075-0.073 0.112-0.111zM15.576 4.042c0.159-0.606 0.331-0.878 0.424-0.99 0.093 0.111 0.264 0.383 0.424 0.99 0.214 0.813 0.327 1.948 0.327 3.282 0 1.195-0.229 2.799-0.665 4.676h-0.171c-0.436-1.877-0.665-3.482-0.665-4.676 0-1.334 0.113-2.469 0.327-3.282zM16.424 27.976c-0.161 0.607-0.334 0.872-0.424 0.977-0.090-0.105-0.263-0.371-0.424-0.977-0.213-0.806-0.326-1.937-0.326-3.269 0-1.202 0.231-2.817 0.672-4.707h0.156c0.441 1.891 0.672 3.506 0.672 4.707 0 1.332-0.113 2.463-0.326 3.269zM16 18c-1.105 0-2-0.895-2-2s0.895-2 2-2 2 0.895 2 2-0.895 2-2 2z"></path>
<path fill="#000" d="M21.554 25.355c-1.533-1.105-3.025-3.233-3.025-3.233s0.439 2.566 0.116 4.747c0.73 1.361 1.634 2.203 2.29 2.203 0.109 0 0.215-0.020 0.315-0.061 0.742-0.3 0.899-1.561 0.303-3.656zM20.859 28.035c-0.171-0.091-0.588-0.398-1.187-1.392 0.043-0.492 0.069-1.021 0.076-1.58 0.313 0.305 0.622 0.59 0.922 0.851 0.319 1.236 0.265 1.884 0.189 2.121z"></path>
<path fill="#000" d="M13.355 5.163c-0.831-1.469-1.634-2.203-2.29-2.203-0.109 0-0.214 0.020-0.315 0.061-0.742 0.3-0.906 1.451-0.304 3.653 1.328 0.999 3.023 3.222 3.023 3.222s-0.484-2.551-0.114-4.732zM12.252 6.961c-0.313-0.303-0.621-0.587-0.923-0.848-0.318-1.233-0.264-1.88-0.188-2.116 0.171 0.091 0.588 0.398 1.187 1.392-0.043 0.49-0.068 1.016-0.076 1.573z"></path>
<path fill="#000" d="M5.147 18.66c-1.714 0.969-2.427 1.9-2.142 2.605 0.175 0.434 0.682 0.667 1.49 0.667 0.574 0 1.402-0.097 2.167-0.364 1.088-1.496 3.232-3.024 3.232-3.024s-2.582 0.382-4.747 0.116zM6.102 20.685c-0.63 0.163-1.182 0.248-1.607 0.248-0.256 0-0.421-0.031-0.514-0.061 0.092-0.172 0.4-0.588 1.391-1.185 0.492 0.043 1.021 0.069 1.58 0.076-0.304 0.313-0.589 0.621-0.85 0.921z"></path>
<path fill="#000" d="M28.995 10.765c-0.175-0.434-0.682-0.667-1.49-0.667-0.574 0-1.337 0.107-2.166 0.364-1.131 1.486-3.231 3.024-3.231 3.024s2.549-0.455 4.745-0.116c1.714-0.969 2.427-1.9 2.142-2.605zM26.628 12.344c-0.492-0.043-1.020-0.069-1.579-0.076 0.304-0.313 0.589-0.621 0.85-0.922 0.63-0.163 1.181-0.248 1.606-0.248 0.256 0 0.421 0.031 0.514 0.061-0.092 0.172-0.401 0.588-1.391 1.185z"></path>
<path fill="#000" d="M10.196 25.561c-0.526 1.896-0.372 3.059 0.328 3.356 0.105 0.044 0.215 0.067 0.33 0.067 0.694 0 1.544-0.82 2.47-2.438-0.261-2.014 0.147-4.424 0.147-4.424s-1.346 1.962-3.275 3.44zM10.936 27.95c-0.056-0.185-0.134-0.697 0.145-1.822 0.378-0.317 0.77-0.674 1.171-1.064 0.006 0.436 0.023 0.855 0.051 1.252-0.649 1.1-1.145 1.521-1.367 1.634z"></path>
<path fill="#000" d="M21.476 3.114c-0.105-0.044-0.215-0.067-0.33-0.067-0.694 0-1.638 0.893-2.47 2.438 0.282 1.431-0.15 4.441-0.15 4.441s1.452-2.145 3.271-3.435c0.525-1.992 0.381-3.079-0.322-3.378zM20.914 5.924c-0.377 0.316-0.767 0.67-1.166 1.058-0.006-0.441-0.023-0.865-0.051-1.267 0.649-1.1 1.145-1.521 1.366-1.635 0.057 0.186 0.135 0.703-0.149 1.843z"></path>
<path fill="#000" d="M6.451 10.21c-0.638-0.242-1.406-0.313-1.922-0.313-0.767 0-1.253 0.223-1.43 0.641-0.313 0.737 0.623 1.874 2.372 2.8 1.858-0.246 4.418 0.146 4.418 0.146s-2.326-1.794-3.438-3.275zM4.065 10.951c0.086-0.026 0.236-0.053 0.464-0.053 0.363 0 0.828 0.068 1.355 0.198 0.317 0.378 0.674 0.771 1.065 1.172-0.435 0.006-0.853 0.023-1.249 0.051-1.102-0.65-1.522-1.147-1.635-1.368z"></path>
<path fill="#000" d="M26.53 18.692c-1.582 0.35-4.424-0.147-4.424-0.147s2.165 1.601 3.438 3.275c0.747 0.264 1.41 0.314 1.927 0.314 0.767 0 1.253-0.223 1.43-0.641 0.313-0.737-0.509-1.754-2.372-2.8zM27.471 21.133c-0.365 0-0.83-0.068-1.36-0.199-0.317-0.378-0.673-0.77-1.063-1.171 0.436-0.006 0.855-0.023 1.253-0.051 1.102 0.65 1.522 1.147 1.635 1.368-0.086 0.026-0.236 0.053-0.464 0.053z"></path>
</svg>
