<?xml version="1.0" encoding="utf-8"?>
<!-- Generated by IcoMoon.io -->
<!DOCTYPE svg PUBLIC "-//W3C//DTD SVG 1.1//EN" "http://www.w3.org/Graphics/SVG/1.1/DTD/svg11.dtd">
<svg version="1.1" xmlns="http://www.w3.org/2000/svg" xmlns:xlink="http://www.w3.org/1999/xlink" width="32" height="32" viewBox="0 0 32 32">
<path fill="#000" d="M8 20c1.654 0 3 1.346 3 3s-1.346 3-3 3-3-1.346-3-3 1.346-3 3-3zM8 19c-2.209 0-4 1.791-4 4s1.791 4 4 4 4-1.791 4-4c0-2.209-1.791-4-4-4v0z"></path>
<path fill="#000" d="M23.953 18c2.774 0 5.039 2.257 5.039 5.031s-2.249 4.969-5.023 4.969h-15.938c-2.774 0-5.031-2.195-5.031-4.969s2.257-5.031 5.031-5.031h15.906zM23.969 17h-15.938c-3.331 0-6.031 2.7-6.031 6.031s2.7 5.969 6.031 5.969h15.938c3.331 0 6.031-2.638 6.031-5.969s-2.7-6.031-6.031-6.031v0z"></path>
<path fill="#000" d="M24 6c1.654 0 3 1.346 3 3s-1.346 3-3 3-3-1.346-3-3 1.346-3 3-3zM24 5c-2.209 0-4 1.791-4 4s1.791 4 4 4 4-1.791 4-4c0-2.209-1.791-4-4-4v0z"></path>
<path fill="#000" d="M8.063 4h15.906c2.774 0 5.031 2.257 5.031 5.031s-2.257 4.969-5.031 4.969h-15.938c-2.774 0-5.023-2.194-5.023-4.969s2.265-5.031 5.039-5.031zM8.031 3c-3.331 0-6.031 2.7-6.031 6.031s2.7 5.969 6.031 5.969h15.938c3.331 0 6.031-2.638 6.031-5.969s-2.7-6.031-6.031-6.031h-15.938z"></path>
</svg>
