<?xml version="1.0" encoding="utf-8"?>
<!-- Generated by IcoMoon.io -->
<!DOCTYPE svg PUBLIC "-//W3C//DTD SVG 1.1//EN" "http://www.w3.org/Graphics/SVG/1.1/DTD/svg11.dtd">
<svg version="1.1" xmlns="http://www.w3.org/2000/svg" xmlns:xlink="http://www.w3.org/1999/xlink" width="32" height="32" viewBox="0 0 32 32">
<path fill="#000" d="M24.956 14.55c0-0.075 0.012-0.15 0.012-0.225 0-4.019-3.3-7.325-7.3-7.325-2.881 0-5.363 1.744-6.525 4.187-0.506-0.256-1.069-0.4-1.675-0.4-1.85 0-3.381 1.481-3.681 3.25-2.2 0.762-3.788 2.763-3.788 5.237 0 3.113 2.506 5.725 5.6 5.725h17.275c2.813 0 5.125-2.431 5.125-5.269 0-2.85-2.212-5.175-5.044-5.181zM24.844 23.975l-0.2 0.025h-16.994c-2.556 0-4.638-2.181-4.638-4.756 0-1.994 1.263-3.65 3.138-4.3l0.525-0.188 0.094-0.55c0.225-1.35 1.381-2.456 2.744-2.456 0.431 0 0.856 0.1 1.244 0.3l0.844 0.425 0.406-0.856c1.037-2.181 3.256-3.638 5.65-3.638 3.456 0 6.306 2.756 6.306 6.231 0 0.831-0.012 1.269-0.012 1.269l0.95 0.006c2.294 0.031 4.1 1.906 4.1 4.213s-1.863 4.262-4.156 4.275z"></path>
</svg>
