<?xml version="1.0" encoding="utf-8"?>
<!-- Generated by IcoMoon.io -->
<!DOCTYPE svg PUBLIC "-//W3C//DTD SVG 1.1//EN" "http://www.w3.org/Graphics/SVG/1.1/DTD/svg11.dtd">
<svg version="1.1" xmlns="http://www.w3.org/2000/svg" xmlns:xlink="http://www.w3.org/1999/xlink" width="32" height="32" viewBox="0 0 32 32">
<path fill="#000" d="M25 10.806c0-4.862-4.131-8.806-9-8.806s-9 3.944-9 8.813c0 1.938 0.825 3.688 1.887 5.188h-0.019c0.681 0.938 1.338 1.731 1.969 2.813 1.375 2.363 1.162 4.644 1.169 5.1v0.087h8v-0.087c0-0.556-0.225-2.738 1.15-5.1 0.631-1.081 1.288-1.875 1.969-2.813h-0.006c1.056-1.5 1.881-3.25 1.881-5.194zM21.938 15.9c-0.038 0.050-0.069 0.094-0.106 0.144-0.506 0.681-1.031 1.387-1.544 2.256-1.081 1.856-1.275 3.619-1.3 4.694h-0.988v-6.994l2-4h-1.038l-1.962 4v7h-2v-7l-1.963-4h-1.037l2 4v7h-0.994c-0.031-1.075-0.244-2.856-1.306-4.688-0.281-0.481-0.569-0.938-0.856-1.313h0.012l-1.162-1.6c-0.988-1.35-1.694-2.944-1.694-4.6 0-2.088 1-4.050 2.475-5.525s3.438-2.294 5.525-2.294c2.087 0 4.050 0.819 5.525 2.294s2.475 3.438 2.475 5.525c0 1.656-0.706 3.244-1.694 4.594l-0.369 0.506z"></path>
<path fill="#000" d="M14 29h4v1h-4v-1z"></path>
<path fill="#000" d="M13 27h6v1h-6v-1z"></path>
<path fill="#000" d="M13 25h6v1h-6v-1z"></path>
</svg>
