<?xml version="1.0" encoding="utf-8"?>
<!-- Generated by IcoMoon.io -->
<!DOCTYPE svg PUBLIC "-//W3C//DTD SVG 1.1//EN" "http://www.w3.org/Graphics/SVG/1.1/DTD/svg11.dtd">
<svg version="1.1" xmlns="http://www.w3.org/2000/svg" xmlns:xlink="http://www.w3.org/1999/xlink" width="32" height="32" viewBox="0 0 32 32">
<path fill="#000" d="M28.563 6h-15.125c-0.174 0-0.267-0.037-0.381-0.151l-1.417-1.416c-0.304-0.287-0.555-0.433-1.077-0.433h-7c-0.862 0-1.563 0.645-1.563 1.438v21c0 0.832 0.73 1.563 1.563 1.563h25c0.793 0 1.438-0.701 1.438-1.563v-19c0-0.833-0.605-1.438-1.438-1.438zM3.563 5h7c0.219 0 0.234 0.012 0.386 0.155l1.401 1.401c0.303 0.303 0.648 0.443 1.088 0.443h15.125c0.278 0 0.438 0.16 0.438 0.438v2.649c-0.157-0.056-0.325-0.086-0.5-0.086h-25c-0.175 0-0.344 0.030-0.5 0.086v-4.649c0-0.27 0.292-0.438 0.563-0.438zM29 26.438c0 0.27-0.167 0.563-0.438 0.563h-25c-0.279 0-0.563-0.284-0.563-0.563v-14.938c0-0.276 0.224-0.5 0.5-0.5h25c0.276 0 0.5 0.224 0.5 0.5v14.938z"></path>
</svg>
