<?xml version="1.0" encoding="utf-8"?>
<!-- Generated by IcoMoon.io -->
<!DOCTYPE svg PUBLIC "-//W3C//DTD SVG 1.1//EN" "http://www.w3.org/Graphics/SVG/1.1/DTD/svg11.dtd">
<svg version="1.1" xmlns="http://www.w3.org/2000/svg" xmlns:xlink="http://www.w3.org/1999/xlink" width="32" height="32" viewBox="0 0 32 32">
<path fill="#000" d="M7 4v21h1v-20h19v21.071c0 0.513-0.416 0.929-0.929 0.929h-20.143c-0.513 0-0.929-0.416-0.929-0.929v-18.071h1v-1h-2v19.071c0 1.063 0.865 1.929 1.929 1.929h20.143c1.063 0 1.929-0.865 1.929-1.929v-22.071h-21z"></path>
<path fill="#000" d="M10 7h8v1h-8v-1z"></path>
<path fill="#000" d="M10 12h15v1h-15v-1z"></path>
<path fill="#000" d="M10 17h12v1h-12v-1z"></path>
<path fill="#000" d="M10 22h15v1h-15v-1z"></path>
</svg>
