<?xml version="1.0" encoding="utf-8"?>
<!-- Generated by IcoMoon.io -->
<!DOCTYPE svg PUBLIC "-//W3C//DTD SVG 1.1//EN" "http://www.w3.org/Graphics/SVG/1.1/DTD/svg11.dtd">
<svg version="1.1" xmlns="http://www.w3.org/2000/svg" xmlns:xlink="http://www.w3.org/1999/xlink" width="32" height="32" viewBox="0 0 32 32">
<path fill="#000" d="M29 16c0-7.179-5.821-13-13-13s-13 5.821-13 13c0 7.179 5.821 13 13 13 0.159 0 0.317-0.004 0.474-0.009 0.030-0.001 0.060-0.002 0.090-0.003 0.059-0.003 0.118-0.005 0.176-0.009 0.053-0.003 0.106-0.006 0.159-0.010 0.040-0.003 0.080-0.005 0.12-0.008 0.085-0.006 0.169-0.014 0.253-0.022 0-0 0-0 0-0.001 6.092-0.592 10.952-5.389 11.642-11.451 0.001-0 0.002 0 0.004-0 0.038-0.332 0.063-0.667 0.075-1.003-0.001 0-0.002 0-0.003 0 0.006-0.16 0.010-0.321 0.010-0.483zM27.917 16c0 0.16-0.004 0.32-0.010 0.479-1.477-0.067-2.917-0.382-4.288-0.938-1.612-0.654-3.059-1.614-4.3-2.856s-2.202-2.688-2.856-4.3c-0.556-1.372-0.871-2.813-0.938-4.292 0.158-0.006 0.316-0.010 0.476-0.010 6.571-0 11.916 5.346 11.916 11.916zM4.084 16c0-0.082 0.001-0.164 0.003-0.246 1.405 0.086 2.774 0.396 4.081 0.926 1.612 0.654 3.059 1.614 4.3 2.856s2.202 2.688 2.856 4.3c0.53 1.306 0.839 2.675 0.926 4.078-0.083 0.002-0.166 0.003-0.249 0.003-6.571 0-11.916-5.346-11.916-11.916zM17.246 27.851c-0.205-3.285-1.561-6.512-4.072-9.023s-5.74-3.868-9.027-4.072c0.573-5.503 4.908-9.905 10.38-10.582 0.162 3.353 1.522 6.658 4.083 9.218 2.559 2.559 5.863 3.92 9.215 4.083-0.678 5.47-5.078 9.802-10.579 10.376z"></path>
</svg>
