<?xml version="1.0" encoding="utf-8"?>
<!-- Generated by IcoMoon.io -->
<!DOCTYPE svg PUBLIC "-//W3C//DTD SVG 1.1//EN" "http://www.w3.org/Graphics/SVG/1.1/DTD/svg11.dtd">
<svg version="1.1" xmlns="http://www.w3.org/2000/svg" xmlns:xlink="http://www.w3.org/1999/xlink" width="32" height="32" viewBox="0 0 32 32">
<path fill="#000" d="M16 3c-7.181 0-13 5.819-13 13s5.819 13 13 13c7.181 0 13-5.819 13-13s-5.819-13-13-13zM16 4.081c6.569 0 11.919 5.344 11.919 11.919 0 2.906-1.044 5.569-2.775 7.637-1.25-0.512-4.119-1.506-5.806-2.006-0.15-0.044-0.169-0.056-0.169-0.669 0-0.506 0.206-1.019 0.413-1.456 0.225-0.469 0.481-1.262 0.575-1.975 0.262-0.306 0.625-0.906 0.85-2.056 0.2-1.012 0.106-1.381-0.025-1.725-0.012-0.037-0.031-0.075-0.038-0.106-0.050-0.238 0.019-1.469 0.194-2.425 0.119-0.656-0.031-2.050-0.931-3.206-0.569-0.731-1.663-1.625-3.656-1.75h-1.094c-1.963 0.125-3.050 1.019-3.625 1.75-0.906 1.156-1.056 2.55-0.938 3.206 0.175 0.956 0.244 2.188 0.194 2.425-0.012 0.044-0.025 0.075-0.037 0.113-0.131 0.344-0.231 0.713-0.025 1.725 0.231 1.15 0.588 1.75 0.85 2.056 0.094 0.712 0.356 1.5 0.575 1.975 0.162 0.344 0.238 0.813 0.238 1.475 0 0.619-0.025 0.625-0.162 0.669-1.756 0.519-4.537 1.519-5.65 2-1.744-2.075-2.794-4.744-2.794-7.656 0-6.569 5.35-11.919 11.919-11.919z"></path>
</svg>
