<?xml version="1.0" encoding="utf-8"?>
<!-- Generated by IcoMoon.io -->
<!DOCTYPE svg PUBLIC "-//W3C//DTD SVG 1.1//EN" "http://www.w3.org/Graphics/SVG/1.1/DTD/svg11.dtd">
<svg version="1.1" xmlns="http://www.w3.org/2000/svg" xmlns:xlink="http://www.w3.org/1999/xlink" width="32" height="32" viewBox="0 0 32 32">
<path fill="#000" d="M27.739 12.219c-0.274-0.733-0.735-1.263-1.332-1.533-0.274-0.123-0.562-0.186-0.855-0.186-1.252 0-2.523 1.167-3.165 2.903-0.794 2.151-0.332 4.258 1.073 4.901 0.283 0.129 0.585 0.195 0.9 0.195 1.275 0 2.57-1.070 3.224-2.662 0.494-1.205 0.552-2.558 0.156-3.619zM26.638 15.393c-0.49 1.181-1.437 2.006-2.304 2.006-0.176 0-0.343-0.036-0.498-0.106-0.883-0.4-1.116-1.941-0.532-3.509 0.486-1.301 1.403-2.21 2.23-2.21 0.157 0 0.311 0.033 0.459 0.099 0.43 0.192 0.664 0.607 0.784 0.922 0.307 0.8 0.255 1.846-0.139 2.798z"></path>
<path fill="#000" d="M9.613 13.403c-0.641-1.737-1.913-2.903-3.165-2.903-0.293 0-0.581 0.063-0.856 0.186-0.598 0.27-1.058 0.8-1.332 1.533-0.396 1.061-0.338 2.414 0.156 3.619 0.653 1.592 1.949 2.662 3.224 2.662 0.314 0 0.617-0.066 0.9-0.195 1.405-0.643 1.867-2.75 1.073-4.901zM8.164 17.294c-0.155 0.070-0.322 0.106-0.498 0.106-0.867 0-1.814-0.825-2.304-2.006-0.394-0.952-0.446-1.998-0.139-2.798 0.121-0.315 0.354-0.73 0.784-0.922 0.148-0.066 0.302-0.099 0.459-0.099 0.827 0 1.744 0.909 2.23 2.21 0.584 1.568 0.35 3.11-0.532 3.51z"></path>
<path fill="#000" d="M12.397 13.163c0.116 0.005 0.233 0.002 0.348-0.009 0.674-0.066 1.284-0.412 1.763-1.001 0.773-0.949 0.988-2.436 0.825-3.965-0.249-2.356-1.491-4.115-3.159-4.188 0 0-0.238 0-0.359 0.012-0.736 0.073-1.405 0.455-1.935 1.106-0.768 0.944-1.137 2.348-0.988 3.756 0.246 2.33 1.786 4.213 3.505 4.288zM10.69 5.739c0.245-0.296 0.657-0.661 1.226-0.717 0.071-0.007 0.143-0.009 0.213-0.006 1.138 0.050 1.991 1.454 2.184 3.277 0.134 1.259-0.009 2.503-0.615 3.236-0.305 0.369-0.66 0.575-1.055 0.614-0.068 0.007-0.135 0.008-0.202 0.005-1.204-0.052-2.338-1.568-2.53-3.379-0.123-1.158 0.168-2.291 0.779-3.030z"></path>
<path fill="#000" d="M16 15c-4 0-8 4.755-8 9.32 0 1.362 0.683 2.458 1.354 2.907 0.829 0.554 1.413 0.772 2.627 0.772 1.443 0 1.833-0.505 2.508-0.95 0.489-0.322 0.911-0.6 1.51-0.6s1.021 0.278 1.51 0.6c0.676 0.445 1.065 0.95 2.509 0.95 1.215 0 1.799-0.218 2.627-0.772 0.671-0.449 1.354-1.545 1.354-2.907 0-4.566-4-9.32-8-9.32zM22.123 26.299c-0.685 0.459-1.085 0.611-2.104 0.611-0.889 0-1.164-0.2-1.619-0.532-0.116-0.084-0.235-0.171-0.372-0.261-0.539-0.355-1.149-0.758-2.027-0.758s-1.489 0.403-2.027 0.758c-0.137 0.090-0.256 0.177-0.372 0.261-0.455 0.332-0.73 0.532-1.619 0.532-1.019 0-1.419-0.153-2.104-0.611-0.353-0.236-0.877-0.957-0.877-1.978 0-1.892 0.836-4.014 2.236-5.676 0.68-0.808 1.47-1.475 2.283-1.93 0.838-0.469 1.672-0.714 2.481-0.714s1.643 0.245 2.481 0.714c0.813 0.455 1.602 1.123 2.283 1.93 1.4 1.662 2.236 3.784 2.236 5.676 0 1.020-0.525 1.742-0.877 1.978z"></path>
<path fill="#000" d="M19.268 13.142c0.115 0.011 0.232 0.014 0.348 0.009 1.719-0.075 3.259-1.958 3.505-4.288 0.15-1.408-0.22-2.813-0.988-3.756-0.53-0.651-1.174-1.014-1.91-1.087-0.121-0.012-0.384-0.019-0.384-0.019-1.668 0.073-2.91 1.82-3.159 4.176-0.163 1.529 0.052 3.015 0.825 3.965 0.479 0.588 1.089 0.934 1.763 1.001zM17.699 8.281c0.192-1.822 1.046-3.227 2.183-3.277 0.070-0.003 0.141-0.001 0.213 0.006 0.569 0.056 0.981 0.421 1.226 0.717 0.611 0.739 0.902 1.872 0.779 3.030-0.191 1.811-1.326 3.327-2.53 3.379-0.066 0.003-0.134 0.001-0.202-0.005-0.395-0.039-0.75-0.245-1.055-0.614-0.606-0.733-0.749-1.977-0.615-3.236z"></path>
</svg>
