<?xml version="1.0" encoding="utf-8"?>
<!-- Generated by IcoMoon.io -->
<!DOCTYPE svg PUBLIC "-//W3C//DTD SVG 1.1//EN" "http://www.w3.org/Graphics/SVG/1.1/DTD/svg11.dtd">
<svg version="1.1" xmlns="http://www.w3.org/2000/svg" xmlns:xlink="http://www.w3.org/1999/xlink" width="32" height="32" viewBox="0 0 32 32">
<path fill="#000" d="M30.586 16l-2.586 2.586-2.648-2.586-0.676 0.676 3.324 3.324 3.293-3.293z"></path>
<path fill="#000" d="M28.75 15.969c-0-0.036 0.001-0.072 0-0.108l-0.002-0c-0.075-6.966-5.764-12.611-12.748-12.611-4.599 0-8.86 2.492-11.118 6.504l0.871 0.491c2.082-3.698 6.008-5.995 10.247-5.995 6.455 0 11.71 5.232 11.749 11.677 0.002 0.43-0.018 0.864-0.064 1.302l0.994 0.105c0.047-0.448 0.069-0.893 0.069-1.334h0.001c0-0.010-0-0.020-0-0.031z"></path>
<path fill="#000" d="M26.247 21.755c-2.081 3.698-6.008 5.995-10.247 5.995-6.467 0-11.73-5.252-11.75-11.715-0.001-0.418 0.019-0.84 0.064-1.264l-0.994-0.105c-0.047 0.448-0.069 0.893-0.069 1.334h-0.001c0 0.029 0.001 0.059 0.001 0.088 0 0.061-0 0.122 0.001 0.183l0.001-0c0.145 6.906 5.807 12.479 12.747 12.479 4.599 0 8.86-2.492 11.118-6.504l-0.872-0.491z"></path>
<path fill="#000" d="M4 12l-3.293 3.293 0.707 0.707 2.586-2.586 2.586 2.586 0.707-0.707z"></path>
</svg>
