<?xml version="1.0" encoding="utf-8"?>
<!-- Generated by IcoMoon.io -->
<!DOCTYPE svg PUBLIC "-//W3C//DTD SVG 1.1//EN" "http://www.w3.org/Graphics/SVG/1.1/DTD/svg11.dtd">
<svg version="1.1" xmlns="http://www.w3.org/2000/svg" xmlns:xlink="http://www.w3.org/1999/xlink" width="32" height="32" viewBox="0 0 32 32">
<path fill="#000" d="M17.988 15c0.55 0 1.006 0.45 1.006 1s-0.438 1-0.994 1h-4c-0.55 0-1-0.45-1-1s0.45-1 1-1h3.938zM18 14h-4c-1.1 0-2 0.9-2 2s0.9 2 2 2h4c1.1 0 2-0.9 2-2s-0.9-2-2-2v0z"></path>
<path fill="#000" d="M26 7h-20v5h1v13h18v-13h1v-5zM24 24h-16v-12h16v12zM25 11h-18v-3h18v3z"></path>
</svg>
