<?xml version="1.0" encoding="utf-8"?>
<!-- Generated by IcoMoon.io -->
<!DOCTYPE svg PUBLIC "-//W3C//DTD SVG 1.1//EN" "http://www.w3.org/Graphics/SVG/1.1/DTD/svg11.dtd">
<svg version="1.1" xmlns="http://www.w3.org/2000/svg" xmlns:xlink="http://www.w3.org/1999/xlink" width="32" height="32" viewBox="0 0 32 32">
<path fill="#000" d="M8 20c-1.654 0-3 1.346-3 3s1.346 3 3 3 3-1.346 3-3-1.346-3-3-3z"></path>
<path fill="#000" d="M23.969 17h-15.938c-3.331 0-6.031 2.7-6.031 6.031s2.7 5.969 6.031 5.969h15.938c3.331 0 6.031-2.638 6.031-5.969s-2.7-6.031-6.031-6.031zM8 27c-2.209 0-4-1.791-4-4s1.791-4 4-4 4 1.791 4 4c0 2.209-1.791 4-4 4z"></path>
<path fill="#000" d="M24 12c1.654 0 3-1.346 3-3s-1.346-3-3-3-3 1.346-3 3 1.346 3 3 3z"></path>
<path fill="#000" d="M8.031 15h15.938c3.331 0 6.031-2.638 6.031-5.969s-2.7-6.031-6.031-6.031h-15.938c-3.331 0-6.031 2.7-6.031 6.031s2.7 5.969 6.031 5.969zM24 5c2.209 0 4 1.791 4 4s-1.791 4-4 4-4-1.791-4-4c0-2.209 1.791-4 4-4z"></path>
</svg>
