<?xml version="1.0" encoding="utf-8"?>
<!-- Generated by IcoMoon.io -->
<!DOCTYPE svg PUBLIC "-//W3C//DTD SVG 1.1//EN" "http://www.w3.org/Graphics/SVG/1.1/DTD/svg11.dtd">
<svg version="1.1" xmlns="http://www.w3.org/2000/svg" xmlns:xlink="http://www.w3.org/1999/xlink" width="32" height="32" viewBox="0 0 32 32">
<path fill="#000" d="M23.856 14.119c0-6.1-3.281-8.175-6.35-8.637 0-0.031 0.006-0.063 0.006-0.1 0-0.769-0.681-1.381-1.512-1.381s-1.488 0.612-1.488 1.381c0 0.037 0 0.069 0.006 0.1-3.075 0.469-6.375 2.55-6.375 8.65 0 7.113-1.769 7.875-4.144 9.875h24c-2.363-2.006-4.144-2.775-4.144-9.887zM6.7 23c0.537-0.563 1.025-1.15 1.419-1.988 0.75-1.581 1.088-3.7 1.088-6.887 0-2.9 0.781-5.025 2.319-6.325 1.431-1.206 3.231-1.456 4.487-1.456s3.056 0.25 4.475 1.456c1.531 1.294 2.313 3.406 2.313 6.306 0 5.238 0.931 7.331 2.519 8.894h-18.619z"></path>
<path fill="#000" d="M16.012 28c1.675 0 3.050-1.244 3.231-2.688h-6.463c0.175 1.444 1.556 2.688 3.231 2.688z"></path>
</svg>
