<?xml version="1.0" encoding="utf-8"?>
<!-- Generated by IcoMoon.io -->
<!DOCTYPE svg PUBLIC "-//W3C//DTD SVG 1.1//EN" "http://www.w3.org/Graphics/SVG/1.1/DTD/svg11.dtd">
<svg version="1.1" xmlns="http://www.w3.org/2000/svg" xmlns:xlink="http://www.w3.org/1999/xlink" width="32" height="32" viewBox="0 0 32 32">
<path fill="#000" d="M26 8v-1h-2v1h-3v-2c-0.031-1.138-0.85-2-2.012-2h-6.194c-1.162 0-1.794 0.856-1.794 2v2h-3v-1h-2v1h-3v20h26v-20h-3zM12 7.969v-1.838c0-0.638 0.181-1.131 0.856-1.131h6.069c0.65 0 1.075 0.481 1.075 1.131v1.869h-8v-0.031zM28 27h-24v-14h24v14zM28 12h-24v-3h2v1h2v-1h16v1h2v-1h2v3z"></path>
</svg>
