<?xml version="1.0" encoding="utf-8"?>
<!-- Generated by IcoMoon.io -->
<!DOCTYPE svg PUBLIC "-//W3C//DTD SVG 1.1//EN" "http://www.w3.org/Graphics/SVG/1.1/DTD/svg11.dtd">
<svg version="1.1" xmlns="http://www.w3.org/2000/svg" xmlns:xlink="http://www.w3.org/1999/xlink" width="32" height="32" viewBox="0 0 32 32">
<path fill="#000" d="M27.944 16.012c-2.831-3.262-6.744-7.012-11.944-7.012-2.1 0-4.025 0.594-6.056 1.863-1.713 1.075-3.469 2.588-5.881 5.075l-0.063 0.063 0.419 0.431c3.444 3.525 6.419 6.569 11.581 6.569 2.281 0 4.494-0.744 6.762-2.275 1.931-1.306 3.575-2.962 4.894-4.3l0.344-0.344-0.056-0.069zM16 21c-2.756 0-5-2.244-5-5s2.244-5 5-5c2.756 0 5 2.244 5 5s-2.244 5-5 5z"></path>
<path fill="#000" d="M15.65 14.175c0-0.431 0.125-0.838 0.344-1.175-1.656 0-2.994 1.35-2.994 3.012s1.344 3.006 2.994 3.006 3-1.344 3-3.006v0c-0.337 0.219-0.744 0.344-1.175 0.344-1.194-0.006-2.169-0.981-2.169-2.181z"></path>
</svg>
