<?xml version="1.0" encoding="utf-8"?>
<!-- Generated by IcoMoon.io -->
<!DOCTYPE svg PUBLIC "-//W3C//DTD SVG 1.1//EN" "http://www.w3.org/Graphics/SVG/1.1/DTD/svg11.dtd">
<svg version="1.1" xmlns="http://www.w3.org/2000/svg" xmlns:xlink="http://www.w3.org/1999/xlink" width="32" height="32" viewBox="0 0 32 32">
<path fill="#000" d="M16 22.094c2.731 0 4.938-2.344 4.938-5.219v-9.656c0-2.875-2.206-5.219-4.938-5.219s-4.938 2.344-4.938 5.219v9.656c0 2.875 2.206 5.219 4.938 5.219z"></path>
<path fill="#000" d="M22.938 12v4.981c0 3.762-3.113 6.825-6.875 6.825s-6.875-3.063-6.875-6.825v-4.981h-1.188v4.981c0 4.2 3.313 7.662 7.5 7.969v3.925h-4.563v1.125h10.063v-1.125h-4.313v-3.925c4.125-0.306 7.313-3.769 7.313-7.969v-4.981h-1.063z"></path>
</svg>
