<?xml version="1.0" encoding="utf-8"?>
<!-- Generated by IcoMoon.io -->
<!DOCTYPE svg PUBLIC "-//W3C//DTD SVG 1.1//EN" "http://www.w3.org/Graphics/SVG/1.1/DTD/svg11.dtd">
<svg version="1.1" xmlns="http://www.w3.org/2000/svg" xmlns:xlink="http://www.w3.org/1999/xlink" width="32" height="32" viewBox="0 0 32 32">
<path fill="#000" d="M25.994 20.969c-0.913-0.938-3.506-2.694-5.206-2.694-0.394 0-0.738 0.087-1.019 0.269-0.831 0.531-1.494 0.944-1.813 0.944-0.175 0-0.363-0.156-0.775-0.512l-0.069-0.063c-1.144-0.994-1.387-1.25-1.831-1.712l-0.113-0.119c-0.081-0.081-0.15-0.156-0.219-0.225-0.387-0.4-0.669-0.688-1.662-1.813l-0.044-0.050c-0.475-0.537-0.787-0.887-0.806-1.144-0.019-0.25 0.2-0.656 0.756-1.412 0.675-0.912 0.7-2.037 0.081-3.344-0.494-1.031-1.3-2.019-2.013-2.888l-0.063-0.075c-0.613-0.75-1.325-1.125-2.119-1.125-0.881 0-1.612 0.475-2 0.725-0.031 0.019-0.063 0.044-0.094 0.063-0.869 0.55-1.5 1.306-1.737 2.075-0.356 1.156-0.594 2.656 1.112 5.775 1.475 2.7 2.813 4.512 4.938 6.694 2 2.050 2.888 2.712 4.875 4.15 2.212 1.6 4.337 2.519 5.825 2.519 1.381 0 2.469 0 4.019-1.869 1.625-1.962 0.95-3.163-0.025-4.169z"></path>
</svg>
