<?xml version="1.0" encoding="utf-8"?>
<!-- Generated by IcoMoon.io -->
<!DOCTYPE svg PUBLIC "-//W3C//DTD SVG 1.1//EN" "http://www.w3.org/Graphics/SVG/1.1/DTD/svg11.dtd">
<svg version="1.1" xmlns="http://www.w3.org/2000/svg" xmlns:xlink="http://www.w3.org/1999/xlink" width="32" height="32" viewBox="0 0 32 32">
<path fill="#000" d="M9 10h14v-4h-14v4zM10 7h12v2h-12v-2z"></path>
<path fill="#000" d="M23 4h-14c-1.106 0-2 0.894-2 2v20c0 1.106 0.894 2 2 2h14c1.106 0 2-0.894 2-2v-20c0-1.106-0.894-2-2-2zM24 26c0 0.55-0.45 1-1 1h-14c-0.55 0-1-0.45-1-1v-20c0-0.55 0.45-1 1-1h14c0.55 0 1 0.45 1 1v20z"></path>
<path fill="#000" d="M10 15v-3h-1v4h4v-1h-1z"></path>
<path fill="#000" d="M10 20v-3h-1v4h4v-1h-1z"></path>
<path fill="#000" d="M10 25v-3h-1v4h4v-1h-1z"></path>
<path fill="#000" d="M15 15v-3h-1v4h4v-1h-1z"></path>
<path fill="#000" d="M20 15v-3h-1v4h4v-1h-1z"></path>
<path fill="#000" d="M15 20v-3h-1v4h4v-1h-1z"></path>
<path fill="#000" d="M15 25v-3h-1v4h4v-1h-1z"></path>
<path fill="#000" d="M20 25v-8h-1v9h4v-1h-1z"></path>
</svg>
