<?xml version="1.0" encoding="utf-8"?>
<!-- Generated by IcoMoon.io -->
<!DOCTYPE svg PUBLIC "-//W3C//DTD SVG 1.1//EN" "http://www.w3.org/Graphics/SVG/1.1/DTD/svg11.dtd">
<svg version="1.1" xmlns="http://www.w3.org/2000/svg" xmlns:xlink="http://www.w3.org/1999/xlink" width="32" height="32" viewBox="0 0 32 32">
<path fill="#000" d="M18 5.052c2.831 0.232 5.46 1.439 7.488 3.468 2.265 2.266 3.512 5.277 3.512 8.483 0 1.62-0.317 3.19-0.944 4.669-0.605 1.429-1.471 2.712-2.575 3.814s-2.388 1.968-3.817 2.572c-1.48 0.626-3.051 0.943-4.672 0.943-2.575 0-5.029-0.803-7.099-2.322-0.997-0.732-1.872-1.608-2.602-2.606-0.524-0.716-0.964-1.483-1.315-2.29l12.024-3.002v-13.719zM17 4v14l-12.36 3.086c1.713 5.178 6.6 8.914 12.352 8.914 7.18 0 13.008-5.82 13.008-13s-5.813-13-13-13v0z"></path>
<path fill="#000" d="M15 3.011v13.434l-11.271 2.858c-0.57-1.473-0.7-3.561-0.697-4.343v-0.004c0-2.957 1.029-5.859 2.823-7.962 1.046-1.226 2.344-2.186 3.858-2.854 1.544-0.681 3.32-1.059 5.288-1.128zM16 2h-0.344c-10 0-13.656 7.266-13.656 12.955 0 0 0.016 3.542 1.182 5.518l12.818-3.25v-15.223z"></path>
</svg>
