<?xml version="1.0" encoding="utf-8"?>
<!-- Generated by IcoMoon.io -->
<!DOCTYPE svg PUBLIC "-//W3C//DTD SVG 1.1//EN" "http://www.w3.org/Graphics/SVG/1.1/DTD/svg11.dtd">
<svg version="1.1" xmlns="http://www.w3.org/2000/svg" xmlns:xlink="http://www.w3.org/1999/xlink" width="32" height="32" viewBox="0 0 32 32">
<path fill="#000" d="M19.5 17h-2.5l1-3h-4.5l-0.938 5h3.269l-1.831 6z"></path>
<path fill="#000" d="M20.525 10.794c-0.169 0-0.337 0-0.5 0.019-0.494-2.188-2.444-3.838-4.775-3.838-2.706 0-4.894 2.2-4.894 4.906 0 0.162 0.006 0.325 0.025 0.488-1.65 0.144-2.944 1.606-2.944 3.3 0 1.788 1.45 3.331 3.231 3.331h0.706v-1.063h-0.706c-0.594 0-1.156-0.256-1.588-0.688-0.425-0.438-0.662-1.019-0.662-1.625 0-1.162 0.906-2.113 2.075-2.306 0.1-0.019 0.55-0.081 0.887-0.113 0 0-0.031-0.331-0.037-0.6s-0.006-0.588-0.006-0.719c0-2.162 1.756-3.919 3.912-3.919 0.906 0 1.756 0.3 2.456 0.869 0.681 0.556 1.163 1.331 1.356 2.181l0.194 0.875 0.887-0.113c0.131-0.019 0.256-0.025 0.381-0.025 1.681 0 3.050 1.394 3.050 3.088s-1.369 3.088-3.050 3.088h-0.525v1.063h0.525c2.231 0 4.038-1.881 4.038-4.119 0-2.225-1.806-4.081-4.038-4.081z"></path>
</svg>
