<?xml version="1.0" encoding="utf-8"?>
<!-- Generated by IcoMoon.io -->
<!DOCTYPE svg PUBLIC "-//W3C//DTD SVG 1.1//EN" "http://www.w3.org/Graphics/SVG/1.1/DTD/svg11.dtd">
<svg version="1.1" xmlns="http://www.w3.org/2000/svg" xmlns:xlink="http://www.w3.org/1999/xlink" width="32" height="32" viewBox="0 0 32 32">
<path fill="#000" d="M22.706 22.744c-0.806-0.288-1.962-0.387-2.7-0.55-0.425-0.094-1.044-0.331-1.25-0.575-0.206-0.25-0.081-2.556-0.081-2.556s0.381-0.6 0.587-1.125 0.431-1.963 0.431-1.963 0.425 0 0.575-0.744c0.163-0.813 0.413-1.15 0.381-1.756-0.031-0.563-0.325-0.594-0.356-0.594v0c0 0 0.306-0.85 0.35-2.65 0.050-2.131-1.581-4.231-4.644-4.231s-4.688 2.094-4.644 4.225c0.037 1.794 0.35 2.65 0.35 2.65v0c-0.031 0-0.325 0.031-0.356 0.594-0.031 0.606 0.225 0.931 0.381 1.744 0.15 0.744 0.575 0.75 0.575 0.75s0.225 1.444 0.431 1.969c0.206 0.531 0.588 1.125 0.588 1.125s0.125 2.306-0.081 2.556c-0.206 0.25-0.825 0.481-1.25 0.575-0.744 0.163-1.894 0.269-2.7 0.556s-3.294 1.256-3.294 3.256h20c0-2-2.488-2.969-3.294-3.256z"></path>
</svg>
