<?xml version="1.0" encoding="utf-8"?>
<!-- Generated by IcoMoon.io -->
<!DOCTYPE svg PUBLIC "-//W3C//DTD SVG 1.1//EN" "http://www.w3.org/Graphics/SVG/1.1/DTD/svg11.dtd">
<svg version="1.1" xmlns="http://www.w3.org/2000/svg" xmlns:xlink="http://www.w3.org/1999/xlink" width="32" height="32" viewBox="0 0 32 32">
<path fill="#000" d="M13 6h1v3.375h-1v-3.375z"></path>
<path fill="#000" d="M4 15h3.438v1h-3.438v-1z"></path>
<path fill="#000" d="M6.719 9.319l0.688-0.694 1.963 1.975-0.688 0.694z"></path>
<path fill="#000" d="M17.962 11.231l-0.688-0.694 1.956-1.975 0.694 0.694z"></path>
<path fill="#000" d="M7.531 22.031l-0.688-0.694 1.963-1.975 0.688 0.694z"></path>
<path fill="#000" d="M12.037 18.431c-1.262-0.506-2.162-1.744-2.162-3.194 0-1.894 1.531-3.438 3.419-3.438 0.975 0 1.856 0.412 2.475 1.075 0.3-0.219 0.594-0.387 0.85-0.512-0.806-0.944-2-1.544-3.331-1.544-2.419 0-4.394 1.981-4.394 4.419 0 1.712 0.975 3.2 2.394 3.931 0.231-0.325 0.494-0.563 0.75-0.738z"></path>
<path fill="#000" d="M18.688 14.988c0.906 0 1.756 0.3 2.456 0.869 0.681 0.556 1.163 1.331 1.356 2.181l0.194 0.875 0.887-0.113c0.131-0.019 0.256-0.025 0.381-0.025 1.681 0 3.050 1.381 3.050 3.075s-1.369 3.075-3.050 3.075h-9.856c-0.594 0-1.156-0.244-1.588-0.675-0.425-0.438-0.662-1.012-0.662-1.619 0-1.163 0.906-2.113 2.075-2.306 0.1-0.019 0.55-0.075 0.887-0.106 0 0-0.031-0.331-0.037-0.6s-0.006-0.587-0.006-0.719c0.006-2.15 1.756-3.912 3.913-3.912zM18.688 14c-2.706 0-4.894 2.2-4.894 4.906 0 0.163 0.006 0.325 0.025 0.488-1.65 0.144-2.944 1.594-2.944 3.288 0 1.788 1.45 3.319 3.231 3.319h9.856c2.231 0 4.038-1.869 4.038-4.106s-1.806-4.081-4.038-4.081c-0.169 0-0.337 0-0.5 0.019-0.494-2.188-2.444-3.831-4.775-3.831v0z"></path>
</svg>
