<?xml version="1.0" encoding="utf-8"?>
<!-- Generated by IcoMoon.io -->
<!DOCTYPE svg PUBLIC "-//W3C//DTD SVG 1.1//EN" "http://www.w3.org/Graphics/SVG/1.1/DTD/svg11.dtd">
<svg version="1.1" xmlns="http://www.w3.org/2000/svg" xmlns:xlink="http://www.w3.org/1999/xlink" width="32" height="32" viewBox="0 0 32 32">
<path fill="#000" d="M26.094 10h-3.858c-2.007-2.25-2.639-3-3.408-3h-5.531c-0.77 0-1.385 0.75-3.408 3h-0.827v-1h-2.125v1h-0.844c-1.103 0-2.094 0.826-2.094 1.918v11.001c0 1.092 0.991 2.081 2.094 2.081h20c1.103 0 1.906-0.989 1.906-2.081v-11.001c0-1.092-0.803-1.918-1.906-1.918zM19.567 20.674c-0.994 0.853-2.261 1.326-3.567 1.326-2.843 0-5.157-2.25-5.45-4.875h-1.842l2.346-3.125 2.429 3.125h-1.913c0.288 2.063 2.158 3.873 4.431 3.873 1.054 0 2.044-0.395 2.863-1.085l0.127-0.103 0.725 0.729-0.148 0.135zM20.943 19.202l-2.428-3.202h1.915c-0.289-2.188-2.159-3.987-4.431-3.987-1.039 0-2.056 0.383-2.863 1.063l-0.127 0.107-0.725-0.726 0.148-0.128c0.994-0.853 2.261-1.325 3.567-1.325 1.396 0 2.722 0.504 3.733 1.427 0.971 0.886 1.577 2.32 1.717 3.57h1.845l-2.352 3.202z"></path>
</svg>
