<?xml version="1.0" encoding="utf-8"?>
<!-- Generated by IcoMoon.io -->
<!DOCTYPE svg PUBLIC "-//W3C//DTD SVG 1.1//EN" "http://www.w3.org/Graphics/SVG/1.1/DTD/svg11.dtd">
<svg version="1.1" xmlns="http://www.w3.org/2000/svg" xmlns:xlink="http://www.w3.org/1999/xlink" width="32" height="32" viewBox="0 0 32 32">
<path fill="#000" d="M16 3c-7.179 0-13 5.821-13 13s5.821 13 13 13c7.179 0 13-5.821 13-13s-5.821-13-13-13zM27.916 16c0 0.003-0 0.006-0 0.009-1.395-0.108-2.749-0.436-4.039-0.981-1.118-0.473-2.153-1.094-3.092-1.852 1.293-1.844 2.403-3.826 3.302-5.92 2.354 2.178 3.83 5.292 3.83 8.744zM23.288 6.579c-0.017 0.042-0.034 0.085-0.052 0.127-0.869 2.055-1.941 3.997-3.205 5.812-0.096-0.091-0.191-0.182-0.285-0.276-1.194-1.194-2.132-2.585-2.786-4.133-0.544-1.285-0.871-2.635-0.979-4.025 0.007 0 0.014-0 0.021-0 2.743-0 5.272 0.932 7.288 2.495zM14.98 4.128c0.277 3.633 1.94 6.878 4.462 9.207-0.593 0.797-1.226 1.567-1.895 2.31-2.972-3.127-6.551-5.672-10.548-7.446 1.977-2.279 4.803-3.801 7.981-4.072zM17.543 17.115c2.264 2.542 4.093 5.402 5.449 8.528-1.587 1.154-3.469 1.927-5.51 2.181-0.142-2.989-1.22-5.732-2.949-7.942 1.059-0.86 2.065-1.785 3.010-2.767zM16.377 16.877c-0.794 0.794-1.624 1.541-2.486 2.242-2.421-2.68-5.864-4.419-9.716-4.602 0.254-2.040 1.027-3.922 2.181-5.509 3.7 1.605 7.028 3.872 9.896 6.74 0.208 0.208 0.412 0.418 0.613 0.631-0.161 0.168-0.323 0.334-0.488 0.499zM4.094 15.514c1.577 0.072 3.090 0.425 4.466 1.007 1.548 0.655 2.938 1.592 4.133 2.786 0.141 0.141 0.278 0.285 0.412 0.431-1.963 1.495-4.089 2.753-6.357 3.761-1.665-2.050-2.664-4.66-2.664-7.5 0-0.163 0.004-0.324 0.011-0.486zM7.442 24.283c2.249-1.027 4.363-2.299 6.307-3.783 0.703 0.898 1.283 1.882 1.73 2.94 0.601 1.421 0.938 2.92 1.007 4.466-0.161 0.006-0.323 0.011-0.486 0.011-3.355 0-6.391-1.394-8.558-3.634zM23.801 25.001c-1.406-3.167-3.295-6.071-5.574-8.619 0.694-0.767 1.352-1.566 1.972-2.396 2.136 1.709 4.783 2.805 7.675 3.023-0.268 3.182-1.792 6.013-4.073 7.993z"></path>
</svg>
