<?xml version="1.0" encoding="utf-8"?>
<!-- Generated by IcoMoon.io -->
<!DOCTYPE svg PUBLIC "-//W3C//DTD SVG 1.1//EN" "http://www.w3.org/Graphics/SVG/1.1/DTD/svg11.dtd">
<svg version="1.1" xmlns="http://www.w3.org/2000/svg" xmlns:xlink="http://www.w3.org/1999/xlink" width="32" height="32" viewBox="0 0 32 32">
<path fill="#000" d="M28 4v-2h-10l-16 18 10 10 1.467-1.494 1.533 1.494 15-17v-9h-2zM12 28.586l-8.601-8.586 15.014-17h8.586v8.586l-13.535 15.499-0.709 0.71-0.757 0.79zM29 12.586l-14 16-0.824-0.791 13.824-15.795v-7h1v7.586z"></path>
<path fill="#000" d="M22 10c1.103 0 2-0.897 2-2s-0.897-2-2-2-2 0.897-2 2 0.897 2 2 2zM22 7c0.552 0 1 0.448 1 1s-0.448 1-1 1-1-0.448-1-1 0.448-1 1-1z"></path>
</svg>
