<?xml version="1.0" encoding="utf-8"?>
<!-- Generated by IcoMoon.io -->
<!DOCTYPE svg PUBLIC "-//W3C//DTD SVG 1.1//EN" "http://www.w3.org/Graphics/SVG/1.1/DTD/svg11.dtd">
<svg version="1.1" xmlns="http://www.w3.org/2000/svg" xmlns:xlink="http://www.w3.org/1999/xlink" width="32" height="32" viewBox="0 0 32 32">
<path fill="#000" d="M11.863 21.856c0.194-0.194 0.188-0.5 0-0.706l-4.15-4.65h17.788c0.275 0 0.5-0.225 0.5-0.5s-0.225-0.5-0.5-0.5h-17.788l4.144-4.65c0.181-0.213 0.2-0.506 0.006-0.7s-0.531-0.206-0.713-0.006c0 0-4.95 5.438-5 5.5s-0.15 0.175-0.15 0.356 0.1 0.306 0.15 0.356 5 5.5 5 5.5c0.094 0.094 0.225 0.144 0.356 0.144s0.256-0.050 0.356-0.144z"></path>
</svg>
