<?xml version="1.0" encoding="utf-8"?>
<!-- Generated by IcoMoon.io -->
<!DOCTYPE svg PUBLIC "-//W3C//DTD SVG 1.1//EN" "http://www.w3.org/Graphics/SVG/1.1/DTD/svg11.dtd">
<svg version="1.1" xmlns="http://www.w3.org/2000/svg" xmlns:xlink="http://www.w3.org/1999/xlink" width="32" height="32" viewBox="0 0 32 32">
<path fill="#000" d="M16 3c-7.179 0-13 5.821-13 13s5.821 13 13 13c7.18 0 13-5.821 13-13s-5.821-13-13-13zM18.572 27.636c-0.845 0.166-1.895 0.262-2.75 0.278-0.825-0.012-1.63-0.108-2.406-0.281-0.134-0.034-0.274-0.071-0.425-0.111l-1.526-4.090 1.228-2.433h6.616l0.036 0.067 1.209 2.428-1.476 4.018c-0.167 0.045-0.335 0.086-0.504 0.123zM5.582 10.22l1.148 3.299-2.644 2.288c0.032-2.024 0.572-3.927 1.496-5.587zM11.849 4.83l3.589 2.456v3.634l-4.437 3.754-3.348-1.526-1.396-4.001c1.376-1.95 3.321-3.471 5.592-4.318zM20.314 15.45l0.058 0.048-1.149 4.502h-6.446l-1.155-4.528 0.028-0.024 4.305-3.642 4.36 3.644zM27.914 15.808l-2.653-2.296 1.152-3.301c0.928 1.663 1.47 3.569 1.502 5.597zM25.723 9.129l-1.402 4.030-3.375 1.524-4.446-3.763v-3.634l3.6-2.463c2.273 0.843 4.244 2.36 5.623 4.307zM4.134 17.088l3.36-2.907 3.131 1.428 1.232 4.83-1.277 2.408-4.366-0.057c-1.147-1.648-1.888-3.597-2.080-5.702zM21.42 22.848l-1.277-2.408 1.235-4.838 3.125-1.424 3.364 2.911c-0.192 2.106-0.933 4.055-2.080 5.702l-4.366 0.057zM15.954 6.417l-2.883-1.969c0.938-0.238 1.919-0.365 2.929-0.365 0.998 0 1.967 0.124 2.893 0.356l-2.94 1.977zM10.401 23.846l0.053 0.157 1.247 3.111c-1.827-0.709-3.438-1.857-4.702-3.313l3.402 0.045zM20.285 27.119l1.121-3.038 0.102-0.234 3.493-0.046c-1.267 1.46-2.883 2.609-4.716 3.318z"></path>
</svg>
