<?xml version="1.0" encoding="utf-8"?>
<!-- Generated by IcoMoon.io -->
<!DOCTYPE svg PUBLIC "-//W3C//DTD SVG 1.1//EN" "http://www.w3.org/Graphics/SVG/1.1/DTD/svg11.dtd">
<svg version="1.1" xmlns="http://www.w3.org/2000/svg" xmlns:xlink="http://www.w3.org/1999/xlink" width="32" height="32" viewBox="0 0 32 32">
<path fill="#000" d="M21.825 20.925c0.706 0.244-0.7-0.244 0 0v0z"></path>
<path fill="#000" d="M21.825 20.925c-0.844-0.294-1.756-0.313-2.6-0.606-0.256-0.087-0.762-0.194-0.869-0.488-0.1-0.288-0.1-0.625-0.119-0.925-0.012-0.238-0.019-0.475-0.019-0.712 0-0.156 0.4-0.488 0.488-0.631 0.337-0.563 0.369-1.319 0.431-1.956 0.544 0.15 0.613-0.856 0.706-1.162 0.069-0.213 0.488-1.675-0.163-1.475 0.156-0.275 0.219-0.613 0.262-0.919 0.125-0.8 0.175-1.675-0.069-2.456-0.506-1.625-2.063-2.537-3.706-2.588-1.669-0.056-3.344 0.744-3.969 2.362-0.3 0.787-0.275 1.644-0.175 2.469 0.044 0.375 0.106 0.794 0.294 1.131-0.606-0.181-0.281 1.106-0.213 1.331 0.1 0.319 0.188 1.463 0.756 1.306 0.050 0.506 0.106 1.025 0.244 1.519 0.094 0.331 0.287 0.613 0.512 0.869 0.113 0.125 0.169 0.137 0.162 0.3-0.006 0.488 0.006 1.012-0.119 1.488s-1.169 0.675-1.588 0.762c-1.125 0.231-2.162 0.337-3.1 1.038-1.094 0.806-1.662 2.063-1.662 3.419 5.206 0 10.413 0 15.619 0 0.587 0 1.169 0 1.756 0 0-1.844-1.113-3.469-2.863-4.075z"></path>
<path fill="#000" d="M8.956 20.156c0.037-0.019 0.075-0.038 0.1-0.050-0.019 0.006-0.037 0.019-0.050 0.025-0.019 0.006-0.031 0.012-0.050 0.025z"></path>
<path fill="#000" d="M8.956 20.156c-0.213 0.106-0.469 0.238 0.050-0.025 0.188-0.094 0.15-0.075 0.050-0.025 0.425-0.2 0.881-0.25 1.338-0.294 0.175-0.019 0.256-0.137 0.125-0.306-0.25-0.319-1.113-0.381-1.475-0.525-0.225-0.087-0.287-0.169-0.306-0.419-0.006-0.113-0.069-0.613 0.019-0.694 0.063-0.063 0.456-0.038 0.544-0.050 0.356-0.044 0.719-0.119 1.056-0.25 0.144-0.056 0.281-0.125 0.406-0.212 0.15-0.113-0.113-0.387-0.181-0.538-0.213-0.469-0.306-0.981-0.338-1.494-0.063-1.006 0.094-2.019-0.094-3.019-0.281-1.531-1.463-2.3-2.969-2.3-0.931 0-1.85 0.319-2.369 1.131-0.575 0.894-0.544 2.006-0.513 3.025 0.019 0.581 0.044 1.169-0.037 1.75-0.037 0.25-0.094 0.494-0.181 0.731-0.069 0.181-0.419 0.631-0.281 0.725 0.519 0.369 1.394 0.494 2.019 0.444 0.019 0.306 0.075 0.7-0.037 0.988-0.175 0.45-1.481 0.569-1.875 0.7-1.094 0.363-1.906 1.25-1.906 2.5 1.144 0 2.281 0 3.425 0 0.513 0 1.025 0 1.544 0 0.081 0 0.394-0.581 0.481-0.675 0.425-0.469 0.944-0.875 1.506-1.169z"></path>
<path fill="#000" d="M28.081 19.494c-0.506-0.163-1.481-0.212-1.844-0.65-0.181-0.219-0.081-0.775-0.063-1.038 0.275 0.025 0.575-0.019 0.856-0.056 0.256-0.038 0.506-0.087 0.75-0.175 0.113-0.044 0.225-0.087 0.331-0.15 0.244-0.144 0.131-0.169 0.006-0.381-0.681-1.144-0.375-2.594-0.406-3.85-0.025-1.044-0.3-2.188-1.25-2.775-0.856-0.531-2.125-0.55-3.044-0.175-2.65 1.063-1.087 4.575-1.994 6.587-0.156 0.337-0.381 0.456 0.012 0.656 0.219 0.113 0.456 0.188 0.694 0.244 0.363 0.087 0.738 0.137 1.113 0.15 0.063 0 0.019 0.788 0 0.869-0.069 0.306-0.738 0.394-0.988 0.462-0.256 0.069-0.681 0.087-0.806 0.356-0.188 0.4 0.619 0.3 0.819 0.337 0.644 0.119 1.212 0.475 1.712 0.881 0.375 0.306 0.881 0.719 1.019 1.219 1.669 0 3.344 0 5.012 0-0.012-1.256-0.831-2.15-1.931-2.512z"></path>
</svg>
