<?xml version="1.0" encoding="utf-8"?>
<!-- Generated by IcoMoon.io -->
<!DOCTYPE svg PUBLIC "-//W3C//DTD SVG 1.1//EN" "http://www.w3.org/Graphics/SVG/1.1/DTD/svg11.dtd">
<svg version="1.1" xmlns="http://www.w3.org/2000/svg" xmlns:xlink="http://www.w3.org/1999/xlink" width="32" height="32" viewBox="0 0 32 32">
<path fill="#000" d="M23.856 14.119c0-6.1-3.281-8.175-6.35-8.637 0-0.031 0.006-0.063 0.006-0.1 0-0.769-0.681-1.381-1.512-1.381s-1.488 0.612-1.488 1.381c0 0.037 0 0.069 0.006 0.1-3.075 0.469-6.375 2.55-6.375 8.65 0 7.113-1.769 7.875-4.144 9.875h24c-2.363-2.006-4.144-2.775-4.144-9.887z"></path>
<path fill="#000" d="M16.012 28c1.675 0 3.050-1.244 3.231-2.688h-6.463c0.175 1.444 1.556 2.688 3.231 2.688z"></path>
</svg>
