<?xml version="1.0" encoding="utf-8"?>
<!-- Generated by IcoMoon.io -->
<!DOCTYPE svg PUBLIC "-//W3C//DTD SVG 1.1//EN" "http://www.w3.org/Graphics/SVG/1.1/DTD/svg11.dtd">
<svg version="1.1" xmlns="http://www.w3.org/2000/svg" xmlns:xlink="http://www.w3.org/1999/xlink" width="32" height="32" viewBox="0 0 32 32">
<path fill="#000" d="M12.081 16.275l-0.725-0.725 4.656-4.644 4.656 4.644-0.731 0.725-3.413-3.412v15.112h-1.031v-15.113z"></path>
<path fill="#000" d="M24.956 11.475c0-0.075 0.012-0.15 0.012-0.225 0-4.019-3.3-7.275-7.3-7.275-2.881 0-5.363 1.694-6.525 4.144-0.506-0.256-1.069-0.4-1.675-0.4-1.85 0-3.381 1.475-3.681 3.25-2.2 0.756-3.788 2.919-3.788 5.394 0 3.106 2.506 5.637 5.6 5.637h5.713v-1h-5.662c-2.556 0-4.638-2.094-4.638-4.662 0-1.988 1.263-3.825 3.138-4.475l0.525-0.181 0.094-0.55c0.225-1.35 1.381-2.456 2.744-2.456 0.431 0 0.856 0.1 1.244 0.3l0.844 0.425 0.406-0.856c1.037-2.181 3.256-3.588 5.65-3.588 3.456 0 6.306 2.706 6.306 6.181 0 0.831-0.012 1.269-0.012 1.269l0.95 0.006c2.288 0.031 4.1 2.088 4.1 4.394 0 2.3-1.863 4.181-4.156 4.194h-6.281v1h6.313c2.813 0 5.125-2.331 5.125-5.175s-2.219-5.344-5.044-5.35z"></path>
</svg>
