<?xml version="1.0" encoding="utf-8"?>
<!-- Generated by IcoMoon.io -->
<!DOCTYPE svg PUBLIC "-//W3C//DTD SVG 1.1//EN" "http://www.w3.org/Graphics/SVG/1.1/DTD/svg11.dtd">
<svg version="1.1" xmlns="http://www.w3.org/2000/svg" xmlns:xlink="http://www.w3.org/1999/xlink" width="32" height="32" viewBox="0 0 32 32">
<path fill="#000" d="M21.431 10.338l0.569-0.4 0.569 0.4 1.431 0.906v-7.244c-1.294 0-2.781 0-4 0v7.244l1.431-0.906z"></path>
<path fill="#000" d="M27 4c0 0-0.831 0-2 0v9.156l-3-2-3 2v-9.156c-0.756 0-1.288 0-1.4 0-0.506 0-1.1 0.45-1.1 0.938s0 20.563 0 20.563l-0.5 0.344-0.5-0.344c0 0 0-20.125 0-20.563s-0.575-0.938-1.1-0.938-9.4 0-9.4 0c-1.175 0-2.063 0.831-2.063 2v17.881c0 1.175 0.888 2.119 2.063 2.119 0 0 8.094 0 8.956 0s1.544 0.262 1.544 1.212c0 0.569 0 0.788 0 0.788h1c0 0 0-0.212 0-0.788 0-0.956 0.681-1.212 1.544-1.212s8.956 0 8.956 0c1.175 0 2.063-0.944 2.063-2.119v-17.881c0-1.169-0.887-2-2.063-2z"></path>
</svg>
