<?xml version="1.0" encoding="utf-8"?>
<!-- Generated by IcoMoon.io -->
<!DOCTYPE svg PUBLIC "-//W3C//DTD SVG 1.1//EN" "http://www.w3.org/Graphics/SVG/1.1/DTD/svg11.dtd">
<svg version="1.1" xmlns="http://www.w3.org/2000/svg" xmlns:xlink="http://www.w3.org/1999/xlink" width="32" height="32" viewBox="0 0 32 32">
<path fill="#000" d="M16 3c-0.503 0-0.998 0.030-1.486 0.085v0 0c-6.479 0.738-11.514 6.239-11.514 12.915 0 7.179 5.821 13 13 13 6.677 0 12.177-5.035 12.915-11.514v0 0c0.056-0.488 0.085-0.984 0.085-1.486 0-7.179-5.821-13-13-13zM16.246 27.913c-0.034-0.543-0.1-1.082-0.201-1.613l-1.344 0.431-0.305-0.952 1.426-0.457c-0.136-0.503-0.303-1-0.501-1.487-0.121-0.3-0.254-0.594-0.396-0.882l-1.216 0.824-0.561-0.828 1.296-0.878c-0.463-0.777-1.009-1.504-1.632-2.175l-1.053 1.053-0.707-0.707 1.053-1.053c-0.653-0.606-1.358-1.138-2.11-1.593l-0.889 1.312-0.828-0.561 0.838-1.237c-0.31-0.156-0.627-0.3-0.95-0.431-0.466-0.189-0.94-0.349-1.42-0.482l-0.469 1.462-0.952-0.305 0.445-1.387c-0.553-0.108-1.115-0.178-1.681-0.213 0.007-0.336 0.027-0.668 0.061-0.997 0.646 0.040 1.29 0.125 1.927 0.254l0.47-1.466 0.952 0.305-0.447 1.396c0.902 0.252 1.784 0.595 2.631 1.031l0.841-1.241 0.828 0.561-0.794 1.172c0.794 0.485 1.551 1.056 2.256 1.713l1.068-1.068 0.707 0.707-1.068 1.068c0.676 0.725 1.26 1.503 1.753 2.322l1.187-0.804 0.561 0.828-1.261 0.854c0.43 0.847 0.768 1.728 1.014 2.629l1.432-0.459 0.305 0.952-1.508 0.483c0.122 0.614 0.202 1.235 0.241 1.858-0.329 0.034-0.661 0.055-0.997 0.062zM25.685 17.206l-0.533 1.663-0.952-0.305 0.511-1.593c-0.883-0.248-1.746-0.583-2.576-1.007l-0.958 1.415-0.828-0.561 0.91-1.344c-0.807-0.489-1.575-1.067-2.29-1.734l-1.2 1.2-0.707-0.707 1.2-1.2c-0.649-0.696-1.214-1.441-1.695-2.224l-1.328 0.9-0.561-0.828 1.396-0.945c-0.43-0.83-0.771-1.694-1.024-2.578l-1.557 0.499-0.305-0.952 1.622-0.52c-0.153-0.729-0.246-1.468-0.283-2.209 0.324-0.040 0.653-0.067 0.985-0.080 0.032 0.671 0.116 1.333 0.248 1.988l1.234-0.397 0.307 0.951-1.299 0.416c0.128 0.451 0.281 0.896 0.458 1.334 0.136 0.335 0.286 0.663 0.448 0.983l1.082-0.733 0.561 0.828-1.155 0.782c0.451 0.74 0.976 1.435 1.573 2.078l0.921-0.921 0.707 0.707-0.921 0.921c0.663 0.615 1.379 1.154 2.144 1.613l0.772-1.14 0.828 0.561-0.72 1.062c0.299 0.149 0.604 0.287 0.915 0.413 0.46 0.186 0.927 0.345 1.401 0.477l0.405-1.264 0.952 0.305-0.381 1.19c0.632 0.124 1.268 0.207 1.914 0.239-0.013 0.332-0.040 0.661-0.080 0.985-0.718-0.035-1.434-0.124-2.14-0.269z"></path>
</svg>
