<?xml version="1.0" encoding="utf-8"?>
<!-- Generated by IcoMoon.io -->
<!DOCTYPE svg PUBLIC "-//W3C//DTD SVG 1.1//EN" "http://www.w3.org/Graphics/SVG/1.1/DTD/svg11.dtd">
<svg version="1.1" xmlns="http://www.w3.org/2000/svg" xmlns:xlink="http://www.w3.org/1999/xlink" width="32" height="32" viewBox="0 0 32 32">
<path fill="#000" d="M27.994 23.012c0-1.050 0.225-5.194-3.044-8.481-2.2-2.213-5.019-3.338-8.956-3.512v-5.019l-11.994 8 12 8v-4.988c2.5 0.069 3.9 0.569 5.419 1.25 1.931 0.863 3.456 2.75 4.738 4.787l1.2 1.95h0.644c0-0.631-0.006-1.431-0.006-1.988zM27.012 22.587c-2.975-5.050-6.325-6.588-12.012-6.588v4.050l-9.256-6.044 9.256-6.050v4.044c12.563 0 12.012 10.588 12.012 10.588z"></path>
</svg>
