<?xml version="1.0" encoding="utf-8"?>
<!-- Generated by IcoMoon.io -->
<!DOCTYPE svg PUBLIC "-//W3C//DTD SVG 1.1//EN" "http://www.w3.org/Graphics/SVG/1.1/DTD/svg11.dtd">
<svg version="1.1" xmlns="http://www.w3.org/2000/svg" xmlns:xlink="http://www.w3.org/1999/xlink" width="32" height="32" viewBox="0 0 32 32">
<path fill="#000" d="M20.756 11.213c-0.175 0-0.356-0.006-0.525 0.019-0.519-2.3-2.2-4.225-5.019-4.225-3.181 0-5.144 2.375-5.144 5.225 0 0.175 0.006 0.344 0.025 0.512-1.731 0.156-3.094 1.956-3.094 3.737 0 1.825 1.431 3.413 3.225 3.512l-1.531 2.15c-0.069 0.1-0.125 0.212-0.125 0.344 0 0.288 0.231 0.519 0.519 0.519 0.188 0 0.35-0.1 0.444-0.25l1.938-2.738h2.256l-2.881 4.113c-0.075 0.1-0.131 0.225-0.131 0.35 0 0.288 0.231 0.519 0.519 0.519 0.188 0 0.35-0.113 0.45-0.269l3.287-4.719h2.369l-1.556 2.15c-0.075 0.1-0.137 0.238-0.137 0.35 0 0.288 0.231 0.519 0.519 0.519 0.194 0 0.337-0.106 0.45-0.256l1.975-2.769h2.169c0.006 0 0.019-0.006 0.025-0.006l-2.881 4.119c-0.081 0.106-0.144 0.225-0.144 0.363 0 0.288 0.231 0.519 0.519 0.519 0.2 0 0.344-0.125 0.462-0.281l3.469-4.988c1.625-0.619 2.788-2.238 2.788-4.075 0.006-2.356-1.894-4.444-4.238-4.444z"></path>
</svg>
