<?xml version="1.0" encoding="utf-8"?>
<!-- Generated by IcoMoon.io -->
<!DOCTYPE svg PUBLIC "-//W3C//DTD SVG 1.1//EN" "http://www.w3.org/Graphics/SVG/1.1/DTD/svg11.dtd">
<svg version="1.1" xmlns="http://www.w3.org/2000/svg" xmlns:xlink="http://www.w3.org/1999/xlink" width="32" height="32" viewBox="0 0 32 32">
<path fill="#000" d="M27.944 16.012c-2.831-3.262-6.744-7.012-11.944-7.012-2.1 0-4.025 0.594-6.056 1.863-1.713 1.075-3.469 2.588-5.881 5.075l-0.063 0.063 0.419 0.431c3.444 3.525 6.419 6.569 11.581 6.569 2.281 0 4.494-0.744 6.762-2.275 1.931-1.306 3.575-2.962 4.894-4.3l0.344-0.344-0.056-0.069zM16 10c2.069 0 4.056 0.594 6.075 1.912 1.494 0.975 2.962 2.294 4.606 4.131-2.394 2.419-5.988 5.956-10.681 5.956-2.138 0-4.013-0.525-5.888-1.762-1.719-1.131-3.269-2.706-4.763-4.238 3.694-3.731 6.775-6 10.65-6z"></path>
<path fill="#000" d="M16 21c2.756 0 5-2.244 5-5s-2.244-5-5-5c-2.756 0-5 2.244-5 5s2.244 5 5 5zM16 12.019c2.2 0 4 1.787 4 3.981s-1.8 3.981-4 3.981c-2.2 0-3.994-1.788-3.994-3.981s1.794-3.981 3.994-3.981z"></path>
<path fill="#000" d="M18 16v0c0 1.094-0.9 2-1.988 2s-2.012-0.95-2.012-2.044 0.988-1.956 2-1.956v-1c-1.656 0-2.994 1.35-2.994 3.012s1.344 3.006 2.994 3.006 3-1.35 3-3.006v-0.012h-1z"></path>
</svg>
