<?xml version="1.0" encoding="utf-8"?>
<!-- Generated by IcoMoon.io -->
<!DOCTYPE svg PUBLIC "-//W3C//DTD SVG 1.1//EN" "http://www.w3.org/Graphics/SVG/1.1/DTD/svg11.dtd">
<svg version="1.1" xmlns="http://www.w3.org/2000/svg" xmlns:xlink="http://www.w3.org/1999/xlink" width="32" height="32" viewBox="0 0 32 32">
<path fill="#000" d="M24.137 9c-3.788 0-6.863 3.119-6.863 6.988 0 2.525 1.313 4.762 3.281 5.95h-9.113c1.969-1.188 3.281-3.425 3.281-5.95 0-3.869-3.075-6.994-6.862-6.994s-6.862 3.138-6.862 7c0 3.869 3.075 7.006 6.862 7.006h16.275c3.788 0 6.863-3.131 6.863-7s-3.075-7-6.863-7zM8 20c-2.206 0-4-1.794-4-4s1.794-4 4-4 4 1.794 4 4c0 2.206-1.794 4-4 4zM24 20c-2.206 0-4-1.794-4-4s1.794-4 4-4 4 1.794 4 4c0 2.206-1.794 4-4 4z"></path>
<path fill="#000" d="M24 13c-1.656 0-3 1.344-3 3s1.344 3 3 3 3-1.344 3-3c0-1.656-1.344-3-3-3z"></path>
<path fill="#000" d="M8 13c-1.656 0-3 1.344-3 3s1.344 3 3 3 3-1.344 3-3c0-1.656-1.344-3-3-3z"></path>
</svg>
