<?xml version="1.0" encoding="utf-8"?>
<!-- Generated by IcoMoon.io -->
<!DOCTYPE svg PUBLIC "-//W3C//DTD SVG 1.1//EN" "http://www.w3.org/Graphics/SVG/1.1/DTD/svg11.dtd">
<svg version="1.1" xmlns="http://www.w3.org/2000/svg" xmlns:xlink="http://www.w3.org/1999/xlink" width="32" height="32" viewBox="0 0 32 32">
<path fill="#000" d="M8.445 12.786c-0.668 0-1.209 0.545-1.209 1.215s0.541 1.215 1.209 1.215c0.665 0 1.206-0.545 1.206-1.215s-0.541-1.215-1.206-1.215z"></path>
<path fill="#000" d="M29.142 15.554c-1.322-5.529-2.727-8.468-5.528-9.302-0.61-0.181-1.13-0.252-1.609-0.252-1.725 0-2.934 0.918-6.005 0.918-3.073 0-4.281-0.918-6.004-0.918-0.479 0-0.998 0.071-1.608 0.252-2.804 0.834-4.209 3.772-5.529 9.302-1.324 5.53-1.083 9.523 0.48 10.268 0.254 0.122 0.514 0.178 0.778 0.178 1.356 0 2.821-1.49 4.229-3.253 1.603-2.007 2.007-2.060 6.892-2.060h1.521c4.884 0 5.289 0.053 6.893 2.060 1.408 1.763 2.873 3.25 4.229 3.25 0.264 0 0.524-0.055 0.779-0.176 1.563-0.745 1.803-4.737 0.482-10.267zM8.452 16.477c-1.353 0-2.452-1.11-2.452-2.476 0-1.365 1.1-2.478 2.452-2.478s2.453 1.113 2.453 2.478c0 1.367-1.1 2.476-2.453 2.476zM19.255 15.259c-0.691 0-1.255-0.564-1.255-1.257s0.564-1.257 1.255-1.257c0.696 0 1.259 0.563 1.259 1.256s-0.564 1.257-1.259 1.257zM21.999 18c-0.691 0-1.253-0.559-1.253-1.251 0-0.697 0.562-1.257 1.253-1.257 0.697 0 1.259 0.559 1.259 1.257 0 0.692-0.563 1.251-1.259 1.251zM21.999 12.512c-0.691 0-1.253-0.562-1.253-1.255s0.562-1.257 1.253-1.257c0.697 0 1.259 0.563 1.259 1.257s-0.563 1.255-1.259 1.255zM24.747 15.259c-0.694 0-1.256-0.564-1.256-1.257s0.562-1.257 1.256-1.257c0.691 0 1.253 0.563 1.253 1.256s-0.562 1.257-1.253 1.257z"></path>
</svg>
