<?xml version="1.0" encoding="utf-8"?>
<!-- Generated by IcoMoon.io -->
<!DOCTYPE svg PUBLIC "-//W3C//DTD SVG 1.1//EN" "http://www.w3.org/Graphics/SVG/1.1/DTD/svg11.dtd">
<svg version="1.1" xmlns="http://www.w3.org/2000/svg" xmlns:xlink="http://www.w3.org/1999/xlink" width="32" height="32" viewBox="0 0 32 32">
<path fill="#000" d="M26.094 10h-3.856c-2.006-2.25-2.637-3-3.406-3h-5.531c-0.769 0-1.387 0.75-3.406 3h-0.831v-1h-2.125v1h-0.844c-1.1 0-2.094 0.825-2.094 1.919v11c0 1.094 0.994 2.081 2.094 2.081h20c1.1 0 1.906-0.988 1.906-2.081v-11c0-1.094-0.806-1.919-1.906-1.919zM27 22.919c0 0.581-0.387 1.081-0.906 1.081h-20c-0.544 0-1.094-0.544-1.094-1.081v-11c0-0.512 0.506-0.919 1.094-0.919h4.238l0.3-0.2c0.25-0.281 0.481-0.625 0.694-0.863 0.706-0.794 1.219-1.356 1.581-1.681 0.294-0.263 0.387-0.256 0.387-0.256h5.531c0 0 0.1-0.006 0.419 0.281 0.381 0.344 0.919 1.031 1.663 1.863 0.181 0.206 0.375 0.425 0.581 0.656l0.3 0.2h4.306c0.55 0 0.906 0.375 0.906 0.919v11z"></path>
<path fill="#000" d="M16 11.844c-2.944 0-5.344 2.4-5.344 5.344s2.4 5.344 5.344 5.344 5.344-2.4 5.344-5.344-2.4-5.344-5.344-5.344zM16 21.531c-2.4 0-4.344-1.944-4.344-4.344s1.944-4.344 4.344-4.344 4.344 1.944 4.344 4.344-1.944 4.344-4.344 4.344z"></path>
<path fill="#000" d="M22 12h1.063v1.063h-1.063v-1.063z"></path>
<path fill="#000" d="M18 17.188c0 1.105-0.895 2-2 2s-2-0.895-2-2c0-1.105 0.895-2 2-2s2 0.895 2 2z"></path>
</svg>
