<?xml version="1.0" encoding="utf-8"?>
<!-- Generated by IcoMoon.io -->
<!DOCTYPE svg PUBLIC "-//W3C//DTD SVG 1.1//EN" "http://www.w3.org/Graphics/SVG/1.1/DTD/svg11.dtd">
<svg version="1.1" xmlns="http://www.w3.org/2000/svg" xmlns:xlink="http://www.w3.org/1999/xlink" width="32" height="32" viewBox="0 0 32 32">
<path fill="#000" d="M4 25h0.644l1.2-1.95c1.281-2.044 2.806-3.925 4.738-4.787 1.525-0.681 2.919-1.181 5.419-1.25v4.988l12-8-12-8v5.019c-3.938 0.175-6.756 1.294-8.956 3.512-3.269 3.294-3.044 7.438-3.044 8.481 0.006 0.556 0 1.356 0 1.988zM17 12v-4.044l9.256 6.050-9.256 6.044v-4.050c-5.688 0-9.037 1.538-12.012 6.587 0 0-0.55-10.588 12.012-10.588z"></path>
</svg>
