<?xml version="1.0" encoding="utf-8"?>
<!-- Generated by IcoMoon.io -->
<!DOCTYPE svg PUBLIC "-//W3C//DTD SVG 1.1//EN" "http://www.w3.org/Graphics/SVG/1.1/DTD/svg11.dtd">
<svg version="1.1" xmlns="http://www.w3.org/2000/svg" xmlns:xlink="http://www.w3.org/1999/xlink" width="32" height="32" viewBox="0 0 32 32">
<path fill="#000" d="M13 6h1v3.375h-1v-3.375z"></path>
<path fill="#000" d="M4 15h3.438v1h-3.438v-1z"></path>
<path fill="#000" d="M6.719 9.319l0.688-0.694 1.963 1.975-0.688 0.694z"></path>
<path fill="#000" d="M17.962 11.231l-0.688-0.694 1.956-1.975 0.694 0.694z"></path>
<path fill="#000" d="M7.531 22.031l-0.688-0.694 1.963-1.975 0.688 0.694z"></path>
<path fill="#000" d="M18.688 14c-2.706 0-4.894 2.2-4.894 4.906 0 0.163 0.006 0.325 0.025 0.488-1.65 0.144-2.944 1.594-2.944 3.288 0 1.788 1.45 3.319 3.231 3.319h9.856c2.231 0 4.038-1.869 4.038-4.106s-1.806-4.081-4.038-4.081c-0.169 0-0.337 0-0.5 0.019-0.494-2.188-2.444-3.831-4.775-3.831v0z"></path>
<path fill="#000" d="M16.544 12.269c-0.806-0.894-1.963-1.456-3.25-1.456-2.419 0-4.394 1.981-4.394 4.419 0 1.712 0.975 3.2 2.394 3.931 0 0 0-0.006 0-0.006s0.006 0.006 0.006 0.006c0.281-0.756 0.713-1.238 1.412-1.6 0.012-0.006 0.025-0.012 0.044-0.025 0.012-0.006 0.031-0.012 0.044-0.019-0.012-0.144-0.019-0.294-0.019-0.438-0.019-1.994 1.887-4.406 3.813-4.713 0.006-0.006 0.019-0.006 0.025-0.012-0.025-0.025-0.050-0.056-0.075-0.088z"></path>
</svg>
