<?xml version="1.0" encoding="utf-8"?>
<!-- Generated by IcoMoon.io -->
<!DOCTYPE svg PUBLIC "-//W3C//DTD SVG 1.1//EN" "http://www.w3.org/Graphics/SVG/1.1/DTD/svg11.dtd">
<svg version="1.1" xmlns="http://www.w3.org/2000/svg" xmlns:xlink="http://www.w3.org/1999/xlink" width="32" height="32" viewBox="0 0 32 32">
<path fill="#000" d="M16.056 9.994c-1.606 0-3.113 0.625-4.244 1.756s-1.756 2.637-1.756 4.244c0 1.606 0.625 3.106 1.756 4.244 1.131 1.131 2.644 1.756 4.244 1.756 1.606 0 3.112-0.625 4.244-1.756s1.756-2.638 1.756-4.244c0-1.606-0.625-3.106-1.756-4.244-1.131-1.131-2.637-1.756-4.244-1.756zM16.056 20.994c-2.769 0-5-2.244-5-5s2.231-5 5-5c2.769 0 5 2.244 5 5s-2.231 5-5 5z"></path>
<path fill="#000" d="M12.612 5.177c0.279 0.414 0.632 0.775 1.048 1.067 0.688 0.482 1.497 0.737 2.34 0.737s1.652-0.255 2.34-0.737c0.416-0.291 0.77-0.653 1.048-1.067 0.645 0.202 1.271 0.461 1.87 0.776-0.096 0.49-0.101 0.996-0.013 1.496 0.146 0.827 0.538 1.579 1.133 2.175 0.771 0.771 1.796 1.196 2.887 1.196 0.265 0 0.526-0.025 0.782-0.075 0.314 0.6 0.574 1.226 0.775 1.872-0.414 0.279-0.775 0.633-1.066 1.049-0.482 0.688-0.736 1.497-0.736 2.339s0.254 1.65 0.736 2.338c0.291 0.416 0.651 0.77 1.065 1.048-0.202 0.646-0.462 1.272-0.777 1.872-0.255-0.049-0.515-0.074-0.779-0.074-1.090 0-2.116 0.425-2.886 1.196-0.595 0.595-0.986 1.345-1.133 2.171-0.088 0.499-0.084 1.004 0.011 1.493-0.6 0.315-1.227 0.575-1.873 0.776-0.279-0.413-0.633-0.773-1.048-1.064-0.688-0.481-1.495-0.735-2.337-0.735s-1.649 0.254-2.337 0.735c-0.416 0.291-0.769 0.651-1.048 1.064-0.646-0.202-1.272-0.461-1.873-0.776 0.095-0.489 0.099-0.994 0.011-1.493-0.146-0.826-0.538-1.577-1.133-2.171-0.771-0.771-1.796-1.196-2.887-1.196-0.264 0-0.524 0.025-0.779 0.074-0.315-0.6-0.575-1.226-0.777-1.872 0.413-0.279 0.774-0.632 1.065-1.048 0.481-0.688 0.736-1.496 0.736-2.338s-0.255-1.651-0.736-2.339c-0.291-0.416-0.652-0.77-1.066-1.049 0.202-0.646 0.461-1.272 0.775-1.872 0.256 0.050 0.517 0.075 0.783 0.075 1.090 0 2.116-0.425 2.887-1.196 0.596-0.596 0.987-1.348 1.133-2.175 0.088-0.5 0.083-1.006-0.013-1.496 0.6-0.314 1.225-0.574 1.87-0.776zM18.88 4c-0.444 1.158-1.565 1.981-2.88 1.981s-2.436-0.823-2.88-1.981c-1.279 0.306-2.481 0.811-3.571 1.481 0.504 1.133 0.293 2.506-0.636 3.436-0.602 0.602-1.391 0.903-2.179 0.903-0.428 0-0.857-0.089-1.255-0.266-0.669 1.090-1.174 2.292-1.479 3.571 1.157 0.444 1.978 1.566 1.978 2.879s-0.821 2.433-1.977 2.878c0.306 1.279 0.811 2.481 1.481 3.57 0.397-0.176 0.825-0.265 1.252-0.265 0.789 0 1.577 0.301 2.179 0.903 0.928 0.928 1.14 2.299 0.638 3.431 1.090 0.669 2.292 1.174 3.571 1.48 0.445-1.155 1.565-1.975 2.877-1.975s2.432 0.82 2.877 1.975c1.279-0.306 2.481-0.81 3.571-1.48-0.501-1.132-0.289-2.503 0.639-3.43 0.602-0.602 1.39-0.903 2.179-0.903 0.427 0 0.854 0.088 1.252 0.265 0.67-1.090 1.175-2.291 1.481-3.57-1.156-0.445-1.977-1.566-1.977-2.878s0.821-2.434 1.978-2.879c-0.305-1.279-0.81-2.481-1.479-3.571-0.398 0.177-0.827 0.266-1.255 0.266-0.789 0-1.577-0.301-2.179-0.903-0.929-0.929-1.14-2.303-0.636-3.436-1.090-0.67-2.291-1.175-3.57-1.48v0z"></path>
</svg>
