<?xml version="1.0" encoding="utf-8"?>
<!-- Generated by IcoMoon.io -->
<!DOCTYPE svg PUBLIC "-//W3C//DTD SVG 1.1//EN" "http://www.w3.org/Graphics/SVG/1.1/DTD/svg11.dtd">
<svg version="1.1" xmlns="http://www.w3.org/2000/svg" xmlns:xlink="http://www.w3.org/1999/xlink" width="32" height="32" viewBox="0 0 32 32">
<path fill="#000" d="M16 2c-7.731 0-14 6.269-14 14s6.269 14 14 14c7.731 0 14-6.269 14-14s-6.269-14-14-14zM16 4.5c0.275 0 0.5 0.225 0.5 0.5s-0.225 0.5-0.5 0.5-0.5-0.225-0.5-0.5 0.225-0.5 0.5-0.5zM5 16.5c-0.275 0-0.5-0.225-0.5-0.5s0.225-0.5 0.5-0.5 0.5 0.225 0.5 0.5c0 0.275-0.225 0.5-0.5 0.5zM6.725 21.931c-0.237 0.137-0.544 0.056-0.681-0.181s-0.056-0.544 0.181-0.681c0.237-0.137 0.544-0.056 0.681 0.181s0.056 0.544-0.181 0.681zM6.906 10.75c-0.138 0.238-0.444 0.319-0.681 0.181s-0.319-0.444-0.181-0.681 0.444-0.319 0.681-0.181c0.237 0.137 0.319 0.444 0.181 0.681zM10.25 6.044c0.238-0.138 0.544-0.056 0.681 0.181s0.056 0.544-0.181 0.681c-0.238 0.138-0.544 0.056-0.681-0.181s-0.056-0.544 0.181-0.681zM10.931 25.775c-0.137 0.238-0.444 0.319-0.681 0.181s-0.319-0.444-0.181-0.681c0.137-0.238 0.444-0.319 0.681-0.181s0.319 0.444 0.181 0.681zM16 27.5c-0.275 0-0.5-0.225-0.5-0.5s0.225-0.5 0.5-0.5 0.5 0.225 0.5 0.5-0.225 0.5-0.5 0.5zM16.5 16.869v7.631c0 0.275-0.225 0.5-0.5 0.5s-0.5-0.225-0.5-0.5v-7.637c-0.15-0.087-0.275-0.206-0.369-0.363-0.188-0.325-0.169-0.719 0.012-1.019l-2.35-3.931c-0.144-0.238-0.063-0.544 0.169-0.688 0.238-0.144 0.544-0.063 0.688 0.169l2.375 3.963c0.337 0.006 0.663 0.188 0.837 0.5 0.281 0.488 0.119 1.094-0.363 1.375zM21.75 25.956c-0.238 0.137-0.544 0.056-0.681-0.181s-0.056-0.544 0.181-0.681c0.238-0.137 0.544-0.056 0.681 0.181s0.056 0.544-0.181 0.681zM21.931 6.725c-0.137 0.237-0.444 0.319-0.681 0.181s-0.319-0.444-0.181-0.681c0.137-0.237 0.444-0.319 0.681-0.181s0.319 0.444 0.181 0.681zM25.956 21.75c-0.137 0.238-0.444 0.319-0.681 0.181s-0.319-0.444-0.181-0.681c0.137-0.238 0.444-0.319 0.681-0.181s0.325 0.444 0.181 0.681zM25.775 10.931c-0.238 0.137-0.544 0.056-0.681-0.181s-0.056-0.544 0.181-0.681c0.238-0.137 0.544-0.056 0.681 0.181 0.144 0.238 0.056 0.544-0.181 0.681zM27 16.5c-0.275 0-0.5-0.225-0.5-0.5s0.225-0.5 0.5-0.5 0.5 0.225 0.5 0.5c0 0.275-0.225 0.5-0.5 0.5z"></path>
</svg>
