<?xml version="1.0" encoding="utf-8"?>
<!-- Generated by IcoMoon.io -->
<!DOCTYPE svg PUBLIC "-//W3C//DTD SVG 1.1//EN" "http://www.w3.org/Graphics/SVG/1.1/DTD/svg11.dtd">
<svg version="1.1" xmlns="http://www.w3.org/2000/svg" xmlns:xlink="http://www.w3.org/1999/xlink" width="32" height="32" viewBox="0 0 32 32">
<path fill="#000" d="M27.031 7h-2.031v-3h-18v3h-1.969c-1.1 0-2.031 0.862-2.031 1.956v9.9c0 1.094 0.931 2.019 2.031 2.019h2.969v7.125h16v-7.125h3.031c1.1 0 1.969-0.925 1.969-2.019v-9.9c0-1.094-0.869-1.956-1.969-1.956zM8 5h16v2h-16v-2zM23 27h-14v-12h14v12zM28 18.856c0 0.544-0.419 1.019-0.969 1.019h-3.031v-5.875h-16v5.875h-2.969c-0.55 0-1.031-0.475-1.031-1.019v-9.9c0-0.544 0.481-0.956 1.031-0.956h22c0.55 0 0.969 0.413 0.969 0.956v9.9z"></path>
</svg>
