<?xml version="1.0" encoding="utf-8"?>
<!-- Generated by IcoMoon.io -->
<!DOCTYPE svg PUBLIC "-//W3C//DTD SVG 1.1//EN" "http://www.w3.org/Graphics/SVG/1.1/DTD/svg11.dtd">
<svg version="1.1" xmlns="http://www.w3.org/2000/svg" xmlns:xlink="http://www.w3.org/1999/xlink" width="32" height="32" viewBox="0 0 32 32">
<path fill="#000" d="M24.691 14.265c-1.791 0-4.031 0.459-5.791 0.907-0.061-0.215-0.145-0.421-0.25-0.614 1.561-0.928 3.468-2.186 4.733-3.451 2.472-2.472 3.251-4.279 2.527-5.003s-2.531 0.056-5.003 2.527c-1.264 1.264-2.521 3.169-3.449 4.728-0.193-0.107-0.398-0.193-0.614-0.256 0.447-1.758 0.905-3.994 0.905-5.781 0-3.496-0.726-5.325-1.75-5.325s-1.75 1.829-1.75 5.325c0 1.787 0.457 4.022 0.905 5.781-0.216 0.063-0.421 0.149-0.614 0.256-0.927-1.56-2.185-3.464-3.449-4.728-2.472-2.472-4.279-3.252-5.003-2.527s0.056 2.531 2.527 5.003c1.265 1.265 3.173 2.524 4.733 3.451-0.105 0.193-0.189 0.398-0.25 0.614-1.76-0.448-4.001-0.907-5.791-0.907-3.496 0-5.309 0.711-5.309 1.735s1.813 1.766 5.309 1.766c1.794 0 4.038-0.461 5.8-0.909 0.063 0.213 0.149 0.417 0.255 0.608-1.563 0.928-3.478 2.191-4.747 3.459-2.472 2.472-3.251 4.279-2.527 5.003s2.531-0.056 5.003-2.528c1.27-1.27 2.534-3.188 3.462-4.752 0.191 0.104 0.394 0.188 0.607 0.25-0.45 1.763-0.912 4.013-0.912 5.81 0 3.496 0.726 5.293 1.75 5.293s1.75-1.798 1.75-5.293c0-1.797-0.462-4.047-0.912-5.81 0.213-0.062 0.417-0.145 0.607-0.25 0.928 1.564 2.192 3.481 3.462 4.752 2.472 2.472 4.279 3.252 5.003 2.527s-0.056-2.531-2.527-5.003c-1.269-1.269-3.184-2.531-4.747-3.459 0.106-0.191 0.192-0.394 0.255-0.608 1.761 0.449 4.006 0.909 5.799 0.909 3.496 0 5.309-0.726 5.309-1.75s-1.814-1.75-5.309-1.75z"></path>
<path fill="#000" d="M18.529 22.122c0 0 0.439 2.566 0.116 4.747 0.73 1.361 1.634 2.203 2.29 2.203 0.109 0 0.215-0.020 0.315-0.061 0.742-0.3 0.899-1.561 0.303-3.656-1.533-1.105-3.025-3.233-3.025-3.233z"></path>
<path fill="#000" d="M13.469 9.895c0 0-0.484-2.551-0.114-4.732-0.831-1.469-1.634-2.203-2.29-2.203-0.109 0-0.214 0.020-0.315 0.061-0.742 0.3-0.906 1.451-0.304 3.653 1.328 0.999 3.023 3.222 3.023 3.222z"></path>
<path fill="#000" d="M9.894 18.545c0 0-2.582 0.382-4.747 0.116-1.714 0.969-2.427 1.9-2.142 2.605 0.175 0.434 0.682 0.667 1.49 0.667 0.574 0 1.402-0.097 2.167-0.364 1.088-1.496 3.232-3.024 3.232-3.024z"></path>
<path fill="#000" d="M22.108 13.486c0 0 2.549-0.455 4.745-0.116 1.714-0.969 2.427-1.9 2.142-2.605-0.175-0.434-0.682-0.667-1.49-0.667-0.574 0-1.337 0.107-2.166 0.364-1.131 1.486-3.231 3.024-3.231 3.024z"></path>
<path fill="#000" d="M10.196 25.561c-0.526 1.896-0.372 3.059 0.328 3.356 0.105 0.044 0.215 0.067 0.33 0.067 0.694 0 1.544-0.82 2.47-2.438-0.261-2.014 0.147-4.424 0.147-4.424s-1.346 1.962-3.275 3.44z"></path>
<path fill="#000" d="M21.798 6.492c0.525-1.992 0.381-3.079-0.322-3.378-0.105-0.044-0.215-0.067-0.33-0.067-0.694 0-1.638 0.893-2.47 2.438 0.282 1.431-0.15 4.441-0.15 4.441s1.452-2.145 3.271-3.435z"></path>
<path fill="#000" d="M5.47 13.339c1.858-0.246 4.418 0.146 4.418 0.146s-2.326-1.794-3.438-3.275c-0.638-0.242-1.406-0.313-1.922-0.313-0.767 0-1.253 0.223-1.43 0.641-0.313 0.737 0.623 1.874 2.372 2.8z"></path>
<path fill="#000" d="M26.53 18.692c-1.582 0.35-4.424-0.147-4.424-0.147s2.165 1.601 3.438 3.275c0.747 0.264 1.41 0.314 1.927 0.314 0.767 0 1.253-0.223 1.43-0.641 0.313-0.737-0.509-1.754-2.372-2.8z"></path>
</svg>
