<?xml version="1.0" encoding="utf-8"?>
<!-- Generated by IcoMoon.io -->
<!DOCTYPE svg PUBLIC "-//W3C//DTD SVG 1.1//EN" "http://www.w3.org/Graphics/SVG/1.1/DTD/svg11.dtd">
<svg version="1.1" xmlns="http://www.w3.org/2000/svg" xmlns:xlink="http://www.w3.org/1999/xlink" width="32" height="32" viewBox="0 0 32 32">
<path fill="#000" d="M23 7c-0.688 0.088-1.556 0.219-2.481 0.219-1.444 0-2.75-0.356-4.075-0.638-1.344-0.287-2.731-0.581-4.2-0.581-2.931 0-3.925 0.631-4.025 0.7l-0.213 0.15v19.15h1v-8.956c0.375-0.156 1.363-0.431 3.244-0.431 1.363 0 2.638 0.519 3.994 0.813 1.375 0.294 2.8 0.6 4.344 0.6 0.919 0 1.731-0.125 2.419-0.206 0.375-0.044 0.706-0.087 1-0.137v-10.838c-0.294 0.056-0.631 0.106-1.006 0.156zM23 16.813c-0.688 0.087-1.494 0.219-2.419 0.219-1.444 0-2.813-0.294-4.137-0.575-1.344-0.288-2.725-0.831-4.194-0.831-1.606 0-2.619 0.188-3.244 0.375v-8.581c0.375-0.156 1.369-0.425 3.244-0.425 1.363 0 2.638 0.269 3.994 0.563 1.375 0.294 2.738 0.663 4.281 0.663 0.919 0 1.794-0.125 2.481-0.206l-0.006 8.8z"></path>
</svg>
