<?xml version="1.0" encoding="utf-8"?>
<!-- Generated by IcoMoon.io -->
<!DOCTYPE svg PUBLIC "-//W3C//DTD SVG 1.1//EN" "http://www.w3.org/Graphics/SVG/1.1/DTD/svg11.dtd">
<svg version="1.1" xmlns="http://www.w3.org/2000/svg" xmlns:xlink="http://www.w3.org/1999/xlink" width="32" height="32" viewBox="0 0 32 32">
<path fill="#000" d="M15.5 22h1v6h-1v-6z"></path>
<path fill="#000" d="M24.956 11.475c0-0.075 0.012-0.15 0.012-0.225 0-4.019-3.3-7.275-7.3-7.275-2.881 0-5.363 1.694-6.525 4.144-0.506-0.256-1.069-0.4-1.675-0.4-1.85 0-3.381 1.475-3.681 3.25-2.2 0.756-3.788 2.919-3.788 5.394 0 3.106 2.506 5.637 5.6 5.637h7.9v-9.137l-3.419 3.406-0.725-0.725 4.656-4.644 4.656 4.644-0.738 0.725-3.431-3.406v9.137h8.375c2.813 0 5.125-2.331 5.125-5.175s-2.219-5.344-5.044-5.35z"></path>
</svg>
