<?xml version="1.0" encoding="utf-8"?>
<!-- Generated by IcoMoon.io -->
<!DOCTYPE svg PUBLIC "-//W3C//DTD SVG 1.1//EN" "http://www.w3.org/Graphics/SVG/1.1/DTD/svg11.dtd">
<svg version="1.1" xmlns="http://www.w3.org/2000/svg" xmlns:xlink="http://www.w3.org/1999/xlink" width="32" height="32" viewBox="0 0 32 32">
<path fill="#000" d="M22.887 13.258c0.074-0.408 0.113-0.828 0.113-1.258 0-3.866-3.134-7-7-7s-7 3.134-7 7c0 0.429 0.039 0.85 0.113 1.258-2.949 0.824-5.113 3.53-5.113 6.742 0 3.866 3.134 7 7 7 1.959 0 3.729-0.805 5-2.102 1.271 1.297 3.041 2.102 5 2.102 3.866 0 7-3.134 7-7 0-3.212-2.164-5.919-5.113-6.742zM10 12c0-3.308 2.692-6 6-6s6 2.692 6 6c0 0.361-0.032 0.715-0.093 1.058-0.297-0.038-0.599-0.058-0.907-0.058-1.959 0-3.729 0.805-5 2.102-1.271-1.297-3.041-2.102-5-2.102-0.307 0-0.61 0.020-0.907 0.058-0.061-0.344-0.093-0.697-0.093-1.058zM17 20c0 1.224-0.369 2.363-1 3.313-0.632-0.95-1-2.089-1-3.313 0-0.361 0.032-0.715 0.093-1.058 0.297 0.038 0.599 0.058 0.907 0.058s0.61-0.020 0.907-0.058c0.061 0.344 0.093 0.697 0.093 1.058zM16 18c-0.218 0-0.433-0.012-0.645-0.035 0.164-0.454 0.382-0.882 0.645-1.278 0.263 0.396 0.48 0.824 0.645 1.278-0.212 0.023-0.427 0.035-0.645 0.035zM14.362 17.773c-1.86-0.528-3.354-1.934-4.007-3.738 0.212-0.023 0.427-0.035 0.645-0.035 1.71 0 3.254 0.719 4.348 1.87-0.42 0.574-0.755 1.215-0.986 1.903zM16.652 15.87c1.094-1.151 2.639-1.87 4.348-1.87 0.218 0 0.433 0.012 0.645 0.035-0.652 1.805-2.147 3.21-4.007 3.738-0.231-0.688-0.566-1.329-0.986-1.903zM11 26c-3.309 0-6-2.692-6-6 0-2.741 1.847-5.058 4.362-5.773 0.733 2.186 2.517 3.891 4.751 4.515-0.074 0.408-0.113 0.828-0.113 1.258 0 1.545 0.501 2.972 1.348 4.13-1.094 1.151-2.639 1.87-4.348 1.87zM21 26c-1.71 0-3.254-0.719-4.348-1.87 0.848-1.158 1.348-2.585 1.348-4.13 0-0.429-0.039-0.85-0.113-1.258 2.234-0.624 4.018-2.329 4.751-4.515 2.515 0.715 4.362 3.032 4.362 5.773 0 3.308-2.692 6-6 6z"></path>
</svg>
