<?xml version="1.0" encoding="utf-8"?>
<!-- Generated by IcoMoon.io -->
<!DOCTYPE svg PUBLIC "-//W3C//DTD SVG 1.1//EN" "http://www.w3.org/Graphics/SVG/1.1/DTD/svg11.dtd">
<svg version="1.1" xmlns="http://www.w3.org/2000/svg" xmlns:xlink="http://www.w3.org/1999/xlink" width="32" height="32" viewBox="0 0 32 32">
<path fill="#000" d="M22.633 12.947l-0.633-0.768 3.861-3.178h-2.882c-5.833 0-8.072 4.657-10.237 8.677-0.101 0.188-0.202 0.375-0.303 0.561-1.24 2.288-2.561 3.828-4.040 4.707-0.864 0.514-2.062 1.055-4.4 1.055v-1.016c2.996 0 5.194-0.855 7.56-5.223 0.1-0.185 0.201-0.372 0.302-0.559 2.197-4.079 4.687-9.203 11.117-9.203h2.892l-3.872-3.241 0.633-0.759 5.367 4.5-5.367 4.447z"></path>
<path fill="#000" d="M12.44 13.762c-1.24-2.288-2.561-3.828-4.040-4.707-0.864-0.514-2.062-1.055-4.4-1.055v1.016c2.996 0 5.194 0.855 7.56 5.223 0.1 0.185 0.201 0.372 0.302 0.559 0.027 0.051 0.055 0.102 0.082 0.153 0.188-0.34 0.382-0.682 0.584-1.025-0.029-0.054-0.059-0.109-0.088-0.164z"></path>
<path fill="#000" d="M22.633 19.053l-0.633 0.768 3.861 3.178h-2.882c-4.543 0-6.906-2.825-8.752-5.974-0.111 0.205-0.22 0.409-0.33 0.613-0.073 0.137-0.146 0.273-0.22 0.409 1.923 3.126 4.525 5.952 9.301 5.952h2.893l-3.872 3.241 0.633 0.759 5.367-4.5-5.367-4.447z"></path>
</svg>
