<?xml version="1.0" encoding="utf-8"?>
<!-- Generated by IcoMoon.io -->
<!DOCTYPE svg PUBLIC "-//W3C//DTD SVG 1.1//EN" "http://www.w3.org/Graphics/SVG/1.1/DTD/svg11.dtd">
<svg version="1.1" xmlns="http://www.w3.org/2000/svg" xmlns:xlink="http://www.w3.org/1999/xlink" width="32" height="32" viewBox="0 0 32 32">
<path fill="#000" d="M10.279 4c-3.45 0-6.279 1.624-6.279 4.938v17.688h1.384c0.804-1.646 2.765-2.625 4.895-2.625 2.514 0 4.617 1.721 5.101 4h0.12v-22.041c-1.078-1.337-3.064-1.959-5.221-1.959z"></path>
<path fill="#000" d="M21.726 4c-2.146 0-4.17 0.616-5.226 1.938v22.062h0.112c0.484-2.279 2.593-4 5.108-4 2.13 0 3.822 0.729 4.902 2.625h1.378v-17.688c0-3.314-2.824-4.938-6.274-4.938z"></path>
</svg>
