<?xml version="1.0" encoding="utf-8"?>
<!-- Generated by IcoMoon.io -->
<!DOCTYPE svg PUBLIC "-//W3C//DTD SVG 1.1//EN" "http://www.w3.org/Graphics/SVG/1.1/DTD/svg11.dtd">
<svg version="1.1" xmlns="http://www.w3.org/2000/svg" xmlns:xlink="http://www.w3.org/1999/xlink" width="32" height="32" viewBox="0 0 32 32">
<path fill="#000" d="M22.756 16c0 3.75-3.031 6.762-6.756 6.762s-6.756-3.031-6.756-6.762c0-3.725 3.031-6.756 6.756-6.756v3.487l6-3.481-6-4v2.75c-4.419 0-8 3.588-8 8.006 0 4.425 3.581 8.006 8 8.006s8-3.569 8-8.006h-1.244z"></path>
<path fill="#000" d="M16 3c-7.181 0-13 5.819-13 13s5.819 13 13 13c7.181 0 13-5.819 13-13s-5.819-13-13-13zM16 27.919c-6.569 0-11.919-5.344-11.919-11.919 0-6.569 5.344-11.919 11.919-11.919 6.569 0 11.919 5.344 11.919 11.919 0 6.569-5.35 11.919-11.919 11.919z"></path>
</svg>
