<?xml version="1.0" encoding="utf-8"?>
<!-- Generated by IcoMoon.io -->
<!DOCTYPE svg PUBLIC "-//W3C//DTD SVG 1.1//EN" "http://www.w3.org/Graphics/SVG/1.1/DTD/svg11.dtd">
<svg version="1.1" xmlns="http://www.w3.org/2000/svg" xmlns:xlink="http://www.w3.org/1999/xlink" width="32" height="32" viewBox="0 0 32 32">
<path fill="#000" d="M27.739 12.219c-0.274-0.733-0.735-1.263-1.332-1.533-0.274-0.123-0.562-0.186-0.855-0.186-1.252 0-2.523 1.167-3.165 2.903-0.794 2.151-0.332 4.258 1.073 4.901 0.283 0.129 0.585 0.195 0.9 0.195 1.275 0 2.57-1.070 3.224-2.662 0.494-1.205 0.552-2.558 0.156-3.619z"></path>
<path fill="#000" d="M9.613 13.403c-0.641-1.737-1.913-2.903-3.165-2.903-0.293 0-0.581 0.063-0.856 0.186-0.598 0.27-1.058 0.8-1.332 1.533-0.396 1.061-0.338 2.414 0.156 3.619 0.653 1.592 1.949 2.662 3.224 2.662 0.314 0 0.617-0.066 0.9-0.195 1.405-0.643 1.867-2.75 1.073-4.901z"></path>
<path fill="#000" d="M12.397 13.163c0.116 0.005 0.233 0.002 0.348-0.009 0.674-0.066 1.284-0.412 1.763-1.001 0.773-0.949 0.988-2.436 0.825-3.965-0.249-2.356-1.491-4.115-3.159-4.188 0 0-0.238 0-0.359 0.012-0.736 0.073-1.405 0.455-1.935 1.106-0.768 0.944-1.137 2.348-0.988 3.756 0.246 2.33 1.786 4.213 3.505 4.288z"></path>
<path fill="#000" d="M16 15c-4 0-8 4.755-8 9.32 0 1.362 0.683 2.458 1.354 2.907 0.829 0.554 1.413 0.772 2.627 0.772 1.443 0 1.833-0.505 2.508-0.95 0.489-0.322 0.911-0.6 1.51-0.6s1.021 0.278 1.51 0.6c0.676 0.445 1.065 0.95 2.509 0.95 1.215 0 1.799-0.218 2.627-0.772 0.671-0.449 1.354-1.545 1.354-2.907 0-4.566-4-9.32-8-9.32z"></path>
<path fill="#000" d="M19.268 13.142c0.115 0.011 0.232 0.014 0.348 0.009 1.719-0.075 3.259-1.958 3.505-4.288 0.15-1.408-0.22-2.813-0.988-3.756-0.53-0.651-1.174-1.014-1.91-1.087-0.121-0.012-0.384-0.019-0.384-0.019-1.668 0.073-2.91 1.82-3.159 4.176-0.163 1.529 0.052 3.015 0.825 3.965 0.479 0.588 1.089 0.934 1.763 1.001z"></path>
</svg>
