<?xml version="1.0" encoding="utf-8"?>
<!-- Generated by IcoMoon.io -->
<!DOCTYPE svg PUBLIC "-//W3C//DTD SVG 1.1//EN" "http://www.w3.org/Graphics/SVG/1.1/DTD/svg11.dtd">
<svg version="1.1" xmlns="http://www.w3.org/2000/svg" xmlns:xlink="http://www.w3.org/1999/xlink" width="32" height="32" viewBox="0 0 32 32">
<path fill="#000" d="M16 4c-7.732 0-14 6.264-14 13.996 0 3.561 1.33 6.811 3.52 9.281 0.222 0.25 0.453 0.489 0.692 0.723 0.191-0.218 0.389-0.427 0.596-0.634 0.030-0.030 0.061-0.059 0.091-0.089 1.174-1.152 2.533-2.059 4.041-2.698 1.602-0.678 3.304-1.021 5.060-1.021s3.458 0.344 5.060 1.021c1.509 0.638 2.868 1.546 4.041 2.698 0.030 0.030 0.061 0.059 0.091 0.089 0.207 0.207 0.405 0.416 0.596 0.634 0.239-0.234 0.47-0.472 0.692-0.723 2.19-2.471 3.52-5.72 3.52-9.281 0-7.732-6.268-13.996-14-13.996zM27.979 23.074c-0.541 1.28-1.277 2.443-2.19 3.486-2.524-2.469-5.978-3.997-9.789-3.997s-7.264 1.521-9.789 3.99c-0.913-1.043-1.649-2.198-2.19-3.478-0.613-1.449-0.952-2.981-1.011-4.543h1.958v-1h-1.958c0.059-1.563 0.398-3.128 1.011-4.577 0.586-1.385 1.399-2.652 2.418-3.757l1.683 1.681 0.344-0.346 0.33-0.329-0.001-0.002 0.034-0.034-1.684-1.687c1.116-1.040 2.375-1.868 3.78-2.463 1.449-0.613 2.982-0.952 4.544-1.011v2.337h1v-2.337c1.625 0.059 3.126 0.398 4.575 1.011 1.402 0.593 2.683 1.419 3.798 2.457l-1.686 1.692 0.036 0.034-0 0.001 0.33 0.328 0.344 0.344 1.689-1.691c1.022 1.106 1.837 2.384 2.424 3.772 0.613 1.449 0.952 3.015 1.011 4.577h-2.021v1h2.021c-0.059 1.563-0.398 3.093-1.011 4.542z"></path>
<path fill="#000" d="M23.030 10.909l-5.343 4.608c-0.481-0.328-1.062-0.521-1.687-0.521-1.654 0-3 1.346-3 3 0 0.655 0.212 1.261 0.569 1.755l-0.747 0.747 0.707 0.707 0.752-0.752c0.487 0.342 1.080 0.543 1.719 0.543 1.654 0 3-1.346 3-3 0-0.649-0.208-1.25-0.56-1.742l4.678-5.257-0.088-0.088zM16 19.996c-1.105 0-2-0.895-2-2s0.895-2 2-2 2 0.895 2 2c0 1.105-0.895 2-2 2z"></path>
</svg>
