<?xml version="1.0" encoding="utf-8"?>
<!-- Generated by IcoMoon.io -->
<!DOCTYPE svg PUBLIC "-//W3C//DTD SVG 1.1//EN" "http://www.w3.org/Graphics/SVG/1.1/DTD/svg11.dtd">
<svg version="1.1" xmlns="http://www.w3.org/2000/svg" xmlns:xlink="http://www.w3.org/1999/xlink" width="32" height="32" viewBox="0 0 32 32">
<path fill="#000" d="M22.25 20c-0.606 0.831-1.869 1.781-2.381 2.069s-1.056 0.519-1.625 0.675c-0.563 0.156-1.163 0.244-1.775 0.244-0.931 0-1.838-0.15-2.688-0.45-0.831-0.294-1.575-0.738-2.194-1.313-0.619-0.563-1.269-1.512-1.656-2.406-0.331-0.775-0.475-1.613-0.475-2.906 0-0.919 0.213-1.931 0.575-2.794 0.35-0.825 0.844-1.556 1.456-2.162 0.606-0.6 1.35-1.094 2.206-1.456 0.769-0.319 1.669-0.481 2.775-0.481 0.869 0 1.7 0.137 2.462 0.412 0.744 0.269 1.394 0.65 1.931 1.144 0.5 0.456 0.806 1.006 1.137 1.756 0.288 0.637 0.394 1.2 0.394 2.081 0 0.719-0.125 1.4-0.375 2.025-0.25 0.613-0.438 0.988-0.813 1.456-0.394 0.475-0.613 0.738-1.031 0.975-0.488 0.288-0.856 0.419-1.156 0.419-0.238 0-0.313-0.056-0.319-0.063-0.038-0.031-0.069-0.075-0.087-0.175-0.019-0.137 0-0.325 0.056-0.538 0.063-0.244 0.15-0.481 0.288-0.806l2.438-6.519h-1.6l-0.281 0.75c-0.219-0.256-0.481-0.469-0.775-0.637-0.694-0.4-1.275-0.563-2.019-0.563-0.863 0-1.669 0.225-2.387 0.669-0.7 0.431-1.3 0.988-1.781 1.656-0.475 0.656-0.594 1.006-0.813 1.656l-0.037 0.113c-0.262 0.775-0.394 1.544-0.394 2.275 0 0.494 0.094 0.969 0.269 1.413 0.175 0.45 0.419 0.837 0.725 1.156 0.3 0.325 0.669 0.587 1.106 0.788 0.425 0.194 0.894 0.3 1.4 0.3 0.556 0 1.069-0.094 1.669-0.3 0.331-0.113 0.619-0.281 0.9-0.519 0.063 0.106 0.137 0.194 0.231 0.281 0.35 0.35 0.819 0.531 1.381 0.531 0.556 0 1.163-0.188 1.887-0.594 0.644-0.363 1.019-0.781 1.481-1.337 0.525-0.625 0.781-1.163 1.063-1.869 0.319-0.781 0.475-1.637 0.475-2.537 0-1.131-0.15-1.9-0.544-2.75-0.413-0.9-0.831-1.619-1.519-2.225-0.681-0.606-1.494-1.075-2.419-1.4-0.913-0.319-1.894-0.481-2.919-0.481-1.25 0-2.325 0.188-3.262 0.569-1.019 0.412-1.925 0.994-2.694 1.725-0.769 0.738-1.381 1.625-1.819 2.625-0.456 1.031-0.713 2.281-0.713 3.444 0 1.563 0.194 2.65 0.65 3.65 0.506 1.094 1.325 2.219 2.088 2.869 0.794 0.694 1.706 1.2 2.713 1.519 0.994 0.319 2.019 0.481 3.038 0.481 0.7 0 1.419-0.1 2.131-0.288 0.725-0.2 1.4-0.475 2.006-0.819 0.619-0.344 1.219-0.775 1.762-1.288 0.55-0.512 1.212-1.306 1.431-1.694 0.075-0.144 0.137-0.262 0.175-0.35h-1.75zM16.994 18.163c-0.275 0.344-0.45 0.556-0.663 0.7-0.238 0.163-0.425 0.262-0.669 0.325h-0.006c-0.244 0.063-0.506 0.094-0.775 0.094-0.313 0-0.588-0.056-0.838-0.169-0.256-0.106-0.469-0.256-0.656-0.456-0.181-0.194-0.338-0.425-0.444-0.694s-0.156-0.563-0.156-0.881c0-0.544 0.106-1.144 0.313-1.762 0.025-0.075 0.050-0.15 0.069-0.206 0.162-0.506 0.25-0.662 0.556-1.162 0.281-0.463 0.719-0.887 1.325-1.294 0.481-0.319 1.012-0.488 1.6-0.488 0.238 0 0.488 0.031 0.75 0.088 0.188 0.044 0.288 0.1 0.475 0.206l0.012 0.006c0.025 0.012 0.050 0.025 0.081 0.044l0.019 0.012c0.212 0.119 0.4 0.281 0.563 0.475 0.125 0.15 0.231 0.344 0.313 0.588l-1.238 3.425c-0.188 0.462-0.4 0.85-0.631 1.15z"></path>
</svg>
