<?xml version="1.0" encoding="utf-8"?>
<!-- Generated by IcoMoon.io -->
<!DOCTYPE svg PUBLIC "-//W3C//DTD SVG 1.1//EN" "http://www.w3.org/Graphics/SVG/1.1/DTD/svg11.dtd">
<svg version="1.1" xmlns="http://www.w3.org/2000/svg" xmlns:xlink="http://www.w3.org/1999/xlink" width="32" height="32" viewBox="0 0 32 32">
<path fill="#000" d="M16 3c-4.69 0-9.033 2.541-11.336 6.632l-0.123 0.218 1.307 0.736 0.123-0.218c2.037-3.619 5.88-5.867 10.029-5.867 6.341 0 11.5 5.159 11.5 11.5 0 0.782-0.079 1.563-0.234 2.322l-0.050 0.245 1.469 0.301 0.050-0.245c0.176-0.858 0.265-1.74 0.265-2.623 0-7.168-5.832-13-13-13z"></path>
<path fill="#000" d="M26.029 21.632c-2.037 3.619-5.88 5.868-10.029 5.868-6.341 0-11.5-5.159-11.5-11.5 0-0.782 0.079-1.563 0.234-2.322l0.050-0.245-1.469-0.301-0.050 0.245c-0.176 0.857-0.265 1.74-0.265 2.623 0 7.168 5.832 13 13 13 4.69 0 9.033-2.541 11.336-6.632l0.123-0.218-1.307-0.736-0.123 0.218z"></path>
<path fill="#000" d="M24 16l4 4 4-4z"></path>
<path fill="#000" d="M0 16l4-4 4 4z"></path>
</svg>
