<?xml version="1.0" encoding="utf-8"?>
<!-- Generated by IcoMoon.io -->
<!DOCTYPE svg PUBLIC "-//W3C//DTD SVG 1.1//EN" "http://www.w3.org/Graphics/SVG/1.1/DTD/svg11.dtd">
<svg version="1.1" xmlns="http://www.w3.org/2000/svg" xmlns:xlink="http://www.w3.org/1999/xlink" width="32" height="32" viewBox="0 0 32 32">
<path fill="#000" d="M25 10.806c0-4.862-4.131-8.806-9-8.806s-9 3.944-9 8.813c0 1.938 0.825 3.688 1.887 5.188h-0.019c0.681 0.938 1.338 1.731 1.969 2.813 1.375 2.363 1.162 4.644 1.169 5.1v0.087h2v-8l-2-4h1.037l1.963 4v8h2v-8l1.962-4h1.031l-2 4v8h2v-0.087c0-0.556-0.225-2.738 1.15-5.1 0.631-1.081 1.288-1.875 1.969-2.813h-0.006c1.063-1.5 1.887-3.25 1.887-5.194z"></path>
<path fill="#000" d="M14 29h4v1h-4v-1z"></path>
<path fill="#000" d="M13 27h6v1h-6v-1z"></path>
<path fill="#000" d="M13 25h6v1h-6v-1z"></path>
</svg>
