<?xml version="1.0" encoding="utf-8"?>
<!-- Generated by IcoMoon.io -->
<!DOCTYPE svg PUBLIC "-//W3C//DTD SVG 1.1//EN" "http://www.w3.org/Graphics/SVG/1.1/DTD/svg11.dtd">
<svg version="1.1" xmlns="http://www.w3.org/2000/svg" xmlns:xlink="http://www.w3.org/1999/xlink" width="32" height="32" viewBox="0 0 32 32">
<path fill="#000" d="M16 2.997c1.103 0 2 0.897 2 1.999s-0.897 1.999-2 1.999-2-0.897-2-1.999c0-1.103 0.897-1.999 2-1.999zM16 1.998c-1.657 0-3 1.343-3 2.999s1.343 2.999 3 2.999 3-1.343 3-2.999c0-1.656-1.343-2.999-3-2.999v0z"></path>
<path fill="#000" d="M26.5 9h-21c-0.828 0-1.5 0.672-1.5 1.5s0.672 1.5 1.5 1.5h6.278c0.347 0 0.825 0.268 1.076 0.919 0.291 0.753 0.148 2.083-0.034 3.215l-0.245 1.329c-0.001 0.006-0.013 0.006-0.013 0.013l-2.014 10.765c-0.144 0.816 0.405 1.593 1.221 1.737 0.088 0.015 0.178 0.023 0.264 0.023 0.71 0 1.307-0.512 1.436-1.24l1.281-7.496v0.010c0 0 0.453-1.963 1.216-1.963h0.069c0.778 0 1.091 1.963 1.091 1.963v-0.005l1.343 7.493c0.128 0.728 0.771 1.238 1.485 1.238 0.087 0 0.178-0.008 0.267-0.023 0.816-0.144 1.364-0.922 1.22-1.738l-2.022-10.766c-0-0 0.001-0.001 0.001-0.002-0.001-0.006-0.002-0.014-0.003-0.020l-0.236-1.338c-0.182-1.132-0.324-2.443-0.034-3.196 0.251-0.651 0.761-0.919 1.076-0.919h6.278c0.828 0 1.5-0.672 1.5-1.5s-0.672-1.5-1.5-1.5zM5.5 11.007c-0.276 0-0.5-0.228-0.5-0.504s0.224-0.504 0.5-0.504h21c0.276 0 0.5 0.224 0.5 0.5s-0.224 0.5-0.5 0.5h-6.344c-0.971 0-1.715 0.921-1.936 1.495-0.303 0.785-0.313 1.996-0.024 3.793l-0.001 0.006 0 0.007 0.21 1.196 0.035 0.203 2.016 10.727c0.031 0.177-0.039 0.31-0.083 0.374s-0.146 0.175-0.324 0.206c-0.030 0.005-0.060 0.008-0.089 0.008-0.243 0-0.45-0.165-0.493-0.404l-1.327-7.485h-0.001c-0.017-0.125-0.114-0.628-0.314-1.173-0.142-0.389-0.303-0.69-0.49-0.938-0.443-0.587-0.952-0.701-1.302-0.701h-0.069c-0.342 0-0.844 0.108-1.294 0.684-0.191 0.244-0.358 0.542-0.512 0.925-0.227 0.565-0.344 1.103-0.357 1.163l-0.007 0.023-1.296 7.494c-0.043 0.243-0.234 0.412-0.465 0.412-0.029 0-0.058-0.003-0.088-0.008-0.178-0.031-0.278-0.142-0.323-0.206s-0.114-0.196-0.083-0.373l2.027-10.782 0.237-1.341 0.001-0.008c0.289-1.802 0.283-3.019-0.021-3.806-0.221-0.574-0.848-1.484-1.985-1.484z"></path>
</svg>
