<?xml version="1.0" encoding="utf-8"?>
<!-- Generated by IcoMoon.io -->
<!DOCTYPE svg PUBLIC "-//W3C//DTD SVG 1.1//EN" "http://www.w3.org/Graphics/SVG/1.1/DTD/svg11.dtd">
<svg version="1.1" xmlns="http://www.w3.org/2000/svg" xmlns:xlink="http://www.w3.org/1999/xlink" width="32" height="32" viewBox="0 0 32 32">
<path fill="#000" d="M26 19.994v-15.119l-14 2.162v14.825c-0.563 0-1.306 0.025-2.719 0.081-2.662 0.1-3.281 1.363-3.281 2.581 0 1.556 0.844 2.719 3.912 2.587 3.3-0.144 3.144-3.063 3.144-5.156v-10.094l11.938-2v10.038c-0.563 0-1.244 0.025-2.663 0.081-2.663 0.1-3.281 1.363-3.281 2.581 0 1.556 0.813 2.719 3.887 2.587 3.313-0.144 3.063-3.063 3.063-5.156z"></path>
</svg>
