<?xml version="1.0" encoding="utf-8"?>
<!-- Generated by IcoMoon.io -->
<!DOCTYPE svg PUBLIC "-//W3C//DTD SVG 1.1//EN" "http://www.w3.org/Graphics/SVG/1.1/DTD/svg11.dtd">
<svg version="1.1" xmlns="http://www.w3.org/2000/svg" xmlns:xlink="http://www.w3.org/1999/xlink" width="32" height="32" viewBox="0 0 32 32">
<path fill="#000" d="M16 3c-7.179 0-13 5.821-13 13s5.821 13 13 13c7.179 0 13-5.821 13-13s-5.821-13-13-13zM23.8 25.002c-0.26 0.226-0.53 0.439-0.809 0.642-1.357-3.126-3.184-5.987-5.448-8.529-0.945 0.983-1.95 1.907-3.010 2.767 1.729 2.21 2.807 4.953 2.949 7.942-0.328 0.041-0.661 0.068-0.997 0.081-0.069-1.545-0.406-3.045-1.007-4.466-0.447-1.058-1.027-2.042-1.73-2.94-1.944 1.483-4.058 2.756-6.307 3.783-0.243-0.251-0.474-0.512-0.695-0.783 2.268-1.008 4.393-2.267 6.357-3.762-0.134-0.146-0.271-0.29-0.412-0.431-1.194-1.194-2.585-2.132-4.133-2.786-1.376-0.582-2.888-0.935-4.466-1.007 0.014-0.336 0.040-0.669 0.081-0.997 3.851 0.183 7.295 1.922 9.716 4.602 0.863-0.701 1.692-1.448 2.486-2.242 0.165-0.165 0.327-0.331 0.488-0.499-0.201-0.212-0.406-0.423-0.613-0.631-2.868-2.868-6.196-5.134-9.896-6.739 0.203-0.279 0.417-0.549 0.642-0.809 3.997 1.774 7.576 4.319 10.548 7.446 0.669-0.743 1.302-1.514 1.895-2.31-2.522-2.329-4.185-5.574-4.462-9.207 0.33-0.028 0.663-0.043 0.999-0.044 0.109 1.39 0.436 2.74 0.979 4.025 0.655 1.548 1.592 2.938 2.786 4.133 0.094 0.094 0.189 0.185 0.285 0.276 1.264-1.814 2.336-3.756 3.205-5.812 0.018-0.042 0.035-0.085 0.052-0.127 0.276 0.214 0.543 0.44 0.799 0.677-0.899 2.094-2.008 4.076-3.301 5.92 0.939 0.758 1.974 1.379 3.092 1.852 1.289 0.545 2.644 0.874 4.039 0.981-0 0.337-0.015 0.67-0.043 0.999-2.892-0.217-5.539-1.314-7.675-3.022-0.62 0.83-1.278 1.629-1.972 2.396 2.28 2.548 4.168 5.453 5.574 8.62z"></path>
</svg>
