<?xml version="1.0" encoding="utf-8"?>
<!-- Generated by IcoMoon.io -->
<!DOCTYPE svg PUBLIC "-//W3C//DTD SVG 1.1//EN" "http://www.w3.org/Graphics/SVG/1.1/DTD/svg11.dtd">
<svg version="1.1" xmlns="http://www.w3.org/2000/svg" xmlns:xlink="http://www.w3.org/1999/xlink" width="32" height="32" viewBox="0 0 32 32">
<path fill="#000" d="M16 3c-0.006 0-0.006 0-0.012 0 0 0 0 0-0.006 0s-0.012 0-0.012 0c-7.169 0.019-12.969 5.831-12.969 13s5.8 12.981 12.969 13c0.006 0 0.012 0 0.012 0s0.006 0 0.006 0 0.006 0 0.012 0c7.181 0 13-5.819 13-13s-5.819-13-13-13zM16 27.962c-0.006 0-0.006 0-0.012 0 0 0 0 0-0.006 0s-0.012 0-0.012 0c-6.588-0.019-11.931-5.369-11.931-11.963s5.338-11.944 11.931-11.956c0.006 0 0.006 0 0.012 0 0 0 0.006 0 0.006 0 0.006 0 0.006 0 0.012 0 6.606 0 11.962 5.356 11.962 11.963 0 6.6-5.356 11.956-11.963 11.956z"></path>
<path fill="#000" d="M20.144 10.738c-1.169 0.281-2.375 0.45-3.619 0.488v4.256h4.225c-0.038-1.756-0.256-3.35-0.606-4.744z"></path>
<path fill="#000" d="M16.519 5.156v5.119c1.156-0.037 2.281-0.188 3.363-0.45-0.819-2.588-2.094-4.287-3.363-4.669z"></path>
<path fill="#000" d="M12.088 9.819c1.094 0.262 2.225 0.419 3.388 0.456v-5.131c-1.269 0.369-2.563 2.069-3.387 4.675z"></path>
<path fill="#000" d="M23.788 8.338c-1.413-1.438-3.219-2.487-5.244-2.969 0.925 0.956 1.7 2.419 2.256 4.206 1.044-0.319 2.044-0.731 2.988-1.238z"></path>
<path fill="#000" d="M21.706 15.481h5.206c-0.113-2.425-1.019-4.65-2.469-6.412-1.069 0.588-2.2 1.069-3.381 1.425 0.381 1.5 0.606 3.194 0.644 4.987z"></path>
<path fill="#000" d="M11.219 15.481h4.262v-4.256c-1.256-0.037-2.475-0.206-3.65-0.494-0.356 1.394-0.575 2.994-0.613 4.75z"></path>
<path fill="#000" d="M20.75 16.519h-4.231v4.25c1.244 0.038 2.456 0.2 3.625 0.488 0.35-1.387 0.569-2.988 0.606-4.738z"></path>
<path fill="#000" d="M11.831 21.262c1.175-0.288 2.394-0.456 3.65-0.494v-4.25h-4.263c0.037 1.756 0.256 3.356 0.613 4.744z"></path>
<path fill="#000" d="M15.481 26.85v-5.131c-1.162 0.038-2.3 0.194-3.394 0.456 0.825 2.606 2.119 4.313 3.394 4.675z"></path>
<path fill="#000" d="M18.544 26.631c2.025-0.488 3.831-1.531 5.25-2.975-0.944-0.506-1.944-0.919-2.988-1.238-0.556 1.794-1.337 3.25-2.262 4.213z"></path>
<path fill="#000" d="M13.419 5.381c-2.006 0.487-3.8 1.531-5.206 2.963 0.938 0.5 1.925 0.912 2.956 1.225 0.556-1.781 1.331-3.231 2.25-4.188z"></path>
<path fill="#000" d="M21.063 21.506c1.188 0.356 2.319 0.837 3.387 1.425 1.45-1.762 2.356-3.988 2.469-6.412h-5.206c-0.044 1.794-0.269 3.481-0.65 4.988z"></path>
<path fill="#000" d="M16.519 21.719v5.125c1.269-0.381 2.544-2.081 3.363-4.675-1.081-0.262-2.206-0.413-3.363-0.45z"></path>
<path fill="#000" d="M10.912 10.488c-1.175-0.356-2.3-0.831-3.356-1.419-1.45 1.762-2.356 3.988-2.469 6.412h5.181c0.031-1.8 0.262-3.494 0.644-4.994z"></path>
<path fill="#000" d="M10.262 16.519h-5.181c0.112 2.425 1.019 4.65 2.469 6.412 1.056-0.581 2.181-1.063 3.356-1.419-0.375-1.5-0.606-3.194-0.644-4.994z"></path>
<path fill="#000" d="M8.206 23.656c1.406 1.431 3.2 2.475 5.213 2.962-0.919-0.956-1.694-2.413-2.25-4.194-1.031 0.319-2.025 0.731-2.963 1.231z"></path>
</svg>
