<?xml version="1.0" encoding="utf-8"?>
<!-- Generated by IcoMoon.io -->
<!DOCTYPE svg PUBLIC "-//W3C//DTD SVG 1.1//EN" "http://www.w3.org/Graphics/SVG/1.1/DTD/svg11.dtd">
<svg version="1.1" xmlns="http://www.w3.org/2000/svg" xmlns:xlink="http://www.w3.org/1999/xlink" width="32" height="32" viewBox="0 0 32 32">
<path fill="#000" d="M23 10.63c0-1.314-0.061-5.535-1.207-7.813-0.278-0.553-0.778-0.817-1.981-0.817h-7.625c-1.203 0-1.703 0.262-1.981 0.815-1.146 2.279-1.207 6.513-1.207 7.827 0 6.125 2 6.272 2 11.303 0 2.469-1 4.463-1 6.213 0 1.688 0.563 1.842 2 1.842h8c1.438 0 2-0.158 2-1.846 0-1.75-1-3.732-1-6.201 0-5.031 2-5.198 2-11.323zM11.1 3.249c0.049-0.097 0.084-0.11 0.158-0.143 0.124-0.055 0.385-0.106 0.929-0.106h7.625c0.544 0 0.806 0.050 0.929 0.105 0.074 0.033 0.11 0.054 0.158 0.151 0.502 0.998 0.85 2.663 1.007 4.743h-11.813c0.157-2.084 0.505-3.753 1.007-4.751z"></path>
</svg>
