<?xml version="1.0" encoding="utf-8"?>
<!-- Generated by IcoMoon.io -->
<!DOCTYPE svg PUBLIC "-//W3C//DTD SVG 1.1//EN" "http://www.w3.org/Graphics/SVG/1.1/DTD/svg11.dtd">
<svg version="1.1" xmlns="http://www.w3.org/2000/svg" xmlns:xlink="http://www.w3.org/1999/xlink" width="32" height="32" viewBox="0 0 32 32">
<path fill="#000" d="M16 18c-1.105 0-2 0.895-2 2 0 0.932 0.637 1.715 1.5 1.937v2.063h1v-2.063c0.863-0.222 1.5-1.005 1.5-1.937 0-1.105-0.895-2-2-2zM16 21c-0.551 0-1-0.449-1-1s0.449-1 1-1 1 0.449 1 1-0.449 1-1 1z"></path>
<path fill="#000" d="M10.5 14v-4.5c0-3.033 2.468-5.5 5.501-5.5 3.032 0 5.499 2.467 5.499 5.5v0.5h1v-0.5c0-3.589-2.91-6.5-6.499-6.5-3.591 0-6.501 2.911-6.501 6.5v4.5h-3.5v15h20v-15h-15.5zM25 28h-18v-13h18v13z"></path>
</svg>
