<?xml version="1.0" encoding="utf-8"?>
<!-- Generated by IcoMoon.io -->
<!DOCTYPE svg PUBLIC "-//W3C//DTD SVG 1.1//EN" "http://www.w3.org/Graphics/SVG/1.1/DTD/svg11.dtd">
<svg version="1.1" xmlns="http://www.w3.org/2000/svg" xmlns:xlink="http://www.w3.org/1999/xlink" width="32" height="32" viewBox="0 0 32 32">
<path fill="#000" d="M23.663 8.337c-4.544-4.544-11.826-5.337-16.36-5.337-2.433 0-4.074 0.229-4.074 0.229s-1.874 13.452 5.109 20.434c4.544 4.544 11.826 5.337 16.36 5.337 2.433 0 4.075-0.229 4.075-0.229s1.874-13.452-5.108-20.434zM4.258 12.171l7.911-7.911c0.383 0.054 0.76 0.114 1.132 0.181l-8.862 8.862c-0.067-0.371-0.127-0.748-0.181-1.132zM16.707 20.95l1.793-1.793-1.414-1.414-1.793 1.793-0.707-0.707 1.793-1.793-1.414-1.414-1.793 1.793-0.707-0.707 1.793-1.793-1.414-1.414-1.793 1.793-0.707-0.707 1.793-1.793-1.414-1.414-1.793 1.793-0.707-0.707 4.243-4.243 0.707 0.707-1.793 1.793 1.414 1.414 1.793-1.793 0.707 0.707-1.793 1.793 1.414 1.414 1.793-1.793 0.707 0.707-1.793 1.793 1.414 1.414 1.793-1.793 0.707 0.707-1.793 1.793 1.414 1.414 1.793-1.793 0.707 0.707-1.793 1.793 1.414 1.414 1.793-1.793 0.707 0.707-4.243 4.243-0.707-0.707 1.793-1.793-1.414-1.414-1.793 1.793-0.707-0.707zM19.829 27.743c-0.383-0.054-0.76-0.114-1.131-0.182l8.864-8.864c0.067 0.371 0.127 0.749 0.181 1.132l-7.914 7.914z"></path>
</svg>
