<?xml version="1.0" encoding="utf-8"?>
<!-- Generated by IcoMoon.io -->
<!DOCTYPE svg PUBLIC "-//W3C//DTD SVG 1.1//EN" "http://www.w3.org/Graphics/SVG/1.1/DTD/svg11.dtd">
<svg version="1.1" xmlns="http://www.w3.org/2000/svg" xmlns:xlink="http://www.w3.org/1999/xlink" width="32" height="32" viewBox="0 0 32 32">
<path fill="#000" d="M16 14c-1.106 0-2 0.894-2 2s0.894 2 2 2c1.106 0 2-0.894 2-2s-0.894-2-2-2v0z"></path>
<path fill="#000" d="M8.025 14c-1.106 0-2 0.894-2 2s0.894 2 2 2c1.106 0 2-0.894 2-2s-0.9-2-2-2v0z"></path>
<path fill="#000" d="M24 14c-1.106 0-2 0.894-2 2s0.894 2 2 2 2-0.894 2-2-0.894-2-2-2v0z"></path>
</svg>
