<?xml version="1.0" encoding="utf-8"?>
<!-- Generated by IcoMoon.io -->
<!DOCTYPE svg PUBLIC "-//W3C//DTD SVG 1.1//EN" "http://www.w3.org/Graphics/SVG/1.1/DTD/svg11.dtd">
<svg version="1.1" xmlns="http://www.w3.org/2000/svg" xmlns:xlink="http://www.w3.org/1999/xlink" width="32" height="32" viewBox="0 0 32 32">
<path fill="#000" d="M24.85 9.169l-0.113-0.106h1.15l0.531 0.488 1.406-1.425-2.55-2.519-1.45 1.394 0.55 0.575v1.163l-0.313-0.294c-1.956-1.769-4.375-2.825-7.063-3.056v-2.388h-2v2.375h-0.125c-2.731 0.188-5.313 1.406-7.25 3.312v-1.112l0.556-0.575-1.431-1.388-2.55 2.513 1.406 1.425 0.531-0.488h1.112c-0.019 0-0.044 0.044-0.063 0.069-2.050 2.194-3.188 5.056-3.188 8.031 0 6.525 5.381 11.837 12.006 11.837 6.613 0 11.994-5.306 11.994-11.831 0-2.975-1.125-5.819-3.15-8zM16.019 27.856c-5.969 0-10.819-4.794-10.819-10.681 0-5.894 4.856-10.681 10.819-10.681 5.969 0 10.819 4.794 10.819 10.681 0.006 5.887-4.85 10.681-10.819 10.681z"></path>
<path fill="#000" d="M16.5 16.081v-8.081h-1v8.087c-0.781 0.269-1.5 1.031-1.5 1.894 0 0.919 0.625 1.688 1.5 1.906l0.5 1.113 0.5-1.113c0.875-0.219 1.5-0.988 1.5-1.906 0-0.906-0.656-1.669-1.5-1.9z"></path>
</svg>
