<?xml version="1.0" encoding="utf-8"?>
<!-- Generated by IcoMoon.io -->
<!DOCTYPE svg PUBLIC "-//W3C//DTD SVG 1.1//EN" "http://www.w3.org/Graphics/SVG/1.1/DTD/svg11.dtd">
<svg version="1.1" xmlns="http://www.w3.org/2000/svg" xmlns:xlink="http://www.w3.org/1999/xlink" width="32" height="32" viewBox="0 0 32 32">
<path fill="#000" d="M13.994 2c1.606 9.063-6.046 8.875-5.993 18 0.043 7.469 6.561 10 8.009 10s7.117-1.625 7.933-10c0.665-6.824-4.532-14-9.949-18zM16.009 29.5c0 0-2.544-2.239-2.544-5s2.535-5 2.535-5 2.521 2.239 2.521 5c-0 2.761-2.512 5-2.512 5zM22.947 19.903c-0.176 1.812-0.607 3.408-1.278 4.743-0.547 1.087-1.255 2.007-2.106 2.734-0.408 0.348-0.828 0.632-1.236 0.859 0.627-0.996 1.193-2.295 1.193-3.74 0-3.174-2.74-5.644-2.857-5.748l-0.662-0.588-0.664 0.586c-0.117 0.104-2.873 2.574-2.873 5.75 0 1.365 0.511 2.6 1.102 3.572-0.461-0.27-0.951-0.609-1.437-1.028-0.918-0.792-1.648-1.726-2.169-2.775-0.629-1.266-0.952-2.704-0.961-4.274-0.023-3.999 1.506-5.984 3.124-8.086 1.536-1.994 3.114-4.044 3.091-7.632 2.032 1.802 3.829 3.939 5.176 6.18 1.957 3.253 2.84 6.52 2.555 9.447z"></path>
</svg>
