<?xml version="1.0" encoding="utf-8"?>
<!-- Generated by IcoMoon.io -->
<!DOCTYPE svg PUBLIC "-//W3C//DTD SVG 1.1//EN" "http://www.w3.org/Graphics/SVG/1.1/DTD/svg11.dtd">
<svg version="1.1" xmlns="http://www.w3.org/2000/svg" xmlns:xlink="http://www.w3.org/1999/xlink" width="32" height="32" viewBox="0 0 32 32">
<path fill="#000" d="M26.063 17.421v-0.046h1.863c-0.058-1.438-0.378-2.851-0.927-4.134-0.54-1.264-1.281-2.417-2.204-3.41l-1.554 1.54-0.702-0.687 1.549-1.542c-1.012-0.927-2.179-1.671-3.47-2.212-1.339-0.561-2.744-0.861-4.181-0.918v2.113h-0.938v-2.113c-1.438 0.056-2.809 0.356-4.15 0.918-1.272 0.533-2.435 1.279-3.457 2.217l1.55 1.536-0.034 0.034 0 0-0.018 0.021-0.642 0.638-1.549-1.53c-0.923 0.996-1.663 2.14-2.199 3.394-0.548 1.284-0.869 2.697-0.927 4.135h1.801v1h-1.801c0.058 1.375 0.37 2.777 0.927 4.081 0.481 1.125 1.15 2.166 1.989 3.12 2.424-2.336 5.622-3.62 9.010-3.62 3.382 0 6.58 1.292 9.010 3.633 0.835-0.948 1.504-1.999 1.989-3.135 0.557-1.304 0.869-2.704 0.927-4.079h-1.863v-0.954zM19 17.996c0 1.654-1.346 3-3 3-0.639 0-1.231-0.201-1.719-0.543l-0.752 0.752-0.707-0.707 0.747-0.747c-0.358-0.494-0.569-1.1-0.569-1.755 0-1.654 1.346-3 3-3 0.625 0 1.206 0.192 1.687 0.521l4.593-4.108 0.088 0.088-3.928 4.757c0.352 0.491 0.56 1.093 0.56 1.742z"></path>
<path fill="#000" d="M16 4c-7.732 0-14 6.264-14 13.996 0 3.561 1.33 6.811 3.52 9.281 0.222 0.25 0.453 0.489 0.692 0.723h1.387c1.982-2.444 5.009-4.006 8.402-4.006s6.419 1.562 8.402 4.006h1.387c0.239-0.234 0.47-0.472 0.692-0.723 2.19-2.471 3.52-5.72 3.52-9.281 0-7.732-6.268-13.996-14-13.996zM25.672 26.3c-0.191 0.213-0.399 0.429-0.638 0.66l-0.023 0.023-0.022-0.025c-0.164-0.186-0.343-0.374-0.547-0.576-0.017-0.017-0.035-0.034-0.052-0.050l-0.032-0.030c-1.079-1.048-2.327-1.873-3.711-2.452-1.471-0.616-3.034-0.928-4.646-0.928s-3.175 0.312-4.646 0.928c-1.384 0.579-2.632 1.405-3.711 2.452l-0.032 0.030c-0.017 0.017-0.035 0.033-0.052 0.050-0.204 0.202-0.383 0.391-0.547 0.576l-0.022 0.025-0.024-0.023c-0.239-0.231-0.448-0.447-0.638-0.66-2.095-2.34-3.248-5.352-3.248-8.48 0-3.417 1.344-6.628 3.784-9.043s5.684-3.745 9.136-3.745c3.451 0 6.696 1.33 9.136 3.745s3.784 5.627 3.784 9.043c0 3.128-1.154 6.14-3.248 8.48z"></path>
<path fill="#000" d="M18 17.996c0 1.105-0.895 2-2 2s-2-0.895-2-2c0-1.105 0.895-2 2-2s2 0.895 2 2z"></path>
</svg>
