<?xml version="1.0" encoding="utf-8"?>
<!-- Generated by IcoMoon.io -->
<!DOCTYPE svg PUBLIC "-//W3C//DTD SVG 1.1//EN" "http://www.w3.org/Graphics/SVG/1.1/DTD/svg11.dtd">
<svg version="1.1" xmlns="http://www.w3.org/2000/svg" xmlns:xlink="http://www.w3.org/1999/xlink" width="32" height="32" viewBox="0 0 32 32">
<path fill="#000" d="M21.444 19.688c-0.113 0.006-0.219 0.006-0.331 0.006-1.819 0-3.531-0.706-4.819-1.994s-1.994-3-1.994-4.819c0-1.037 0.231-2.037 0.662-2.944 0.194-0.4 0.425-0.781 0.694-1.137-0.475 0.050-0.931 0.15-1.375 0.287-2.925 0.925-5.044 3.656-5.044 6.888 0 3.988 3.231 7.219 7.219 7.219 2.206 0 4.175-0.988 5.5-2.544 0.3-0.356 0.575-0.744 0.8-1.156-0.425 0.106-0.863 0.175-1.313 0.194z"></path>
</svg>
