<?xml version="1.0" encoding="utf-8"?>
<!-- Generated by IcoMoon.io -->
<!DOCTYPE svg PUBLIC "-//W3C//DTD SVG 1.1//EN" "http://www.w3.org/Graphics/SVG/1.1/DTD/svg11.dtd">
<svg version="1.1" xmlns="http://www.w3.org/2000/svg" xmlns:xlink="http://www.w3.org/1999/xlink" width="32" height="32" viewBox="0 0 32 32">
<path fill="#000" d="M16.269 22.875c-0.588 0-1.063-0.469-1.063-1.056 0-0.581 0.475-1.050 1.063-1.050s1.063 0.469 1.063 1.050c0 0.587-0.475 1.056-1.063 1.056zM18.381 15.669c-1.425 1.406-1.387 1.712-1.456 3.331h-1.188c0.069-1.781 0.469-2.731 1.881-4.031 0.688-0.644 1.212-1.419 1.212-2.381 0-1.475-1.212-2.494-2.663-2.494-2.025 0-3.031 1.025-2.994 2.9h-1.175c0.019-2.625 1.525-3.881 4.225-3.881 2.063 0 3.775 1.275 3.775 3.412 0 1.369-0.669 2.263-1.619 3.144z"></path>
</svg>
