<?xml version="1.0" encoding="utf-8"?>
<!-- Generated by IcoMoon.io -->
<!DOCTYPE svg PUBLIC "-//W3C//DTD SVG 1.1//EN" "http://www.w3.org/Graphics/SVG/1.1/DTD/svg11.dtd">
<svg version="1.1" xmlns="http://www.w3.org/2000/svg" xmlns:xlink="http://www.w3.org/1999/xlink" width="32" height="32" viewBox="0 0 32 32">
<path fill="#000" d="M22.462 5c-2.464 0-5.138 1.1-6.462 3.3-1.323-2.2-3.998-3.3-6.462-3.3-4.311 0-7.538 2.702-7.538 7.236 0 1.956 0.785 4.495 2.558 6.604s2.827 3.231 6.26 5.5c3.433 2.269 5.183 2.66 5.183 2.66s1.75-0.391 5.183-2.66c3.433-2.269 4.487-3.392 6.26-5.5s2.558-4.648 2.558-6.604c0-4.534-3.228-7.236-7.538-7.236zM26.677 18.196c-1.678 1.996-2.636 3.056-6.046 5.309-2.515 1.662-4.078 2.269-4.631 2.452-0.553-0.183-2.117-0.79-4.631-2.452-3.409-2.253-4.367-3.313-6.046-5.309-0.754-0.897-1.366-1.955-1.77-3.059-0.362-0.99-0.553-1.993-0.553-2.901 0-1.893 0.633-3.478 1.831-4.583 0.571-0.527 1.26-0.937 2.047-1.218 0.809-0.289 1.704-0.435 2.66-0.435 2.376 0 4.576 1.105 5.605 2.815l0.857 1.425 0.857-1.425c1.029-1.71 3.229-2.815 5.605-2.815 0.956 0 1.851 0.146 2.66 0.435 0.787 0.281 1.476 0.691 2.047 1.218 1.198 1.106 1.831 2.691 1.831 4.584 0 0.908-0.191 1.911-0.553 2.901-0.404 1.104-1.016 2.162-1.77 3.059z"></path>
</svg>
