<?xml version="1.0" encoding="utf-8"?>
<!-- Generated by IcoMoon.io -->
<!DOCTYPE svg PUBLIC "-//W3C//DTD SVG 1.1//EN" "http://www.w3.org/Graphics/SVG/1.1/DTD/svg11.dtd">
<svg version="1.1" xmlns="http://www.w3.org/2000/svg" xmlns:xlink="http://www.w3.org/1999/xlink" width="32" height="32" viewBox="0 0 32 32">
<path fill="#000" d="M20 7.063v-1.231c0-1.013-0.819-1.831-1.831-1.831h-4.344c-1.006 0-1.825 0.819-1.825 1.831v1.231h-5v0.938h1.319l1.475 18.169c0 1.012 0.819 1.831 1.831 1.831h8.813c1.012 0 1.831-0.819 1.831-1.831l1.456-18.169h1.275v-0.938h-5zM12.938 5.831c0-0.506 0.387-0.894 0.894-0.894h4.344c0.506 0 0.894 0.388 0.894 0.894v1.231h-6.125v-1.231h-0.006zM12.669 25.063l-0.669-15.063h0.906l0.681 15.063h-0.919zM16.438 25.063h-0.875v-15.063h0.875v15.063zM19.331 25.063h-0.913l0.675-15.063h0.906l-0.669 15.063z"></path>
</svg>
