<?xml version="1.0" encoding="utf-8"?>
<!-- Generated by IcoMoon.io -->
<!DOCTYPE svg PUBLIC "-//W3C//DTD SVG 1.1//EN" "http://www.w3.org/Graphics/SVG/1.1/DTD/svg11.dtd">
<svg version="1.1" xmlns="http://www.w3.org/2000/svg" xmlns:xlink="http://www.w3.org/1999/xlink" width="32" height="32" viewBox="0 0 32 32">
<path fill="#000" d="M23.736 9.589c-1.861 3.474-1.1 6.219-0.415 8.69 0.35 1.261 0.68 2.452 0.68 3.714 0 0.994-0.185 1.93-0.549 2.782-0.358 0.837-0.881 1.576-1.556 2.195-1.447 1.328-3.485 2.030-5.895 2.030s-4.448-0.702-5.895-2.030c-0.675-0.619-1.198-1.358-1.556-2.195-0.364-0.852-0.549-1.788-0.549-2.782 0-1.978 0.432-3.5 1.361-4.789 0.816-1.133 2.040-2.131 3.969-3.234l0.407-0.233c1.262-0.723 1.688-0.967 2.748-1.474 1.99-0.952 4.157-1.774 6.44-2.443 0.268-0.079 0.538-0.155 0.81-0.23zM26 8c-1.179 0.26-2.297 0.549-3.356 0.86-2.529 0.741-4.719 1.606-6.59 2.501-1.204 0.576-1.64 0.837-3.22 1.741-3.646 2.086-5.833 4.331-5.833 8.891s3.477 8.007 9 8.007 9-3.447 9-8.007-3.813-7.993 1-13.993v0z"></path>
<path fill="#000" d="M8.345 7.697c1.339 0.435 2.983 1.061 4.362 1.865 0.399 0.233 0.756 0.468 1.068 0.706-0.344 0.182-0.681 0.366-1.009 0.552-0.451 0.256-0.897 0.523-1.328 0.792-0.655 0.411-1.277 0.832-1.862 1.26-0.037-1.62-0.355-3.425-1.233-5.175zM6 6c2.592 2.942 2.789 6.493 2.461 9.046 0.798-0.705 1.949-1.608 3.509-2.587 0.403-0.253 0.832-0.51 1.29-0.77 0.724-0.411 1.471-0.801 2.24-1.173-0.57-0.681-1.379-1.288-2.289-1.818-3.046-1.776-7.211-2.698-7.211-2.698v0z"></path>
<path fill="#000" d="M21.539 5.044c0.332 0.452 0.775 1.104 1.104 1.733-1.866 0.527-4.125 1.322-5.935 2.092-0.373-0.39-0.811-0.768-1.313-1.133 1.090-0.985 2.423-1.729 3.978-2.219 0.909-0.286 1.691-0.415 2.166-0.473zM22 4c0 0-4.914 0.145-8.168 3.904 1.039 0.619 1.858 1.281 2.435 1.971l0.17 0.204c2.322-1.050 5.508-2.13 7.562-2.626-0.399-1.464-2-3.453-2-3.453v0z"></path>
<path fill="#000" d="M11.327 3.346c0.578 0.383 1.418 1.030 2.25 1.995-0.303 0.263-0.593 0.539-0.868 0.828-0.877-0.443-1.559-0.762-2.302-1.038 0.229-0.529 0.536-1.145 0.92-1.786zM11 2c-0.954 1.4-1.605 2.831-1.896 3.75 1.319 0.397 2.217 0.826 3.837 1.661 0.594-0.713 1.276-1.352 2.038-1.909-1.832-2.523-3.979-3.502-3.979-3.502v0z"></path>
</svg>
