<?xml version="1.0" encoding="utf-8"?>
<!-- Generated by IcoMoon.io -->
<!DOCTYPE svg PUBLIC "-//W3C//DTD SVG 1.1//EN" "http://www.w3.org/Graphics/SVG/1.1/DTD/svg11.dtd">
<svg version="1.1" xmlns="http://www.w3.org/2000/svg" xmlns:xlink="http://www.w3.org/1999/xlink" width="32" height="32" viewBox="0 0 32 32">
<path fill="#000" d="M7 4.55v22.9c0 0.306 0.244 0.55 0.55 0.55h16.9c0.306 0 0.55-0.244 0.55-0.55v-22.9c0-0.306-0.244-0.55-0.55-0.55h-16.9c-0.306 0-0.55 0.244-0.55 0.55zM16 27.35c-0.469 0-0.85-0.375-0.85-0.844s0.381-0.85 0.85-0.85c0.462 0 0.844 0.381 0.844 0.85 0.006 0.469-0.375 0.844-0.844 0.844zM9 7.412c0-0.219 0.169-0.412 0.375-0.412h13.2c0.212 0 0.425 0.194 0.425 0.412v17.2c0 0.219-0.212 0.394-0.425 0.394h-13.2c-0.213 0-0.375-0.175-0.375-0.394v-17.2z"></path>
</svg>
