<?xml version="1.0" encoding="utf-8"?>
<!-- Generated by IcoMoon.io -->
<!DOCTYPE svg PUBLIC "-//W3C//DTD SVG 1.1//EN" "http://www.w3.org/Graphics/SVG/1.1/DTD/svg11.dtd">
<svg version="1.1" xmlns="http://www.w3.org/2000/svg" xmlns:xlink="http://www.w3.org/1999/xlink" width="32" height="32" viewBox="0 0 32 32">
<path fill="#000" d="M20.512 4h-9.025c-0.819 0-1.488 0.669-1.488 1.494v21.019c0 0.819 0.669 1.488 1.488 1.488h9.019c0.819 0 1.488-0.669 1.488-1.488v-21.019c0.006-0.825-0.663-1.494-1.481-1.494zM15 6.244c0-0.131 0.106-0.244 0.244-0.244h1.519c0.131 0 0.244 0.106 0.244 0.244v0.019c0 0.131-0.106 0.244-0.244 0.244h-1.519c-0.131 0-0.244-0.106-0.244-0.244v-0.019zM14.25 6c0.137 0 0.25 0.112 0.25 0.25s-0.113 0.25-0.25 0.25-0.25-0.112-0.25-0.25c0-0.138 0.113-0.25 0.25-0.25zM16 27.006c-0.556 0-1.006-0.45-1.006-1.006s0.45-1.006 1.006-1.006c0.556 0 1.006 0.45 1.006 1.006s-0.456 1.006-1.006 1.006zM21 24h-10v-16h10v16z"></path>
</svg>
