<?xml version="1.0" encoding="utf-8"?>
<!-- Generated by IcoMoon.io -->
<!DOCTYPE svg PUBLIC "-//W3C//DTD SVG 1.1//EN" "http://www.w3.org/Graphics/SVG/1.1/DTD/svg11.dtd">
<svg version="1.1" xmlns="http://www.w3.org/2000/svg" xmlns:xlink="http://www.w3.org/1999/xlink" width="32" height="32" viewBox="0 0 32 32">
<path fill="#000" d="M16 19.438c-1.106 0-2 0.894-2 2 0 1.1 0.894 2 2 2 1.1 0 2-0.894 2-2s-0.894-2-2-2z"></path>
<path fill="#000" d="M21.275 4h-10.55c-0.95 0-1.725 0.763-1.725 1.731v20.544c0 0.969 0.775 1.731 1.725 1.731h10.55c0.95 0 1.725-0.762 1.725-1.731v-20.544c0-0.969-0.775-1.731-1.725-1.731zM16.006 26.006c-2.488 0-4.506-2.012-4.506-4.5 0-2.481 2.019-4.5 4.506-4.5 2.481 0 4.494 2.019 4.494 4.5 0 2.488-2.012 4.5-4.494 4.5zM20.994 14.175c-0.050 0.475-0.438 0.825-0.919 0.825h-8.188c-0.512 0-0.887-0.387-0.887-0.912v-7.156c0-0.469 0.313-0.856 0.75-0.931h8.488c0.406 0.075 0.719 0.412 0.762 0.831l-0.006 7.344z"></path>
</svg>
