<?xml version="1.0" encoding="utf-8"?>
<!-- Generated by IcoMoon.io -->
<!DOCTYPE svg PUBLIC "-//W3C//DTD SVG 1.1//EN" "http://www.w3.org/Graphics/SVG/1.1/DTD/svg11.dtd">
<svg version="1.1" xmlns="http://www.w3.org/2000/svg" xmlns:xlink="http://www.w3.org/1999/xlink" width="32" height="32" viewBox="0 0 32 32">
<path fill="#000" d="M19.019 18.813c0 0-0.337-1.75-0.456-5.625s-0.563-8.906-0.563-8.906c-0.156-1.75-0.738-2.281-2-2.281-0.588 0-1.281 0.144-1.456 0.206-0.588 0.225-0.544 0.725-0.544 1.406v1.112c0 0.2 0.075 0.375 0.2 0.513l0.306 0.306c0.025 0.019 0.006 0.044 0.025 0.063 0.119 0.138 0.194 0.313 0.194 0.506v1.531c0 0.2-0.075 0.2-0.2 0.331-0.012 0.019-0.031 0.037-0.050 0.050l-0.275 0.275c-0.006 0.006-0.019 0.019-0.025 0.025-0.131 0.137-0.213 0.325-0.213 0.525v0.45c0 0.194 0.069 0.369 0.194 0.506 0 0 0.006 0.006 0.006 0.006l0.050 0.050c0 0 0.006 0.006 0.006 0.006l0.25 0.25c0.025 0.019 0.044 0.044 0.063 0.063 0.119 0.137 0.194 0.313 0.194 0.506 0 0.044-0.006 0.506-0.012 0.55-0.025 0.144-0.094 0.275-0.188 0.381-0.012 0.019-0.031 0.037-0.050 0.050l-0.244 0.244-0.088 0.094c-0.031 0.037-0.044 0.081-0.069 0.131-0.056 0.106-0.075 0.231-0.075 0.369v0.488c0 0.181-0.006 0.356-0.012 0.537 0.012 0.15 0.45 0.356 0.45 0.656v1.275c0 0.387-0.656 0.438-0.688 0.706-0.294 1.587-0.744 2.613-0.744 2.613-1.794 1.038-3 2.975-3 5.2 0 3.313 2.688 6 6 6s6-2.688 6-6c-0.006-2.194-1.206-4.125-2.988-5.169zM16 28c-1.106 0-2-0.894-2-2s0.894-2 2-2 2 0.894 2 2-0.894 2-2 2z"></path>
</svg>
