<?xml version="1.0" encoding="utf-8"?>
<!-- Generated by IcoMoon.io -->
<!DOCTYPE svg PUBLIC "-//W3C//DTD SVG 1.1//EN" "http://www.w3.org/Graphics/SVG/1.1/DTD/svg11.dtd">
<svg version="1.1" xmlns="http://www.w3.org/2000/svg" xmlns:xlink="http://www.w3.org/1999/xlink" width="32" height="32" viewBox="0 0 32 32">
<path fill="#000" d="M17.856 2c-0.206 0-0.375 0.087-0.5 0.237-1.169 1.431-3.356 5.019-3.356 13.394 0 2.45 2.063 2.45 2 4.337 0 0.006 0 0.019 0 0.025-0.125 2.944-0.931 6.944-1 8.144-0.025 0.95 0.606 1.863 1.506 1.863 0.006 0 0.006 0 0.012 0 0 0 0.006 0 0.012 0 0.9 0 1.469-0.9 1.469-1.85v-25.756c0-0.313-0.031-0.394-0.144-0.394z"></path>
</svg>
