<?xml version="1.0" encoding="utf-8"?>
<!-- Generated by IcoMoon.io -->
<!DOCTYPE svg PUBLIC "-//W3C//DTD SVG 1.1//EN" "http://www.w3.org/Graphics/SVG/1.1/DTD/svg11.dtd">
<svg version="1.1" xmlns="http://www.w3.org/2000/svg" xmlns:xlink="http://www.w3.org/1999/xlink" width="32" height="32" viewBox="0 0 32 32">
<path fill="#000" d="M28.544 23.669c-3.281-0.5-3.531-0.981-3.531-0.981 0.675-4.056-1.419-9.194-4.838-11.975-4.55-3.7-11.469-1.012-16.856-6.638-1.256-1.313-0.525 14.719 6.219 20.794 4.931 4.438 10.738 3.075 12.331 2.35 1.444-0.663 2.456-1.869 2.456-1.869 2.631 0.813 3.931 0.762 3.931 0.762 0.925 0.113 1.394-2.275 0.288-2.444zM22.538 23.944c-8.637-2.556-15.131-11.531-15.131-11.531s5.7 6.731 15.75 10.012c0.012 0.506-0.288 1.231-0.619 1.519z"></path>
</svg>
