<?xml version="1.0" encoding="utf-8"?>
<!-- Generated by IcoMoon.io -->
<!DOCTYPE svg PUBLIC "-//W3C//DTD SVG 1.1//EN" "http://www.w3.org/Graphics/SVG/1.1/DTD/svg11.dtd">
<svg version="1.1" xmlns="http://www.w3.org/2000/svg" xmlns:xlink="http://www.w3.org/1999/xlink" width="32" height="32" viewBox="0 0 32 32">
<path fill="#000" d="M7.938 6.2v-1.2c0-0.55-0.45-1-1-1s-1 0.45-1 1v1.344c-0.531 0.362-0.875 0.969-0.875 1.656s0.344 1.294 0.875 1.656v17.344c0 0.55 0.45 1 1 1s1-0.45 1-1v-17.2c0.669-0.325 1.125-1.006 1.125-1.8s-0.456-1.475-1.125-1.8z"></path>
<path fill="#000" d="M13.938 18.306v-13.306c0-0.55-0.45-1-1-1s-1 0.45-1 1v13.231c-0.631 0.337-1.063 1-1.063 1.769s0.431 1.431 1.063 1.769v5.231c0 0.55 0.45 1 1 1s1-0.45 1-1v-5.306c0.563-0.356 0.938-0.981 0.938-1.694s-0.375-1.337-0.938-1.694z"></path>
<path fill="#000" d="M19.938 10.206v-5.206c0-0.55-0.45-1-1-1s-1 0.45-1 1v5.206c-0.6 0.344-1 0.994-1 1.731s0.4 1.387 1 1.731v13.331c0 0.55 0.45 1 1 1s1-0.45 1-1v-13.331c0.6-0.344 1-0.994 1-1.731s-0.4-1.387-1-1.731z"></path>
<path fill="#000" d="M26.938 23.938c0-0.738-0.4-1.387-1-1.731v-17.206c0-0.55-0.45-1-1-1s-1 0.45-1 1v17.206c-0.6 0.344-1 0.994-1 1.731s0.4 1.387 1 1.731v1.331c0 0.55 0.45 1 1 1s1-0.45 1-1v-1.331c0.6-0.344 1-0.994 1-1.731z"></path>
</svg>
