<?xml version="1.0" encoding="utf-8"?>
<!-- Generated by IcoMoon.io -->
<!DOCTYPE svg PUBLIC "-//W3C//DTD SVG 1.1//EN" "http://www.w3.org/Graphics/SVG/1.1/DTD/svg11.dtd">
<svg version="1.1" xmlns="http://www.w3.org/2000/svg" xmlns:xlink="http://www.w3.org/1999/xlink" width="32" height="32" viewBox="0 0 32 32">
<path fill="#000" d="M16 2c-4.419 0-8 3.463-8 7.738 0 0.306 0.019 0.606 0.056 0.906 0.037 0.338 0.1 0.662 0.188 0.981 0.006 0.031 0.019 0.069 0.025 0.1 1.037 3.925 2.831 4.469 3.681 10.475 0 0.012 0.006 0.025 0.006 0.031 0.094 0.575 0.613 0.769 1.238 0.769h5.619c0.625 0 1.137-0.194 1.231-0.769 0-0.012 0.006-0.025 0.006-0.031 0.85-6.006 2.644-6.544 3.681-10.475 0.012-0.031 0.019-0.063 0.025-0.1 0.081-0.319 0.144-0.65 0.188-0.981 0.038-0.294 0.056-0.6 0.056-0.906 0-4.275-3.581-7.737-8-7.737z"></path>
<path fill="#000" d="M19.863 24.781c0.006-0.012 0.019-0.025 0.025-0.038 0.069-0.106 0.106-0.225 0.106-0.356 0-0.219 0.1-0.387-0.406-0.387h-7.175c-0.506 0-0.406 0.131-0.406 0.387 0 0.131 0.037 0.25 0.106 0.356 0.006 0.012 0.019 0.025 0.031 0.038 0 0.006 0.006 0.006 0.006 0.012 0.106 0.163 0.169 0.275 0.169 0.475 0 0.194-0.056 0.306-0.162 0.469-0.019 0.025-0.031 0.044-0.044 0.063-0.063 0.106-0.1 0.225-0.1 0.35 0 0.131 0.037 0.25 0.106 0.363 0.006 0.012 0.019 0.025 0.025 0.038 0.113 0.169 0.175 0.281 0.175 0.488 0 0.194-0.056 0.306-0.162 0.462-0.012 0.025-0.031 0.044-0.050 0.069-0.063 0.106-0.1 0.225-0.1 0.35 0 0.337 0.269 0.631 0.637 0.725 0.019 0.006 0.037 0.006 0.056 0.012 0.375 0.087 0.762 0.1 1.156 0.156 0.044 0.006 0.088 0.012 0.137 0.019 0.35 0.063 0.644 0.244 0.838 0.481v0c0.238 0.331 0.675 0.688 1.175 0.688 0.475 0 0.894-0.337 1.137-0.65v0c0.188-0.262 0.5-0.456 0.869-0.525 0.044-0.006 0.087-0.019 0.137-0.019 0.394-0.056 0.781-0.069 1.156-0.156 0.019-0.006 0.038-0.006 0.056-0.012 0.369-0.1 0.637-0.387 0.637-0.725 0-0.125-0.038-0.244-0.1-0.35-0.019-0.025-0.031-0.044-0.050-0.069-0.1-0.163-0.163-0.269-0.163-0.462 0-0.2 0.063-0.319 0.175-0.488 0.006-0.012 0.019-0.025 0.025-0.038 0.069-0.106 0.106-0.231 0.106-0.363 0-0.125-0.038-0.244-0.1-0.35-0.019-0.019-0.031-0.044-0.044-0.063-0.1-0.163-0.163-0.269-0.163-0.469s0.063-0.313 0.169-0.475c0 0.006 0 0 0.006-0.006z"></path>
</svg>
