<?xml version="1.0" encoding="utf-8"?>
<!-- Generated by IcoMoon.io -->
<!DOCTYPE svg PUBLIC "-//W3C//DTD SVG 1.1//EN" "http://www.w3.org/Graphics/SVG/1.1/DTD/svg11.dtd">
<svg version="1.1" xmlns="http://www.w3.org/2000/svg" xmlns:xlink="http://www.w3.org/1999/xlink" width="32" height="32" viewBox="0 0 32 32">
<path fill="#000" d="M16.031 13h-0.031c0.012 0 0.019 0 0.031 0z"></path>
<path fill="#000" d="M23.031 10h-3.031c0 0 1.625 1.063 1.975 3h1.056c1.1 0 1.969 0.869 1.969 1.969v2c0 1.1-0.869 2.031-1.969 2.031h-7c-1.1 0-2.031-0.931-2.031-2.031v-1.969h-3v1.969c0 0.719 0.156 1.406 0.431 2.031 0.787 1.762 2.556 3 4.6 3h7c2.762 0 4.969-2.269 4.969-5.031v-2c0-2.762-2.206-4.969-4.969-4.969z"></path>
<path fill="#000" d="M20.6 13c-0.756-1.769-2.506-3-4.569-3h-7c-2.763 0-5.031 2.206-5.031 4.969v2c0 2.762 2.269 5.031 5.031 5.031h2.969c0 0-1.613-1.063-2.006-3h-0.963c-1.1 0-2.031-0.931-2.031-2.031v-2c0-1.1 0.931-1.969 2.031-1.969h7c1.1 0 1.969 0.869 1.969 1.969v2c0 0.012 0 0.019 0 0.031h3c0-0.012 0-0.019 0-0.031v-2c0-0.7-0.144-1.369-0.4-1.969z"></path>
</svg>
