<?xml version="1.0" encoding="utf-8"?>
<!-- Generated by IcoMoon.io -->
<!DOCTYPE svg PUBLIC "-//W3C//DTD SVG 1.1//EN" "http://www.w3.org/Graphics/SVG/1.1/DTD/svg11.dtd">
<svg version="1.1" xmlns="http://www.w3.org/2000/svg" xmlns:xlink="http://www.w3.org/1999/xlink" width="32" height="32" viewBox="0 0 32 32">
<path fill="#000" d="M27 15h-5c-0.55 0-1 0.45-1 1s0.45 1 1 1h5c0.55 0 1-0.45 1-1s-0.45-1-1-1z"></path>
<path fill="#000" d="M11 16c0-0.55-0.45-1-1-1h-5c-0.55 0-1 0.45-1 1s0.45 1 1 1h5c0.55 0 1-0.45 1-1z"></path>
<path fill="#000" d="M16 21c-0.55 0-1 0.45-1 1v5c0 0.55 0.45 1 1 1s1-0.45 1-1v-5c0-0.55-0.45-1-1-1z"></path>
<path fill="#000" d="M16 4c-0.55 0-1 0.45-1 1v5c0 0.55 0.45 1 1 1s1-0.45 1-1v-5c0-0.55-0.45-1-1-1z"></path>
<path fill="#000" d="M20.331 13.5c0.275 0.481 0.887 0.644 1.369 0.369l4.331-2.5c0.481-0.275 0.644-0.887 0.369-1.369s-0.887-0.644-1.369-0.369l-4.331 2.5c-0.481 0.281-0.644 0.887-0.369 1.369z"></path>
<path fill="#000" d="M11.669 18.5c-0.275-0.481-0.887-0.644-1.369-0.369l-4.331 2.5c-0.481 0.275-0.644 0.887-0.369 1.369s0.888 0.644 1.369 0.369l4.331-2.5c0.481-0.281 0.644-0.887 0.369-1.369z"></path>
<path fill="#000" d="M19.869 20.694c-0.275-0.481-0.887-0.644-1.369-0.369s-0.644 0.887-0.369 1.369l2.5 4.331c0.275 0.481 0.887 0.644 1.369 0.369s0.644-0.887 0.369-1.369l-2.5-4.331z"></path>
<path fill="#000" d="M11.369 5.975c-0.275-0.481-0.887-0.644-1.369-0.369s-0.644 0.888-0.369 1.369l2.5 4.331c0.275 0.481 0.887 0.644 1.369 0.369s0.644-0.887 0.369-1.369l-2.5-4.331z"></path>
<path fill="#000" d="M18.5 11.669c0.481 0.275 1.087 0.113 1.369-0.369l2.5-4.331c0.275-0.481 0.113-1.087-0.369-1.369-0.481-0.275-1.087-0.112-1.369 0.369l-2.5 4.331c-0.275 0.481-0.113 1.094 0.369 1.369z"></path>
<path fill="#000" d="M13.5 20.331c-0.481-0.275-1.088-0.113-1.369 0.369l-2.5 4.331c-0.275 0.481-0.113 1.087 0.369 1.369 0.481 0.275 1.088 0.113 1.369-0.369l2.5-4.331c0.275-0.481 0.113-1.094-0.369-1.369z"></path>
<path fill="#000" d="M26.025 20.631l-4.331-2.5c-0.481-0.275-1.087-0.113-1.369 0.369-0.275 0.481-0.113 1.087 0.369 1.369l4.331 2.5c0.481 0.275 1.087 0.113 1.369-0.369 0.275-0.481 0.113-1.087-0.369-1.369z"></path>
<path fill="#000" d="M5.975 11.369l4.331 2.5c0.481 0.275 1.088 0.113 1.369-0.369s0.113-1.088-0.369-1.369l-4.331-2.5c-0.481-0.275-1.087-0.113-1.369 0.369-0.275 0.481-0.112 1.088 0.369 1.369z"></path>
</svg>
