<?xml version="1.0" encoding="utf-8"?>
<!-- Generated by IcoMoon.io -->
<!DOCTYPE svg PUBLIC "-//W3C//DTD SVG 1.1//EN" "http://www.w3.org/Graphics/SVG/1.1/DTD/svg11.dtd">
<svg version="1.1" xmlns="http://www.w3.org/2000/svg" xmlns:xlink="http://www.w3.org/1999/xlink" width="32" height="32" viewBox="0 0 32 32">
<path fill="#000" d="M18 10c0 1.106-0.894 2-2 2v0c-1.106 0-2-0.894-2-2v-6c0-1.106 0.894-2 2-2v0c1.106 0 2 0.894 2 2v6z"></path>
<path fill="#000" d="M16 20c-1.106 0-2 0.894-2 2v6c0 1.106 0.894 2 2 2s2-0.894 2-2v-6c0-1.106-0.894-2-2-2v0z"></path>
<path fill="#000" d="M28 14h-6c-1.106 0-2 0.894-2 2s0.894 2 2 2h6c1.106 0 2-0.894 2-2s-0.894-2-2-2v0z"></path>
<path fill="#000" d="M10 14h-6c-1.106 0-2 0.894-2 2s0.894 2 2 2h6c1.106 0 2-0.894 2-2s-0.894-2-2-2v0z"></path>
<path fill="#000" d="M21.656 13.169c-0.781 0.781-2.050 0.781-2.831 0v0c-0.781-0.781-0.781-2.050 0-2.831l4.244-4.244c0.781-0.781 2.050-0.781 2.831 0v0c0.781 0.781 0.781 2.050 0 2.831l-4.244 4.244z"></path>
<path fill="#000" d="M13.169 18.831c-0.781-0.781-2.050-0.781-2.831 0l-4.244 4.244c-0.781 0.781-0.781 2.050 0 2.831s2.050 0.781 2.831 0l4.244-4.244c0.781-0.788 0.781-2.050 0-2.831v0z"></path>
<path fill="#000" d="M25.9 23.069l-4.244-4.244c-0.781-0.781-2.050-0.781-2.831 0s-0.781 2.050 0 2.831l4.244 4.244c0.781 0.781 2.050 0.781 2.831 0s0.781-2.050 0-2.831v0z"></path>
<path fill="#000" d="M13.169 10.344l-4.244-4.244c-0.781-0.781-2.050-0.781-2.831 0s-0.781 2.050 0 2.831l4.244 4.244c0.781 0.781 2.050 0.781 2.831 0s0.781-2.050 0-2.831v0z"></path>
</svg>
