<?xml version="1.0" encoding="utf-8"?>
<!-- Generated by IcoMoon.io -->
<!DOCTYPE svg PUBLIC "-//W3C//DTD SVG 1.1//EN" "http://www.w3.org/Graphics/SVG/1.1/DTD/svg11.dtd">
<svg version="1.1" xmlns="http://www.w3.org/2000/svg" xmlns:xlink="http://www.w3.org/1999/xlink" width="32" height="32" viewBox="0 0 32 32">
<path fill="#000" d="M24 11.057v-3.057c0-4.418-3.582-8-8-8s-8 3.582-8 8v3.057c-2.455 2.197-4 5.39-4 8.943 0 6.627 5.373 12 12 12s12-5.373 12-12c0-3.554-1.545-6.746-4-8.943zM10 8c0-3.308 2.692-6 6-6s6 2.692 6 6v1.606c-1.765-1.021-3.814-1.606-6-1.606s-4.235 0.585-6 1.606v-1.606zM16 30c-5.523 0-10-4.477-10-10s4.477-10 10-10 10 4.477 10 10-4.477 10-10 10z"></path>
<path fill="#000" d="M16 11c-4.971 0-9 4.029-9 9s4.029 9 9 9 9-4.029 9-9-4.029-9-9-9zM23.658 22.093l-1.508-0.494-0.245 0.762 1.51 0.494c-0.229 0.611-0.529 1.185-0.891 1.713l-0.66-0.484-0.234 0.324 0.66 0.483c-0.383 0.503-0.824 0.958-1.314 1.355l-0.936-1.299-0.643 0.471 0.936 1.299c-0.53 0.347-1.104 0.633-1.712 0.846l-0.247-0.768-0.378 0.124 0.308 0.766c-0.595 0.175-1.241 0.283-1.803 0.314v-1.188h-1v1.188c-0.688-0.032-1.232-0.14-1.828-0.317l0.247-0.7-0.391-0.132-0.221 0.701c-0.597-0.212-1.158-0.493-1.679-0.835l0.937-1.298-0.642-0.471-0.936 1.299c-0.488-0.396-0.928-0.848-1.31-1.349l0.597-0.437-0.248-0.344-0.598 0.438c-0.357-0.524-0.654-1.094-0.881-1.699l1.51-0.495-0.245-0.762-1.508 0.494c-0.156-0.589-0.247-1.155-0.266-1.843h0.335v-0.425l-0.375-0c0.014-0.663 0.042-1.305 0.204-1.918l1.558 0.494 0.272-0.762-1.498-0.495c0.224-0.598 0.522-1.161 0.874-1.68l0.646 0.471 0.235-0.324-0.643-0.472c0.389-0.516 0.839-0.982 1.34-1.387l0.937 1.299 0.643-0.471-0.936-1.298c0.525-0.345 1.095-0.628 1.697-0.841l0.247 0.765 0.378-0.124-0.289-0.764c0.599-0.178 1.148-0.287 1.835-0.319v1.188h1v-1.188c0.563 0.031 1.197 0.137 1.787 0.309l-0.298 0.83 0.386 0.132 0.261-0.832c0.606 0.213 1.174 0.497 1.701 0.843l-0.938 1.298 0.642 0.471 0.936-1.299c0.496 0.402 0.942 0.863 1.328 1.374l-0.706 0.517 0.248 0.345 0.705-0.516c0.35 0.517 0.64 1.078 0.863 1.673l-1.51 0.495 0.245 0.762 1.508-0.494c0.162 0.613 0.328 1.255 0.342 1.918l-0.5-0v0.425h0.424c-0.019 0.687-0.111 1.254-0.266 1.843z"></path>
<path fill="#000" d="M21.063 20c0 2.796-2.267 5.063-5.063 5.063s-5.063-2.267-5.063-5.063c0-2.796 2.267-5.063 5.063-5.063s5.063 2.267 5.063 5.063z"></path>
</svg>
