<?xml version="1.0" encoding="utf-8"?>
<!-- Generated by IcoMoon.io -->
<!DOCTYPE svg PUBLIC "-//W3C//DTD SVG 1.1//EN" "http://www.w3.org/Graphics/SVG/1.1/DTD/svg11.dtd">
<svg version="1.1" xmlns="http://www.w3.org/2000/svg" xmlns:xlink="http://www.w3.org/1999/xlink" width="32" height="32" viewBox="0 0 32 32">
<path fill="#000" d="M5.4 30h21.2c0.769 0 1.4-0.619 1.4-1.381v-13.244c0-0.762-0.625-1.375-1.4-1.375h-1.35v-1.931c0-2.594-1.012-5.475-2.663-7.213-1.644-1.737-4-2.856-6.581-2.856-0.006 0-0.006 0-0.006 0s-0.006 0-0.006 0c-2.581 0-4.938 1.119-6.581 2.85-1.65 1.737-2.662 4.619-2.662 7.213v1.938h-1.35c-0.775 0-1.4 0.619-1.4 1.375v13.244c0 0.762 0.625 1.381 1.4 1.381zM10.063 12.069c0-1.706 0.619-3.819 1.756-5.019v0-0.019c1.1-1.162 2.619-1.844 4.175-1.844h0.012c1.556 0 3.075 0.681 4.175 1.844v0.013l-0.006 0.006c1.144 1.2 1.756 3.313 1.756 5.019v1.931h-11.869v-1.931z"></path>
</svg>
