<?xml version="1.0" encoding="utf-8"?>
<!-- Generated by IcoMoon.io -->
<!DOCTYPE svg PUBLIC "-//W3C//DTD SVG 1.1//EN" "http://www.w3.org/Graphics/SVG/1.1/DTD/svg11.dtd">
<svg version="1.1" xmlns="http://www.w3.org/2000/svg" xmlns:xlink="http://www.w3.org/1999/xlink" width="32" height="32" viewBox="0 0 32 32">
<path fill="#000" d="M15.999 2c-5.97 0-11.066 3.738-13.079 9h2.165c0.587-1.28 1.404-2.459 2.429-3.485 2.266-2.267 5.28-3.515 8.485-3.515s6.219 1.248 8.486 3.515c2.267 2.267 3.515 5.28 3.515 8.485s-1.248 6.219-3.515 8.485c-2.267 2.267-5.28 3.515-8.486 3.515s-6.218-1.248-8.485-3.515c-1.026-1.026-1.842-2.205-2.429-3.485h-2.165c2.013 5.263 7.109 9 13.079 9 7.732 0 14.001-6.268 14.001-14s-6.269-14-14.001-14z"></path>
<path fill="#000" d="M12.929 20.243l1.414 1.414 5.657-5.657-5.657-5.657-1.414 1.414 3.243 3.243h-14.172v2h14.172z"></path>
</svg>
