<?xml version="1.0" encoding="utf-8"?>
<!-- Generated by IcoMoon.io -->
<!DOCTYPE svg PUBLIC "-//W3C//DTD SVG 1.1//EN" "http://www.w3.org/Graphics/SVG/1.1/DTD/svg11.dtd">
<svg version="1.1" xmlns="http://www.w3.org/2000/svg" xmlns:xlink="http://www.w3.org/1999/xlink" width="32" height="32" viewBox="0 0 32 32">
<path fill="#000" d="M17.087 18.781l-0.019 3.625c3.056-0.512 5.394-3.188 5.394-6.406 0-0.994-0.225-1.938-0.625-2.781-0.175-0.363-0.375-0.706-0.613-1.031l2.944-2.719c0.069 0.081 0.131 0.169 0.194 0.25 1.306 1.75 2.075 3.925 2.075 6.281 0 0.075 0 0.156 0 0.231-0.094 4.469-2.975 8.25-6.962 9.662-0.769 0.269-1.575 0.456-2.406 0.544l-0.006 3.563-6.4-5.625 6.425-5.594z"></path>
<path fill="#000" d="M5.563 15.769c0.1-4.506 3.019-8.313 7.056-9.7 0.731-0.25 1.5-0.425 2.3-0.506l0.006-3.563 6.394 5.625-6.419 5.594 0.012-3.619c-3.050 0.519-5.375 3.194-5.375 6.4 0 1 0.225 1.944 0.631 2.794 0.169 0.363 0.375 0.7 0.606 1.019l-2.938 2.725c-0.081-0.1-0.162-0.206-0.237-0.313-1.281-1.744-2.038-3.894-2.038-6.225 0-0.075 0-0.156 0-0.231z"></path>
</svg>
