<?xml version="1.0" encoding="utf-8"?>
<!-- Generated by IcoMoon.io -->
<!DOCTYPE svg PUBLIC "-//W3C//DTD SVG 1.1//EN" "http://www.w3.org/Graphics/SVG/1.1/DTD/svg11.dtd">
<svg version="1.1" xmlns="http://www.w3.org/2000/svg" xmlns:xlink="http://www.w3.org/1999/xlink" width="32" height="32" viewBox="0 0 32 32">
<path fill="#000" d="M16 2c-7.188 0.031-12 4.85-12 12.488 0 3.050 0.131 4.8 0.906 7.988 0.994 4.106 2.444 7.081 2.444 7.081l0.037 0.081c0.119 0.212 0.344 0.363 0.612 0.363 0.087 0 0.169-0.012 0.25-0.044l0.106-0.050 3.144-1.294 0.113-0.050c0.206-0.119 0.344-0.331 0.344-0.581-0.012-0.087-0.025-0.175-0.063-0.25-0.006-0.006-0.006-0.012-0.012-0.025-0.438-1-1.7-3.7-2.313-6.319-0.619-2.619-0.844-3.9-0.844-6.731 0-4.444 3.275-7.656 7.275-7.656s7.275 3.213 7.275 7.656c0 2.831-0.231 4.113-0.85 6.731s-1.875 5.325-2.313 6.319c-0.006 0.012-0.006 0.019-0.012 0.025-0.038 0.075-0.050 0.163-0.063 0.25 0 0.25 0.137 0.462 0.344 0.581l0.113 0.050 3.144 1.294 0.106 0.050c0.081 0.031 0.163 0.044 0.25 0.044 0.269 0 0.494-0.15 0.613-0.363l0.038-0.081c0 0 1.45-2.975 2.444-7.081 0.775-3.188 0.906-4.938 0.906-7.988 0.006-7.638-4.806-12.456-11.994-12.488zM10.813 27.762c0.006 0.012 0.012 0.031 0.019 0.044l-2.675 1.1c-0.338-0.738-1.419-3.188-2.231-6.525l2.656-0.769c0.575 2.45 1.694 4.95 2.231 6.15zM23.837 28.906l-2.675-1.1c0.006-0.012 0.012-0.025 0.019-0.044 0.538-1.2 1.65-3.7 2.225-6.15l2.656 0.769c-0.806 3.337-1.887 5.787-2.225 6.525z"></path>
</svg>
