<?xml version="1.0" encoding="utf-8"?>
<!-- Generated by IcoMoon.io -->
<!DOCTYPE svg PUBLIC "-//W3C//DTD SVG 1.1//EN" "http://www.w3.org/Graphics/SVG/1.1/DTD/svg11.dtd">
<svg version="1.1" xmlns="http://www.w3.org/2000/svg" xmlns:xlink="http://www.w3.org/1999/xlink" width="32" height="32" viewBox="0 0 32 32">
<path fill="#000" d="M16 6.662c1.288 0.006 2.331-1.037 2.331-2.331 0-1.288-1.044-2.331-2.331-2.331s-2.331 1.044-2.331 2.331c0 1.288 1.044 2.331 2.331 2.331z"></path>
<path fill="#000" d="M18.337 7.188h-4.675c-1.762 0-2.912 1.55-2.912 3.025v7.1c0 1.375 1.938 1.375 1.938 0v-6.563h0.375v17.85c0 1.9 2.625 1.837 2.688 0v-10.288h0.5v10.294c0.106 1.95 2.688 1.762 2.688-0.006v-17.85h0.313v6.563c0 1.375 2 1.375 2 0v-7.1c0-1.469-1.156-3.025-2.913-3.025z"></path>
</svg>
