<?xml version="1.0" encoding="utf-8"?>
<!-- Generated by IcoMoon.io -->
<!DOCTYPE svg PUBLIC "-//W3C//DTD SVG 1.1//EN" "http://www.w3.org/Graphics/SVG/1.1/DTD/svg11.dtd">
<svg version="1.1" xmlns="http://www.w3.org/2000/svg" xmlns:xlink="http://www.w3.org/1999/xlink" width="32" height="32" viewBox="0 0 32 32">
<path fill="#000" d="M29.572 8.536l-6.535-4.392c-0.29-0.192-0.648-0.192-0.939 0l-6.068 4.075-6.069-4.075c-0.29-0.192-0.653-0.192-0.941 0l-6.56 4.392c-0.275 0.184-0.459 0.517-0.459 0.878v17.561c0 0.369 0.192 0.709 0.479 0.892 0.289 0.18 0.649 0.177 0.931-0.014l6.074-4.075 6.074 4.075c0.292 0.194 0.652 0.194 0.943 0l6.072-4.075 6.072 4.075c0.144 0.097 0.307 0.147 0.471 0.147 0.153 0 0.294-0.047 0.436-0.133 0.287-0.183 0.448-0.523 0.448-0.892v-17.561c-0-0.361-0.152-0.694-0.428-0.878zM8.438 22.078l-4.438 3.088v-15.109l4.438-3.089v15.111zM10.438 22.048v-7.669c0.073 0.047 0.144 0.095 0.212 0.144l0.583-0.812c-0.244-0.175-0.518-0.344-0.795-0.482v-6.292l4.563 3.062v6.786c-0.336-0.116-0.662-0.273-0.993-0.48l-0.529 0.848c0.428 0.267 0.851 0.467 1.294 0.61l0.229-0.705v8.050l-4.563-3.061zM17 25.108v-7.085c0.022-0.001 0.043-0.002 0.065-0.003 0.182-0.012 0.361-0.032 0.532-0.059l-0.155-0.988c-0.142 0.022-0.291 0.039-0.443 0.049v-7.023l4.563-3.062v7.424l-0.303-0.273c-0.187 0.207-0.365 0.411-0.536 0.608-0.113 0.13-0.224 0.257-0.334 0.381l0.748 0.663c0.112-0.126 0.225-0.256 0.339-0.387 0.028-0.032 0.057-0.065 0.085-0.097v6.792l-4.563 3.060zM28 25.103l-4.438-3.027v-8.557c0.237-0.107 0.48-0.187 0.727-0.237l-0.198-0.98c-0.179 0.036-0.355 0.084-0.53 0.143v-5.479l4.438 3.029v15.11z"></path>
<path fill="#000" d="M8.080 13.819c0.139-0.075-0.085-0.067 0.063-0.115l-0.308-0.951c-0.205 0.066-0.406 0.152-0.598 0.256-0.239 0.129-0.484 0.307-0.709 0.516l0.681 0.733c0.163-0.152 0.706-0.349 0.871-0.438z"></path>
<path fill="#000" d="M18.55 16.633l0.437 0.9c0.412-0.2 0.803-0.465 1.193-0.811l-0.662-0.749c-0.322 0.284-0.638 0.501-0.968 0.66z"></path>
<path fill="#000" d="M6.21 16c0.118-0.37 0.221-0.69 0.446-1.019l-0.825-0.565c-0.308 0.45-0.443 0.871-0.573 1.279l-0.015 0.047 0.952 0.305 0.015-0.048z"></path>
<path fill="#000" d="M12.394 14.86c-0.063-0.075-0.126-0.15-0.19-0.225l-0.761 0.649c0.062 0.072 0.123 0.145 0.184 0.218 0.225 0.268 0.457 0.546 0.726 0.801l0.687-0.726c-0.226-0.214-0.43-0.458-0.646-0.716z"></path>
<path fill="#000" d="M25.51 14.354l0.646-0.646 0.646 0.646 0.707-0.707-0.646-0.646 0.646-0.646-0.707-0.707-0.646 0.646-0.646-0.646-0.707 0.707 0.646 0.646-0.646 0.646z"></path>
</svg>
