<?xml version="1.0" encoding="utf-8"?>
<!-- Generated by IcoMoon.io -->
<!DOCTYPE svg PUBLIC "-//W3C//DTD SVG 1.1//EN" "http://www.w3.org/Graphics/SVG/1.1/DTD/svg11.dtd">
<svg version="1.1" xmlns="http://www.w3.org/2000/svg" xmlns:xlink="http://www.w3.org/1999/xlink" width="32" height="32" viewBox="0 0 32 32">
<path fill="#000" d="M29.512 9h-7.512v-1.919c-0.063-1.763-1.356-3.081-3.2-3.081h-5.6c-1.838 0-3.138 1.319-3.2 3.081v1.919h-7.513c-0.275 0-0.488 0.225-0.488 0.5v18c0 0.275 0.206 0.5 0.488 0.5h27.031c0.275 0 0.488-0.225 0.488-0.5v-18c-0.006-0.275-0.212-0.5-0.494-0.5zM12 7.325c0-0.025 0-0.044 0-0.063s0-0.037 0-0.063c0-0.606 0.537-1.206 1.175-1.206h5.65c0.631 0 1.175 0.594 1.175 1.206 0 0.019 0 0.037 0 0.063s0 0.037 0 0.063v1.675h-8v-1.675zM22 20h-4v4h-4v-4h-4v-4h4v-4h4v4h4v4z"></path>
</svg>
