<?xml version="1.0" encoding="utf-8"?>
<!-- Generated by IcoMoon.io -->
<!DOCTYPE svg PUBLIC "-//W3C//DTD SVG 1.1//EN" "http://www.w3.org/Graphics/SVG/1.1/DTD/svg11.dtd">
<svg version="1.1" xmlns="http://www.w3.org/2000/svg" xmlns:xlink="http://www.w3.org/1999/xlink" width="32" height="32" viewBox="0 0 32 32">
<path fill="#000" d="M24 14c-1.477 0-2.769 0.806-3.462 2h-0.601c-2.654 0-4.999-1.119-6.971-3.326-1.272-1.424-2.093-3.054-2.366-3.639 0.856-0.734 1.399-1.822 1.399-3.035 0-2.206-1.794-4-4-4s-4 1.794-4 4c0 1.477 0.806 2.769 2 3.462v13.076c-1.194 0.693-2 1.985-2 3.462 0 2.206 1.794 4 4 4s4-1.794 4-4c0-1.477-0.806-2.769-2-3.462v-7.182c2.722 3.038 6.154 4.644 9.938 4.644h0.601c0.693 1.194 1.985 2 3.462 2 2.206 0 4-1.794 4-4s-1.794-4-4-4zM8 4c1.105 0 2 0.895 2 2s-0.895 2-2 2-2-0.895-2-2 0.895-2 2-2zM8 28c-1.105 0-2-0.895-2-2s0.895-2 2-2 2 0.895 2 2-0.895 2-2 2zM24 20c-1.105 0-2-0.895-2-2s0.895-2 2-2 2 0.895 2 2-0.895 2-2 2z"></path>
</svg>
