<?xml version="1.0" encoding="utf-8"?>
<!-- Generated by IcoMoon.io -->
<!DOCTYPE svg PUBLIC "-//W3C//DTD SVG 1.1//EN" "http://www.w3.org/Graphics/SVG/1.1/DTD/svg11.dtd">
<svg version="1.1" xmlns="http://www.w3.org/2000/svg" xmlns:xlink="http://www.w3.org/1999/xlink" width="32" height="32" viewBox="0 0 32 32">
<path fill="#000" d="M16.025 2c-2.194 0.006-4.113 1.45-4.8 3.706-0.35 1.156-0.219 2.8-0.075 3.406s0.456 1.244 0.825 1.769c0.175 0.262 0.419 0.463 0.7 0.575 0.037 0.019 0.081 0.031 0.125 0.050 0.206 0.069 0.406 0.137 0.631 0.194 0.738 0.188 1.694 0.294 2.569 0.3v0c0 0 0.038 0 0.044 0 0.019 0 0.019 0 0.081 0v-0.006c0.875-0.006 1.706-0.106 2.444-0.3 0.225-0.056 0.431-0.125 0.637-0.194 0.044-0.012 0.081-0.031 0.119-0.050 0.281-0.113 0.525-0.313 0.7-0.575 0.369-0.525 0.675-1.162 0.825-1.769 0.144-0.606 0.275-2.25-0.075-3.406-0.688-2.25-2.55-3.694-4.75-3.7z"></path>
<path fill="#000" d="M18.456 12.569c-0.025 0-0.044 0-0.069 0.006-0.038 0.006-0.081 0.019-0.119 0.025-0.125 0.025-0.256 0.050-0.381 0.075-0.575 0.094-1.181 0.144-1.813 0.15-0.631-0.006-1.394-0.056-1.938-0.15-0.131-0.025-0.262-0.050-0.387-0.075-0.037-0.006-0.081-0.019-0.119-0.025-0.025-0.006-0.050-0.006-0.069-0.006-0.381 0-0.688 0.331-0.7 0.744 0.006 0.050 0.012 0.1 0.012 0.15 0.3 4.2 1.050 15.044 1.137 15.75 0 0 0.175 0.794 2.006 0.788 0 0 0 0 0 0 1.825 0.006 2.006-0.788 2.006-0.788 0.087-0.706 0.837-11.55 1.137-15.75 0-0.050 0.006-0.1 0.012-0.15-0.031-0.412-0.337-0.744-0.719-0.744zM16.625 17.606c0 0.375-0.281 0.681-0.625 0.681s-0.625-0.306-0.625-0.681v-2.044c0-0.375 0.281-0.681 0.625-0.681s0.625 0.306 0.625 0.681v2.044z"></path>
</svg>
