<?xml version="1.0" encoding="utf-8"?>
<!-- Generated by IcoMoon.io -->
<!DOCTYPE svg PUBLIC "-//W3C//DTD SVG 1.1//EN" "http://www.w3.org/Graphics/SVG/1.1/DTD/svg11.dtd">
<svg version="1.1" xmlns="http://www.w3.org/2000/svg" xmlns:xlink="http://www.w3.org/1999/xlink" width="32" height="32" viewBox="0 0 32 32">
<path fill="#000" d="M7.006 14.881l-0.006 0.85c0.006 4.1 2.875 7.537 6.756 8.512 0.081 0.006 0.162 0.031 0.238 0.056 0.369 0.125 0.631 0.431 0.756 0.8v3.669c0 0.681 0.556 1.231 1.25 1.231h0.006c0.694 0 1.244-0.55 1.244-1.231v-3.675c0.125-0.369 0.381-0.669 0.75-0.794 0.075-0.025 0.156-0.050 0.244-0.056 3.881-0.975 6.756-4.413 6.756-8.512v-0.85c0-0.65-0.556-1.181-1.219-1.181s-1.219 0.525-1.219 1.181v0.85c0 1.781-0.719 3.381-1.913 4.55-1.2 1.163-2.831 1.887-4.656 1.887s-3.444-0.719-4.637-1.887c-1.194-1.169-1.919-2.775-1.919-4.55v-0.85c0-0.65-0.55-1.181-1.219-1.181-0.662 0-1.213 0.531-1.213 1.181z"></path>
<path fill="#000" d="M11.188 6.731v8.988c0 2.613 2.169 4.731 4.844 4.731s4.844-2.119 4.844-4.731v-8.988c0-2.612-2.169-4.731-4.844-4.731s-4.844 2.119-4.844 4.731z"></path>
</svg>
