<?xml version="1.0" encoding="utf-8"?>
<!-- Generated by IcoMoon.io -->
<!DOCTYPE svg PUBLIC "-//W3C//DTD SVG 1.1//EN" "http://www.w3.org/Graphics/SVG/1.1/DTD/svg11.dtd">
<svg version="1.1" xmlns="http://www.w3.org/2000/svg" xmlns:xlink="http://www.w3.org/1999/xlink" width="32" height="32" viewBox="0 0 32 32">
<path fill="#000" d="M20.575 2h-9.144c-1.9 0-3.431 1.462-3.431 3.275v1.725h9.5v2.313h-9.5v2.688h9.5v2.313h-9.5v2.688h9.5v2.313h-9.5v2.613c0 1.813 1.531 3.262 3.431 3.262h1.881v4.813h5.375v-4.813h1.887c1.894 0 3.425-1.45 3.425-3.262v-2.613h-3.688v-2.313h3.688v-2.688h-3.688v-2.313h3.688v-2.688h-3.688v-2.313h3.688v-1.725c0-1.813-1.531-3.275-3.425-3.275z"></path>
</svg>
