<?xml version="1.0" encoding="utf-8"?>
<!-- Generated by IcoMoon.io -->
<!DOCTYPE svg PUBLIC "-//W3C//DTD SVG 1.1//EN" "http://www.w3.org/Graphics/SVG/1.1/DTD/svg11.dtd">
<svg version="1.1" xmlns="http://www.w3.org/2000/svg" xmlns:xlink="http://www.w3.org/1999/xlink" width="32" height="32" viewBox="0 0 32 32">
<path fill="#000" d="M31.8 24.431c-0.038 0.256-0.1 0.506-0.194 0.7-0.169 0.344-0.331 0.375-0.969 0.344-0.825-0.038-2.006 0-3.256 0.050 0 0.344 0.012 0.506 0.012 0.506 0.081 0.944 0.506 0.975 0.675 0.975 0.188 0 2.45 0 2.688 0s0.456 0 0.625-0.113c0.219-0.144 0.313-0.563 0.394-1.294 0.012-0.106 0.019-0.244 0.025-0.406 0 0 0-0.006 0-0.006 0-0.050 0.006-0.113 0.006-0.181 0-0.025 0-0.050 0-0.069 0 0 0 0 0 0 0-0.169 0-0.356-0.006-0.506z"></path>
<path fill="#000" d="M0.188 24.431c0.038 0.256 0.1 0.506 0.194 0.7 0.169 0.344 0.331 0.375 0.969 0.344 0.825-0.038 2.006 0 3.256 0.050 0 0.344-0.013 0.506-0.013 0.506-0.081 0.944-0.506 0.975-0.675 0.975-0.188 0-2.45 0-2.688 0s-0.438 0-0.625-0.113c-0.225-0.131-0.313-0.563-0.394-1.294-0.013-0.106-0.019-0.244-0.025-0.406 0 0 0-0.006 0-0.006 0-0.050-0.006-0.113-0.006-0.181 0-0.025 0-0.050 0-0.069 0 0 0 0 0 0 0.006-0.169 0.006-0.356 0.006-0.506z"></path>
<path fill="#000" d="M32 18.538c0-1.919-0.25-3.794-0.35-4-0.075-0.15-0.556-0.544-1.65-1.287-1.106-0.756-1.081-0.644-1.281-1.137 0.181-0.056 0.356-0.162 0.462-0.175 0.238-0.025 0.25 0.2 0.744 0.2s1.563-0.131 1.781-0.35c0.219-0.219 0.288-0.294 0.288-0.488s-0.113-0.594-0.325-0.831-1.119-0.356-1.65-0.425-0.606 0-0.744 0.088c-0.219 0.137-0.231 1.394-0.231 1.394l-0.519 0.012c-0.337-0.831-0.806-2.506-1.538-3.825-0.8-1.438-1.637-1.888-1.988-2-0.344-0.106-0.656-0.181-3-0.419-2.394-0.25-4.3-0.281-6-0.281s-3.606 0.037-6 0.281c-2.344 0.244-2.656 0.313-3 0.419s-1.188 0.563-1.987 2c-0.731 1.319-1.2 2.994-1.538 3.825l-0.519-0.012c0 0-0.006-1.256-0.231-1.394-0.138-0.088-0.212-0.162-0.744-0.088s-1.438 0.188-1.65 0.425-0.325 0.637-0.325 0.831 0.069 0.275 0.287 0.488c0.219 0.219 1.288 0.35 1.781 0.35s0.506-0.225 0.744-0.2c0.106 0.012 0.288 0.119 0.462 0.175-0.206 0.494-0.175 0.381-1.281 1.137-1.094 0.75-1.581 1.137-1.65 1.287-0.1 0.206-0.35 2.081-0.35 4s0.138 3.644 0.138 4.256c0 0.256 0 0.706 0.056 1.137 0.038 0.256 0.094 0.506 0.194 0.7 0.169 0.344 0.325 0.375 0.969 0.344 0.825-0.038 2.019 0 3.25 0.050 0.825 0.031 1.669 0.063 2.419 0.081 1.875 0.038 1.325-0.275 2.125-0.262s3.956 0.144 6.844 0.144 6.050-0.131 6.844-0.144c0.8-0.012 0.25 0.3 2.125 0.262 0.75-0.012 1.594-0.050 2.419-0.081 1.231-0.044 2.431-0.087 3.25-0.050 0.644 0.031 0.8 0 0.969-0.344 0.094-0.194 0.156-0.444 0.194-0.7 0.063-0.431 0.056-0.881 0.056-1.137 0.012-0.606 0.15-2.337 0.15-4.256zM5.388 9.075c0.3-0.7 1.2-2.106 1.638-2.356 0.106-0.063 1.037-0.356 3.369-0.513 2.144-0.144 4.512-0.2 5.613-0.2s3.469 0.056 5.613 0.2c2.325 0.156 3.269 0.444 3.369 0.513 0.563 0.388 1.337 1.656 1.637 2.356s0.7 2.075 0.625 2.262c-0.075 0.188 0.075 0.281-0.938 0.2-1.006-0.075-7.325-0.156-10.3-0.156-2.969 0-9.287 0.081-10.3 0.156s-0.862-0.012-0.938-0.2c-0.088-0.188 0.313-1.556 0.612-2.262zM7.688 16.9c-0.45 0.113-0.719 0.356-1.281 0.35-0.563 0-2.081-0.256-2.406-0.269s-0.612 0.219-0.781 0.262-0.5-0.075-1-0.231-0.794-0.113-0.956-0.794c-0.169-0.675 0-1.644 0-1.644 1.081-0.050 2.125 0.050 4.081 0.6s3.044 1.606 3.044 1.606-0.25 0.006-0.7 0.119zM22.387 21.825c-0.894 0.119-4.637 0.15-6.387 0.15s-5.494-0.038-6.387-0.15c-0.912-0.119-2.1-1.212-1.281-2.081 1.106-1.181 0.9-1.144 3.412-1.469 2.175-0.281 3.825-0.294 4.256-0.294 0.425 0 2.081 0.019 4.256 0.294 2.512 0.325 2.306 0.288 3.413 1.469 0.819 0.869-0.369 1.962-1.281 2.081zM30.738 16.225c-0.169 0.675-0.456 0.637-0.956 0.794s-0.831 0.269-1 0.231-0.456-0.269-0.781-0.262c-0.325 0.012-1.844 0.269-2.406 0.269s-0.831-0.238-1.281-0.35c-0.45-0.113-0.7-0.113-0.7-0.113s1.081-1.063 3.044-1.606c1.956-0.55 3-0.65 4.081-0.6 0-0.012 0.169 0.956 0 1.638z"></path>
</svg>
