<?xml version="1.0" encoding="utf-8"?>
<!-- Generated by IcoMoon.io -->
<!DOCTYPE svg PUBLIC "-//W3C//DTD SVG 1.1//EN" "http://www.w3.org/Graphics/SVG/1.1/DTD/svg11.dtd">
<svg version="1.1" xmlns="http://www.w3.org/2000/svg" xmlns:xlink="http://www.w3.org/1999/xlink" width="32" height="32" viewBox="0 0 32 32">
<path fill="#000" d="M29.294 4h-26.587c-0.375 0-0.706 0.313-0.706 0.694v16.606c0 0.387 0.325 0.694 0.706 0.694h26.587c0.375 0 0.706-0.313 0.706-0.694v-16.606c0-0.381-0.325-0.694-0.706-0.694zM28 20h-24v-14h24v14z"></path>
<path fill="#000" d="M18.906 28c1.75-0.031 2.594-0.244 1.813-0.781-0.781-0.544-1.781-0.956-1.813-1.406-0.019-0.231-0.106-2.813-0.106-2.813h-5.6c0 0-0.094 2.581-0.106 2.813-0.031 0.444-1.031 0.863-1.813 1.406s0.063 0.75 1.813 0.781h5.812z"></path>
</svg>
