<?xml version="1.0" encoding="utf-8"?>
<!-- Generated by IcoMoon.io -->
<!DOCTYPE svg PUBLIC "-//W3C//DTD SVG 1.1//EN" "http://www.w3.org/Graphics/SVG/1.1/DTD/svg11.dtd">
<svg version="1.1" xmlns="http://www.w3.org/2000/svg" xmlns:xlink="http://www.w3.org/1999/xlink" width="32" height="32" viewBox="0 0 32 32">
<path fill="#000" d="M7.106 19c-1.719 0-3.106-1.337-3.106-3 0-1.656 1.388-3 3.106-3 1.725 0 3.112 1.344 3.112 3 0 1.663-1.387 3-3.112 3z"></path>
<path fill="#000" d="M16 19c-1.719 0-3.113-1.337-3.113-3 0-1.656 1.394-3 3.113-3s3.106 1.344 3.106 3c0 1.663-1.387 3-3.106 3z"></path>
<path fill="#000" d="M24.887 19c-1.719 0-3.113-1.337-3.113-3 0-1.656 1.387-3 3.113-3 1.719 0 3.113 1.344 3.113 3 0 1.663-1.387 3-3.113 3z"></path>
</svg>
