<?xml version="1.0" encoding="utf-8"?>
<!-- Generated by IcoMoon.io -->
<!DOCTYPE svg PUBLIC "-//W3C//DTD SVG 1.1//EN" "http://www.w3.org/Graphics/SVG/1.1/DTD/svg11.dtd">
<svg version="1.1" xmlns="http://www.w3.org/2000/svg" xmlns:xlink="http://www.w3.org/1999/xlink" width="32" height="32" viewBox="0 0 32 32">
<path fill="#000" d="M16 2c-0.029 0-0.057 0.001-0.086 0.001l0.359 0.004c-0.091-0.003-0.182-0.005-0.273-0.005z"></path>
<path fill="#000" d="M23.66 12.076c-0.012 0.004-0.026 0.010-0.039 0.017-2.14 0.831-4.771 1.408-7.618 1.405-2.845-0.005-5.477-0.587-7.613-1.423-0.012-0.007-0.027-0.012-0.040-0.017-0.096-0.035-0.197-0.056-0.303-0.057-0.016-0-0.031-0.001-0.047 0v11.001c0 3.867 3.582 6.999 8 6.999 1.375 0 2.668-0.3 3.798-0.835 0.006-0.003 0.012-0.005 0.018-0.008 0.002-0.001 0.003-0.002 0.005-0.002 0.304-0.146 0.599-0.31 0.883-0.489 1.998-1.273 3.297-3.336 3.297-5.665v-11.001c-0.012-0.001-0.031 0-0.043 0-0.108 0.001-0.201 0.041-0.297 0.076zM19.821 29.151c-0.002 0.001-0.003 0.002-0.005 0.002-0.006 0.003-0.012 0.006-0.018 0.008 0.006-0.003 0.012-0.006 0.018-0.008 0.002-0.001 0.003-0.002 0.005-0.002 0.304-0.146 0.599-0.31 0.883-0.489-0.281 0.179-0.576 0.343-0.883 0.489z"></path>
<path fill="#000" d="M20.703 28.662c-0.284 0.179-0.578 0.343-0.883 0.489 0.307-0.146 0.602-0.31 0.883-0.489z"></path>
<path fill="#000" d="M16.273 2.005l-0.359-0.004c-4.379 0.040-7.914 3.158-7.914 6.999v1.419c0.135 0.127 0.287 0.235 0.453 0.32 0.042 0.021 0.087 0.041 0.129 0.062 0.002 0.002 0.005 0.001 0.007 0.002 1.422 0.647 3.214 0.988 5.213 1.188 0.043 0.005 0.087 0.007 0.134 0.008 0.704 0.001 1.063 0.001 1.064-0.661v-5.338c0-0.552 0.448-1 1-1s1 0.448 1 1v5.396c-0.006 0.604 0.37 0.607 1.075 0.609 0.045-0.001 0.088-0.003 0.13-0.007 0.004-0 0.009 0 0.015-0.001 1.98-0.195 3.759-0.525 5.175-1.162 0.073-0.034 0.143-0.066 0.213-0.099 0.142-0.077 0.273-0.171 0.391-0.279v-1.457c0-3.786-3.435-6.869-7.727-6.995z"></path>
</svg>
