<?xml version="1.0" encoding="utf-8"?>
<!-- Generated by IcoMoon.io -->
<!DOCTYPE svg PUBLIC "-//W3C//DTD SVG 1.1//EN" "http://www.w3.org/Graphics/SVG/1.1/DTD/svg11.dtd">
<svg version="1.1" xmlns="http://www.w3.org/2000/svg" xmlns:xlink="http://www.w3.org/1999/xlink" width="32" height="32" viewBox="0 0 32 32">
<path fill="#000" d="M26.625 2.006c-0.137 0-0.319 0.038-0.319 0.038l-13.6 2.075c-0.863 0.231-1.644 1.069-1.706 1.975v17.906h-3.813v-0.006c-1.75 0-3.194 1.25-3.194 3s1.444 3 3.206 3h2.263c0.956 0 1.806-0.431 2.394-1.094 0.006-0.006 0.019-0.006 0.025-0.012 0.037-0.038 0.063-0.094 0.094-0.131 0.081-0.1 0.15-0.2 0.213-0.313 0.6-0.881 0.813-2.050 0.813-2.569v-14.5l13-2.375c0 0 0 8.5 0 12h-3.781c-1.769 0-3.2 1.244-3.2 3s1.431 3 3.2 3h2.325c1.137 0 2.131-0.375 2.7-1.313 0 0 0.006 0 0.012 0 0.563-0.75 0.75-1.887 0.75-3.431 0-1.55 0-18.925 0-18.925-0.006-0.731-0.625-1.325-1.381-1.325z"></path>
</svg>
