<?xml version="1.0" encoding="utf-8"?>
<!-- Generated by IcoMoon.io -->
<!DOCTYPE svg PUBLIC "-//W3C//DTD SVG 1.1//EN" "http://www.w3.org/Graphics/SVG/1.1/DTD/svg11.dtd">
<svg version="1.1" xmlns="http://www.w3.org/2000/svg" xmlns:xlink="http://www.w3.org/1999/xlink" width="32" height="32" viewBox="0 0 32 32">
<path fill="#000" d="M26.087 14h-20.175c-1.056 0-1.913 0.894-1.913 2s0.856 2 1.913 2h20.175c1.056 0 1.913-0.894 1.913-2s-0.856-2-1.913-2z"></path>
<path fill="#000" d="M26.087 6h-20.175c-1.056 0-1.913 0.894-1.913 2s0.856 2 1.913 2h20.175c1.056 0 1.913-0.894 1.913-2s-0.856-2-1.913-2z"></path>
<path fill="#000" d="M26.087 22h-20.175c-1.056 0-1.913 0.894-1.913 2s0.856 2 1.913 2h20.175c1.056 0 1.913-0.894 1.913-2s-0.856-2-1.913-2z"></path>
</svg>
