<?xml version="1.0" encoding="utf-8"?>
<!-- Generated by IcoMoon.io -->
<!DOCTYPE svg PUBLIC "-//W3C//DTD SVG 1.1//EN" "http://www.w3.org/Graphics/SVG/1.1/DTD/svg11.dtd">
<svg version="1.1" xmlns="http://www.w3.org/2000/svg" xmlns:xlink="http://www.w3.org/1999/xlink" width="32" height="32" viewBox="0 0 32 32">
<path fill="#000" d="M28 6c0-2.206-1.794-4-4-4s-4 1.794-4 4c0 1.477 0.806 2.769 2 3.462v3.302l-6 3-6-3v-3.302c1.194-0.693 2-1.985 2-3.462 0-2.206-1.794-4-4-4s-4 1.794-4 4c0 1.477 0.806 2.769 2 3.462v5.774l8 4v3.302c-1.194 0.693-2 1.985-2 3.462 0 2.206 1.794 4 4 4s4-1.794 4-4c0-1.477-0.806-2.769-2-3.462v-3.302l8-4v-5.774c1.194-0.693 2-1.985 2-3.462zM8 4c1.105 0 2 0.895 2 2s-0.895 2-2 2-2-0.895-2-2 0.895-2 2-2zM16 28c-1.105 0-2-0.895-2-2s0.895-2 2-2 2 0.895 2 2-0.895 2-2 2zM24 8c-1.105 0-2-0.895-2-2s0.895-2 2-2 2 0.895 2 2-0.895 2-2 2z"></path>
</svg>
