<?xml version="1.0" encoding="utf-8"?>
<!-- Generated by IcoMoon.io -->
<!DOCTYPE svg PUBLIC "-//W3C//DTD SVG 1.1//EN" "http://www.w3.org/Graphics/SVG/1.1/DTD/svg11.dtd">
<svg version="1.1" xmlns="http://www.w3.org/2000/svg" xmlns:xlink="http://www.w3.org/1999/xlink" width="32" height="32" viewBox="0 0 32 32">
<path fill="#000" d="M22.5 16h1v3h-1v-3z"></path>
<path fill="#000" d="M7 19h8.6l-3-3h-5.6z"></path>
<path fill="#000" d="M22.781 3.756c-0.025-0.013-0.044-0.025-0.063-0.038-0.681-0.375-1.406-0.669-2.15-0.925-0.113-0.038-0.225-0.075-0.337-0.112-1.337-0.425-2.756-0.681-4.231-0.681-7.731 0-14 6.269-14 14 0 5.269 2.912 9.85 7.213 12.238 0.025 0.012 0.044 0.031 0.069 0.044 0.681 0.375 1.406 0.669 2.15 0.925 0.113 0.038 0.225 0.075 0.338 0.113 1.338 0.425 2.75 0.681 4.231 0.681 7.731 0 14-6.269 14-14 0-5.269-2.913-9.856-7.219-12.244zM16 26.65c-0.581 0-1.15-0.056-1.7-0.15-0.613-0.1-1.206-0.256-1.781-0.456-0.119-0.038-0.238-0.075-0.35-0.119-0.406-0.156-0.806-0.331-1.188-0.538-3.35-1.794-5.631-5.325-5.631-9.394 0-2.325 0.775-4.463 2.044-6.213l14.825 14.825c-1.756 1.269-3.894 2.044-6.219 2.044zM24.613 22.212l-14.825-14.825c1.75-1.263 3.881-2.037 6.212-2.037 0.581 0 1.144 0.056 1.7 0.15 0.613 0.1 1.206 0.256 1.781 0.456 0.113 0.037 0.231 0.075 0.35 0.119 0.387 0.15 0.762 0.313 1.125 0.506 3.387 1.781 5.7 5.331 5.7 9.425-0.006 2.325-0.781 4.456-2.044 6.206z"></path>
<path fill="#000" d="M22 18.625v-2.625h-2.625z"></path>
<path fill="#000" d="M24 16h1v3h-1v-3z"></path>
<path fill="#000" d="M22.506 13.294c-0.55-0.256-1.375-0.356-2.85-0.356-0.075 0-0.15 0-0.225 0-0.794 0.006-0.994-0.006-1.25-0.381-0.175-0.262-0.063-0.925 0.231-1.369 0.1-0.15 0.113-0.35 0.025-0.512s-0.256-0.262-0.438-0.269c-0.006 0-0.587-0.006-1.144-0.244-0.663-0.281-0.975-0.756-0.975-1.444 0-1.612 1.362-1.731 1.425-1.731v-1c-0.75 0-2.425 0.688-2.425 2.731 0 1.094 0.563 1.938 1.606 2.375 0.262 0.106 0.525 0.181 0.75 0.225-0.206 0.613-0.225 1.306 0.106 1.794 0.563 0.831 1.269 0.825 2.081 0.819 0.069 0 0.144 0 0.219 0 1.644 0 2.163 0.144 2.431 0.269 0.356 0.162 0.425 0.719 0.413 1.231 0 0.044 0 0.025 0 0.063h1c0-0.025 0-0.025 0-0.063 0-0.444 0.019-1.675-0.981-2.137z"></path>
<path fill="#000" d="M25 15.5c0-1.606-0.188-2.7-0.569-3.35-0.538-0.9-1.4-1.4-2.431-1.4h-1.087c0.181-0.519 0.337-1.238 0.219-1.931-0.2-1.175-1.194-1.875-2.694-1.875v1c1.313 0 1.631 0.569 1.712 1.044 0.156 0.906-0.425 2.006-0.431 2.019-0.087 0.156-0.081 0.344 0.006 0.494s0.256 0.244 0.431 0.244h1.844c0.681 0 1.212 0.306 1.569 0.912 0.194 0.331 0.431 1.094 0.431 2.838h1z"></path>
</svg>
