<?xml version="1.0" encoding="utf-8"?>
<!-- Generated by IcoMoon.io -->
<!DOCTYPE svg PUBLIC "-//W3C//DTD SVG 1.1//EN" "http://www.w3.org/Graphics/SVG/1.1/DTD/svg11.dtd">
<svg version="1.1" xmlns="http://www.w3.org/2000/svg" xmlns:xlink="http://www.w3.org/1999/xlink" width="32" height="32" viewBox="0 0 32 32">
<path fill="#000" d="M19 17c0 1.657-1.343 3-3 3s-3-1.343-3-3c0-1.657 1.343-3 3-3s3 1.343 3 3z"></path>
<path fill="#000" d="M30 17h-10c0 1.494-0.819 2.794-2.038 3.481l4.887 8.519c4.219-2.413 7.15-6.794 7.15-12z"></path>
<path fill="#000" d="M16 13c0.731 0 1.419 0.2 2.006 0.544l5.038-8.644c-2.069-1.206-4.475-1.9-7.044-1.9-2.575 0-4.994 0.7-7.069 1.913l4.987 8.675c0.606-0.375 1.319-0.588 2.081-0.588z"></path>
<path fill="#000" d="M12 17h-10c0 5.206 2.931 9.587 7.15 12l4.888-8.519c-1.219-0.688-2.037-1.988-2.037-3.481z"></path>
</svg>
