<?xml version="1.0" encoding="utf-8"?>
<!-- Generated by IcoMoon.io -->
<!DOCTYPE svg PUBLIC "-//W3C//DTD SVG 1.1//EN" "http://www.w3.org/Graphics/SVG/1.1/DTD/svg11.dtd">
<svg version="1.1" xmlns="http://www.w3.org/2000/svg" xmlns:xlink="http://www.w3.org/1999/xlink" width="32" height="32" viewBox="0 0 32 32">
<path fill="#000" d="M23.096 2h-14.199c-3.802 0-6.897 3.161-6.897 7.038v13.924c0 3.877 3.095 7.038 6.897 7.038h14.199c3.809 0 6.904-3.161 6.904-7.038v-13.924c0-3.877-3.095-7.038-6.904-7.038zM10.938 15.685v0.042c0 0.68-0.568 1.274-1.242 1.274h-1.454c-0.674 0-1.241-0.593-1.241-1.274v-6.466c0.063-0.673 0.575-1.26 1.241-1.26h1.454c0.68 0 1.242 0.615 1.242 1.302v6.383zM18.563 24.734v0.168c0 0.715-0.555 1.099-1.256 1.099h-2.612c-0.702 0-1.256-0.509-1.256-1.224v-1.832c0-1.458 1.132-2.643 2.562-2.643s2.563 1.185 2.563 2.643v1.79zM25 15.685v0.042c0 0.68-0.567 1.274-1.241 1.274h-1.517c-0.674 0-1.242-0.593-1.242-1.274v-6.466c0.063-0.673 0.576-1.26 1.242-1.26h1.517c0.674 0 1.241 0.615 1.241 1.302v6.383z"></path>
</svg>
