<?xml version="1.0" encoding="utf-8"?>
<!-- Generated by IcoMoon.io -->
<!DOCTYPE svg PUBLIC "-//W3C//DTD SVG 1.1//EN" "http://www.w3.org/Graphics/SVG/1.1/DTD/svg11.dtd">
<svg version="1.1" xmlns="http://www.w3.org/2000/svg" xmlns:xlink="http://www.w3.org/1999/xlink" width="32" height="32" viewBox="0 0 32 32">
<path fill="#000" d="M9.345 17.709c-3.245 0-5.246 2.854-5.246 5.943 0 1.418-0.629 2.447-2.098 3.006 1.119 2.167 5.486 2.572 7.345 2.237 2.228-0.402 5.005-1.555 5.666-4.811 0.769-3.789-2.421-6.376-5.666-6.376z"></path>
<path fill="#000" d="M29.227 3.772c-0.81-0.809-1.873-1.081-2.808-0.334l-10.945 9.631c-0.54-0.148-1.033-0.117-1.432 0.147l-3.675 3.060c-0.101 0.101-0.097 0.269 0.004 0.37 0.031 0.031 0.066 0.049 0.106 0.061 0.040 0.002 0.079 0.004 0.119 0.006 0.001-0 0.002-0.001 0.003-0.001 2.996 0.215 5.69 2.297 5.581 5.594-0.001 0.032-0.002 0.063-0.003 0.095 0.008 0.053 0.031 0.104 0.072 0.145 0.1 0.1 0.261 0.1 0.361 0.003 0.001-0.001 0.002-0.002 0.003-0.003 0.004-0.004 0.007-0.009 0.010-0.012l3.154-3.584c0.264-0.398 0.295-0.89 0.147-1.43l9.636-10.94c0.747-0.934 0.475-1.997-0.334-2.806z"></path>
<path fill="#000" d="M10.368 16.276l0.001-0.001-0.001 0z"></path>
</svg>
