<?xml version="1.0" encoding="utf-8"?>
<!-- Generated by IcoMoon.io -->
<!DOCTYPE svg PUBLIC "-//W3C//DTD SVG 1.1//EN" "http://www.w3.org/Graphics/SVG/1.1/DTD/svg11.dtd">
<svg version="1.1" xmlns="http://www.w3.org/2000/svg" xmlns:xlink="http://www.w3.org/1999/xlink" width="32" height="32" viewBox="0 0 32 32">
<path fill="#000" d="M20.288 9.681c-0.394-0.006-0.712 0.319-0.712 0.725l-0.012 12.175c-0.006 2.738-1.856 3.962-3.575 3.95-1.719-0.019-3.569-1.275-3.563-4.006 0-2.094 0.012-10.481 0.019-14.675 0-0.963 0.375-1.713 1.050-2.106 0.662-0.388 1.525-0.381 2.188 0.019 0.675 0.406 1.044 1.162 1.044 2.125l-0.019 14.031c0 0.456-0.106 0.831-0.294 1.069-0.119 0.15-0.275 0.238-0.431 0.238-0.35-0.006-0.713-0.456-0.706-1.3 0 0 0.012-10.394 0.019-10.794 0-0.406-0.319-0.738-0.713-0.738s-0.713 0.325-0.713 0.731l-0.019 10.794c0 1.813 1.075 2.769 2.138 2.781 0.587 0.006 1.144-0.275 1.538-0.775s0.606-1.188 0.606-1.988l0.019-14.031c0-1.487-0.637-2.725-1.756-3.394-1.094-0.663-2.519-0.675-3.619-0.031-1.119 0.656-1.762 1.881-1.769 3.369-0.006 4.188-0.012 12.575-0.019 14.675-0.006 3.575 2.506 5.462 4.987 5.488 1.281 0.012 2.569-0.481 3.519-1.444 0.887-0.906 1.481-2.231 1.481-3.962l0.006-12.181c0.019-0.412-0.3-0.744-0.694-0.744z"></path>
</svg>
