<?xml version="1.0" encoding="utf-8"?>
<!-- Generated by IcoMoon.io -->
<!DOCTYPE svg PUBLIC "-//W3C//DTD SVG 1.1//EN" "http://www.w3.org/Graphics/SVG/1.1/DTD/svg11.dtd">
<svg version="1.1" xmlns="http://www.w3.org/2000/svg" xmlns:xlink="http://www.w3.org/1999/xlink" width="32" height="32" viewBox="0 0 32 32">
<path fill="#000" d="M14 27.238v-22.481c0-0.419-0.338-0.756-0.762-0.756h-4.475c-0.425 0-0.762 0.338-0.762 0.756v22.481c0 0.419 0.338 0.762 0.762 0.762h4.475c0.425 0 0.762-0.337 0.762-0.762z"></path>
<path fill="#000" d="M23.238 4h-4.475c-0.419 0-0.762 0.338-0.762 0.756v22.481c0 0.419 0.337 0.762 0.762 0.762h4.475c0.419 0 0.762-0.337 0.762-0.762v-22.481c0-0.419-0.337-0.756-0.762-0.756z"></path>
</svg>
