<?xml version="1.0" encoding="utf-8"?>
<!-- Generated by IcoMoon.io -->
<!DOCTYPE svg PUBLIC "-//W3C//DTD SVG 1.1//EN" "http://www.w3.org/Graphics/SVG/1.1/DTD/svg11.dtd">
<svg version="1.1" xmlns="http://www.w3.org/2000/svg" xmlns:xlink="http://www.w3.org/1999/xlink" width="32" height="32" viewBox="0 0 32 32">
<path fill="#000" d="M26.581 20.3c-2.587-0.981-2.431-0.587-2.431-2.406 0-1.175 0.581-0.744 0.95-2.981 0.144-0.881 0.262-0.294 0.569-1.706 0.163-0.738-0.113-0.794-0.075-1.144 0.031-0.35 0.063-0.669 0.125-1.387 0.075-0.9-0.725-3.25-3.587-3.25s-3.663 2.35-3.587 3.25c0.056 0.725 0.094 1.037 0.125 1.387s-0.238 0.406-0.075 1.144c0.306 1.412 0.425 0.819 0.569 1.706 0.369 2.238 0.944 1.813 0.944 2.981 0 0.837 0.194 1.188-0.931 1.719 0.337 0.119 0.731 0.262 1.206 0.444 3.4 1.294 3.319 2.55 3.406 3.144 0.063 0.406 0.094 3.644 0.106 4.8h6.106c0 0 0-5.031-0.094-5.619-0.069-0.462-0.688-1.075-3.325-2.081z"></path>
<path fill="#000" d="M22.313 28c0 0 0-0.881-0.012-1.9-0.012-1.163-0.044-2.5-0.106-2.9-0.094-0.594-0.894-1.387-4.288-2.681-0.469-0.175-0.863-0.319-1.206-0.444-2.081-0.738-1.931-0.981-1.931-3 0-1.519 0.75-0.531 1.225-3.412 0.188-1.137 0.337-0.381 0.731-2.2 0.212-0.95-0.144-1.025-0.1-1.481s0.087-0.863 0.163-1.794c0.1-1.156-0.931-4.194-4.631-4.194s-4.725 3.031-4.631 4.194c0.075 0.931 0.119 1.338 0.169 1.794 0.044 0.456-0.313 0.525-0.1 1.481 0.4 1.819 0.55 1.063 0.737 2.2 0.475 2.881 1.219 1.894 1.219 3.413 0 2.35 0.206 2.175-3.138 3.444-3.394 1.294-4.194 2.087-4.287 2.681-0.125 0.756-0.125 4.8-0.125 4.8h20.313z"></path>
</svg>
