<?xml version="1.0" encoding="utf-8"?>
<!-- Generated by IcoMoon.io -->
<!DOCTYPE svg PUBLIC "-//W3C//DTD SVG 1.1//EN" "http://www.w3.org/Graphics/SVG/1.1/DTD/svg11.dtd">
<svg version="1.1" xmlns="http://www.w3.org/2000/svg" xmlns:xlink="http://www.w3.org/1999/xlink" width="32" height="32" viewBox="0 0 32 32">
<path fill="#000" d="M28 28c0 0 0-1.65-0.137-2.512-0.113-0.681-1.056-1.581-5.069-3.056-3.95-1.45-3.706-0.744-3.706-3.413 0-1.731 0.881-0.725 1.444-4.012 0.219-1.294 0.394-0.431 0.869-2.506 0.25-1.088-0.169-1.169-0.119-1.688s0.1-0.981 0.194-2.044c0.113-1.313-1.106-4.769-5.475-4.769s-5.588 3.456-5.469 4.775c0.094 1.056 0.144 1.525 0.194 2.044s-0.369 0.6-0.119 1.688c0.475 2.069 0.65 1.206 0.869 2.506 0.563 3.287 1.444 2.281 1.444 4.013 0 2.675 0.244 1.969-3.706 3.413-4.013 1.469-4.963 2.375-5.069 3.056-0.144 0.856-0.144 2.506-0.144 2.506h24z"></path>
</svg>
