<?xml version="1.0" encoding="utf-8"?>
<!-- Generated by IcoMoon.io -->
<!DOCTYPE svg PUBLIC "-//W3C//DTD SVG 1.1//EN" "http://www.w3.org/Graphics/SVG/1.1/DTD/svg11.dtd">
<svg version="1.1" xmlns="http://www.w3.org/2000/svg" xmlns:xlink="http://www.w3.org/1999/xlink" width="32" height="32" viewBox="0 0 32 32">
<path fill="#000" d="M20.738 14.25c0 0 0 0 0 0-0.075-0.031-0.15-0.063-0.219-0.106-0.438-0.25-0.762-0.681-0.869-1.2l-1.156-7.356-0.012-0.362c0-0.444 0.256-0.638 0.625-0.813v0c0.044-0.019 0.087-0.037 0.131-0.056 0.45-0.213 0.756-0.487 0.756-1.019 0-1.256-0.406-1.337-1.137-1.337h-5.706c-0.731 0-1.137 0.075-1.137 1.337 0 0.531 0.306 0.806 0.756 1.019 0.044 0.019 0.088 0.031 0.131 0.056 0 0 0 0 0 0 0.369 0.181 0.625 0.375 0.625 0.813l-0.012 0.362-1.156 7.356c-0.106 0.519-0.431 0.95-0.869 1.2-0.069 0.044-0.144 0.075-0.219 0.106 0 0 0 0 0 0-1.231 0.637-2.263 1.925-2.263 3.419 0 0.994 0.219 1.331 0.95 1.331h5.044l0.75 11h0.5l0.75-11h5.050c0.731 0 0.95-0.294 0.95-1.331 0-1.494-1.031-2.781-2.262-3.419z"></path>
</svg>
