<?xml version="1.0" encoding="utf-8"?>
<!-- Generated by IcoMoon.io -->
<!DOCTYPE svg PUBLIC "-//W3C//DTD SVG 1.1//EN" "http://www.w3.org/Graphics/SVG/1.1/DTD/svg11.dtd">
<svg version="1.1" xmlns="http://www.w3.org/2000/svg" xmlns:xlink="http://www.w3.org/1999/xlink" width="32" height="32" viewBox="0 0 32 32">
<path fill="#000" d="M16 2c-7.731 0-14 6.269-14 14s6.269 14 14 14c7.731 0 14-6.269 14-14s-6.269-14-14-14zM24.488 24.488c-2.031 2.031-4.662 3.244-7.488 3.475l-0.5-3.962h-1l-0.494 3.956c-2.831-0.231-5.463-1.444-7.487-3.475-2.031-2.031-3.244-4.663-3.475-7.488l3.956-0.494v-1l-3.956-0.494c0.231-2.831 1.444-5.463 3.475-7.487 2.031-2.031 4.662-3.244 7.487-3.475l0.494 3.956h1l0.494-3.956c2.831 0.231 5.462 1.444 7.488 3.475 2.031 2.031 3.244 4.662 3.475 7.488l-3.956 0.494v1l3.956 0.494c-0.231 2.831-1.444 5.462-3.469 7.494z"></path>
</svg>
