<?xml version="1.0" encoding="utf-8"?>
<!-- Generated by IcoMoon.io -->
<!DOCTYPE svg PUBLIC "-//W3C//DTD SVG 1.1//EN" "http://www.w3.org/Graphics/SVG/1.1/DTD/svg11.dtd">
<svg version="1.1" xmlns="http://www.w3.org/2000/svg" xmlns:xlink="http://www.w3.org/1999/xlink" width="32" height="32" viewBox="0 0 32 32">
<path fill="#000" d="M24.664 8.153c-2.666-1.183-5.579-1.78-8.666-1.777-3.086-0.003-6.204 0.641-8.665 1.749-0.462 0.207-0.875 0.56-0.581 1.217s9.244 20.658 9.244 20.658l9.226-20.617c0.181-0.43 0.047-0.961-0.559-1.23zM11.999 12.001c-1.104 0-2-0.895-2-2s0.895-1.999 2-1.999c1.104 0 2 0.895 2 1.999s-0.895 2-2 2zM15.998 21.186c-1.104 0-2-0.895-2-2s0.895-2 2-2c1.104 0 2 0.895 2 2s-0.895 2-2 2zM19.998 14c-1.104 0-2-0.895-2-1.999s0.895-2 2-2c1.104 0 2 0.895 2 2s-0.895 1.999-2 1.999z"></path>
<path fill="#000" d="M26.362 4.125c-2.988-1.288-6.679-2.124-10.363-2.125-3.683 0-7.309 0.758-10.364 2.090-0.271 0.118-0.635 0.348-0.635 0.861 0 0.158 0.057 0.308 0.057 0.308l0.499 1.2c0.158 0.304 0.497 0.511 0.862 0.511 0.103 0 0.246-0.021 0.416-0.092 2.806-1.183 5.904-1.849 9.165-1.848 3.261-0.001 6.602 0.728 9.165 1.848 0.206 0.090 0.323 0.092 0.416 0.092 0.376 0 0.697-0.205 0.858-0.503l0.503-1.209c0.036-0.097 0.060-0.205 0.060-0.298 0-0.46-0.274-0.678-0.638-0.835z"></path>
</svg>
