<?xml version="1.0" encoding="utf-8"?>
<!-- Generated by IcoMoon.io -->
<!DOCTYPE svg PUBLIC "-//W3C//DTD SVG 1.1//EN" "http://www.w3.org/Graphics/SVG/1.1/DTD/svg11.dtd">
<svg version="1.1" xmlns="http://www.w3.org/2000/svg" xmlns:xlink="http://www.w3.org/1999/xlink" width="32" height="32" viewBox="0 0 32 32">
<path fill="#000" d="M17.606 19.494c0.025-0.431 0.519-0.281 0.519-0.281l3.875 0.788 8 3.044c0-1.5-0.238-1.656-0.587-1.919l-11.413-8.188c0 0-0.306-3.75-0.306-7.056 0-1.531-0.738-4.881-1.694-4.881s-1.694 3.4-1.694 4.881c0 3.138-0.306 7.056-0.306 7.056l-11.412 8.188c-0.444 0.313-0.587 0.481-0.587 1.919l8-3.044 3.869-0.788c0 0 0.494-0.15 0.519 0.281s-0.075 4.319 0.369 6.381c0.056 0.275-0.156 0.294-0.3 0.462l-3.244 2.050c-0.106 0.119-0.156 0.456-0.156 0.456l-0.063 1.156 4.25-1 0.75 2 0.75-2 4.25 1-0.063-1.156c0.006 0-0.044-0.337-0.15-0.456l-3.244-2.050c-0.144-0.169-0.356-0.188-0.3-0.462 0.431-2.063 0.344-5.95 0.369-6.381z"></path>
</svg>
