<?xml version="1.0" encoding="utf-8"?>
<!-- Generated by IcoMoon.io -->
<!DOCTYPE svg PUBLIC "-//W3C//DTD SVG 1.1//EN" "http://www.w3.org/Graphics/SVG/1.1/DTD/svg11.dtd">
<svg version="1.1" xmlns="http://www.w3.org/2000/svg" xmlns:xlink="http://www.w3.org/1999/xlink" width="32" height="32" viewBox="0 0 32 32">
<path fill="#000" d="M6.019 16.607c0.314 5.24 4.662 9.393 9.981 9.393 2.372 0 4.551-0.827 6.266-2.207-2.438-0.696-5.14-1.673-7.917-2.88-3.052-1.326-5.913-2.809-8.329-4.307z"></path>
<path fill="#000" d="M6.711 12.289c2.494 1.694 5.754 3.446 9.23 4.955 2.724 1.184 5.445 2.16 7.866 2.823 0.406 0.111 0.802 0.213 1.187 0.305 0.105-0.216 0.203-0.437 0.293-0.662 0.459-1.147 0.712-2.4 0.712-3.711 0-0.204-0.007-0.406-0.019-0.607-0.314-5.24-4.662-9.393-9.981-9.393-2.372 0-4.551 0.827-6.265 2.207-1.143 0.921-2.080 2.087-2.729 3.42-0.105 0.216-0.203 0.437-0.293 0.662z"></path>
<path fill="#000" d="M26.854 17.783c-0.078 0.723-0.149 0.852-0.368 1.543 1.055 0.752 1.939 1.482 2.571 2.121 0.205 0.208 0.367 0.389 0.494 0.544-0.105 0.005-0.222 0.008-0.352 0.008-1.368 0-3.377-0.344-5.656-0.968-2.467-0.675-5.233-1.668-8.001-2.87-3.683-1.6-7.135-3.471-9.719-5.269-1.193-0.83-2.189-1.639-2.882-2.341-0.205-0.208-0.367-0.389-0.494-0.544 0.105-0.005 0.222-0.008 0.352-0.008 0.957 0 2.227 0.168 3.684 0.483 0.364-0.625 0.436-0.794 0.916-1.338-1.608-0.582-3.236-0.987-4.601-1.145-1.525-0.176-2.521 0.345-2.749 1.071-0.692 2.207 5.887 7.099 14.696 10.925 5.91 2.567 11.323 4.004 14.454 4.004 1.535 0 2.521-0.345 2.749-1.071 0.396-1.264-1.513-2.929-5.094-5.145z"></path>
</svg>
