<?xml version="1.0" encoding="utf-8"?>
<!-- Generated by IcoMoon.io -->
<!DOCTYPE svg PUBLIC "-//W3C//DTD SVG 1.1//EN" "http://www.w3.org/Graphics/SVG/1.1/DTD/svg11.dtd">
<svg version="1.1" xmlns="http://www.w3.org/2000/svg" xmlns:xlink="http://www.w3.org/1999/xlink" width="32" height="32" viewBox="0 0 32 32">
<path fill="#000" d="M24.988 12.688c-0.050-1.069-0.206-2.156-0.675-3.131-0.256-0.537-0.606-1.031-1.031-1.45-0.394-0.4-0.85-0.731-1.331-1.019-1.069-0.638-2.344-1.063-5.275-1.938s-4.675-1.15-4.675-1.15v22.394l4.994 1.606c0 0 0.006-12.425 0.006-18.719v-0.238c0-0.581 0.469-1.050 1.006-1.050h0.031c0.531 0 0.969 0.469 0.969 1.050v8.331c0.688 0.331 1.825 0.581 2.613 0.569 0.519 0.012 1.044-0.106 1.5-0.356 0.475-0.256 0.869-0.65 1.15-1.113 0.319-0.519 0.512-1.113 0.619-1.706 0.119-0.675 0.125-1.381 0.1-2.081z"></path>
<path fill="#000" d="M5.419 22.363c1.712-0.613 5.581-1.844 5.581-1.844v-2.95c0 0-4.781 1.55-6.956 2.319-0.538 0.194-1.081 0.369-1.606 0.594-0.613 0.256-1.212 0.544-1.756 0.925-0.237 0.163-0.45 0.369-0.575 0.631s-0.138 0.575-0.031 0.85c0.125 0.319 0.362 0.581 0.631 0.788 0.487 0.369 1.069 0.594 1.65 0.762 1.775 0.587 3.65 0.875 5.525 0.831 0.906-0.012 2.25-0.119 3.125-0.275v-2.625c0 0-0.688 0.156-2.581 0.781-0.287 0.094-0.575 0.206-0.875 0.269-0.444 0.1-0.9 0.131-1.35 0.137-0.406-0.019-0.825-0.044-1.206-0.194-0.138-0.063-0.287-0.137-0.344-0.288-0.050-0.125 0.019-0.25 0.106-0.337 0.175-0.181 0.425-0.281 0.662-0.375z"></path>
<path fill="#000" d="M32 21.619c-0.006-0.375-0.231-0.7-0.494-0.938-0.444-0.394-0.994-0.644-1.544-0.844-0.344-0.119-0.581-0.206-0.919-0.313-1.575-0.512-3.244-0.7-4.894-0.706-0.5 0.019-1.444 0.031-1.938 0.087-1.369 0.156-4.206 0.962-4.206 0.962v3.050c0 0 4.219-1.35 6.031-1.988 0.606-0.206 1.256-0.288 1.894-0.288 0.406 0.012 0.825 0.044 1.212 0.194 0.137 0.056 0.281 0.137 0.344 0.281 0.056 0.163-0.056 0.313-0.181 0.406-0.294 0.238-0.669 0.331-1.012 0.462-2.563 0.906-8.294 2.794-8.294 2.794v2.938c0 0 7.325-2.475 10.675-3.675 0.556-0.206 1.119-0.381 1.65-0.65 0.494-0.25 0.988-0.538 1.363-0.956 0.194-0.225 0.312-0.5 0.312-0.819z"></path>
</svg>
