<?xml version="1.0" encoding="utf-8"?>
<!-- Generated by IcoMoon.io -->
<!DOCTYPE svg PUBLIC "-//W3C//DTD SVG 1.1//EN" "http://www.w3.org/Graphics/SVG/1.1/DTD/svg11.dtd">
<svg version="1.1" xmlns="http://www.w3.org/2000/svg" xmlns:xlink="http://www.w3.org/1999/xlink" width="32" height="32" viewBox="0 0 32 32">
<path fill="#000" d="M16 16c-1.106 0-2-0.894-2-2v-10c0-1.106 0.894-2 2-2s2 0.894 2 2v10c0 1.106-0.894 2-2 2z"></path>
<path fill="#000" d="M23.688 4.3v0c-0.313-0.188-0.675-0.3-1.063-0.3-1.106 0-2 0.894-2 2 0 0.388 0.113 0.75 0.3 1.056 0.125 0.2 0.288 0.381 0.475 0.525 0.075 0.056 0.15 0.106 0.231 0.156 0.506 0.35 0.988 0.744 1.438 1.194 1.894 1.887 2.931 4.4 2.931 7.069s-1.038 5.181-2.931 7.069c-1.887 1.894-4.4 2.931-7.069 2.931s-5.181-1.038-7.069-2.931c-1.894-1.887-2.931-4.4-2.931-7.069s1.037-5.181 2.931-7.069c0.444-0.444 0.925-0.844 1.431-1.188 0.088-0.050 0.162-0.1 0.244-0.162 0.188-0.144 0.344-0.319 0.469-0.519 0.194-0.306 0.3-0.669 0.3-1.056 0-1.106-0.894-2-2-2-0.387 0-0.75 0.112-1.056 0.3l-0.006-0.006c-3.8 2.5-6.313 6.806-6.313 11.7 0 7.731 6.269 14 14 14s14-6.269 14-14c0-4.894-2.512-9.2-6.313-11.7z"></path>
</svg>
