<?xml version="1.0" encoding="utf-8"?>
<!-- Generated by IcoMoon.io -->
<!DOCTYPE svg PUBLIC "-//W3C//DTD SVG 1.1//EN" "http://www.w3.org/Graphics/SVG/1.1/DTD/svg11.dtd">
<svg version="1.1" xmlns="http://www.w3.org/2000/svg" xmlns:xlink="http://www.w3.org/1999/xlink" width="32" height="32" viewBox="0 0 32 32">
<path fill="#000" d="M29.5 14.95v0c0 0-0.006 0 0 0l-11.869-11.944c0 0 0 0 0 0l-0.087-0.087c0 0-0.031 0-0.031 0-0.469-0.45-1.006-0.681-1.694-0.694v0l-5.862-0.212c-0.631 0.006-1.25 0.256-1.731 0.738l-1.694 1.7c0.463-0.412 1.037-0.625 1.625-0.631l0.238 0.006 5.612 0.206c0.688 0.013 1.231 0.244 1.7 0.694 0 0 0.025 0 0.031 0l0.088 0.088c0 0 0 0 0 0l11.863 11.944c0 0 0 0 0 0v0c0.625 0.675 0.669 1.762 0 2.431l1.813-1.806c0.663-0.669 0.625-1.756 0-2.431z"></path>
<path fill="#000" d="M26.75 17.656c0 0 0.019 0 0.019 0l-11.856-11.944c0 0 0 0 0 0l-0.081-0.088c0 0-0.019 0-0.019 0-0.469-0.45-0.994-0.681-1.681-0.694v0l-5.881-0.213c-0.575 0.006-1.138 0.213-1.6 0.612-0.019 0.019-0.044 0.037-0.063 0.056-0.025 0.025-0.050 0.050-0.075 0.075l-2.769 2.781c-0.506 0.506-0.744 1.181-0.744 1.844 0 0 0 0 0 0.006l0.006 0.238 0.369 5.494c0 0.006 0 0.006 0 0.012v0.106c0 0 0 0 0 0 0.063 0.494 0.263 0.975 0.6 1.375l0.319 0.306 11.819 11.95c0.669 0.587 1.694 0.563 2.331-0.081l0.819-0.825c0.031-0.025 0.056-0.050 0.087-0.081l1.681-1.688c-0.012 0.006-0.019 0.012-0.031 0.025l6.769-6.831c0.663-0.669 0.669-1.762-0.019-2.438v0zM6.912 8.719c0.412-0.25 0.894-0.394 1.412-0.394 1.494 0 2.713 1.213 2.713 2.713 0 0.519-0.144 1-0.394 1.412-0.475 0.781-1.331 1.3-2.313 1.3-1.494 0-2.713-1.213-2.713-2.713-0.006-0.988 0.513-1.844 1.294-2.319z"></path>
</svg>
