<?xml version="1.0" encoding="utf-8"?>
<!-- Generated by IcoMoon.io -->
<!DOCTYPE svg PUBLIC "-//W3C//DTD SVG 1.1//EN" "http://www.w3.org/Graphics/SVG/1.1/DTD/svg11.dtd">
<svg version="1.1" xmlns="http://www.w3.org/2000/svg" xmlns:xlink="http://www.w3.org/1999/xlink" width="32" height="32" viewBox="0 0 32 32">
<path fill="#000" d="M29.438 16.337v0c0 0 0 0 0 0l-13.131-13.225c0 0 0 0 0 0l-0.094-0.094c0 0-0.025 0-0.025 0-0.519-0.494-1.119-0.75-1.869-0.769v0l-6.506-0.244c-0.7 0.013-1.388 0.281-1.919 0.819l-3.075 3.069c-0.563 0.563-0.819 1.306-0.819 2.044 0 0 0 0 0 0.006l0.019 0.263 0.419 6.081c0 0.006 0 0.012 0 0.012v0.119c0 0 0 0 0 0 0.063 0.544 0.281 1.081 0.65 1.525l0.344 0.337 13.088 13.244c0.744 0.656 1.875 0.625 2.581-0.087l10.337-10.413c0.738-0.738 0.75-1.944 0-2.688zM9 12c-1.656 0-3-1.344-3-3s1.344-3 3-3 3 1.344 3 3-1.344 3-3 3z"></path>
</svg>
