<?xml version="1.0" encoding="utf-8"?>
<!-- Generated by IcoMoon.io -->
<!DOCTYPE svg PUBLIC "-//W3C//DTD SVG 1.1//EN" "http://www.w3.org/Graphics/SVG/1.1/DTD/svg11.dtd">
<svg version="1.1" xmlns="http://www.w3.org/2000/svg" xmlns:xlink="http://www.w3.org/1999/xlink" width="32" height="32" viewBox="0 0 32 32">
<path fill="#000" d="M26.488 8h-2.488v-4h-16v4h-2.487c-1.744 0-3.513 1.056-3.513 3.412v7.737c0 2.375 1.769 3.85 3.513 3.85 0 0 1.9 0 2.487 0v7h16v-7c0.644 0 2.488 0 2.488 0 1.744 0 3.512-1.413 3.512-3.35v-8.238c0-2.231-1.762-3.412-3.512-3.412zM23 29h-14v-11h14v11zM23 8h-14v-3h14v3zM26 12h-1.063v-1h1.063v1z"></path>
<path fill="#000" d="M10 20h12v1h-12v-1z"></path>
<path fill="#000" d="M10 23h12v1h-12v-1z"></path>
<path fill="#000" d="M10 26h12v1h-12v-1z"></path>
</svg>
