<?xml version="1.0" encoding="utf-8"?>
<!-- Generated by IcoMoon.io -->
<!DOCTYPE svg PUBLIC "-//W3C//DTD SVG 1.1//EN" "http://www.w3.org/Graphics/SVG/1.1/DTD/svg11.dtd">
<svg version="1.1" xmlns="http://www.w3.org/2000/svg" xmlns:xlink="http://www.w3.org/1999/xlink" width="32" height="32" viewBox="0 0 32 32">
<path fill="#000" d="M8 4c-2.206 0-4 1.794-4 4 0 1.477 0.806 2.769 2 3.462v11.076c-1.194 0.693-2 1.985-2 3.462 0 2.206 1.794 4 4 4s4-1.794 4-4c0-1.477-0.806-2.769-2-3.462v-11.076c1.194-0.693 2-1.985 2-3.462 0-2.206-1.794-4-4-4zM8 28c-1.105 0-2-0.895-2-2s0.895-2 2-2 2 0.895 2 2-0.895 2-2 2zM8 10c-1.105 0-2-0.895-2-2s0.895-2 2-2 2 0.895 2 2-0.895 2-2 2z"></path>
<path fill="#000" d="M25.938 22.502v-9.69c0-2.124-0.656-3.813-1.949-5.018-1.382-1.289-3.395-1.899-5.989-1.819v-3.974l-6 6 6 6v-4c1.656 0 2.667 0.165 3.261 0.719 0.449 0.419 0.677 1.123 0.677 2.093v9.762c-1.16 0.701-1.938 1.974-1.938 3.426 0 2.206 1.794 4 4 4s4-1.794 4-4c0-1.503-0.834-2.814-2.063-3.498zM24 28c-1.105 0-2-0.895-2-2s0.895-2 2-2 2 0.895 2 2-0.895 2-2 2z"></path>
</svg>
