<?xml version="1.0" encoding="utf-8"?>
<!-- Generated by IcoMoon.io -->
<!DOCTYPE svg PUBLIC "-//W3C//DTD SVG 1.1//EN" "http://www.w3.org/Graphics/SVG/1.1/DTD/svg11.dtd">
<svg version="1.1" xmlns="http://www.w3.org/2000/svg" xmlns:xlink="http://www.w3.org/1999/xlink" width="32" height="32" viewBox="0 0 32 32">
<path fill="#000" d="M6 7.761c0-0.434 0.327-0.761 0.761-0.761h4.239v-3h-4.177c-2.091 0-3.823 1.67-3.823 3.761v4.239h3v-4.239z"></path>
<path fill="#000" d="M25.224 4h-4.224v3h4.201c0.434 0 0.799 0.327 0.799 0.761v4.239h3v-4.239c0-2.091-1.685-3.761-3.776-3.761z"></path>
<path fill="#000" d="M26 24.177c0 0.434-0.327 0.761-0.761 0.761h-4.239v3.063h4.239c2.091 0 3.761-1.732 3.761-3.823v-4.177h-3v4.177z"></path>
<path fill="#000" d="M6.761 24.938c-0.434 0-0.761-0.327-0.761-0.761v-4.177h-3v4.177c0 2.091 1.732 3.823 3.823 3.823h4.177v-3.063h-4.239z"></path>
</svg>
