<?xml version="1.0" encoding="utf-8"?>
<!-- Generated by IcoMoon.io -->
<!DOCTYPE svg PUBLIC "-//W3C//DTD SVG 1.1//EN" "http://www.w3.org/Graphics/SVG/1.1/DTD/svg11.dtd">
<svg version="1.1" xmlns="http://www.w3.org/2000/svg" xmlns:xlink="http://www.w3.org/1999/xlink" width="32" height="32" viewBox="0 0 32 32">
<path fill="#000" d="M20 16c0 2.209-1.791 4-4 4s-4-1.791-4-4c0-2.209 1.791-4 4-4s4 1.791 4 4z"></path>
<path fill="#000" d="M9 16c0-2.306 1.16-4.325 2.895-5.44l-1.446-1.532c-0.391 0.288-0.761 0.615-1.105 0.979-1.511 1.601-2.343 3.729-2.343 5.993s0.832 4.392 2.343 5.993c0.344 0.364 0.714 0.691 1.105 0.979l1.446-1.532c-1.735-1.114-2.895-3.133-2.895-5.44z"></path>
<path fill="#000" d="M23 16c0 2.306-1.16 4.325-2.895 5.44l1.446 1.532c0.391-0.288 0.761-0.615 1.105-0.979 1.511-1.601 2.343-3.729 2.343-5.993s-0.832-4.392-2.343-5.993c-0.344-0.364-0.714-0.691-1.105-0.979l-1.446 1.532c1.735 1.114 2.895 3.133 2.895 5.44z"></path>
<path fill="#000" d="M4 16c0-3.474 1.578-6.557 4.016-8.489l-1.427-1.511c-0.375 0.313-0.734 0.65-1.075 1.011-1.101 1.167-1.966 2.526-2.571 4.040-0.626 1.569-0.944 3.234-0.944 4.949s0.318 3.38 0.944 4.949c0.604 1.514 1.47 2.873 2.571 4.040 0.341 0.361 0.7 0.699 1.075 1.011l1.427-1.511c-2.438-1.932-4.016-5.015-4.016-8.489z"></path>
<path fill="#000" d="M28 16c0 3.474-1.578 6.557-4.016 8.489l1.427 1.491c0.375-0.313 0.734-0.629 1.075-0.99 1.101-1.167 1.966-2.526 2.571-4.040 0.626-1.569 0.944-3.234 0.944-4.949s-0.318-3.38-0.944-4.949c-0.605-1.514-1.47-2.873-2.571-4.040-0.341-0.361-0.7-0.699-1.075-1.011l-1.427 1.511c2.438 1.932 4.016 5.015 4.016 8.489z"></path>
</svg>
