<?xml version="1.0" encoding="utf-8"?>
<!-- Generated by IcoMoon.io -->
<!DOCTYPE svg PUBLIC "-//W3C//DTD SVG 1.1//EN" "http://www.w3.org/Graphics/SVG/1.1/DTD/svg11.dtd">
<svg version="1.1" xmlns="http://www.w3.org/2000/svg" xmlns:xlink="http://www.w3.org/1999/xlink" width="32" height="32" viewBox="0 0 32 32">
<path fill="#000" d="M26 22l6-6.994h-4.044c-0.144-1.744-0.656-3.375-1.469-4.831-1.712-3.075-4.738-5.319-8.313-5.975-0.044-0.006-0.094-0.019-0.137-0.025-0.031-0.006-0.056-0.013-0.087-0.013-0.631-0.106-1.288-0.162-1.95-0.162-0.006 0-0.019 0-0.025 0 0 0 0 0 0 0-5.681 0.013-10.438 3.975-11.669 9.288 0 0 0 0.006 0 0.006-0.019 0.069-0.031 0.137-0.044 0.206-0.006 0.031-0.013 0.056-0.019 0.088-0.006 0.044-0.019 0.088-0.025 0.131-0.013 0.056-0.019 0.106-0.031 0.162-0.006 0.025-0.006 0.044-0.013 0.069-0.013 0.075-0.025 0.15-0.037 0.225 0 0.006 0 0.006 0 0.012-0.063 0.394-0.1 0.794-0.119 1.194 0 0.019 0 0.037 0 0.050-0.006 0.088-0.006 0.169-0.013 0.256 0 0.1-0.006 0.206-0.006 0.313s0 0.206 0.006 0.313c0 0.087 0.006 0.169 0.013 0.256 0 0.019 0 0.038 0 0.056 0.019 0.406 0.063 0.806 0.119 1.194 0 0.006 0 0.006 0 0.012 0.013 0.075 0.025 0.15 0.037 0.225 0.006 0.025 0.006 0.044 0.013 0.069 0.013 0.056 0.019 0.113 0.031 0.163 0.006 0.044 0.019 0.087 0.025 0.131 0.006 0.031 0.013 0.063 0.019 0.087 0.013 0.069 0.031 0.137 0.044 0.2 0 0 0 0.006 0 0.006 1.231 5.313 6.006 9.275 11.694 9.288 2.681-0.006 5.194-0.887 7.306-2.544l0.469-0.369-2.7-2.887-0.387 0.288c-1.381 1.019-2.969 1.512-4.688 1.512-4.412 0-8-3.563-8-8s3.588-8 8-8c4.15 0 7.675 2.912 8.094 7h-4.594l6.5 7z"></path>
</svg>
