<?xml version="1.0" encoding="utf-8"?>
<!-- Generated by IcoMoon.io -->
<!DOCTYPE svg PUBLIC "-//W3C//DTD SVG 1.1//EN" "http://www.w3.org/Graphics/SVG/1.1/DTD/svg11.dtd">
<svg version="1.1" xmlns="http://www.w3.org/2000/svg" xmlns:xlink="http://www.w3.org/1999/xlink" width="32" height="32" viewBox="0 0 32 32">
<path fill="#000" d="M16 4.5c-3.033 0-5.5 2.467-5.5 5.5s2.467 5.5 5.5 5.5 5.5-2.467 5.5-5.5-2.467-5.5-5.5-5.5z"></path>
<path fill="#000" d="M16 2c-4.418 0-8 3.582-8 8s3.582 8 8 8 8-3.582 8-8-3.582-8-8-8zM16 16c-3.314 0-6-2.686-6-6s2.686-6 6-6 6 2.686 6 6-2.686 6-6 6z"></path>
<path fill="#000" d="M9.193 15.888l-5.193 9.112h6l3 5 5.103-11.248c-0.675 0.162-1.378 0.248-2.103 0.248-2.719 0-5.156-1.206-6.807-3.112z"></path>
<path fill="#000" d="M22.807 15.888c-0.942 1.088-2.141 1.948-3.503 2.486l-2.797 6.131 2.493 5.495 3-5h6l-5.193-9.112z"></path>
</svg>
