<?xml version="1.0" encoding="utf-8"?>
<!-- Generated by IcoMoon.io -->
<!DOCTYPE svg PUBLIC "-//W3C//DTD SVG 1.1//EN" "http://www.w3.org/Graphics/SVG/1.1/DTD/svg11.dtd">
<svg version="1.1" xmlns="http://www.w3.org/2000/svg" xmlns:xlink="http://www.w3.org/1999/xlink" width="32" height="32" viewBox="0 0 32 32">
<path fill="#000" d="M22 2l-5.181 11.038c2.5 0.226 4.705 1.472 6.194 3.321l3.988-8.359-5-6z"></path>
<path fill="#000" d="M10 2l5.181 11.038c-2.5 0.226-4.705 1.472-6.194 3.321l-3.988-8.359 5-6z"></path>
<path fill="#000" d="M16.818 2h-5.818l3.286 7h3.428l3.286-7z"></path>
<path fill="#000" d="M16 14c-4.418 0-8 3.582-8 8s3.582 8 8 8 8-3.582 8-8-3.582-8-8-8zM16 28c-3.314 0-6-2.686-6-6s2.686-6 6-6 6 2.686 6 6-2.686 6-6 6z"></path>
<path fill="#000" d="M16 16.5c-3.033 0-5.5 2.467-5.5 5.5s2.467 5.5 5.5 5.5 5.5-2.467 5.5-5.5-2.467-5.5-5.5-5.5z"></path>
</svg>
