<?xml version="1.0" encoding="utf-8"?>
<!-- Generated by IcoMoon.io -->
<!DOCTYPE svg PUBLIC "-//W3C//DTD SVG 1.1//EN" "http://www.w3.org/Graphics/SVG/1.1/DTD/svg11.dtd">
<svg version="1.1" xmlns="http://www.w3.org/2000/svg" xmlns:xlink="http://www.w3.org/1999/xlink" width="32" height="32" viewBox="0 0 32 32">
<path fill="#000" d="M16 2c-7.732 0-14 6.268-14 14s6.268 14 14 14 14-6.268 14-14-6.268-14-14-14zM9.066 18.231c-0.097 0.309-0.351 0.545-0.668 0.663-0.21 0.078-0.426 0.111-0.64 0.059-0.554-0.137-0.87-0.682-0.703-1.215 0.319-1.024 0.889-1.875 2.113-2.329s2.204-0.18 3.117 0.384c0.476 0.294 0.627 0.876 0.263 1.383-0.128 0.178-0.314 0.295-0.524 0.373-0.316 0.117-0.662 0.105-0.935-0.065-0.299-0.185-0.665-0.408-1.225-0.2-0.563 0.209-0.694 0.615-0.797 0.948zM21.572 23.841c-0.174 0.122-0.374 0.18-0.572 0.18-0.316 0-0.626-0.149-0.821-0.428-0.011-0.016-1.18-1.593-4.18-1.593-2.999 0-4.169 1.577-4.18 1.593-0.194 0.279-0.505 0.428-0.821 0.428-0.198 0-0.397-0.058-0.571-0.18-0.453-0.316-0.564-0.939-0.248-1.392 0.069-0.099 1.741-2.448 5.82-2.448 4.063 0 5.751 2.349 5.82 2.448 0.316 0.453 0.205 1.076-0.248 1.392zM24.252 18.953c-0.214 0.052-0.43 0.019-0.64-0.059-0.317-0.118-0.571-0.353-0.668-0.663-0.103-0.333-0.234-0.739-0.797-0.948-0.56-0.208-0.927 0.015-1.225 0.2-0.274 0.17-0.619 0.182-0.935 0.065-0.21-0.078-0.395-0.194-0.523-0.373-0.363-0.506-0.213-1.088 0.263-1.383 0.913-0.564 1.893-0.839 3.117-0.384s1.794 1.305 2.113 2.329c0.166 0.534-0.149 1.079-0.703 1.215z"></path>
</svg>
