<?xml version="1.0" encoding="utf-8"?>
<!-- Generated by IcoMoon.io -->
<!DOCTYPE svg PUBLIC "-//W3C//DTD SVG 1.1//EN" "http://www.w3.org/Graphics/SVG/1.1/DTD/svg11.dtd">
<svg version="1.1" xmlns="http://www.w3.org/2000/svg" xmlns:xlink="http://www.w3.org/1999/xlink" width="32" height="32" viewBox="0 0 32 32">
<path fill="#000" d="M25.324 7.229c0.832-2.042 1.082-4-0.333-5.229l-9.008 12-1.061 1.438c0 0-1.727 2.501-2.33 3.667s-1.207 2.458-1.706 3.375c-0.438 0.804-0.652 0.951-0.895 0.722-0.032-0.037-0.064-0.073-0.097-0.108-0.002-0.003-0.005-0.006-0.007-0.009-0.071-0.092-0.172-0.188-0.29-0.279-0.585-0.505-1.313-0.805-2.102-0.805-1.93 0-3.495 1.791-3.495 4s1.565 4 3.495 4c1.58 0 2.915-1.2 3.347-2.848l-0 0.003c0 0 0.835-2.593 2.041-4.468s3.1-2.688 3.1-2.688l1.997-2c0 0 6.511-8.729 7.344-10.771zM7.495 28c-0.964 0-1.745-0.897-1.745-2s0.781-2 1.745-2c0.964 0 1.745 0.897 1.745 2s-0.781 2-1.745 2zM16 18c-0.552 0-1-0.448-1-1s0.448-1 1-1c0.552 0 1 0.448 1 1s-0.448 1-1 1z"></path>
<path fill="#000" d="M12.955 16.578c0.574-0.882 1.104-1.652 1.144-1.709l0.009-0.013 0.009-0.013 1.066-1.444 0.184-0.245-8.373-11.155c-1.415 1.229-1.165 3.188-0.333 5.229 0.622 1.526 4.417 6.789 6.294 9.349z"></path>
<path fill="#000" d="M24.489 22c-0.789 0-1.517 0.3-2.102 0.805-0.118 0.092-0.218 0.187-0.29 0.279-0.002 0.003-0.005 0.006-0.007 0.009-0.033 0.035-0.065 0.072-0.097 0.108-0.243 0.23-0.457 0.083-0.895-0.722-0.499-0.917-1.103-2.209-1.706-3.375-0.111-0.214-0.259-0.473-0.428-0.752-0.079 0.107-0.142 0.19-0.183 0.246l-0.043 0.058-0.051 0.051-1.793 1.796c0.652 0.428 1.535 1.142 2.207 2.185 1.207 1.875 2.041 4.468 2.041 4.468l-0-0.003c0.432 1.647 1.767 2.848 3.347 2.848 1.93 0 3.511-1.791 3.511-4s-1.581-4-3.511-4zM24.489 28c-0.964 0-1.745-0.897-1.745-2s0.781-2 1.745-2c0.964 0 1.745 0.897 1.745 2s-0.781 2-1.745 2z"></path>
</svg>
