<?xml version="1.0" encoding="utf-8"?>
<!-- Generated by IcoMoon.io -->
<!DOCTYPE svg PUBLIC "-//W3C//DTD SVG 1.1//EN" "http://www.w3.org/Graphics/SVG/1.1/DTD/svg11.dtd">
<svg version="1.1" xmlns="http://www.w3.org/2000/svg" xmlns:xlink="http://www.w3.org/1999/xlink" width="32" height="32" viewBox="0 0 32 32">
<path fill="#000" d="M28.125 8.644l-2.981 3.031-0.169 0.175-0.1 0.106c-0.069 0.050-0.15 0.075-0.244 0.075-0.1 0-0.194-0.037-0.269-0.1l-0.225-0.225-2.825-2.875c-0.063-0.094-0.1-0.213-0.1-0.331 0-0.106 0.038-0.2 0.1-0.275l0.044-0.050 0.163-0.162 2.994-3.044c-0.319-0.631-1.544-0.931-2.194-0.881-1.069 0.081-2.169 0.438-3.3 1.594-0.044 0.050-0.094 0.1-0.137 0.144-1.538 1.675-1.844 3.925-1.219 5.988 0.044 0.088 0.081 0.194 0.1 0.287 0.069 0.344-0.025 0.637-0.25 0.844l-2.369 2.275c-0.738-0.75-0.844-0.85-0.844-0.85-0.125-0.125-0.375-0.206-0.594-0.075l-0.369 0.225c-1.419-1.444-2.019-2.025-2.213-2.725-0.2-0.731-0.019-1.706 0.169-2.069 0.156-0.287 0.644-0.556 1.056-0.588l0.537 0.55c0.125 0.125 0.319 0.125 0.444 0l1.931-1.963c0.125-0.125 0.125-0.331 0-0.456l-3.119-3.169c-0.125-0.125-0.325-0.125-0.444 0l-1.931 1.963c-0.125 0.125-0.125 0.331 0 0.456l0.206 0.213c0 0.306-0.044 0.781-0.294 1.038-0.387 0.394-1.156-0.063-1.656 0.294-0.494 0.35-1.119 0.912-1.519 1.313-0.394 0.4-1.906 1.988-2.987 4.662s-0.25 5.156 0.337 5.806c0.313 0.344 0.881 0.694 0.781 0.044-0.1-0.656-0.263-2.931 0.481-3.863s1.725-1.694 3-1.756c1.225-0.063 1.931 0.356 3.519 1.969l-0.175 0.325c-0.113 0.212-0.050 0.481 0.075 0.606 0 0 0.094 0.1 0.756 0.775l-6.075 5.825c-1.013 0.894-0.956 2.531-0.019 3.5 0.95 0.95 2.569 1.019 3.45-0.012l5.713-6.163c3.069 3.269 5.831 6.712 5.831 6.712 0.125 0.125 0.325 0.125 0.444 0l3.119-3.169c0.125-0.125 0.125-0.325 0-0.456 0 0-3.45-2.856-6.688-6.012l2.219-2.394c0.206-0.231 0.494-0.325 0.831-0.256 0.094 0.019 0.194 0.063 0.281 0.106 2.025 0.638 4.238 0.325 5.875-1.238 0.050-0.044 0.094-0.094 0.144-0.144 1.131-1.15 1.481-2.275 1.563-3.362 0.063-0.662-0.219-1.894-0.856-2.238z"></path>
</svg>
