<?xml version="1.0" encoding="utf-8"?>
<!-- Generated by IcoMoon.io -->
<!DOCTYPE svg PUBLIC "-//W3C//DTD SVG 1.1//EN" "http://www.w3.org/Graphics/SVG/1.1/DTD/svg11.dtd">
<svg version="1.1" xmlns="http://www.w3.org/2000/svg" xmlns:xlink="http://www.w3.org/1999/xlink" width="32" height="32" viewBox="0 0 32 32">
<path fill="#000" d="M23.131 11.331h1.806v2.956l5.063-5.2-5.063-5.088v3.375h-1.806c-5.169 0-8.088 3.869-10.662 7.281-2.313 3.069-4.313 5.963-7.537 5.963h-2.931v3.956h2.931c5.169 0 8.088-4.113 10.662-7.525 2.312-3.069 4.306-5.719 7.537-5.719zM9.575 13.594c0.219-0.287 0.444-0.581 0.669-0.881 0.55-0.725 1.125-1.494 1.75-2.256-1.85-1.744-4.081-3.031-7.063-3.031h-2.931v3.956c0 0 0.831-0.037 2.931 0 2.031 0.044 3.306 0.881 4.644 2.213zM24.938 20.65h-1.806c-1.969 0-3.481-0.988-4.887-2.456-0.137 0.188-0.281 0.375-0.425 0.563-0.619 0.819-1.281 1.7-2.012 2.569 1.9 1.869 4.2 3.281 7.325 3.281h1.806v3.394l5.063-5.087-5.063-5.2v2.938z"></path>
</svg>
