<?xml version="1.0" encoding="utf-8"?>
<!-- Generated by IcoMoon.io -->
<!DOCTYPE svg PUBLIC "-//W3C//DTD SVG 1.1//EN" "http://www.w3.org/Graphics/SVG/1.1/DTD/svg11.dtd">
<svg version="1.1" xmlns="http://www.w3.org/2000/svg" xmlns:xlink="http://www.w3.org/1999/xlink" width="32" height="32" viewBox="0 0 32 32">
<path fill="#000" d="M4.731 6h0.506c0.419 0 0.763 0.313 0.763 0.731v7.094l11.694-7.656c0.156-0.106 0.319-0.144 0.506-0.144 0.519 0 0.962 0.438 0.962 1.063v3.944l7.406-4.888c0.156-0.106 0.313-0.144 0.506-0.144 0.519 0 0.931 0.463 0.931 1.088v17.875c0 0.625-0.419 1.031-0.938 1.031-0.194 0-0.337-0.075-0.512-0.181l-7.394-4.85v4c0 0.625-0.45 1.031-0.969 1.031-0.194 0-0.344-0.075-0.512-0.181l-11.681-7.637v7.063c0 0.419-0.338 0.762-0.763 0.762h-0.506c-0.419 0-0.731-0.344-0.731-0.762v-18.506c0-0.419 0.306-0.731 0.731-0.731z"></path>
</svg>
