<?xml version="1.0" encoding="utf-8"?>
<!-- Generated by IcoMoon.io -->
<!DOCTYPE svg PUBLIC "-//W3C//DTD SVG 1.1//EN" "http://www.w3.org/Graphics/SVG/1.1/DTD/svg11.dtd">
<svg version="1.1" xmlns="http://www.w3.org/2000/svg" xmlns:xlink="http://www.w3.org/1999/xlink" width="32" height="32" viewBox="0 0 32 32">
<path fill="#000" d="M16 2c-7.731 0-14 6.431-14 14.356 0 6.344 4.013 11.719 9.575 13.619 0.088 0.019 0.162 0.025 0.238 0.025 0.519 0 0.719-0.381 0.719-0.712 0-0.344-0.012-1.244-0.019-2.444-0.525 0.119-0.994 0.169-1.412 0.169-2.694 0-3.306-2.094-3.306-2.094-0.638-1.656-1.556-2.1-1.556-2.1-1.219-0.856-0.006-0.881 0.088-0.881 0.006 0 0.006 0 0.006 0 1.406 0.125 2.144 1.488 2.144 1.488 0.7 1.225 1.637 1.569 2.475 1.569 0.656 0 1.25-0.212 1.6-0.375 0.125-0.925 0.488-1.556 0.887-1.919-3.106-0.363-6.375-1.594-6.375-7.094 0-1.569 0.544-2.85 1.438-3.85-0.144-0.363-0.625-1.825 0.137-3.8 0 0 0.1-0.031 0.313-0.031 0.506 0 1.65 0.194 3.537 1.506 1.119-0.319 2.313-0.475 3.506-0.481 1.188 0.006 2.387 0.162 3.506 0.481 1.887-1.313 3.031-1.506 3.538-1.506 0.212 0 0.313 0.031 0.313 0.031 0.762 1.975 0.281 3.438 0.137 3.8 0.894 1.006 1.438 2.287 1.438 3.85 0 5.513-3.275 6.725-6.394 7.081 0.5 0.444 0.95 1.319 0.95 2.656 0 1.919-0.019 3.469-0.019 3.938 0 0.337 0.194 0.719 0.712 0.719 0.075 0 0.163-0.006 0.25-0.025 5.569-1.9 9.575-7.281 9.575-13.619 0-7.925-6.269-14.356-14-14.356z"></path>
</svg>
