<?xml version="1.0" encoding="utf-8"?>
<!-- Generated by IcoMoon.io -->
<!DOCTYPE svg PUBLIC "-//W3C//DTD SVG 1.1//EN" "http://www.w3.org/Graphics/SVG/1.1/DTD/svg11.dtd">
<svg version="1.1" xmlns="http://www.w3.org/2000/svg" xmlns:xlink="http://www.w3.org/1999/xlink" width="32" height="32" viewBox="0 0 32 32">
<path fill="#000" d="M25.656 17.45c-0.313-0.719-0.794-1.35-1.756-1.881-0.512-0.281-1.006-0.488-1.587-0.625 0.337-0.156 0.625-0.338 1.019-0.688 0.469-0.412 0.819-0.981 0.975-1.456 0.163-0.469 0.256-1.125 0.219-1.762-0.069-1.050-0.275-2.069-0.825-2.8s-1.325-1.294-2.35-1.688c-0.788-0.3-1.594-0.487-2.844-0.556v-3.994h-2.5v4h-2v-4h-2.563v4h-5.444v3h1.744c0.544 0 0.912 0.050 1.1 0.144 0.194 0.094 0.331 0.219 0.406 0.375 0.081 0.156 0.119 0.525 0.119 1.094v10.825c0 0.563-0.037 0.925-0.119 1.087s-0.125 0.306-0.319 0.394c-0.194 0.087-0.2 0.081-0.738 0.081h-1.65l-0.544 3h5.437v4h2.563v-4h2v4h2.5v-4.025c1.625-0.081 2.781-0.294 3.712-0.644 1.206-0.45 2.131-1.106 2.794-1.969s0.931-2.181 0.988-3.2c0.044-0.906-0.056-2.075-0.337-2.712zM14 9.375h2v4.625h-2v-4.625zM14 22.625v-5.625h2v5.625h-2zM18.5 9.619c0.375 0.156 0.619 0.469 0.863 0.794 0.269 0.356 0.406 0.831 0.406 1.338 0 0.488-0.181 0.906-0.469 1.281-0.238 0.306-0.425 0.519-0.8 0.694v-4.106zM20.3 21.288c-0.488 0.431-0.769 0.631-1.381 0.863-0.125 0.050-0.294 0.087-0.419 0.119v-5.175c0.313 0.050 0.475 0.113 0.706 0.212 0.488 0.206 0.95 0.431 1.238 0.825s0.5 0.975 0.5 1.544c0 0.681-0.175 1.2-0.644 1.613z"></path>
</svg>
