<?xml version="1.0" encoding="utf-8"?>
<!-- Generated by IcoMoon.io -->
<!DOCTYPE svg PUBLIC "-//W3C//DTD SVG 1.1//EN" "http://www.w3.org/Graphics/SVG/1.1/DTD/svg11.dtd">
<svg version="1.1" xmlns="http://www.w3.org/2000/svg" xmlns:xlink="http://www.w3.org/1999/xlink" width="32" height="32" viewBox="0 0 32 32">
<path fill="#000" d="M28.031 7c0-1.64-1.329-2.969-2.969-2.969h-18.063c-1.64 0-2.969 1.329-2.969 2.969v18.063c0 1.64 1.329 2.969 2.969 2.969h18.063c1.64 0 2.969-1.329 2.969-2.969v-18.063zM16.063 10.99c2.761 0 5 2.239 5 5s-2.239 5-5 5-5-2.239-5-5 2.239-5 5-5zM26.031 10.031c0 0.552-0.448 1-1 1h-3c-0.552 0-1-0.448-1-1v-3c0-0.552 0.448-1 1-1h3c0.552 0 1 0.448 1 1v3zM25.094 26.031h-18c-0.551 0-1.063-0.511-1.063-1.063v-10.938h3.317c-0.188 0.625-0.286 1.29-0.286 1.974 0 1.87 0.728 3.62 2.050 4.942s3.080 2.046 4.95 2.046 3.628-0.73 4.95-2.052 2.050-3.065 2.050-4.935c0-0.684-0.098-1.35-0.286-1.975h3.255v10.938c0 0.551-0.386 1.063-0.938 1.063z"></path>
</svg>
