<?xml version="1.0" encoding="utf-8"?>
<!-- Generated by IcoMoon.io -->
<!DOCTYPE svg PUBLIC "-//W3C//DTD SVG 1.1//EN" "http://www.w3.org/Graphics/SVG/1.1/DTD/svg11.dtd">
<svg version="1.1" xmlns="http://www.w3.org/2000/svg" xmlns:xlink="http://www.w3.org/1999/xlink" width="32" height="32" viewBox="0 0 32 32">
<path fill="#000" d="M11.425 24v-10.694h-3.431v10.694h3.431zM9.838 11.688c1.144 0 1.856-0.819 1.856-1.844-0.019-1.044-0.713-1.844-1.838-1.844s-1.856 0.8-1.856 1.844c0 1.025 0.712 1.844 1.813 1.844h0.025z"></path>
<path fill="#000" d="M20.038 13.063c-1.819 0-2.6 1.025-3.1 1.738v-1.488h-3.438v10.688h3.438v-6.087c0-0.313 0.025-0.625 0.119-0.844 0.25-0.625 0.813-1.269 1.762-1.269 1.244 0 1.744 0.956 1.744 2.356v5.844h3.438v-6.244c0-3.206-1.7-4.694-3.962-4.694z"></path>
<path fill="#000" d="M26.075 4h-20.025c-1.094 0-2.050 0.787-2.050 1.869v20.069c0 1.087 0.956 2.056 2.050 2.056h20.019c1.1 0 1.925-0.975 1.925-2.056v-20.069c0.006-1.081-0.825-1.869-1.919-1.869zM25.875 26c-0.069 0-19.569 0-19.681 0s-0.194-0.087-0.194-0.194 0-19.613 0-19.681 0.063-0.125 0.125-0.125 19.688 0 19.75 0 0.125 0.063 0.125 0.125c0 1.456 0 19.681 0 19.75 0 0.056-0.056 0.125-0.125 0.125z"></path>
</svg>
