<?xml version="1.0" encoding="utf-8"?>
<!-- Generated by IcoMoon.io -->
<!DOCTYPE svg PUBLIC "-//W3C//DTD SVG 1.1//EN" "http://www.w3.org/Graphics/SVG/1.1/DTD/svg11.dtd">
<svg version="1.1" xmlns="http://www.w3.org/2000/svg" xmlns:xlink="http://www.w3.org/1999/xlink" width="32" height="32" viewBox="0 0 32 32">
<path fill="#000" d="M24.222 12.733c-2.571-1.708-5.139-3.42-7.704-5.137-0.365-0.245-0.695-0.238-1.059 0.006-2.549 1.707-5.114 3.409-7.67 5.105-0.319 0.211-0.476 0.473-0.476 0.857v4.983c0 0.386 0.155 0.646 0.475 0.858 2.557 1.696 5.115 3.398 7.664 5.105 0.363 0.243 0.696 0.253 1.061 0.009 2.565-1.717 5.134-3.43 7.705-5.137 0.304-0.202 0.469-0.457 0.469-0.818v-5.039c0-0.357-0.173-0.597-0.466-0.791zM16.75 9.53l5.816 3.889-2.484 1.654c-0.057 0.038-0.183 0.038-0.24 0-0.997-0.656-1.988-1.32-2.977-1.988-0.065-0.044-0.114-0.145-0.115-0.22v-3.334zM15.25 9.548v3.232c-0.002 0.114-0.082 0.27-0.175 0.333-0.954 0.653-1.916 1.294-2.882 1.929-0.073 0.048-0.222 0.072-0.285 0.030-0.82-0.533-1.63-1.080-2.487-1.653 1.952-1.301 5.829-3.871 5.829-3.871zM8.813 14.82l1.851 1.236-1.851 1.24v-2.476zM15.25 22.582c0 0-3.877-2.588-5.825-3.887l2.429-1.635c0.13-0.090 0.217-0.084 0.344 0.002 0.957 0.648 1.921 1.286 2.879 1.933 0.075 0.051 0.172 0.148 0.173 0.225v3.362zM16.184 17.681c-0.114 0.069-0.282 0.065-0.391-0.007l-2.428-1.617c0 0 1.069-0.718 1.585-1.064 0.294-0.197 0.584-0.4 0.885-0.585 0.071-0.043 0.221-0.061 0.296-0.011 0.361 0.239 2.491 1.658 2.491 1.658l-2.438 1.625zM16.75 22.569v-3.209c-0.002-0.179 0.028-0.288 0.179-0.387 0.95-0.625 1.896-1.257 2.837-1.896 0.146-0.099 0.245-0.101 0.392-0.001l2.408 1.618-5.815 3.875zM23.125 17.292l-1.849-1.234 1.849-1.242v2.476z"></path>
<path fill="#000" d="M16 4c3.205 0 6.219 1.248 8.485 3.515s3.515 5.28 3.515 8.485-1.248 6.219-3.515 8.485c-2.267 2.266-5.28 3.515-8.485 3.515s-6.219-1.248-8.485-3.515c-2.266-2.267-3.515-5.28-3.515-8.485s1.248-6.219 3.515-8.485c2.267-2.266 5.28-3.515 8.485-3.515zM16 2c-7.732 0-14 6.268-14 14s6.268 14 14 14 14-6.268 14-14-6.268-14-14-14v0z"></path>
</svg>
