<?xml version="1.0" encoding="utf-8"?>
<!-- Generated by IcoMoon.io -->
<!DOCTYPE svg PUBLIC "-//W3C//DTD SVG 1.1//EN" "http://www.w3.org/Graphics/SVG/1.1/DTD/svg11.dtd">
<svg version="1.1" xmlns="http://www.w3.org/2000/svg" xmlns:xlink="http://www.w3.org/1999/xlink" width="32" height="32" viewBox="0 0 32 32">
<path fill="#000" d="M21 15.99c0 2.761-2.239 5-5 5s-5-2.239-5-5c0-2.761 2.239-5 5-5s5 2.239 5 5z"></path>
<path fill="#000" d="M11.113 11.055c1.322-1.322 3.080-2.058 4.95-2.058s3.628 0.74 4.95 2.062c0.839 0.839 1.438 1.847 1.765 2.972h5.255v-7.063c0-1.657-1.281-2.938-2.938-2.938h-18c-1.657 0-3.063 1.281-3.063 2.938v7.063h5.317c0.326-1.125 0.926-2.137 1.765-2.976zM26.031 9.231c0 0.442-0.358 0.8-0.8 0.8h-2.4c-0.442 0-0.8-0.358-0.8-0.8v-2.4c0-0.442 0.358-0.8 0.8-0.8h2.4c0.442 0 0.8 0.358 0.8 0.8v2.4z"></path>
<path fill="#000" d="M21.012 20.955c-1.322 1.322-3.080 2.042-4.95 2.042s-3.628-0.716-4.95-2.038c-1.32-1.32-2.047-3.115-2.050-4.928h-5.031v8.938c0 1.657 1.406 3.063 3.063 3.063h18c1.657 0 2.938-1.406 2.938-3.063v-8.938h-4.969c-0.003 1.813-0.73 3.604-2.050 4.924z"></path>
</svg>
