<?xml version="1.0" encoding="utf-8"?>
<!-- Generated by IcoMoon.io -->
<!DOCTYPE svg PUBLIC "-//W3C//DTD SVG 1.1//EN" "http://www.w3.org/Graphics/SVG/1.1/DTD/svg11.dtd">
<svg version="1.1" xmlns="http://www.w3.org/2000/svg" xmlns:xlink="http://www.w3.org/1999/xlink" width="32" height="32" viewBox="0 0 32 32">
<path fill="#000" d="M11.147 17.967c-0.57 0-1.058 0.263-1.45 0.802-0.393 0.53-0.587 1.186-0.587 1.964 0 0.78 0.198 1.438 0.587 1.969 0.392 0.534 0.877 0.798 1.45 0.798 0.531 0 0.993-0.267 1.383-0.798 0.392-0.531 0.587-1.19 0.587-1.969 0-0.776-0.198-1.433-0.587-1.964-0.39-0.537-0.848-0.802-1.383-0.802z"></path>
<path fill="#000" d="M20.917 17.967c-0.565 0-1.056 0.263-1.449 0.802-0.392 0.53-0.585 1.186-0.585 1.964 0 0.78 0.199 1.438 0.585 1.969 0.393 0.534 0.881 0.798 1.449 0.798 0.533 0 0.994-0.267 1.386-0.798 0.393-0.531 0.589-1.19 0.589-1.969 0-0.776-0.198-1.433-0.589-1.964-0.392-0.537-0.847-0.802-1.386-0.802z"></path>
<path fill="#000" d="M27.861 10.75h-0.004c0 0 0.175-0.892 0.020-2.449-0.136-1.557-0.467-2.99-1.008-4.301 0 0-0.276 0.048-0.797 0.181s-1.38 0.394-2.559 0.923c-1.159 0.534-2.374 1.237-3.644 2.094-0.863-0.246-2.151-0.371-3.875-0.371-1.643 0-2.932 0.126-3.874 0.372-2.787-1.929-5.114-2.997-7.006-3.198-0.537 1.311-0.868 2.749-1.003 4.311-0.15 1.559 0.027 2.458 0.027 2.458-1.516 1.641-2.14 4.015-2.14 5.968 0 1.515 0.041 2.88 0.383 4.093 0.348 1.207 0.791 2.196 1.319 2.951 0.538 0.758 1.188 1.424 1.973 1.996 0.779 0.582 1.499 0.998 2.149 1.264 0.654 0.273 1.398 0.475 2.249 0.616 0.833 0.149 1.465 0.228 1.905 0.25 0 0 1.75 0.093 4.022 0.093s4.018-0.093 4.018-0.093c0.439-0.022 1.072-0.102 1.908-0.25 0.847-0.144 1.595-0.35 2.246-0.616 0.65-0.268 1.371-0.681 2.154-1.264 0.783-0.564 1.432-1.234 1.97-1.996 0.527-0.756 0.968-1.744 1.319-2.951 0.343-1.213 0.384-2.587 0.384-4.102-0-1.891-0.626-4.29-2.139-5.978zM23.774 25.353c-1.741 0.818-4.306 1.147-7.708 1.147l-0.134-0.002c-3.403 0-5.96-0.328-7.678-1.151-1.719-0.818-2.579-2.504-2.579-5.046 0-1.521 0.536-2.749 1.593-3.694 0.46-0.407 1.027-0.689 1.728-0.857 0.696-0.16 1.335-0.173 1.936-0.154 0.587 0.026 1.409 0.137 2.459 0.216 1.049 0.081 1.831 0.188 2.61 0.188 0.731 0 1.701-0.122 3.257-0.247 1.562-0.123 2.718-0.186 3.467-0.063 0.768 0.125 1.437 0.388 2.008 0.921 1.108 0.984 1.663 2.219 1.663 3.693-0 2.542-0.884 4.229-2.62 5.049z"></path>
</svg>
