<?xml version="1.0" encoding="utf-8"?>
<!-- Generated by IcoMoon.io -->
<!DOCTYPE svg PUBLIC "-//W3C//DTD SVG 1.1//EN" "http://www.w3.org/Graphics/SVG/1.1/DTD/svg11.dtd">
<svg version="1.1" xmlns="http://www.w3.org/2000/svg" xmlns:xlink="http://www.w3.org/1999/xlink" width="32" height="32" viewBox="0 0 32 32">
<path fill="#000" d="M15.995 30c-0.361 0-0.721-0.098-1.040-0.287l-3.312-2.027c-0.495-0.285-0.251-0.388-0.090-0.446 0.66-0.236 0.857-0.354 1.559-0.768 0.075-0.042 0.172-0.026 0.247 0.020l2.482 1.469c0.092 0.053 0.222 0.053 0.308 0l9.699-5.765c0.092-0.055 0.151-0.165 0.151-0.278v-11.675c0-0.116-0.059-0.225-0.153-0.283l-9.695-5.917c-0.092-0.056-0.214-0.056-0.306 0l-9.689 5.919c-0.096 0.056-0.157 0.169-0.157 0.281v11.675c0 0.113 0.061 0.22 0.155 0.274l2.496 1.498c1.476 0.763 2.349-0.011 2.349-0.913v-11.481c0-0.166 0.128-0.295 0.287-0.295h1.426c0.157 0 0.287 0.13 0.287 0.295v11.481c0 2.035-1.21 3.203-3.075 3.203-0.572 0-1.025 0-2.284-0.642l-2.599-1.549c-0.643-0.384-1.042-1.103-1.042-1.872v-11.842c0-0.77 0.398-1.486 1.042-1.87l9.918-5.929c0.627-0.367 1.461-0.367 2.083 0l9.916 5.929c0.644 0.384 1.042 1.102 1.042 1.87v11.842c0 0.769-0.398 1.484-1.042 1.872l-9.916 5.923c-0.319 0.19-0.677 0.287-1.044 0.287l-0.004 0.001z"></path>
<path fill="#000" d="M19.059 22c-4.038 0-5.25-1.976-5.25-3.704 0-0.164 0.128-0.296 0.285-0.296h1.283c0.143 0 0.264 0.106 0.285 0.251 0.193 1.35 1.047 1.947 3.395 1.947 2.087 0 2.943-0.647 2.943-1.793 0-0.662-0.216-1.151-3.463-1.481-2.714-0.278-4.393-0.898-4.393-3.143 0-2.071 1.687-3.281 4.515-3.281 2.883 0 4.779 0.875 4.948 3.177 0.006 0.084-0.023 0.164-0.078 0.228-0.054 0.060-0.13 0.095-0.21 0.095h-1.287c-0.134 0-0.252-0.098-0.279-0.232-0.275-1.060-1.061-1.463-3.098-1.463-2.28 0-2.547 0.797-2.547 1.413 0 0.748 0.314 0.965 3.393 1.386 3.048 0.416 4.496 1.007 4.496 3.222 0 2.236-1.8 3.674-4.942 3.674l0.002 0z"></path>
</svg>
