<?xml version="1.0" encoding="utf-8"?>
<!-- Generated by IcoMoon.io -->
<!DOCTYPE svg PUBLIC "-//W3C//DTD SVG 1.1//EN" "http://www.w3.org/Graphics/SVG/1.1/DTD/svg11.dtd">
<svg version="1.1" xmlns="http://www.w3.org/2000/svg" xmlns:xlink="http://www.w3.org/1999/xlink" width="32" height="32" viewBox="0 0 32 32">
<path fill="#000" d="M4.419 10.281l10.575 5.106c0.275 0.131 0.644 0.2 1.006 0.2s0.731-0.069 1.006-0.2l10.575-5.106c0.556-0.269 0.556-0.706 0-0.975l-10.575-5.106c-0.275-0.131-0.644-0.2-1.006-0.2s-0.731 0.069-1.006 0.2l-10.575 5.106c-0.556 0.269-0.556 0.706 0 0.975z"></path>
<path fill="#000" d="M27.581 15.512c0 0-1.931-0.931-2.188-1.056s-0.325-0.119-0.594 0.006-7.8 3.762-7.8 3.762c-0.281 0.131-0.644 0.2-1.006 0.2s-0.731-0.069-1.006-0.2c0 0-7.331-3.537-7.675-3.706-0.375-0.181-0.481-0.181-0.819-0.019-0.35 0.169-2.087 1.006-2.087 1.006-0.556 0.269-0.556 0.706 0 0.975l10.575 5.106c0.275 0.131 0.644 0.2 1.006 0.2s0.731-0.069 1.006-0.2l10.575-5.106c0.569-0.262 0.569-0.7 0.012-0.969z"></path>
<path fill="#000" d="M27.581 21.719c0 0-1.931-0.931-2.188-1.056s-0.325-0.119-0.594 0.006-7.794 3.769-7.794 3.769c-0.281 0.131-0.644 0.2-1.006 0.2s-0.731-0.069-1.006-0.2c0 0-7.331-3.538-7.675-3.706-0.375-0.181-0.481-0.181-0.819-0.019-0.35 0.169-2.087 1.006-2.087 1.006-0.556 0.269-0.556 0.706 0 0.975l10.575 5.106c0.275 0.137 0.644 0.2 1.006 0.2s0.731-0.069 1.006-0.2l10.575-5.106c0.563-0.269 0.563-0.706 0.006-0.975z"></path>
</svg>
