<?xml version="1.0" encoding="utf-8"?>
<!-- Generated by IcoMoon.io -->
<!DOCTYPE svg PUBLIC "-//W3C//DTD SVG 1.1//EN" "http://www.w3.org/Graphics/SVG/1.1/DTD/svg11.dtd">
<svg version="1.1" xmlns="http://www.w3.org/2000/svg" xmlns:xlink="http://www.w3.org/1999/xlink" width="32" height="32" viewBox="0 0 32 32">
<path fill="#000" d="M18.15 9.063l-3.963-3.063 3.975 6.387z"></path>
<path fill="#000" d="M20.563 6v10.188h-2.275l-3.95-6.162 0.106 6.162h-2.506v-6.688l-2.331-1.831c0.063 0.075 0.125 0.15 0.181 0.231 0.625 0.869 0.938 1.906 0.938 3.156 0 3.075-1.912 5.131-4.806 5.131h-3.919v0.025l12.475 9.788h15.525v-12.619l-9.438-7.381z"></path>
<path fill="#000" d="M8.119 11.131c0-1.813-0.888-2.819-2.481-2.819h-1.2v5.563h1.188c1.625 0 2.494-0.963 2.494-2.744z"></path>
</svg>
