<?xml version="1.0" encoding="utf-8"?>
<!-- Generated by IcoMoon.io -->
<!DOCTYPE svg PUBLIC "-//W3C//DTD SVG 1.1//EN" "http://www.w3.org/Graphics/SVG/1.1/DTD/svg11.dtd">
<svg version="1.1" xmlns="http://www.w3.org/2000/svg" xmlns:xlink="http://www.w3.org/1999/xlink" width="32" height="32" viewBox="0 0 32 32">
<path fill="#000" d="M30.75 6.844c-1.087 0.481-2.25 0.806-3.475 0.956 1.25-0.75 2.212-1.938 2.663-3.35-1.169 0.694-2.462 1.2-3.844 1.469-1.106-1.181-2.688-1.919-4.419-1.919-3.344 0-6.050 2.712-6.050 6.056 0 0.475 0.050 0.938 0.156 1.381-5.031-0.25-9.5-2.662-12.481-6.331-0.519 0.894-0.819 1.938-0.819 3.044 0 2.1 1.069 3.956 2.694 5.044-0.987-0.025-1.925-0.3-2.737-0.756 0 0.025 0 0.050 0 0.075 0 2.938 2.087 5.381 4.856 5.937-0.506 0.137-1.044 0.212-1.594 0.212-0.388 0-0.769-0.038-1.138-0.113 0.769 2.406 3.006 4.156 5.656 4.206-2.069 1.625-4.681 2.594-7.519 2.594-0.487 0-0.969-0.031-1.444-0.087 2.669 1.738 5.85 2.738 9.262 2.738 11.138 0 17.231-9.231 17.231-17.238 0-0.262-0.006-0.525-0.019-0.781 1.175-0.856 2.206-1.919 3.019-3.138zM27.137 9.169l-0.438 0.319 0.025 0.537c0.012 0.238 0.019 0.488 0.019 0.738 0 1.887-0.369 3.863-1.063 5.719-0.731 1.95-1.781 3.712-3.125 5.238-1.438 1.631-3.137 2.906-5.069 3.8-2.113 0.981-4.456 1.475-6.969 1.475-1.806 0-3.588-0.3-5.281-0.887 0.619-0.119 1.225-0.288 1.819-0.494 1.356-0.475 2.619-1.169 3.756-2.063l2.206-1.731-2.806-0.050c-1.631-0.031-3.106-0.837-4.019-2.119 0.456-0.031 0.906-0.113 1.344-0.231l3.794-1.262-3.856-0.681c-1.85-0.369-3.3-1.744-3.831-3.488 0.487 0.125 0.963 0.175 1.494 0.206 0 0 1.987 0.088 3.487-0.006-0.813-0.387-2.9-1.825-2.9-1.825-1.406-0.944-2.25-2.513-2.25-4.213 0-0.4 0.050-0.8 0.138-1.188 1.369 1.4 2.938 2.569 4.694 3.469 2.313 1.194 4.806 1.863 7.412 1.994l1.325 0.069-0.3-1.294c-0.087-0.369-0.131-0.756-0.131-1.156 0-2.775 2.269-5.044 5.056-5.044 1.394 0 2.738 0.581 3.688 1.6l0.381 0.406 0.544-0.106c0.281-0.056 0.556-0.119 0.831-0.194-0.063 0.088-0.356 0.381-0.688 0.675-0.281 0.25-1.113 1.031-1.113 1.031s0.813 0.256 1.319 0.313c0.506 0.056 1.087-0.037 1.181-0.050-0.175 0.144-0.488 0.363-0.675 0.494z"></path>
</svg>
