<?xml version="1.0" encoding="utf-8"?>
<!-- Generated by IcoMoon.io -->
<!DOCTYPE svg PUBLIC "-//W3C//DTD SVG 1.1//EN" "http://www.w3.org/Graphics/SVG/1.1/DTD/svg11.dtd">
<svg version="1.1" xmlns="http://www.w3.org/2000/svg" xmlns:xlink="http://www.w3.org/1999/xlink" width="32" height="32" viewBox="0 0 32 32">
<path fill="#000" d="M18.181 9.119l-4.025-3.119 4.037 6.425z"></path>
<path fill="#000" d="M20.563 6v10.25h-2.244l-3.95-6.125 0.106 6.125h-2.537v-6.694l-2.319-1.819c0.063 0.075 0.131 0.15 0.188 0.225 0.625 0.863 0.938 1.919 0.938 3.156 0 3.056-1.906 5.125-4.8 5.125h-3.944l12.506 9.75h15.494v-12.575l-9.438-7.419zM29 25h-14.144l-9.944-7.75h1.031c0.844 0 1.638-0.169 2.356-0.462s1.338-0.738 1.863-1.294c0.3-0.319 0.588-0.688 0.775-1.069v2.825h4.563l-0.019-1.031-0.044-2.619 2.037 3.169 0.294 0.475h3.794v-9.162l0.012 0.019 7.425 5.8v11.1z"></path>
<path fill="#000" d="M5.662 9.4c0.688 0 1.481 0.2 1.481 1.8 0 0.431-0.063 1.019-0.375 1.363-0.225 0.244-0.6 0.375-1.106 0.375h-0.225v-3.563h0.188zM5.669 8.375h-1.231v5.563h1.219c1.625 0 2.494-0.975 2.494-2.744 0-1.8-0.894-2.819-2.481-2.819v0z"></path>
</svg>
