<?xml version="1.0" encoding="utf-8"?>
<!-- Generated by IcoMoon.io -->
<!DOCTYPE svg PUBLIC "-//W3C//DTD SVG 1.1//EN" "http://www.w3.org/Graphics/SVG/1.1/DTD/svg11.dtd">
<svg version="1.1" xmlns="http://www.w3.org/2000/svg" xmlns:xlink="http://www.w3.org/1999/xlink" width="32" height="32" viewBox="0 0 32 32">
<path fill="#000" d="M16 2c-7.7 0-14 6.3-14 14s6.3 14 14 14 14-6.3 14-14-6.3-14-14-14zM16 4.8c4.13 0 7.77 2.24 9.66 5.6h-9.66c-2.73 0-4.97 1.96-5.46 4.48l-3.36-5.811c2.030-2.589 5.25-4.27 8.82-4.27zM20.2 16c0 2.31-1.89 4.2-4.2 4.2s-4.2-1.89-4.2-4.2 1.89-4.2 4.2-4.2 4.2 1.89 4.2 4.2zM4.8 16c0-2.030 0.56-3.92 1.54-5.6l4.83 8.4c0.98 1.68 2.73 2.8 4.83 2.8 0.63 0 1.26-0.14 1.82-0.35l-3.36 5.81c-5.46-0.7-9.66-5.39-9.66-11.060zM16 27.2l4.83-8.4c0.489-0.84 0.77-1.75 0.77-2.8 0-1.68-0.77-3.15-1.96-4.2h6.72c0.56 1.33 0.84 2.73 0.84 4.2 0 6.16-5.040 11.2-11.2 11.2z"></path>
</svg>
