<?xml version="1.0" encoding="utf-8"?>
<!-- Generated by IcoMoon.io -->
<!DOCTYPE svg PUBLIC "-//W3C//DTD SVG 1.1//EN" "http://www.w3.org/Graphics/SVG/1.1/DTD/svg11.dtd">
<svg version="1.1" xmlns="http://www.w3.org/2000/svg" xmlns:xlink="http://www.w3.org/1999/xlink" width="32" height="32" viewBox="0 0 32 32">
<path fill="#000" d="M31.413 7.188c-1.406-2.731-3.625-3.188-3.625-3.188s0.969 2 1 3.188c0.025 1.006-0.344 1.75-1.7 2.094s-1.925-0.125-2.988-1.094-2.6-1.656-4.538-1.75c-2.5-0.125-4.813 0.563-4.813 0.563-1.25-1.563 1.25-5 1.25-5-4.656 1.844-5.856 5.206-6 7.106-0.119 1.506 0.531 2.55 0.531 2.55s-0.031 1.738-0.313 2.625c-0.194 0.613-1.056 1.563-1.625 2.156-0.763 0.794-0.781 2.406 0 3.563s2.75 1.719 4.188 2.469 1.969 1.313 1.969 1.313 0.063 0.519 0.031 0.956-0.2 0.875-0.563 1.137c-0.344 0.244-0.969 0.031-1.281-0.125s-0.313-0.387-0.656-0.5-0.456-0.25-0.406-0.688 0.125-0.563-0.219-1.156-1.156-0.594-1.844-0.5-1.081 0.425-1.081 0.425l-1.019-0.625c0 0 0.531-0.975 0.325-2.225-0.456-2.738-3.125-3.925-3.125-3.925l0.65 2.775c0 0 0.069-0.163 0.4-0.4s0.506-0.225 0.506-0.225 0.412 0.475 0.569 1.581c0.156 1.125-0.419 1.7-0.419 1.7l-1.769-1.125 0.063-0.906-2.425-0.644 1.013 2.294 0.938-0.25 1.5 1.419c0 0-0.981 0.731-2.063 0.731-0.688 0-1.375-0.375-1.375-0.375s-0.087-0.063-0.050-0.344c0.044-0.313 0.425-0.781 0.425-0.781h-2.875c0 0 1.706 2.419 4.063 2.419 1.938 0 2.763-0.781 2.763-0.781l1.175 1.169c0 0 0.188 0.344 0 0.438s-0.438 0.219-0.563 0.938 1.125 1.813 1.125 1.813c1.363 1.113 0.438 2 0.438 2h17c-0.563-0.813-1.406-1.125-2-2 0 0-2.8-3.65-0.113-5.65 3.587-2.669 2.675-4.337 2.575-6.337 0 0 1.988-0.412 3.706-2.1s2.431-4.425 1.244-6.725zM12.188 12.688c-1.056 0.281-1.406 2.219-1.406 2.219 0.094-3.938 3.594-5.813 4.063-5.563s-0.406 2.438-1.313 4c0 0-0.5-0.881-1.344-0.656zM14.5 13.625c0 0 1.125-3.5 2.344-3.719s2.594 1.313 2.594 3.875-1.625 4.087-2.675 4.325c-1.031 0.238-1.438 0.125-1.438 0.125s1.719-1.35 1.469-3.55c-0.175-1.544-1.963-1.512-2.294-1.056z"></path>
</svg>
