<?xml version="1.0" encoding="utf-8"?>
<!-- Generated by IcoMoon.io -->
<!DOCTYPE svg PUBLIC "-//W3C//DTD SVG 1.1//EN" "http://www.w3.org/Graphics/SVG/1.1/DTD/svg11.dtd">
<svg version="1.1" xmlns="http://www.w3.org/2000/svg" xmlns:xlink="http://www.w3.org/1999/xlink" width="32" height="32" viewBox="0 0 32 32">
<path fill="#000" d="M27.306 18.55c0.175-0.781 0.262-1.587 0.262-2.419 0-6.231-5.125-11.287-11.45-11.287-0.669 0-1.319 0.056-1.956 0.162-1.019-0.638-2.225-1.006-3.525-1.006-3.662 0-6.638 2.931-6.638 6.544 0 1.213 0.331 2.344 0.912 3.313-0.15 0.731-0.231 1.494-0.231 2.269 0 6.238 5.125 11.287 11.444 11.287 0.719 0 1.419-0.063 2.094-0.188 0.938 0.494 2.006 0.775 3.137 0.775 3.669 0 6.637-2.931 6.637-6.544 0.006-1.044-0.244-2.031-0.688-2.906zM21.994 21.519c-0.531 0.738-1.313 1.325-2.325 1.738-1.006 0.413-2.206 0.619-3.581 0.619-1.644 0-3.019-0.288-4.1-0.85-0.769-0.413-1.4-0.962-1.887-1.65s-0.731-1.375-0.731-2.038c0-0.413 0.162-0.769 0.475-1.069 0.313-0.288 0.719-0.438 1.194-0.438 0.394 0 0.731 0.113 1.006 0.344 0.262 0.219 0.488 0.544 0.669 0.969 0.206 0.456 0.425 0.844 0.662 1.15 0.225 0.294 0.544 0.538 0.956 0.731 0.419 0.194 0.975 0.294 1.662 0.294 0.944 0 1.719-0.2 2.3-0.594 0.575-0.381 0.85-0.844 0.85-1.406 0-0.444-0.144-0.794-0.444-1.069-0.313-0.288-0.719-0.512-1.225-0.663-0.519-0.163-1.225-0.331-2.1-0.512-1.188-0.25-2.194-0.55-3-0.887-0.819-0.344-1.481-0.825-1.969-1.419-0.494-0.606-0.738-1.369-0.738-2.262 0-0.856 0.262-1.619 0.775-2.281 0.512-0.656 1.256-1.169 2.225-1.519 0.95-0.35 2.081-0.525 3.356-0.525 1.025 0 1.919 0.119 2.669 0.344 0.756 0.231 1.387 0.544 1.894 0.931 0.5 0.387 0.875 0.8 1.113 1.231 0.238 0.438 0.356 0.869 0.356 1.287 0 0.4-0.156 0.769-0.469 1.088s-0.706 0.488-1.175 0.488c-0.425 0-0.756-0.1-0.988-0.3-0.212-0.188-0.438-0.475-0.681-0.894-0.288-0.531-0.631-0.956-1.025-1.256-0.387-0.287-1.025-0.438-1.912-0.438-0.819 0-1.488 0.162-1.981 0.481-0.475 0.306-0.706 0.662-0.706 1.081 0 0.256 0.075 0.469 0.231 0.656 0.162 0.194 0.387 0.369 0.681 0.512 0.3 0.15 0.613 0.269 0.919 0.35 0.319 0.088 0.85 0.219 1.581 0.381 0.931 0.194 1.781 0.419 2.531 0.65 0.762 0.244 1.419 0.537 1.956 0.881 0.55 0.35 0.981 0.806 1.294 1.344 0.306 0.538 0.462 1.212 0.462 1.988 0.025 0.944-0.244 1.794-0.781 2.531z"></path>
</svg>
