<?xml version="1.0" encoding="utf-8"?>
<!-- Generated by IcoMoon.io -->
<!DOCTYPE svg PUBLIC "-//W3C//DTD SVG 1.1//EN" "http://www.w3.org/Graphics/SVG/1.1/DTD/svg11.dtd">
<svg version="1.1" xmlns="http://www.w3.org/2000/svg" xmlns:xlink="http://www.w3.org/1999/xlink" width="32" height="32" viewBox="0 0 32 32">
<path fill="#000" d="M19.384 4c1.959 0 3.694 0.163 5.509 0.523l-0.316 2.134c-1.838-0.27-3.479-0.402-4.991-0.402-2.189 0-3.658 0.385-4.633 1.21-1.194 1.011-1.327 2.436-1.327 3.42v1.177h8.503l-0.149 1h-8.354v5h7.61l-0.149 1h-7.46v1.739c0 1.222 0.146 2.754 1.318 3.767 0.94 0.813 2.37 1.176 4.641 1.176 1.533 0 3.137-0.128 4.986-0.401l0.313 2.134c-1.814 0.36-3.546 0.523-5.499 0.523-3.287 0-5.714-0.567-7.223-1.687-1.373-1.019-2.037-2.541-2.037-4.653v-2.598h-3.125v-1h3.125v-5h-3.125v-1h3.125v-1.723c0-2.112 0.663-3.634 2.036-4.653 1.508-1.119 3.936-1.687 7.223-1.687zM19.388 3c-7.171 0-10.263 2.577-10.263 7.339v0.723h-3.125v3h3.125v3h-3.125v3h3.125v1.598c0 4.763 3.093 7.339 10.263 7.339 2.203 0 4.236-0.195 6.612-0.742l-0.588-4.060c-2.333 0.39-4.184 0.546-5.825 0.546-4.017 0-4.961-1.171-4.961-3.943v-0.739h7.323l0.447-3h-7.769v-3h8.216l0.447-3h-8.663v-0.177c0-2.245 0.947-3.63 4.965-3.63 1.642 0 3.497 0.156 5.83 0.546l0.58-4.052c-2.376-0.546-4.409-0.75-6.612-0.75v0z"></path>
</svg>
