<?xml version="1.0" encoding="utf-8"?>
<!-- Generated by IcoMoon.io -->
<!DOCTYPE svg PUBLIC "-//W3C//DTD SVG 1.1//EN" "http://www.w3.org/Graphics/SVG/1.1/DTD/svg11.dtd">
<svg version="1.1" xmlns="http://www.w3.org/2000/svg" xmlns:xlink="http://www.w3.org/1999/xlink" width="32" height="32" viewBox="0 0 32 32">
<path fill="#000" d="M15.919 6.331c-0.037 0.063-0.075 0.125-0.106 0.194 0.113-0.219 0.269-0.406 0.462-0.544-0.131 0.081-0.256 0.194-0.356 0.35-0.037 0.063 0.1-0.156 0 0z"></path>
<path fill="#000" d="M26.644 24.75c-0.419-0.25-0.825-0.688-0.75-1.175 0.144-0.956 0.156-1.344-0.012-1.613-0.119-0.2-0.344-0.313-0.538-0.363 0.125-0.156 0.194-0.337 0.238-0.681 0.115-0.886-0.202-1.917-0.413-2.765-0.278-1.119-0.645-2.126-1.277-3.095-1.031-1.581-2.328-2.925-3.241-4.59-0.606-1.813-0.269-2.944-0.3-4.138-0.056-2.331-1.681-4.331-4.037-4.331h-0.875c-2.344 0-3.625 1.681-3.625 3.75 0.044 1.042 0.085 2.083 0.125 3.125 0.048 1.235 0.124 2.354-0.5 3.456-0.44 0.78-1.223 1.402-1.787 2.092-0.595 0.729-0.816 1.479-1.116 2.351-0.374 1.088-1.33 1.932-1.555 3.058-0.104 0.517 0.17 1.116-0.052 1.543-0.231 0.444-0.051 0.904-0.177 1.355-0.219 0.733-1.296 0.671-1.888 0.719-1.1 0.090-0.691 1.124-0.49 1.856 0.35 1.277-1.221 2.63 0.689 3.154 0.874 0.24 1.787 0.321 2.67 0.52 0.874 0.197 1.682 0.538 2.525 0.829 0.654 0.226 1.266 0.259 1.895-0.077 0.686-0.367 1.184-0.943 1.981-1.063 1.544-0.232 3.427-0.261 4.961 0.039 0.469 0.092 0.63 0.408 0.932 0.735 0.509 0.552 1.345 0.633 2.050 0.514 0.743-0.126 1.303-0.592 1.855-1.070 0.783-0.677 1.634-1.125 2.549-1.597 0.465-0.24 1.386-0.587 1.51-1.181 0.146-0.701-0.886-1.088-1.345-1.362zM12.625 28.206c-0.081 0.813-0.869 1.269-1.588 1.206-1.219-0.103-2.366-0.765-3.573-0.984-0.587-0.107-2.959-0.198-2.934-1.067 0.013-0.46 0.359-0.729 0.473-1.151 0.176-0.653-0.36-1.246-0.395-1.885-0.028-0.505 0.671-0.475 1.018-0.503 0.548-0.044 1.197-0.126 1.473-0.69 0.1-0.206-0.031-0.938 0.119-1.363 0.22-0.635 0.968-0.559 1.456-0.306 1.11 0.567 1.809 2.222 2.408 3.239 0.608 1.032 1.669 2.226 1.542 3.505zM19.894 24.106c0.143 0.737 0.264 1.524 0.106 2.269-0.126 0.595-0.535 0.976-0.794 1.5-0.137-0.425 0.706-1.044 0.613-2.106-0.003-0.030-0.059-0.68-0.065-0.677-0.124 0.068-0.239 0.317-0.331 0.421-0.301 0.336-0.673 0.604-1.046 0.855-0.862 0.582-1.826 0.941-2.864 1.039-1.313 0.125-2.375-0.656-2.375-0.656 0.157 0.519 0.562 1.313 0.069 1.769 0.109-0.978-0.305-1.754-0.725-2.606 2.898-1.54-2.585-4.025-3.313-4.988-0.655-0.869-0.347-1.989-0.169-2.719-0.215 0.861-0.247 2.622 0.875 2.925 0.495 0.136 0.35-2.317 0.374-2.591 0.099-1.145 0.483-2.25 1.146-3.188 0.212-0.3 0.116-0.596 0.167-0.958 0.106-0.667 0.456-1.284 0.843-1.827 0.323-0.453 0.108-0.789 0.188-1.316 0.045-0.3 0.32 0.2 0.362 0.267 0.25 0.406 1.044 1.419 1.544 1.375 0.83-0.073 1.543-0.996 2.251-1.378 0.224-0.121 0.901-0.328 0.992-0.602 0.11-0.333-0.792-0.010-0.882 0.036-0.674 0.346-1.939 1.341-2.742 0.956-0.548-0.262-0.668-0.937-1.075-1.281 0.963 0.85 1.344 0.656 1.725 0.569 0.604-0.136 1.175-0.405 1.738-0.656 0.264-0.117 1.257-0.253 1.394-0.544 0.172-0.365-0.316-0.42-0.504-0.224-0.391 0.407-0.991 0.561-1.506 0.737-1.18 0.402-2.353 0.571-3.24-0.538-0.522-0.638 0.972-1.406 1.387-1.8 0 0 0.063-0.45-0.037-0.794-0.119-0.406-0.488-0.581-0.744-0.506-0.256 0.069-0.5 0.344-0.425 0.925 0.063 0.519 0.438 0.688 0.438 0.688s-0.169 0.219-0.325 0.294c0 0-0.050-0.019-0.219-0.394s-0.412-1.219-0.019-1.944c0.394-0.725 1.225-0.325 1.488 0.237 0.244 0.519 0.15 1.419 0.15 1.419 0.21-0.053 0.427-0.081 0.644-0.081 0.265 0 0.426 0.285 0.662 0.3-0.040 0-0.035-1.133-0.015-1.255 0.069-0.406 0.257-0.851 0.621-1.076 1.005-0.718 2.163 0.245 2.163 1.325 0.002 0.28-0.009 0.576-0.075 0.85-0.041 0.165-0.099 0.529-0.32 0.574-0.072 0.014-0.668-0.027-0.499-0.205 0.8-0.801-0.114-2.388-1.087-1.531-0.35 0.262-0.343 0.865-0.3 1.25 0.069 0.571 1.282 0.721 1.678 0.861 0.514 0.181 0.496 0.602 0.417 1.070-0.119 0.704-0.176 1.175 0.274 1.763 0.459 0.601 0.808 1.255 0.995 1.992 0.093 0.366 0.104 0.678 0.351 0.973 0.374 0.447 0.664 0.925 0.831 1.489 0.327 1.101 0.407 2.214 0.385 3.352-0.031 0.512-0.131 0.938 0.519 0.606 0.25-0.125 0.406-0.181 0.688-0.231 0.194-0.394 0.275-1.144 0.281-1.519 0.012-0.844-0.019-2.594-1.731-4.469 0 0 1.781 1.356 2.063 3.875 0.156 1.394-0.125 2.15-0.125 2.15 0.331 0.081 0.675 0.331 0.85 0.613-0.008-0.014 0.065 0.109 0.074 0.116-0.613-0.511-1.982-0.804-2.48 0.015-0.125 0.206-0.194 0.475-0.2 0.731-0.444-0.075-0.775 0-1.050 0.306-0.363 0.444-0.188 1.519-0.063 2.169 0.125 0.644-0.125-0.65 0 0zM13.787 7.806c-0.012-0.306-0.131-0.563-0.294-0.675 0.019-0.019 0.050-0.044 0.106-0.025 0.088 0.025 0.219 0.169 0.269 0.394 0.044 0.181 0.025 0.481-0.088 0.481-0-0.058 0.002-0.117 0.006-0.175-0.012-0.306 0 0.056 0 0zM17.206 7.056c0.025-0.019 0.069-0.037 0.144-0.019 0.113 0.025 0.275 0.175 0.331 0.388 0.044 0.175 0.006 0.463-0.137 0.456-0-0.056 0.004-0.113 0.012-0.169-0.006-0.287-0.144-0.537-0.35-0.656 0.025-0.019 0.206 0.119 0 0zM25.775 27.056c-1.094 0.472-1.956 1.248-2.945 1.887-0.864 0.559-2.385 0.52-2.501-0.805-0.098-1.111 0.262-2.206 0.115-3.335-0.099-0.765-0.533-1.807-0.144-2.553 0.169-0.319 0.506-0.344 0.781-0.25 0.2 0.829 0.871 1.475 1.75 1.475 1.064 0 1.471-0.875 2.125-1.531 0.212 0.012 0.462 0.069 0.55 0.3 0.144 0.363-0.119 1.094-0.113 1.394 0.019 0.981 0.563 1.2 1.65 1.813 0.956 0.55 0.262 0.944-1.269 1.606-1.506 0.65 1.531-0.663 0 0z"></path>
</svg>
