<?xml version="1.0" encoding="utf-8"?>
<!-- Generated by IcoMoon.io -->
<!DOCTYPE svg PUBLIC "-//W3C//DTD SVG 1.1//EN" "http://www.w3.org/Graphics/SVG/1.1/DTD/svg11.dtd">
<svg version="1.1" xmlns="http://www.w3.org/2000/svg" xmlns:xlink="http://www.w3.org/1999/xlink" width="32" height="32" viewBox="0 0 32 32">
<path fill="#000" d="M16 4c-6.625 0-12 5.375-12 12 0 6.631 5.375 12 12 12s12-5.369 12-12c0-6.625-5.375-12-12-12zM16 25.969c-5.506 0-9.969-4.462-9.969-9.969s4.463-9.969 9.969-9.969c5.506 0 9.969 4.463 9.969 9.969s-4.462 9.969-9.969 9.969z"></path>
<path fill="#000" d="M19.144 15.419c1.462-0.137 3.181-0.181 4.825-0.15-0.144-1.588-0.75-3.044-1.688-4.225-1.031 0.931-2.375 1.756-3.956 2.438 0.288 0.625 0.556 1.275 0.819 1.938z"></path>
<path fill="#000" d="M20.962 9.725c-1.363-1.081-3.087-1.725-4.963-1.725-0.319 0-0.637 0.019-0.95 0.056 0.863 1.106 1.669 2.35 2.412 3.719 1.356-0.575 2.538-1.269 3.5-2.050z"></path>
<path fill="#000" d="M12.869 8.637c-2.131 0.906-3.794 2.713-4.5 4.944 2.569-0.044 4.975-0.438 7.088-1.081-0.787-1.438-1.662-2.731-2.588-3.862z"></path>
<path fill="#000" d="M23.938 17.012c-1.394-0.038-2.875-0.012-4.181 0.094 0.256 0.769 0.506 1.556 0.719 2.369 0.238 0.913 0.438 1.819 0.6 2.712 1.538-1.269 2.6-3.1 2.863-5.175z"></path>
<path fill="#000" d="M16.125 16.006c0.244-0.1 0.55-0.188 0.894-0.269-0.212-0.519-0.444-1.025-0.675-1.519-2.444 0.787-5.287 1.269-8.331 1.331-0.006 0.15-0.013 0.3-0.013 0.456 0 1.819 0.606 3.494 1.625 4.837 1.556-2.031 3.806-3.706 6.5-4.837z"></path>
<path fill="#000" d="M17.663 17.387c-0.431 0.094-0.806 0.2-1.087 0.331-2.319 1.050-4.269 2.6-5.65 4.469 1.381 1.137 3.15 1.813 5.075 1.813 1.156 0 2.25-0.244 3.238-0.681-0.169-0.944-0.375-1.894-0.625-2.856-0.275-1.056-0.6-2.087-0.95-3.075z"></path>
</svg>
