<?xml version="1.0" encoding="utf-8"?>
<!-- Generated by IcoMoon.io -->
<!DOCTYPE svg PUBLIC "-//W3C//DTD SVG 1.1//EN" "http://www.w3.org/Graphics/SVG/1.1/DTD/svg11.dtd">
<svg version="1.1" xmlns="http://www.w3.org/2000/svg" xmlns:xlink="http://www.w3.org/1999/xlink" width="32" height="32" viewBox="0 0 32 32">
<path fill="#000" d="M16.018 2.972c4.418 0 8 3.418 7.375 8.058-0.13 0.962-0.214 1.968-0.266 2.797 0 0 0.15 0.266 0.791 0.266 0.379 0 0.931-0.096 1.725-0.397 0.14-0.053 0.274-0.078 0.399-0.078 0.495 0 0.851 0.371 0.883 0.767 0.027 0.332-0.285 0.7-0.523 0.813-0.86 0.409-2.937 0.629-2.937 2.040s1.398 2.916 2.554 3.982 3.982 1.317 3.982 1.317 0.018 1.348-1.982 1.819c-2 0.47-2.006 0.357-2.078 0.862-0.133 0.936-0.096 1.336-0.703 1.336-0.105 0-0.228-0.012-0.375-0.035-0.514-0.081-1.202-0.228-1.945-0.228-0.701 0-1.451 0.131-2.149 0.573-1.438 0.909-2.58 2.132-4.768 2.132s-3.313-1.223-4.75-2.132c-0.698-0.442-1.448-0.573-2.149-0.573-0.742 0-1.431 0.147-1.945 0.228-0.147 0.023-0.271 0.035-0.375 0.035-0.607 0-0.57-0.4-0.703-1.336-0.072-0.505-0.078-0.392-2.078-0.862s-2-1.819-2-1.819 2.844-0.251 4-1.317c1.156-1.066 2.554-2.571 2.554-3.982s-2.077-1.631-2.937-2.040c-0.238-0.113-0.55-0.48-0.523-0.812 0.032-0.396 0.387-0.766 0.882-0.766 0.125 0 0.26 0.024 0.4 0.077 0.797 0.302 1.349 0.396 1.729 0.396 0.638 0 0.787-0.267 0.787-0.267-0.052-0.83-0.137-1.836-0.266-2.797-0.625-4.641 2.957-8.058 7.375-8.058v0zM16.018 2h-0.018c-2.568 0-4.951 1.013-6.537 2.834-1.499 1.721-2.148 3.959-1.829 6.331 0.088 0.657 0.154 1.327 0.201 1.914-0.248-0.035-0.605-0.125-1.106-0.315-0.248-0.094-0.501-0.143-0.753-0.143-0.978-0-1.803 0.741-1.879 1.688-0.064 0.801 0.515 1.525 1.092 1.799 0.266 0.126 0.574 0.224 0.9 0.327 0.419 0.133 0.894 0.283 1.206 0.481 0.259 0.165 0.259 0.261 0.259 0.324 0 0.541-0.387 1.543-2.231 3.243-0.656 0.605-2.441 0.969-3.412 1.056l-0.911 0.082-0.001 0.918c0 0.105 0.019 0.659 0.405 1.27 0.328 0.519 1.005 1.205 2.366 1.525 0.386 0.091 0.699 0.16 0.95 0.216 0.144 0.032 0.285 0.063 0.403 0.091 0.002 0.013 0.003 0.026 0.005 0.039 0.056 0.438 0.101 0.783 0.274 1.109 0.153 0.288 0.536 0.77 1.376 0.77 0.155 0 0.328-0.015 0.529-0.047 0.104-0.016 0.212-0.035 0.325-0.054 0.445-0.076 0.949-0.162 1.466-0.162 0.642 0 1.171 0.137 1.615 0.418 0.283 0.179 0.556 0.373 0.844 0.579 1.124 0.801 2.399 1.708 4.439 1.708 2.045 0 3.331-0.911 4.465-1.715 0.286-0.203 0.556-0.394 0.836-0.571 0.445-0.281 0.973-0.418 1.615-0.418 0.517 0 1.021 0.086 1.466 0.162 0.113 0.019 0.221 0.038 0.325 0.054 0.201 0.032 0.375 0.047 0.529 0.047 0.84 0 1.223-0.482 1.376-0.77 0.174-0.326 0.218-0.672 0.274-1.109 0.002-0.013 0.003-0.026 0.005-0.039 0.119-0.028 0.259-0.059 0.403-0.091 0.251-0.056 0.564-0.125 0.95-0.216 1.366-0.321 2.038-1.011 2.362-1.532 0.381-0.614 0.393-1.171 0.392-1.276l-0.012-0.906-0.9-0.080c-0.963-0.087-2.738-0.451-3.394-1.056-1.018-0.938-2.23-2.262-2.23-3.243 0-0.063 0-0.159 0.259-0.324 0.312-0.198 0.787-0.349 1.206-0.482 0.326-0.103 0.634-0.201 0.9-0.327 0.577-0.274 1.156-0.999 1.092-1.8-0.076-0.948-0.901-1.69-1.88-1.69-0.251 0-0.504 0.047-0.752 0.141-0.502 0.19-0.859 0.276-1.107 0.31 0.047-0.582 0.112-1.258 0.201-1.917 0.319-2.372-0.33-4.594-1.829-6.315-1.586-1.821-3.969-2.834-6.537-2.834v0z"></path>
<path fill="#000" d="M16 14.313c-1.302 0-2.538-0.518-3.479-1.459-0.195-0.195-0.195-0.512 0-0.707s0.512-0.195 0.707 0c0.752 0.752 1.736 1.166 2.771 1.166 1.024 0 2.009-0.415 2.774-1.169 0.197-0.194 0.513-0.191 0.707 0.005s0.192 0.513-0.005 0.707c-0.953 0.939-2.187 1.456-3.476 1.456z"></path>
<path fill="#000" d="M14 9.5c0 0.828-0.448 1.5-1 1.5s-1-0.672-1-1.5c0-0.828 0.448-1.5 1-1.5s1 0.672 1 1.5z"></path>
<path fill="#000" d="M20 9.5c0 0.828-0.448 1.5-1 1.5s-1-0.672-1-1.5c0-0.828 0.448-1.5 1-1.5s1 0.672 1 1.5z"></path>
</svg>
