<?xml version="1.0" encoding="utf-8"?>
<!-- Generated by IcoMoon.io -->
<!DOCTYPE svg PUBLIC "-//W3C//DTD SVG 1.1//EN" "http://www.w3.org/Graphics/SVG/1.1/DTD/svg11.dtd">
<svg version="1.1" xmlns="http://www.w3.org/2000/svg" xmlns:xlink="http://www.w3.org/1999/xlink" width="32" height="32" viewBox="0 0 32 32">
<path fill="#000" d="M13 5.5h-5v13.281c0 3.286-1.127 4.204-3.088 4.204-0.919 0-1.747-0.158-2.391-0.379l-0.521 3.888c0.919 0.316 2.329 0.506 3.432 0.506 4.503 0 7.568-2.117 7.568-8.186v-13.314z"></path>
<path fill="#000" d="M23.904 5c-4.84 0-7.904 2.75-7.904 6.385 0 3.13 2.359 5.090 5.79 6.354 2.481 0.885 3.462 1.675 3.462 2.971 0 1.422-1.134 2.339-3.278 2.339-1.991 0-3.799-0.665-5.025-1.328v-0.001l-0.949 3.951c1.165 0.665 3.34 1.328 5.698 1.328 5.668-0 8.302-3.035 8.302-6.606 0-3.034-1.685-4.994-5.33-6.385-2.696-1.074-3.829-1.675-3.829-3.034 0-1.075 0.98-2.054 3.003-2.054 1.99 0 3.359 0.669 4.157 1.081l1.195-4c-1.25-0.549-2.934-1-5.291-1v0z"></path>
</svg>
