<?xml version="1.0" encoding="utf-8"?>
<!-- Generated by IcoMoon.io -->
<!DOCTYPE svg PUBLIC "-//W3C//DTD SVG 1.1//EN" "http://www.w3.org/Graphics/SVG/1.1/DTD/svg11.dtd">
<svg version="1.1" xmlns="http://www.w3.org/2000/svg" xmlns:xlink="http://www.w3.org/1999/xlink" width="32" height="32" viewBox="0 0 32 32">
<path fill="#000" d="M20.366 17.222l-1.141-0.857c-0.364-0.286-0.622-0.52-0.622-0.918 0-0.436 0.316-0.739 0.681-1.090l0.029-0.028c1.252-0.948 2.795-2.143 2.795-4.66 0-1.683-0.745-2.796-1.455-3.608h0.811l3.77-2.063h-8.341c-1.583 0-3.918 0.202-5.91 1.786l-0.008 0.016c-1.363 1.132-2.177 2.787-2.177 4.418 0 1.325 0.544 2.635 1.493 3.59 1.339 1.349 3.019 1.633 4.192 1.633 0.091 0 0.185-0.002 0.279-0.006-0.047 0.186-0.078 0.395-0.078 0.645 0 0.683 0.227 1.206 0.505 1.637-1.498 0.121-3.634 0.405-5.306 1.392-2.458 1.41-2.65 3.492-2.65 4.097 0 2.388 2.232 4.798 7.217 4.798 5.726 0 8.721-3.112 8.721-6.186-0-2.322-1.427-3.479-2.808-4.598zM12.53 8.743c0-0.835 0.189-1.466 0.578-1.931 0.407-0.491 1.136-0.821 1.814-0.821 1.243 0 2.059 0.938 2.524 1.725 0.575 0.971 0.932 2.256 0.932 3.353 0 0.309 0 1.249-0.637 1.862-0.434 0.418-1.169 0.71-1.787 0.71-1.281 0-2.091-0.919-2.544-1.69-0.65-1.105-0.881-2.382-0.881-3.207zM20.1 22.998c0 1.715-1.576 2.781-4.112 2.781-3.004 0-5.022-1.288-5.022-3.204 0-1.634 1.346-2.299 2.363-2.658 1.184-0.379 2.769-0.457 3.129-0.457 0.244 0 0.38 0 0.543 0.014 2.294 1.576 3.1 2.258 3.1 3.523z"></path>
</svg>
