<?xml version="1.0" encoding="utf-8"?>
<!-- Generated by IcoMoon.io -->
<!DOCTYPE svg PUBLIC "-//W3C//DTD SVG 1.1//EN" "http://www.w3.org/Graphics/SVG/1.1/DTD/svg11.dtd">
<svg version="1.1" xmlns="http://www.w3.org/2000/svg" xmlns:xlink="http://www.w3.org/1999/xlink" width="32" height="32" viewBox="0 0 32 32">
<path fill="#000" d="M18 12v-2.381c0-1.075 0.238-1.619 1.906-1.619h2.094v-4h-3.494c-4.281 0-5.694 1.963-5.694 5.331v2.669h-2.813v4h2.813v12h5.187v-12h3.525l0.475-4h-4zM20.637 15h-3.637v12h-3.188v-12h-2.813v-2h2.813v-3.669c0-1.531 0.338-2.575 0.969-3.237 0.7-0.75 1.944-1.094 3.725-1.094h2.494v2h-1.094c-0.75 0-1.719 0.069-2.319 0.731-0.506 0.563-0.587 1.256-0.587 1.881v3.387h3.875l-0.238 2z"></path>
</svg>
