<?xml version="1.0" encoding="utf-8"?>
<!-- Generated by IcoMoon.io -->
<!DOCTYPE svg PUBLIC "-//W3C//DTD SVG 1.1//EN" "http://www.w3.org/Graphics/SVG/1.1/DTD/svg11.dtd">
<svg version="1.1" xmlns="http://www.w3.org/2000/svg" xmlns:xlink="http://www.w3.org/1999/xlink" width="32" height="32" viewBox="0 0 32 32">
<path fill="#000" d="M14.625 17v-3h8.193l0.447-3h-8.64v-0.114c0-2.245 0.936-3.63 4.953-3.63 1.642 0 3.492 0.156 5.824 0.546l0.598-4.060c-2.376-0.546-4.418-0.742-6.621-0.742-7.171 0-10.254 2.577-10.254 7.339v0.661h-3.125v3h3.125v3h-3.125v3h3.125v1.661c0 4.763 3.081 7.339 10.252 7.339 2.203 0 4.241-0.195 6.616-0.742l-0.601-4.060c-2.333 0.39-4.174 0.546-5.815 0.546-4.017 0-4.951-1.171-4.951-3.943v-0.802h7.3l0.447-3h-7.746z"></path>
</svg>
