<?xml version="1.0" encoding="utf-8"?>
<!-- Generated by IcoMoon.io -->
<!DOCTYPE svg PUBLIC "-//W3C//DTD SVG 1.1//EN" "http://www.w3.org/Graphics/SVG/1.1/DTD/svg11.dtd">
<svg version="1.1" xmlns="http://www.w3.org/2000/svg" xmlns:xlink="http://www.w3.org/1999/xlink" width="32" height="32" viewBox="0 0 32 32">
<path fill="#000" d="M30.75 6.844c-1.087 0.481-2.25 0.806-3.475 0.956 1.25-0.75 2.212-1.938 2.663-3.35-1.169 0.694-2.462 1.2-3.844 1.469-1.106-1.181-2.681-1.919-4.419-1.919-3.344 0-6.050 2.712-6.050 6.056 0 0.475 0.050 0.938 0.156 1.381-5.031-0.25-9.494-2.662-12.475-6.331-0.519 0.894-0.819 1.938-0.819 3.044 0 2.1 1.075 3.956 2.7 5.044-1-0.025-1.938-0.3-2.75-0.756 0 0.025 0 0.050 0 0.075 0 2.938 2.088 5.381 4.856 5.937-0.506 0.137-1.044 0.212-1.594 0.212-0.388 0-0.769-0.038-1.138-0.113 0.769 2.406 3.006 4.156 5.656 4.206-2.069 1.625-4.681 2.594-7.519 2.594-0.487 0-0.969-0.031-1.444-0.087 2.669 1.738 5.85 2.738 9.262 2.738 11.144 0 17.231-9.231 17.231-17.238 0-0.262-0.006-0.525-0.019-0.781 1.181-0.856 2.206-1.919 3.019-3.138z"></path>
</svg>
