<?xml version="1.0" encoding="utf-8"?>
<!-- Generated by IcoMoon.io -->
<!DOCTYPE svg PUBLIC "-//W3C//DTD SVG 1.1//EN" "http://www.w3.org/Graphics/SVG/1.1/DTD/svg11.dtd">
<svg version="1.1" xmlns="http://www.w3.org/2000/svg" xmlns:xlink="http://www.w3.org/1999/xlink" width="32" height="32" viewBox="0 0 32 32">
<path fill="#000" d="M20.075 24.769c-0.738 0-1.4-0.175-1.969-0.519-0.431-0.256-0.719-0.6-0.875-1.025-0.163-0.431-0.225-1.394-0.225-2.9v-6.325h6v-4h-6v-7h-3.869c-0.169 1.344-0.469 2.794-0.906 3.662s-0.875 1.613-1.6 2.231c-0.725 0.619-1.6 1.119-2.619 1.456v3.65h3v8.775c0 1.188 0.125 2.094 0.369 2.719 0.25 0.625 0.694 1.219 1.338 1.775s1.425 0.981 2.331 1.281c0.912 0.3 1.962 0.45 3.15 0.45 1.044 0 1.894-0.106 2.794-0.319s1.906-0.581 3.012-1.1v-4.1c-1.306 0.856-2.613 1.288-3.931 1.288z"></path>
</svg>
