<?xml version="1.0" encoding="utf-8"?>
<!-- Generated by IcoMoon.io -->
<!DOCTYPE svg PUBLIC "-//W3C//DTD SVG 1.1//EN" "http://www.w3.org/Graphics/SVG/1.1/DTD/svg11.dtd">
<svg version="1.1" xmlns="http://www.w3.org/2000/svg" xmlns:xlink="http://www.w3.org/1999/xlink" width="32" height="32" viewBox="0 0 32 32">
<path fill="#000" d="M16.188 16.956l-2.050 5.981h-0.006l-1.588 4.569c0.113 0.031 0.219 0.056 0.331 0.087 0.006 0 0.012 0 0.019 0 0.988 0.262 2.025 0.406 3.094 0.406 0.531 0 1.050-0.031 1.556-0.113 0.7-0.087 1.375-0.238 2.031-0.444 0 0 0 0 0 0 0.163-0.050 0.325-0.106 0.488-0.163-0.175-0.375-0.55-1.206-0.569-1.244l-3.306-9.081z"></path>
<path fill="#000" d="M5.050 11.281c-0.625 1.412-1.050 3.15-1.050 4.719 0 0.394 0.019 0.788 0.056 1.175 0.431 4.45 3.306 8.188 7.256 9.869 0.162 0.069 0.331 0.137 0.5 0.2l-5.813-15.956c-0.5-0.019-0.594 0.012-0.95-0.006z"></path>
<path fill="#000" d="M26.887 10.963c-0.269-0.581-0.587-1.137-0.944-1.662-0.1-0.15-0.212-0.3-0.319-0.45-1.344-1.8-3.175-3.213-5.306-4.037-1.337-0.525-2.8-0.813-4.325-0.813-3.769 0-7.137 1.75-9.338 4.481-0.406 0.5-0.769 1.037-1.094 1.6 0.888 0.006 1.987 0.006 2.112 0.006 1.131 0 2.875-0.137 2.875-0.137 0.588-0.037 0.65 0.819 0.069 0.887 0 0-0.588 0.069-1.238 0.1l3.931 11.687 2.363-7.081-1.675-4.6c-0.588-0.031-1.131-0.1-1.131-0.1-0.588-0.031-0.512-0.925 0.063-0.887 0 0 1.781 0.137 2.844 0.137 1.131 0 2.875-0.137 2.875-0.137 0.581-0.037 0.656 0.819 0.069 0.887 0 0-0.581 0.069-1.231 0.1l3.894 11.6 1.081-3.6c0.544-1.4 0.819-2.556 0.819-3.481 0-1.331-0.481-2.256-0.894-2.975-0.544-0.894-1.056-1.644-1.056-2.525 0-0.994 0.75-1.919 1.813-1.919 0.044 0 0.094 0 0.137 0 1.637-0.044 2.175 1.581 2.244 2.688 0 0 0 0.025 0 0.037 0.025 0.45 0.006 0.781 0.006 1.175 0 1.088-0.206 2.319-0.819 3.862l-2.438 7.050-1.394 4.106c0.113-0.050 0.219-0.1 0.331-0.156 3.544-1.712 6.125-5.125 6.669-9.169 0.081-0.531 0.119-1.075 0.119-1.625 0-1.806-0.4-3.519-1.113-5.050z"></path>
</svg>
