<?xml version="1.0" encoding="utf-8"?>
<!-- Generated by IcoMoon.io -->
<!DOCTYPE svg PUBLIC "-//W3C//DTD SVG 1.1//EN" "http://www.w3.org/Graphics/SVG/1.1/DTD/svg11.dtd">
<svg version="1.1" xmlns="http://www.w3.org/2000/svg" xmlns:xlink="http://www.w3.org/1999/xlink" width="32" height="32" viewBox="0 0 32 32">
<path fill="#000" d="M29.806 7.125c-0.313-1.463-1.094-2.425-2.538-2.894s-4.056-0.281-5.881 1.050c-1.869 1.362-2.975 3.731-3.363 5.238 0.919-0.394 1.5-0.481 2.438-0.431s1.531 0.75 1.556 1.581c0.019 0.613-0.012 1.169-0.225 1.731-0.675 1.794-1.731 3.531-2.975 5.050-0.181 0.225-0.4 0.431-0.625 0.619-0.637 0.519-1.175 0.381-1.587-0.325-0.337-0.581-0.563-1.181-0.762-1.819-0.775-2.481-1.050-5.056-1.488-7.6-0.206-1.219-0.438-2.487-1.125-3.556-0.725-1.112-1.787-1.537-3.125-1.375-0.919 0.112-2.306 1.094-2.987 1.65 0 0-3.5 2.931-5.112 4.463l1.325 1.688c0 0 1.119-0.781 1.719-1.144 0.356-0.213 0.775-0.256 1.075 0.012 0.281 0.244 0.6 0.563 0.769 0.881 0.356 0.669 0.7 1.369 0.919 2.088 0.825 2.769 1.594 5.544 2.363 8.331 0.394 1.425 0.869 2.762 1.75 3.975 1.206 1.663 2.475 2.044 4.431 1.344 1.587-0.569 2.913-1.637 4.125-2.744 2.069-1.887 3.694-4.087 5.344-6.325 1.275-1.731 2.331-3.481 3.212-5.438 0.869-1.938 1.212-3.969 0.769-6.050z"></path>
</svg>
