<?xml version="1.0" encoding="utf-8"?>
<!-- Generated by IcoMoon.io -->
<!DOCTYPE svg PUBLIC "-//W3C//DTD SVG 1.1//EN" "http://www.w3.org/Graphics/SVG/1.1/DTD/svg11.dtd">
<svg version="1.1" xmlns="http://www.w3.org/2000/svg" xmlns:xlink="http://www.w3.org/1999/xlink" width="32" height="32" viewBox="0 0 32 32">
<path fill="#000" d="M11.063 4.819l-7.063 4.619 4.894 3.938 7.106-4.425-4.938-4.131zM5.713 9.581l5.281-3.55 3.306 2.875-5.338 3.281-3.25-2.606z"></path>
<path fill="#000" d="M23.113 13.313l-7.113 4.444 4.938 4.131 1.188-0.788v1.262l-6.125 3.7-6.125-3.656v-1.281l1.188 0.762 4.938-4.131-7.113-4.444-4.888 3.956 4.875 3.219v2.462l7.125 4.238 7.125-4.281v-2.45l4.875-3.2-4.887-3.944zM8.963 14.431l5.338 3.463-3.306 2.756-5.281-3.488 3.25-2.731zM17.7 17.894l5.338-3.463 3.256 2.725-5.281 3.488-3.313-2.75z"></path>
<path fill="#000" d="M28 9.438l-7.063-4.619-4.938 4.131 7.113 4.425 4.887-3.938zM17.7 8.912l3.306-2.875 5.281 3.55-3.25 2.6-5.338-3.275z"></path>
</svg>
