<?xml version="1.0" encoding="utf-8"?>
<!-- Generated by IcoMoon.io -->
<!DOCTYPE svg PUBLIC "-//W3C//DTD SVG 1.1//EN" "http://www.w3.org/Graphics/SVG/1.1/DTD/svg11.dtd">
<svg version="1.1" xmlns="http://www.w3.org/2000/svg" xmlns:xlink="http://www.w3.org/1999/xlink" width="32" height="32" viewBox="0 0 32 32">
<path fill="#000" d="M16 2c-7.731 0-14 6.269-14 14s6.269 14 14 14 14-6.269 14-14-6.269-14-14-14zM24.488 24.488c-2.269 2.262-5.281 3.512-8.488 3.512-1.012 0-2.006-0.125-2.963-0.369 0.175-0.394 0.325-0.8 0.438-1.206 0.175-0.625 0.988-3.85 0.988-3.85 0.488 0.925 1.906 1.744 3.419 1.744 4.5 0 7.556-4.1 7.556-9.594 0-4.15-3.519-8.019-8.863-8.019-6.65 0-10.006 4.769-10.006 8.744 0 2.406 0.912 4.55 2.869 5.35 0.319 0.131 0.606 0.006 0.7-0.35 0.063-0.244 0.219-0.869 0.287-1.125 0.094-0.35 0.056-0.475-0.2-0.781-0.563-0.669-0.925-1.525-0.925-2.744 0-3.537 2.644-6.706 6.894-6.706 3.756 0 5.825 2.294 5.825 5.363 0 4.038-1.788 7.444-4.438 7.444-1.462 0-2.563-1.212-2.213-2.694 0.419-1.775 1.237-3.688 1.237-4.969 0-1.144-0.613-2.1-1.887-2.1-1.5 0-2.7 1.55-2.7 3.625 0 1.319 0.45 2.213 0.45 2.213s-1.531 6.494-1.8 7.631c-0.081 0.344-0.137 0.694-0.181 1.050-1.081-0.563-2.081-1.288-2.963-2.175-2.275-2.262-3.525-5.275-3.525-8.481s1.25-6.219 3.513-8.488c2.269-2.263 5.281-3.513 8.488-3.513s6.219 1.25 8.488 3.513c2.262 2.269 3.512 5.281 3.512 8.488s-1.25 6.219-3.512 8.488z"></path>
</svg>
