<?xml version="1.0" encoding="utf-8"?>
<!-- Generated by IcoMoon.io -->
<!DOCTYPE svg PUBLIC "-//W3C//DTD SVG 1.1//EN" "http://www.w3.org/Graphics/SVG/1.1/DTD/svg11.dtd">
<svg version="1.1" xmlns="http://www.w3.org/2000/svg" xmlns:xlink="http://www.w3.org/1999/xlink" width="32" height="32" viewBox="0 0 32 32">
<path fill="#000" d="M13.969 5.131c0.738 0.6 2.275 1.856 2.275 4.25 0 2.331-1.344 3.431-2.694 4.469-0.419 0.412-0.9 0.85-0.9 1.544s0.481 1.075 0.831 1.356l1.156 0.881c1.413 1.163 2.694 2.238 2.694 4.413 0 2.962-2.919 5.95-8.438 5.95-4.65 0.006-6.894-2.169-6.894-4.5 0-1.131 0.575-2.738 2.469-3.844 1.987-1.194 4.687-1.356 6.125-1.45-0.45-0.569-0.963-1.169-0.963-2.144 0-0.537 0.162-0.85 0.319-1.231-0.35 0.031-0.706 0.063-1.025 0.063-3.4 0-5.325-2.488-5.325-4.944 0-1.45 0.675-3.056 2.056-4.219 1.831-1.475 4.013-1.725 5.744-1.725h6.606l-2.050 1.131h-1.988zM11.688 19.119c-0.256-0.031-0.419-0.031-0.738-0.031-0.287 0-2.019 0.063-3.369 0.5-0.706 0.25-2.756 1.006-2.756 3.244s2.213 3.844 5.644 3.844c3.081 0 4.713-1.45 4.713-3.4 0-1.606-1.056-2.456-3.494-4.156zM12.619 13.131c0.738-0.725 0.8-1.731 0.8-2.3 0-2.269-1.381-5.794-4.044-5.794-0.831 0-1.731 0.406-2.244 1.038-0.544 0.662-0.706 1.513-0.706 2.331 0 2.113 1.25 5.606 4.013 5.606 0.8 0.006 1.662-0.375 2.181-0.881z"></path>
<path fill="#000" d="M30 8.894h-4.894v-4.888h-1.106v4.888h-4.981v1.113h4.981v5.056h1.106v-5.056h4.894z"></path>
</svg>
