<?xml version="1.0" encoding="utf-8"?>
<!-- Generated by IcoMoon.io -->
<!DOCTYPE svg PUBLIC "-//W3C//DTD SVG 1.1//EN" "http://www.w3.org/Graphics/SVG/1.1/DTD/svg11.dtd">
<svg version="1.1" xmlns="http://www.w3.org/2000/svg" xmlns:xlink="http://www.w3.org/1999/xlink" width="32" height="32" viewBox="0 0 32 32">
<path fill="#000" d="M25.712 18.953c-0.195-0.599-0.493-1.16-0.894-1.684s-0.9-0.989-1.496-1.396c-0.596-0.406-1.295-0.727-2.097-0.963-0.321-0.085-0.887-0.219-1.631-0.401-0.532-0.13-1.031-0.262-1.594-0.398v-6.608c0.563 0.15 0.953 0.388 1.37 0.652 0.892 0.565 1.452 1.532 1.616 2.844h4.323c-0.041-1.125-0.291-2.047-0.75-2.876-0.504-0.909-1.186-1.689-2.046-2.31s-1.889-1.093-3.024-1.403c-0.493-0.135-0.928-0.248-1.491-0.324v-2.087h-4v2.073c-0.438 0.065-0.947 0.153-1.402 0.266-1.078 0.268-2.024 0.679-2.872 1.235s-1.522 1.257-2.038 2.102c-0.516 0.845-0.769 1.845-0.769 3 0 0.599 0.088 1.187 0.26 1.765s0.465 1.123 0.878 1.636c0.413 0.513 0.968 0.979 1.668 1.396s1.544 0.754 2.598 1.011c0.58 0.147 1.177 0.283 1.677 0.411v7.474c-0.688-0.182-1.368-0.462-1.917-0.842-0.573-0.395-1.004-0.872-1.325-1.493-0.299-0.577-0.442-1.283-0.463-2.033h-4.295c0.043 1.313 0.328 2.468 0.854 3.461 0.55 1.038 1.283 1.872 2.2 2.535s1.962 1.147 3.2 1.468c0.555 0.144 1.183 0.247 1.745 0.327v2.209h4v-2.159c0.625-0.067 1.185-0.168 1.783-0.305 1.169-0.267 2.228-0.69 3.145-1.267s1.664-1.32 2.226-2.23c0.561-0.909 0.847-2.005 0.847-3.289 0-0.599-0.094-1.198-0.288-1.797zM14 13.106c-0.75-0.234-1.495-0.568-2.003-1.003-0.539-0.46-0.792-1.096-0.792-1.909 0-0.578 0.151-1.059 0.438-1.444s0.62-0.69 1.055-0.914c0.386-0.199 0.865-0.348 1.303-0.446v5.716zM21.431 22.467c-0.184 0.417-0.481 0.786-0.894 1.107s-0.984 0.583-1.649 0.786c-0.281 0.086-0.514 0.153-0.889 0.202v-6.694c0.625 0.164 1.136 0.333 1.645 0.508 0.504 0.172 0.984 0.465 1.409 0.882s0.644 1.064 0.644 1.941c0 0.428-0.084 0.85-0.267 1.267z"></path>
</svg>
