<?xml version="1.0" encoding="utf-8"?>
<!-- Generated by IcoMoon.io -->
<!DOCTYPE svg PUBLIC "-//W3C//DTD SVG 1.1//EN" "http://www.w3.org/Graphics/SVG/1.1/DTD/svg11.dtd">
<svg version="1.1" xmlns="http://www.w3.org/2000/svg" xmlns:xlink="http://www.w3.org/1999/xlink" width="32" height="32" viewBox="0 0 32 32">
<path fill="#000" d="M29.806 7.125c-0.313-1.463-1.094-2.425-2.538-2.894-0.462-0.15-1.044-0.231-1.681-0.231-1.356 0-2.962 0.375-4.2 1.281-1.869 1.362-2.975 3.731-3.363 5.238 0.762-0.331 1.3-0.444 1.994-0.444 0.137 0 0.288 0.006 0.444 0.012 0.938 0.050 1.531 0.75 1.556 1.581 0.019 0.613-0.012 1.169-0.225 1.731-0.675 1.794-1.731 3.531-2.975 5.050-0.181 0.225-0.4 0.431-0.625 0.619-0.256 0.212-0.5 0.313-0.725 0.313-0.325 0-0.619-0.219-0.863-0.637-0.337-0.581-0.563-1.181-0.762-1.819-0.775-2.481-1.050-5.056-1.488-7.6-0.206-1.219-0.438-2.487-1.125-3.556-0.625-0.963-1.5-1.412-2.594-1.412-0.175 0-0.35 0.013-0.537 0.031-0.919 0.112-2.306 1.094-2.987 1.65 0 0-3.5 2.931-5.112 4.463l1.325 1.688c0 0 1.119-0.781 1.719-1.144 0.181-0.113 0.381-0.175 0.575-0.175 0.181 0 0.356 0.056 0.5 0.188 0.281 0.244 0.6 0.563 0.769 0.881 0.356 0.669 0.7 1.369 0.919 2.088 0.825 2.769 1.594 5.544 2.362 8.331 0.394 1.425 0.869 2.762 1.75 3.975 0.825 1.137 1.681 1.675 2.769 1.675 0.5 0 1.050-0.113 1.663-0.337 1.587-0.569 2.913-1.637 4.125-2.744 2.069-1.887 3.694-4.088 5.344-6.325 1.275-1.731 2.331-3.481 3.212-5.438 0.875-1.925 1.219-3.956 0.775-6.037zM28.125 12.744c-0.831 1.838-1.819 3.513-3.106 5.256l-0.019 0.025c-1.65 2.231-3.206 4.344-5.194 6.156-1.113 1.019-2.344 2.025-3.788 2.544-0.519 0.188-0.95 0.275-1.325 0.275-0.512 0-1.15-0.15-1.963-1.262-0.838-1.15-1.262-2.438-1.594-3.65-0.775-2.819-1.537-5.575-2.369-8.35-0.244-0.825-0.637-1.613-0.994-2.275-0.2-0.369-0.525-0.75-0.994-1.162-0.325-0.281-0.725-0.431-1.162-0.431-0.369 0-0.75 0.113-1.094 0.319-0.281 0.169-0.656 0.419-0.994 0.644l-0.175-0.225c1.681-1.525 4.269-3.694 4.394-3.8 0.925-0.756 1.988-1.369 2.469-1.431 0.144-0.019 0.281-0.025 0.412-0.025 0.775 0 1.331 0.306 1.756 0.956 0.594 0.919 0.8 2.119 0.981 3.181 0.1 0.606 0.2 1.225 0.294 1.819 0.3 1.944 0.613 3.956 1.225 5.913 0.188 0.606 0.438 1.325 0.85 2.031 0.55 0.938 1.244 1.131 1.725 1.131 0.462 0 0.919-0.181 1.356-0.538 0.288-0.231 0.544-0.488 0.769-0.762 1.369-1.675 2.456-3.519 3.137-5.331 0.281-0.75 0.306-1.456 0.288-2.113-0.038-1.4-1.087-2.475-2.5-2.556-0.181-0.012-0.344-0.012-0.5-0.012-0.137 0-0.269 0.006-0.394 0.012 0.55-1.131 1.356-2.269 2.356-2.994 0.938-0.681 2.288-1.094 3.613-1.094 0.519 0 1.006 0.063 1.369 0.181 1.063 0.344 1.625 0.987 1.869 2.15 0.375 1.744 0.137 3.563-0.7 5.419z"></path>
</svg>
