<?xml version="1.0" encoding="utf-8"?>
<!-- Generated by IcoMoon.io -->
<!DOCTYPE svg PUBLIC "-//W3C//DTD SVG 1.1//EN" "http://www.w3.org/Graphics/SVG/1.1/DTD/svg11.dtd">
<svg version="1.1" xmlns="http://www.w3.org/2000/svg" xmlns:xlink="http://www.w3.org/1999/xlink" width="32" height="32" viewBox="0 0 32 32">
<path fill="#000" d="M16 4c-6.625 0-12 5.375-12 12 0 6.631 5.375 12 12 12s12-5.369 12-12c0-6.625-5.375-12-12-12zM23.619 9.531c1.35 1.588 2.206 3.6 2.356 5.806-2.163-0.113-4.75-0.113-6.825 0.081-0.262-0.662-0.531-1.313-0.825-1.938 2.394-1.037 4.238-2.4 5.294-3.95zM16 6c2.425 0 4.65 0.862 6.381 2.3-1.087 1.375-2.794 2.569-4.919 3.475-1.163-2.15-2.5-4-3.925-5.456 0.794-0.2 1.613-0.319 2.462-0.319zM11.475 7.094c1.444 1.438 2.8 3.269 3.987 5.412-2.256 0.688-4.844 1.081-7.606 1.081-0.525 0-1.038-0.019-1.544-0.050 0.719-2.819 2.625-5.156 5.162-6.444zM6.019 15.525c0.569 0.025 1.144 0.037 1.725 0.031 3.15-0.037 6.081-0.531 8.6-1.338 0.238 0.494 0.462 1 0.675 1.519-0.344 0.081-0.65 0.169-0.894 0.269-3.444 1.444-6.156 3.775-7.625 6.594-1.55-1.762-2.5-4.069-2.5-6.6 0-0.162 0.006-0.319 0.019-0.475zM16 26c-2.313 0-4.438-0.788-6.131-2.106 1.331-2.637 3.706-4.819 6.7-6.175 0.281-0.131 0.656-0.238 1.087-0.331 0.356 0.988 0.675 2.012 0.956 3.075 0.431 1.656 0.738 3.294 0.925 4.881-1.1 0.419-2.288 0.656-3.538 0.656zM21.406 24.406c-0.188-1.606-0.494-3.256-0.931-4.931-0.212-0.813-0.456-1.6-0.719-2.369 1.962-0.163 4.313-0.137 6.181 0-0.337 3.069-2.063 5.706-4.531 7.3z"></path>
</svg>
