<?xml version="1.0" encoding="utf-8"?>
<!-- Generated by IcoMoon.io -->
<!DOCTYPE svg PUBLIC "-//W3C//DTD SVG 1.1//EN" "http://www.w3.org/Graphics/SVG/1.1/DTD/svg11.dtd">
<svg version="1.1" xmlns="http://www.w3.org/2000/svg" xmlns:xlink="http://www.w3.org/1999/xlink" width="32" height="32" viewBox="0 0 32 32">
<path fill="#000" d="M16 2c-7.731 0-14 6.431-14 14.356 0 6.344 4.013 11.719 9.575 13.619 0.088 0.019 0.162 0.025 0.238 0.025 0.519 0 0.719-0.381 0.719-0.712 0-0.344-0.012-1.244-0.019-2.444-0.525 0.119-0.994 0.169-1.412 0.169-2.694 0-3.306-2.094-3.306-2.094-0.638-1.656-1.556-2.1-1.556-2.1-1.219-0.856-0.006-0.881 0.088-0.881 0.006 0 0.006 0 0.006 0 1.406 0.125 2.144 1.488 2.144 1.488 0.7 1.225 1.637 1.569 2.475 1.569 0.656 0 1.25-0.212 1.6-0.375 0.125-0.925 0.488-1.556 0.887-1.919-3.106-0.363-6.375-1.594-6.375-7.094 0-1.569 0.544-2.85 1.438-3.85-0.144-0.363-0.625-1.825 0.137-3.8 0 0 0.1-0.031 0.313-0.031 0.506 0 1.65 0.194 3.537 1.506 1.119-0.319 2.313-0.475 3.506-0.481 1.188 0.006 2.387 0.162 3.506 0.481 1.887-1.313 3.031-1.506 3.538-1.506 0.212 0 0.313 0.031 0.313 0.031 0.762 1.975 0.281 3.438 0.137 3.8 0.894 1.006 1.438 2.287 1.438 3.85 0 5.513-3.275 6.725-6.394 7.081 0.5 0.444 0.95 1.319 0.95 2.656 0 1.919-0.019 3.469-0.019 3.938 0 0.337 0.194 0.719 0.712 0.719 0.075 0 0.163-0.006 0.25-0.025 5.569-1.9 9.575-7.281 9.575-13.619 0-7.925-6.269-14.356-14-14.356zM11.1 28.006c0.137 0 0.275-0.006 0.419-0.012 0 0.175 0 0.344 0.006 0.494 0 0.15 0 0.288 0.006 0.406-0.975-0.363-1.894-0.844-2.756-1.438 0.613 0.331 1.381 0.55 2.325 0.55zM11.813 23.45c-0.050 0.137-0.094 0.281-0.131 0.431-0.213 0.063-0.469 0.113-0.731 0.113-0.681 0-1.188-0.337-1.6-1.056-0.15-0.288-0.425-0.669-0.806-1.019 1.050 0.881 2.269 1.306 3.269 1.531zM23.688 27.131c-0.988 0.744-2.063 1.331-3.188 1.762 0-0.119 0-0.256 0-0.406 0-0.744 0-1.863 0-3.15 0-0.775-0.131-1.406-0.313-1.906 2.325-0.519 5.75-2.106 5.75-7.838 0-1.537-0.444-2.906-1.325-4.069 0.194-0.806 0.344-2.225-0.319-3.938l-0.169-0.444-0.45-0.15c-0.094-0.031-0.3-0.081-0.625-0.081-0.719 0-1.931 0.256-3.719 1.425-1.063-0.262-2.175-0.4-3.319-0.4h-0.019c-1.144 0-2.262 0.137-3.319 0.4-1.787-1.169-3-1.425-3.719-1.425-0.325 0-0.531 0.056-0.625 0.088l-0.45 0.15-0.169 0.444c-0.662 1.719-0.513 3.138-0.319 3.938-0.881 1.169-1.325 2.537-1.325 4.069 0 3.1 1 4.994 2.288 6.156-0.506-0.413-1.162-0.756-1.95-0.813h-0.081c-0.819 0-1.394 0.337-1.575 0.919-0.294 0.925 0.612 1.563 0.912 1.775l0.031 0.038 0.094 0.038c0.1 0.063 0.631 0.438 1.056 1.531 0.125 0.387 0.394 0.906 0.85 1.387-0.819-0.7-1.55-1.5-2.181-2.381-1.644-2.3-2.513-5.031-2.513-7.894 0-1.806 0.344-3.556 1.025-5.206 0.656-1.594 1.594-3.019 2.794-4.244 1.194-1.225 2.587-2.188 4.131-2.856 1.6-0.694 3.3-1.050 5.050-1.050s3.45 0.35 5.050 1.044c1.55 0.669 2.938 1.631 4.131 2.856s2.137 2.656 2.794 4.244c0.681 1.65 1.025 3.4 1.025 5.206 0 2.863-0.863 5.594-2.506 7.894-0.788 1.106-1.731 2.075-2.806 2.887z"></path>
</svg>
