<?xml version="1.0" encoding="utf-8"?>
<!-- Generated by IcoMoon.io -->
<!DOCTYPE svg PUBLIC "-//W3C//DTD SVG 1.1//EN" "http://www.w3.org/Graphics/SVG/1.1/DTD/svg11.dtd">
<svg version="1.1" xmlns="http://www.w3.org/2000/svg" xmlns:xlink="http://www.w3.org/1999/xlink" width="32" height="32" viewBox="0 0 32 32">
<path fill="#000" d="M13.797 6.414c-0.487 0.105-1.090 0.301-1.54 0.533-0.564 0.291-1.026 0.685-1.413 1.206-0.419 0.563-0.632 1.249-0.632 2.041 0 1.12 0.387 2.018 1.15 2.669 0.583 0.499 1.344 0.902 2.293 1.198l1.345 0.356v-8.151c0 0-0.515 0-1.203 0.149zM14 13.106c-0.75-0.234-1.495-0.568-2.003-1.003-0.539-0.46-0.792-1.096-0.792-1.909 0-0.578 0.151-1.059 0.438-1.444s0.62-0.69 1.055-0.914c0.386-0.199 0.865-0.348 1.303-0.446v5.716z"></path>
<path fill="#000" d="M21.764 18.545c-0.527-0.518-1.125-0.893-1.776-1.115-0.559-0.192-1.090-0.366-1.717-0.53l-1.271-0.329v9.074c0 0 0.753-0.040 1.148-0.092s0.669-0.123 1.042-0.237c0.795-0.243 1.457-0.564 1.957-0.953 0.542-0.422 0.947-0.924 1.198-1.494 0.236-0.537 0.357-1.099 0.357-1.669 0-1.148-0.315-2.041-0.938-2.654zM21.431 22.467c-0.184 0.417-0.481 0.786-0.894 1.107s-0.984 0.583-1.649 0.786c-0.281 0.086-0.514 0.153-0.889 0.202v-6.694c0.625 0.164 1.136 0.333 1.645 0.508 0.504 0.172 0.984 0.465 1.409 0.882s0.644 1.064 0.644 1.941c0 0.428-0.084 0.85-0.267 1.267z"></path>
<path fill="#000" d="M25.712 18.953c-0.195-0.599-0.493-1.16-0.894-1.684s-0.9-0.989-1.496-1.396c-0.596-0.406-1.295-0.727-2.097-0.963-0.321-0.085-0.887-0.219-1.631-0.401-0.532-0.13-1.031-0.262-1.594-0.398v-6.608c0.563 0.15 0.953 0.388 1.37 0.652 0.892 0.565 1.452 1.532 1.616 2.844h4.323c-0.041-1.125-0.291-2.047-0.75-2.876-0.504-0.909-1.186-1.689-2.046-2.31s-1.889-1.093-3.024-1.403c-0.493-0.135-0.928-0.248-1.491-0.324v-2.087h-4v2.073c-0.438 0.065-0.947 0.153-1.402 0.266-1.078 0.268-2.024 0.679-2.872 1.235s-1.522 1.257-2.038 2.102c-0.516 0.845-0.769 1.845-0.769 3 0 0.599 0.088 1.187 0.26 1.765s0.465 1.123 0.878 1.636c0.413 0.513 0.968 0.979 1.668 1.396s1.544 0.754 2.598 1.011c0.58 0.147 1.177 0.283 1.677 0.411v7.474c-0.688-0.182-1.368-0.462-1.917-0.842-0.573-0.395-1.004-0.872-1.325-1.493-0.299-0.577-0.442-1.283-0.463-2.033h-4.295c0.043 1.313 0.328 2.468 0.854 3.461 0.55 1.038 1.283 1.872 2.2 2.535s1.962 1.147 3.2 1.468c0.555 0.144 1.183 0.247 1.745 0.327v2.209h4v-2.159c0.625-0.067 1.185-0.168 1.783-0.305 1.169-0.267 2.228-0.69 3.145-1.267s1.664-1.32 2.226-2.23c0.561-0.909 0.847-2.005 0.847-3.289 0-0.599-0.094-1.198-0.288-1.797zM24.306 23.514c-0.476 0.771-1.117 1.414-1.904 1.909-0.815 0.513-1.765 0.896-2.826 1.139-0.566 0.129-1.080 0.223-1.666 0.285l-0.911 0.096v2.058h-2v-2.078l-0.844-0.121c-0.579-0.082-1.167-0.186-1.642-0.309-1.117-0.29-2.055-0.719-2.877-1.314-0.803-0.58-1.423-1.284-1.901-2.185-0.313-0.59-0.526-1.305-0.642-1.992h2.295c0.096 0.5 0.26 1.052 0.488 1.492 0.395 0.765 0.936 1.37 1.653 1.864 0.634 0.439 1.488 0.79 2.23 0.983s1.241 0.203 1.241 0.203v-9.425l-0.737-0.192c-0.309-0.079-0.692-0.161-1.035-0.248-0.212-0.053-0.426-0.108-0.648-0.164l-0.002-0.001-0.003-0.001c-0.934-0.227-1.721-0.53-2.338-0.898-0.593-0.354-1.064-0.745-1.4-1.163-0.329-0.41-0.564-0.846-0.698-1.295-0.144-0.485-0.217-0.983-0.217-1.48 0-0.979 0.205-1.79 0.625-2.479 0.444-0.726 1.012-1.311 1.737-1.787 0.763-0.5 1.604-0.86 2.572-1.101 0.396-0.098 0.804-0.181 1.245-0.247l0.899-0.127v-1.935h2v1.96l0.82 0.117c0.461 0.062 0.89 0.15 1.415 0.294 1.024 0.28 1.932 0.699 2.689 1.246 0.731 0.528 1.324 1.208 1.758 1.991 0.238 0.429 0.407 0.892 0.509 1.392h-2.382c-0.317-1.188-0.959-2.102-1.886-2.689-0.578-0.366-1.098-0.576-1.711-0.766-0.602-0.186-1.212-0.217-1.212-0.217v8.571l0.783 0.184c0.477 0.115 0.887 0.228 1.341 0.338l0.296 0.070c0.711 0.174 1.228 0.3 1.535 0.381 0.693 0.205 1.3 0.483 1.803 0.825 0.505 0.345 0.931 0.741 1.265 1.177 0.331 0.433 0.579 0.9 0.738 1.386 0.16 0.494 0.241 0.994 0.241 1.488 0 1.087-0.234 2.017-0.695 2.763z"></path>
</svg>
