<?xml version="1.0" encoding="utf-8"?>
<!-- Generated by IcoMoon.io -->
<!DOCTYPE svg PUBLIC "-//W3C//DTD SVG 1.1//EN" "http://www.w3.org/Graphics/SVG/1.1/DTD/svg11.dtd">
<svg version="1.1" xmlns="http://www.w3.org/2000/svg" xmlns:xlink="http://www.w3.org/1999/xlink" width="32" height="32" viewBox="0 0 32 32">
<path fill="#000" d="M19.963 5.134c0.736 0.599 2.277 1.857 2.277 4.253 0 2.331-1.347 3.433-2.693 4.472-0.418 0.41-0.899 0.851-0.899 1.544s0.481 1.072 0.834 1.354l1.155 0.882c1.412 1.165 2.695 2.237 2.695 4.41 0 2.961-2.92 5.952-8.438 5.952-4.652 0-6.896-2.173-6.896-4.504 0-1.134 0.578-2.739 2.47-3.843 1.987-1.196 4.684-1.354 6.126-1.448-0.449-0.567-0.961-1.167-0.961-2.142 0-0.536 0.16-0.851 0.32-1.228-0.353 0.031-0.705 0.063-1.026 0.063-3.401 0-5.326-2.488-5.326-4.944 0-1.449 0.675-3.056 2.053-4.221 1.829-1.48 4.011-1.732 5.742-1.732h6.608l-2.053 1.134h-1.987zM17.685 19.119c-0.259-0.031-0.418-0.031-0.737-0.031-0.289 0-2.022 0.063-3.368 0.503-0.706 0.253-2.759 1.008-2.759 3.245s2.212 3.842 5.646 3.842c3.080 0 4.715-1.447 4.715-3.4 0-1.607-1.058-2.457-3.496-4.158zM18.615 13.134c0.739-0.725 0.803-1.733 0.803-2.3 0-2.268-1.38-5.796-4.042-5.796-0.834 0-1.733 0.409-2.247 1.040-0.545 0.662-0.705 1.512-0.705 2.33 0 2.11 1.25 5.608 4.010 5.608 0.802-0 1.666-0.379 2.181-0.883z"></path>
</svg>
