<?xml version="1.0" encoding="utf-8"?>
<!-- Generated by IcoMoon.io -->
<!DOCTYPE svg PUBLIC "-//W3C//DTD SVG 1.1//EN" "http://www.w3.org/Graphics/SVG/1.1/DTD/svg11.dtd">
<svg version="1.1" xmlns="http://www.w3.org/2000/svg" xmlns:xlink="http://www.w3.org/1999/xlink" width="32" height="32" viewBox="0 0 32 32">
<path fill="#000" d="M7.494 21.006c-1.925 0-3.494 1.569-3.494 3.488 0 1.925 1.569 3.475 3.494 3.475 1.931 0 3.494-1.556 3.494-3.475s-1.563-3.488-3.494-3.488z"></path>
<path fill="#000" d="M4 12v4.994c3 0 5.881 0.887 8 3.006s3 4.994 3 8h5c0-8.744-7.25-16-16-16z"></path>
<path fill="#000" d="M4 4v4.994c10.688 0 18.994 8.312 18.994 19.006h5.006c0-13.231-10.75-24-24-24z"></path>
</svg>
