<?xml version="1.0" encoding="utf-8"?>
<!-- Generated by IcoMoon.io -->
<!DOCTYPE svg PUBLIC "-//W3C//DTD SVG 1.1//EN" "http://www.w3.org/Graphics/SVG/1.1/DTD/svg11.dtd">
<svg version="1.1" xmlns="http://www.w3.org/2000/svg" xmlns:xlink="http://www.w3.org/1999/xlink" width="32" height="32" viewBox="0 0 32 32">
<path fill="#000" d="M16.563 6c4.081 0 7.419 0.069 10.506 0.206h0.087c1.444 0 2.625 1.375 2.625 3.069v0.069l0.006 0.069c0.144 2.125 0.212 4.331 0.212 6.556v0 0c0.006 2.225-0.069 4.431-0.212 6.556l-0.006 0.069v0.069c0 0.863-0.294 1.663-0.837 2.256-0.488 0.538-1.125 0.837-1.788 0.837h-0.1c-3.306 0.156-6.8 0.238-10.4 0.238-0.219 0-0.444 0-0.662 0v0c-0.225 0-0.45 0-0.675 0-3.612 0-7.106-0.081-10.387-0.231h-0.1c-0.662 0-1.294-0.3-1.781-0.837-0.538-0.594-0.837-1.394-0.837-2.256v-0.069l-0.006-0.069c-0.15-2.131-0.219-4.337-0.206-6.544v-0.012c-0.006-2.206 0.063-4.406 0.206-6.537l0.006-0.069v-0.069c0-1.7 1.175-3.081 2.619-3.081h0.088c3.094-0.144 6.431-0.206 10.512-0.206h1.131zM16.563 4c-0.188 0-0.375 0-0.563 0s-0.375 0-0.563 0c-3.6 0-7.137 0.050-10.6 0.206-2.55 0-4.619 2.269-4.619 5.081-0.156 2.237-0.225 4.463-0.219 6.694-0.006 2.231 0.056 4.456 0.212 6.688 0 2.813 2.069 5.1 4.619 5.1 3.425 0.163 6.919 0.238 10.488 0.238 0.225 0 0.456 0 0.681 0s0.45 0 0.669 0c3.569 0 7.063-0.075 10.494-0.238 2.556 0 4.625-2.288 4.625-5.1 0.15-2.231 0.219-4.462 0.212-6.694 0.006-2.231-0.063-4.456-0.212-6.694 0-2.813-2.069-5.069-4.625-5.069-3.462-0.162-6.994-0.212-10.6-0.212v0z"></path>
<path fill="#000" d="M12.938 22.113v-12.275l9.063 6.138-9.063 6.137z"></path>
</svg>
