<?xml version="1.0" encoding="utf-8"?>
<!-- Generated by IcoMoon.io -->
<!DOCTYPE svg PUBLIC "-//W3C//DTD SVG 1.1//EN" "http://www.w3.org/Graphics/SVG/1.1/DTD/svg11.dtd">
<svg version="1.1" xmlns="http://www.w3.org/2000/svg" xmlns:xlink="http://www.w3.org/1999/xlink" width="32" height="32" viewBox="0 0 32 32">
<path fill="#000" d="M12 6.5v12.314c0 2.598-0.603 4.499-1.791 5.651-1.066 1.033-2.629 1.535-4.777 1.535-0.75 0-1.611-0.093-2.324-0.243l0.256-1.907c0.447 0.079 0.967 0.134 1.548 0.134 1.37 0 2.368-0.404 3.052-1.234 0.707-0.859 1.037-2.12 1.037-3.97v-12.281h3zM13 5.5h-5v13.281c0 3.286-1.127 4.204-3.088 4.204-0.919 0-1.747-0.158-2.391-0.379l-0.521 3.888c0.919 0.316 2.329 0.506 3.432 0.506 4.503 0 7.568-2.117 7.568-8.186v-13.314z"></path>
<path fill="#000" d="M23.904 6c1.529 0 2.869 0.197 4.069 0.599l-0.599 2.004c-0.851-0.344-2.034-0.684-3.53-0.684-1.163 0-2.154 0.286-2.866 0.829-0.733 0.559-1.137 1.349-1.137 2.226 0 2.186 2.066 3.009 4.459 3.963l0.007 0.003 0.007 0.003c1.686 0.644 2.871 1.391 3.623 2.286 0.726 0.863 1.064 1.869 1.064 3.165 0 1.574-0.583 2.919-1.687 3.892-1.272 1.121-3.214 1.714-5.615 1.714-1.753 0-3.419-0.402-4.538-0.874l0.475-1.975c1.099 0.453 2.618 0.899 4.34 0.899 1.267 0 2.289-0.28 3.037-0.832 0.8-0.591 1.241-1.481 1.241-2.507 0-0.959-0.378-1.745-1.154-2.403-0.635-0.538-1.55-1.003-2.967-1.509-1.679-0.619-2.96-1.372-3.808-2.237-0.89-0.908-1.323-1.947-1.323-3.177 0-1.509 0.614-2.819 1.777-3.787 1.255-1.045 3.028-1.598 5.127-1.598zM23.904 5c-4.84 0-7.904 2.75-7.904 6.385 0 3.13 2.359 5.090 5.79 6.354 2.481 0.885 3.462 1.675 3.462 2.971 0 1.422-1.134 2.339-3.278 2.339-1.991 0-3.799-0.665-5.025-1.328v-0.001l-0.949 3.951c1.165 0.665 3.34 1.328 5.698 1.328 5.668-0 8.302-3.035 8.302-6.606 0-3.034-1.685-4.994-5.33-6.385-2.696-1.074-3.829-1.675-3.829-3.034 0-1.075 0.98-2.054 3.003-2.054 1.99 0 3.359 0.669 4.157 1.081l1.195-4c-1.25-0.549-2.934-1-5.291-1v0z"></path>
</svg>
