<?xml version="1.0" encoding="utf-8"?>
<!-- Generated by IcoMoon.io -->
<!DOCTYPE svg PUBLIC "-//W3C//DTD SVG 1.1//EN" "http://www.w3.org/Graphics/SVG/1.1/DTD/svg11.dtd">
<svg version="1.1" xmlns="http://www.w3.org/2000/svg" xmlns:xlink="http://www.w3.org/1999/xlink" width="32" height="32" viewBox="0 0 32 32">
<path fill="#000" d="M27.979 6h-23.957c-1.115 0-2.021 0.905-2.021 2.019v15.959c0 1.115 0.906 2.021 2.021 2.021h23.957c1.115 0 2.021-0.907 2.021-2.021v-15.959c0-1.114-0.907-2.019-2.021-2.019zM17.751 22h-3.503v-6l-2.627 3.367-2.626-3.367v6h-3.503v-12h3.503l2.626 4.249 2.627-4.249h3.503v12zM22.98 22l-4.352-6h2.625v-6h3.503v6h2.627l-4.402 6z"></path>
</svg>
