<?xml version="1.0" encoding="utf-8"?>
<!-- Generated by IcoMoon.io -->
<!DOCTYPE svg PUBLIC "-//W3C//DTD SVG 1.1//EN" "http://www.w3.org/Graphics/SVG/1.1/DTD/svg11.dtd">
<svg version="1.1" xmlns="http://www.w3.org/2000/svg" xmlns:xlink="http://www.w3.org/1999/xlink" width="32" height="32" viewBox="0 0 32 32">
<path fill="#000" d="M31.788 9.3c0-2.813-2.069-5.075-4.625-5.075-3.462-0.162-6.994-0.225-10.6-0.225-0.188 0-0.375 0-0.563 0s-0.375 0-0.563 0c-3.6 0-7.137 0.063-10.6 0.225-2.55 0-4.619 2.275-4.619 5.087-0.156 2.225-0.225 4.45-0.219 6.675-0.006 2.225 0.063 4.45 0.212 6.681 0 2.813 2.069 5.094 4.619 5.094 3.637 0.169 7.369 0.244 11.162 0.238 3.8 0.012 7.519-0.063 11.162-0.238 2.556 0 4.625-2.281 4.625-5.094 0.15-2.231 0.219-4.456 0.212-6.688 0.013-2.225-0.056-4.45-0.206-6.681zM12.938 22.119v-12.281l9.063 6.137-9.063 6.144z"></path>
</svg>
