<?xml version="1.0" encoding="utf-8"?>
<!-- Generated by IcoMoon.io -->
<!DOCTYPE svg PUBLIC "-//W3C//DTD SVG 1.1//EN" "http://www.w3.org/Graphics/SVG/1.1/DTD/svg11.dtd">
<svg version="1.1" xmlns="http://www.w3.org/2000/svg" xmlns:xlink="http://www.w3.org/1999/xlink" width="32" height="32" viewBox="0 0 32 32">
<path fill="#000" d="M13.117 9.632c-0.266-0.708-0.573-0.657-0.778-0.665s-0.384-0.004-0.661 0.001c-0.234 0.004-0.618 0.064-0.952 0.401s-1.273 1.145-1.338 2.858c-0.064 1.713 1.13 3.415 1.297 3.653s2.281 3.952 5.795 5.479c3.514 1.527 3.533 1.061 4.178 1.027s2.108-0.765 2.431-1.567c0.323-0.802 0.349-1.499 0.267-1.647s-0.313-0.244-0.657-0.431c-0.345-0.187-2.037-1.094-2.355-1.222s-0.549-0.194-0.796 0.146c-0.247 0.339-0.949 1.098-1.162 1.323s-0.419 0.246-0.764 0.058c-0.344-0.187-1.461-0.597-2.756-1.832-1.008-0.961-1.669-2.128-1.861-2.483s-0.001-0.538 0.181-0.704c0.164-0.15 0.366-0.394 0.55-0.591s0.247-0.339 0.373-0.568c0.125-0.228 0.075-0.433-0.006-0.611s-0.718-1.917-0.984-2.624z"></path>
<path fill="#000" d="M16.254 4c3.141 0 6.092 1.213 8.311 3.415 2.215 2.198 3.435 5.119 3.435 8.225s-1.22 6.027-3.435 8.225c-2.219 2.202-5.171 3.415-8.311 3.415-1.988 0-3.953-0.501-5.682-1.45l-0.751-0.412-4.657 1.479 1.511-4.456-0.486-0.798c-1.1-1.806-1.681-3.882-1.681-6.003 0-3.106 1.22-6.027 3.435-8.225 2.219-2.202 5.171-3.414 8.311-3.414zM16.254 2c-7.591 0-13.745 6.106-13.745 13.639 0 2.577 0.721 4.987 1.972 7.043l-2.481 7.318 7.61-2.418c1.969 1.080 4.234 1.697 6.644 1.697 7.592 0 13.746-6.107 13.746-13.639s-6.154-13.639-13.746-13.639v0z"></path>
</svg>
