<?xml version="1.0" encoding="utf-8"?>
<!-- Generated by IcoMoon.io -->
<!DOCTYPE svg PUBLIC "-//W3C//DTD SVG 1.1//EN" "http://www.w3.org/Graphics/SVG/1.1/DTD/svg11.dtd">
<svg version="1.1" xmlns="http://www.w3.org/2000/svg" xmlns:xlink="http://www.w3.org/1999/xlink" width="32" height="32" viewBox="0 0 32 32">
<path fill="#000" d="M24.905 10.278l-1.712 8.574c0.11-0.447 0.966-4.803 1.712-8.574z"></path>
<path fill="#000" d="M23.548 2c0 0-12.835 0-14.889 0s-2.659 1.55-2.659 2.526c0 0.977 0 23.727 0 23.727 0 1.099 0.589 1.507 0.92 1.642s1.245 0.248 1.792-0.386c0 0 7.029-8.193 7.15-8.314 0.183-0.183 0.183-0.195 0.365-0.195 0.365 0 3.075 0 4.548 0 1.911 0 2.218-1.355 2.418-2.16l1.712-8.568c0.38-1.919 0.731-3.684 0.941-4.708 0.475-2.318-0.112-3.564-2.298-3.564zM23.527 6c0 0-1.973 9.763-2.252 11.052-0.337 1.559-0.478 1.948-2.087 1.948-1.1 0-3.898 0-3.898 0-0.172 0-0.242-0.009-0.378 0.128-0.090 0.090-4.886 5.598-4.886 5.598-1.19 1.462-1.682 1.987-1.815 1.987s-0.211 0-0.211-2.401v-18.58c0-1.542 0.019-1.732 1.825-1.732 1.534 0 12.175 0 12.175 0 1.875 0 1.927 0.052 1.527 2z"></path>
<path fill="#000" d="M24.905 10.278l0.941-4.711c-0.21 1.024-0.561 2.792-0.941 4.711z"></path>
<path fill="#000" d="M20.536 6c-0.348 0-9.875 0-9.875 0-0.405 0-0.661 0.35-0.661 0.662v14.453c0 0.042 0.025 0.061 0.058 0.023 0 0 3.013-3.483 3.379-3.939s0.531-0.511 1.077-0.511c0 0 3.543 0 3.888 0 0.409 0 0.64-0.359 0.682-0.561s0.659-3.013 0.733-3.382c0.074-0.369-0.263-0.744-0.608-0.744s-4.050 0-4.050 0c-0.488 0-0.472-0.353-0.472-0.842v-0.345c0-0.488-0.018-0.813 0.47-0.813 0 0 4.4 0 4.707 0s0.638-0.278 0.694-0.541l0.529-2.753c0.084-0.404-0.223-0.706-0.552-0.706z"></path>
</svg>
