<?xml version="1.0" encoding="utf-8"?>
<!-- Generated by IcoMoon.io -->
<!DOCTYPE svg PUBLIC "-//W3C//DTD SVG 1.1//EN" "http://www.w3.org/Graphics/SVG/1.1/DTD/svg11.dtd">
<svg version="1.1" xmlns="http://www.w3.org/2000/svg" xmlns:xlink="http://www.w3.org/1999/xlink" width="32" height="32" viewBox="0 0 32 32">
<path fill="#000" d="M15.077 18.996c-0.958-0.647-1.921-1.286-2.879-1.933-0.127-0.086-0.214-0.092-0.344-0.002l-2.429 1.635c1.948 1.298 5.825 3.887 5.825 3.887v-3.362c-0.001-0.076-0.097-0.174-0.173-0.225z"></path>
<path fill="#000" d="M12.193 15.042c0.966-0.635 1.928-1.276 2.882-1.929 0.093-0.064 0.173-0.219 0.175-0.333v-3.232c0 0-3.877 2.57-5.829 3.871 0.856 0.572 1.667 1.12 2.487 1.653 0.064 0.041 0.212 0.018 0.285-0.030z"></path>
<path fill="#000" d="M16.865 13.085c0.988 0.669 1.98 1.332 2.977 1.988 0.057 0.038 0.183 0.038 0.24 0l2.484-1.654-5.816-3.889v3.334c0.001 0.075 0.050 0.176 0.115 0.22z"></path>
<path fill="#000" d="M16.132 14.398c-0.076-0.050-0.226-0.033-0.296 0.011-0.301 0.185-0.591 0.388-0.885 0.585-0.515 0.346-1.585 1.064-1.585 1.064l2.428 1.617c0.109 0.072 0.277 0.076 0.391 0.007l2.438-1.625c0 0-2.13-1.419-2.491-1.658z"></path>
<path fill="#000" d="M8.813 14.82v2.476l1.851-1.24z"></path>
<path fill="#000" d="M16 2c-7.732 0-14 6.268-14 14s6.268 14 14 14 14-6.268 14-14-6.268-14-14-14zM24.688 18.563c0 0.362-0.166 0.617-0.469 0.818-2.571 1.707-5.141 3.42-7.705 5.137-0.366 0.245-0.698 0.235-1.062-0.009-2.549-1.707-5.107-3.409-7.664-5.105-0.319-0.212-0.475-0.472-0.475-0.858v-4.983c0-0.384 0.158-0.646 0.476-0.857 2.557-1.696 5.121-3.398 7.67-5.105 0.364-0.244 0.693-0.25 1.059-0.006 2.565 1.717 5.133 3.429 7.704 5.137 0.292 0.194 0.466 0.434 0.466 0.791v5.039z"></path>
<path fill="#000" d="M19.765 17.077c-0.941 0.639-1.887 1.27-2.837 1.896-0.151 0.099-0.18 0.207-0.179 0.387v3.209l5.815-3.875-2.408-1.618c-0.147-0.1-0.246-0.098-0.392 0.001z"></path>
<path fill="#000" d="M23.125 17.292v-2.476l-1.849 1.242z"></path>
</svg>
