<?xml version="1.0" encoding="utf-8"?>
<!-- Generated by IcoMoon.io -->
<!DOCTYPE svg PUBLIC "-//W3C//DTD SVG 1.1//EN" "http://www.w3.org/Graphics/SVG/1.1/DTD/svg11.dtd">
<svg version="1.1" xmlns="http://www.w3.org/2000/svg" xmlns:xlink="http://www.w3.org/1999/xlink" width="32" height="32" viewBox="0 0 32 32">
<path fill="#000" d="M24.038 4.275c-0.706 0-1.406-0.050-2.038-0.275l-6 10-6-10c-0.631 0.225-1.294 0.275-2 0.275-0.694 0-1.381-0.056-2-0.275l8 13.294v10.706c0.625-0.219 1.3-0.275 2-0.275s1.375 0.056 2 0.275v-10.688l8-13.313c-0.619 0.213-1.269 0.275-1.962 0.275zM17.137 16.781l-0.137 0.25v9.731c-0.313-0.038-0.7-0.044-1-0.044s-0.625 0.006-1 0.044v-9.744l-0.15-0.238-6.912-11.506c0.019 0 0.044 0 0.063 0 0.475 0 1-0.019 1.544-0.119l5.613 9.363 0.838 1.425 0.875-1.431 5.613-9.369c0.563 0.1 1.1 0.106 1.55 0.106 0.012 0 0.019 0 0.031 0l-6.925 11.531z"></path>
</svg>
