<?xml version="1.0" encoding="utf-8"?>
<!-- Generated by IcoMoon.io -->
<!DOCTYPE svg PUBLIC "-//W3C//DTD SVG 1.1//EN" "http://www.w3.org/Graphics/SVG/1.1/DTD/svg11.dtd">
<svg version="1.1" xmlns="http://www.w3.org/2000/svg" xmlns:xlink="http://www.w3.org/1999/xlink" width="32" height="32" viewBox="0 0 32 32">
<path fill="#000" d="M23.548 2c0 0-12.835 0-14.889 0s-2.659 1.55-2.659 2.526c0 0.977 0 23.727 0 23.727 0 1.099 0.589 1.507 0.92 1.642s1.245 0.248 1.792-0.386c0 0 7.029-8.181 7.15-8.302 0.183-0.183 0.183-0.183 0.365-0.183 0.365 0 3.075 0 4.548 0 1.911 0 2.218-1.367 2.418-2.172 0.166-0.674 2.031-10.248 2.653-13.285 0.475-2.318-0.112-3.567-2.298-3.567zM23.193 18.852c0.166-0.674 2.031-10.248 2.653-13.285zM22.668 6.042l-0.625 3.233c-0.075 0.353-0.518 0.725-0.929 0.725s-5.995 0-5.995 0c-0.652 0-1.12 0.384-1.12 1.038v0.841c0 0.655 0.47 1.118 1.123 1.118 0 0 4.655 0 5.116 0s0.913 0.507 0.814 1c-0.1 0.494-0.568 2.911-0.624 3.181s-0.365 0.733-0.913 0.733c-0.462 0-4.017 0-4.017 0-0.732 0-0.953 0.096-1.442 0.706s-4.891 5.912-4.891 5.912c-0.045 0.051-0.088 0.037-0.088-0.020v-18.515c0-0.418 0.362-0.908 0.905-0.908 0 0 11.482 0 11.948 0 0.44-0 0.851 0.414 0.738 0.956z"></path>
</svg>
