<?xml version="1.0" encoding="utf-8"?>
<!-- Generated by IcoMoon.io -->
<!DOCTYPE svg PUBLIC "-//W3C//DTD SVG 1.1//EN" "http://www.w3.org/Graphics/SVG/1.1/DTD/svg11.dtd">
<svg version="1.1" xmlns="http://www.w3.org/2000/svg" xmlns:xlink="http://www.w3.org/1999/xlink" width="32" height="32" viewBox="0 0 32 32">
<path fill="#000" d="M9 16.775v5.6c0 0.431 0.281 0.875 0.713 0.875h1.787v3.25c0 0.831 0.669 1.5 1.5 1.5s1.5-0.669 1.5-1.5v-3.25h3.063v3.25c0 0.469 0.212 0.887 0.55 1.163 0.244 0.212 0.569 0.337 0.919 0.337 0.006 0 0.012 0 0.019 0s0.006 0 0.012 0c0.831 0 1.5-0.669 1.5-1.5v-3.25h1.725c0.438 0 0.712-0.444 0.712-0.869v-10.381h-14v4.775z"></path>
<path fill="#000" d="M25.5 11c-0.831 0-1.5 0.669-1.5 1.5v6c0 0.831 0.669 1.5 1.5 1.5s1.5-0.669 1.5-1.5v-6c0-0.831-0.669-1.5-1.5-1.5z"></path>
<path fill="#000" d="M6.5 11c-0.831 0-1.5 0.669-1.5 1.5v6c0 0.831 0.669 1.5 1.5 1.5s1.5-0.669 1.5-1.5v-6c0-0.831-0.669-1.5-1.5-1.5z"></path>
<path fill="#000" d="M19.45 5.569l1.156-1.369c0.025-0.031-0.012-0.1-0.081-0.156-0.069-0.050-0.15-0.063-0.169-0.025l-1.2 1.425c-0.85-0.338-1.887-0.55-3.162-0.55-1.281-0.006-2.325 0.2-3.175 0.531l-1.188-1.4c-0.025-0.031-0.1-0.025-0.169 0.025s-0.106 0.112-0.081 0.156l1.144 1.35c-3.012 1.306-3.463 4.512-3.525 5.45h13.975c-0.056-0.944-0.5-4.106-3.525-5.438zM12.925 8.681c-0.463 0-0.844-0.375-0.844-0.831s0.375-0.831 0.844-0.831c0.463 0 0.844 0.375 0.844 0.831s-0.375 0.831-0.844 0.831zM19.075 8.681c-0.462 0-0.844-0.375-0.844-0.831s0.375-0.831 0.844-0.831c0.462 0 0.844 0.375 0.844 0.831s-0.381 0.831-0.844 0.831z"></path>
</svg>
