<?xml version="1.0" encoding="utf-8"?>
<!-- Generated by IcoMoon.io -->
<!DOCTYPE svg PUBLIC "-//W3C//DTD SVG 1.1//EN" "http://www.w3.org/Graphics/SVG/1.1/DTD/svg11.dtd">
<svg version="1.1" xmlns="http://www.w3.org/2000/svg" xmlns:xlink="http://www.w3.org/1999/xlink" width="32" height="32" viewBox="0 0 32 32">
<path fill="#000" d="M22 13v9.313h-2.438v4.188c0 0.275-0.188 0.494-0.456 0.5v0h-0.006c-0.006 0-0.012 0-0.019 0-0.1 0-0.194-0.038-0.269-0.1l-0.006-0.006-0.025-0.006c-0.125-0.1-0.212-0.25-0.212-0.387v-4.188h-5.069v4.188c0 0.275-0.225 0.5-0.5 0.5s-0.5-0.225-0.5-0.5v-4.188h-2.5v-9.313h12zM23 12h-14v10.375c0 0.431 0.344 0.938 0.775 0.938h1.725v3.188c0 0.831 0.669 1.5 1.5 1.5s1.5-0.669 1.5-1.5v-3.188h3.063v3.188c0 0.469 0.244 0.887 0.581 1.163 0.244 0.212 0.581 0.337 0.938 0.337 0.006 0 0.019 0 0.025 0s-0.019 0-0.012 0c0.831 0 1.475-0.669 1.475-1.5v-3.188h1.788c0.438 0 0.65-0.506 0.65-0.931v-10.381h-0.006z"></path>
<path fill="#000" d="M25.5 12c0.275 0 0.5 0.225 0.5 0.5v6c0 0.275-0.225 0.5-0.5 0.5s-0.5-0.225-0.5-0.5v-6c0-0.275 0.225-0.5 0.5-0.5zM25.5 11c-0.831 0-1.5 0.669-1.5 1.5v6c0 0.831 0.669 1.5 1.5 1.5s1.5-0.669 1.5-1.5v-6c0-0.831-0.669-1.5-1.5-1.5v0z"></path>
<path fill="#000" d="M6.5 12c0.275 0 0.5 0.225 0.5 0.5v6c0 0.275-0.225 0.5-0.5 0.5s-0.5-0.225-0.5-0.5v-6c0-0.275 0.225-0.5 0.5-0.5zM6.5 11c-0.831 0-1.5 0.669-1.5 1.5v6c0 0.831 0.669 1.5 1.5 1.5s1.5-0.669 1.5-1.5v-6c0-0.831-0.669-1.5-1.5-1.5v0z"></path>
<path fill="#000" d="M15.938 5.894h0.056c0.888 0 1.706 0.119 2.425 0.35l0.625 0.275c1.794 0.787 2.494 2.337 2.775 3.481h-11.644c0.275-1.162 0.975-2.725 2.756-3.5l0.644-0.281c0.706-0.213 1.5-0.325 2.362-0.325zM11.588 4c-0.031 0-0.075 0.013-0.113 0.050-0.069 0.050-0.106 0.112-0.081 0.156l1.144 1.381c-3.013 1.306-3.463 4.481-3.525 5.419h13.975c-0.069-0.938-0.512-4.069-3.538-5.4l1.156-1.388c0.025-0.031-0.012-0.106-0.081-0.162-0.044-0.031-0.094-0.050-0.125-0.050-0.019 0-0.031 0.006-0.044 0.019l-1.2 1.419c-0.85-0.338-1.887-0.55-3.162-0.55-0.019 0-0.037 0-0.063 0-1.25 0-2.275 0.206-3.112 0.531l-1.188-1.406c0-0.013-0.019-0.019-0.044-0.019v0z"></path>
<path fill="#000" d="M12.912 8.681c-0.463 0-0.844-0.375-0.844-0.831s0.375-0.831 0.844-0.831c0.463 0 0.844 0.375 0.844 0.831s-0.375 0.831-0.844 0.831z"></path>
<path fill="#000" d="M19.063 8.681c-0.462 0-0.844-0.375-0.844-0.831s0.375-0.831 0.844-0.831c0.462 0 0.844 0.375 0.844 0.831s-0.381 0.831-0.844 0.831z"></path>
</svg>
