<?xml version="1.0" encoding="utf-8"?>
<!-- Generated by IcoMoon.io -->
<!DOCTYPE svg PUBLIC "-//W3C//DTD SVG 1.1//EN" "http://www.w3.org/Graphics/SVG/1.1/DTD/svg11.dtd">
<svg version="1.1" xmlns="http://www.w3.org/2000/svg" xmlns:xlink="http://www.w3.org/1999/xlink" width="32" height="32" viewBox="0 0 32 32">
<path fill="#000" d="M20.85 9.619c-2.1 0-2.988 1.031-4.45 1.031-1.5 0-2.644-1.025-4.463-1.025-1.781 0-3.681 1.119-4.888 3.025-1.694 2.688-1.406 7.75 1.337 12.062 0.981 1.544 2.294 3.275 4.013 3.294 0.012 0 0.019 0 0.031 0 1.494 0 1.938-1.006 3.994-1.019 0.012 0 0.019 0 0.031 0 2.025 0 2.431 1.012 3.919 1.012 0.012 0 0.019 0 0.031 0 1.719-0.019 3.1-1.938 4.081-3.475 0.706-1.106 0.969-1.663 1.512-2.913-3.969-1.55-4.606-7.338-0.681-9.556-1.2-1.544-2.881-2.438-4.469-2.438v0z"></path>
<path fill="#000" d="M20.387 4c-1.25 0.088-2.706 0.906-3.563 1.975-0.775 0.969-1.412 2.406-1.162 3.8 0.031 0 0.063 0 0.1 0 1.331 0 2.694-0.825 3.488-1.881 0.769-1.006 1.35-2.431 1.137-3.894v0z"></path>
</svg>
