<?xml version="1.0" encoding="utf-8"?>
<!-- Generated by IcoMoon.io -->
<!DOCTYPE svg PUBLIC "-//W3C//DTD SVG 1.1//EN" "http://www.w3.org/Graphics/SVG/1.1/DTD/svg11.dtd">
<svg version="1.1" xmlns="http://www.w3.org/2000/svg" xmlns:xlink="http://www.w3.org/1999/xlink" width="32" height="32" viewBox="0 0 32 32">
<path fill="#000" d="M15.131 17.225l-1.137-0.856-0.006-0.006c-0.363-0.288-0.625-0.519-0.625-0.919 0-0.438 0.313-0.738 0.681-1.088l0.031-0.025c1.25-0.95 2.794-2.144 2.794-4.662 0-1.681-0.744-2.794-1.456-3.606h0.813l3.775-2.063h-8.344c-1.581 0-3.919 0.2-5.912 1.788l-0.006 0.019c-1.362 1.125-2.175 2.781-2.175 4.412 0 1.325 0.544 2.637 1.494 3.588 1.338 1.35 3.019 1.631 4.194 1.631 0.094 0 0.188 0 0.281-0.006-0.050 0.188-0.075 0.394-0.075 0.644 0 0.681 0.225 1.206 0.506 1.637-1.5 0.119-3.631 0.406-5.306 1.394-2.462 1.419-2.656 3.5-2.656 4.1 0 2.387 2.231 4.8 7.219 4.8 5.725 0 8.719-3.113 8.719-6.188 0-2.319-1.425-3.475-2.806-4.594zM7.294 8.744c0-0.838 0.188-1.469 0.581-1.931 0.406-0.494 1.137-0.819 1.813-0.819 1.244 0 2.056 0.938 2.525 1.725 0.575 0.969 0.931 2.256 0.931 3.35 0 0.306 0 1.25-0.637 1.863-0.438 0.419-1.169 0.713-1.787 0.713-1.281 0-2.094-0.919-2.544-1.688-0.65-1.113-0.881-2.387-0.881-3.213zM14.863 23c0 1.712-1.575 2.781-4.113 2.781-3.006 0-5.019-1.288-5.019-3.206 0-1.631 1.344-2.3 2.362-2.656 1.181-0.381 2.769-0.456 3.131-0.456 0.244 0 0.381 0 0.544 0.012 2.287 1.575 3.094 2.256 3.094 3.525z"></path>
<path fill="#000" d="M25.125 8.875v-4.875h-2.125v4.875h-5v2.125h5v5.063h2.125v-5.063h4.875v-2.125z"></path>
</svg>
