<?xml version="1.0" encoding="utf-8"?>
<!-- Generated by IcoMoon.io -->
<!DOCTYPE svg PUBLIC "-//W3C//DTD SVG 1.1//EN" "http://www.w3.org/Graphics/SVG/1.1/DTD/svg11.dtd">
<svg version="1.1" xmlns="http://www.w3.org/2000/svg" xmlns:xlink="http://www.w3.org/1999/xlink" width="32" height="32" viewBox="0 0 32 32">
<path fill="#000" d="M28 2h-5l-7 13.82-7-13.82h-5l7.023 13h-3.023v3h4.598l0.902 1.938v1.063h-5.5v3h5.5v6h5v-6h5.5v-3h-5.5v-1.063l0.931-1.938h4.569v-3h-3.018l7.018-13zM23 16v1h-4.188l-1.313 2.688v2.313h5.5v1h-5.5v6h-3v-6h-5.5v-1h5.5v-2.234l-1.25-2.766h-4.25v-1h3.7l-7.023-13h2.698l7.625 15 7.625-15h2.699l-7.018 13h3.694z"></path>
</svg>
