<?xml version="1.0" encoding="utf-8"?>
<!-- Generated by IcoMoon.io -->
<!DOCTYPE svg PUBLIC "-//W3C//DTD SVG 1.1//EN" "http://www.w3.org/Graphics/SVG/1.1/DTD/svg11.dtd">
<svg version="1.1" xmlns="http://www.w3.org/2000/svg" xmlns:xlink="http://www.w3.org/1999/xlink" width="32" height="32" viewBox="0 0 32 32">
<path fill="#000" d="M26.075 4h-20.025c-1.094 0-2.050 0.787-2.050 1.869v20.069c0 1.087 0.956 2.056 2.050 2.056h20.019c1.1 0 1.925-0.975 1.925-2.056v-20.069c0.006-1.081-0.825-1.869-1.919-1.869zM11.438 24h-3.438v-10.688h3.438v10.688zM9.838 11.688h-0.025c-1.1 0-1.813-0.819-1.813-1.844 0-1.044 0.731-1.844 1.856-1.844s1.813 0.794 1.838 1.844c0 1.025-0.713 1.844-1.856 1.844zM24 24h-3.438v-5.844c0-1.4-0.5-2.356-1.744-2.356-0.95 0-1.512 0.644-1.762 1.269-0.094 0.225-0.119 0.531-0.119 0.844v6.087h-3.438v-10.688h3.438v1.488c0.5-0.713 1.281-1.738 3.1-1.738 2.256 0 3.962 1.488 3.962 4.694v6.244z"></path>
</svg>
