<?xml version="1.0" encoding="utf-8"?>
<!-- Generated by IcoMoon.io -->
<!DOCTYPE svg PUBLIC "-//W3C//DTD SVG 1.1//EN" "http://www.w3.org/Graphics/SVG/1.1/DTD/svg11.dtd">
<svg version="1.1" xmlns="http://www.w3.org/2000/svg" xmlns:xlink="http://www.w3.org/1999/xlink" width="32" height="32" viewBox="0 0 32 32">
<path fill="#000" d="M17.481 3v3.881l0.944 0.050c1.056 0.056 1.8 0.206 2.544 0.494 0.863 0.331 1.512 0.788 1.944 1.356 0.356 0.475 0.563 1.213 0.625 2.262 0.038 0.55-0.063 1.069-0.163 1.375-0.094 0.275-0.331 0.706-0.694 1.025-0.337 0.3-0.538 0.419-0.769 0.525l-2.631 1.206 2.813 0.675c0.462 0.113 0.875 0.275 1.337 0.531 0.825 0.456 1.125 0.944 1.325 1.406 0.181 0.419 0.288 1.387 0.244 2.262-0.044 0.837-0.275 1.969-0.788 2.644-0.538 0.7-1.331 1.256-2.363 1.644-0.85 0.319-1.944 0.506-3.406 0.581l-0.95 0.044v4.037h-0.5v-4h-3.994v4h-0.563v-4h-5.2l0.188-1h0.8c0.537 0 0.756-0.025 1.094-0.188 0.012-0.006 0.025-0.012 0.044-0.019 0.506-0.231 0.688-0.663 0.762-0.85 0.006-0.019 0.019-0.044 0.019-0.050 0.181-0.369 0.188-0.819 0.188-1.525v-11.125c0-0.731-0.006-0.85-0.194-1.219-0.181-0.363-0.456-0.631-0.838-0.813-0.369-0.175-0.825-0.213-1.531-0.213h-0.806v-1h5.475v-4h0.563v4h3.988v-4h0.494zM18.481 2h-2.494v4h-1.988v-4h-2.556v4h-5.444v3h1.775c0.544 0 0.906 0.019 1.1 0.113s0.294 0.206 0.375 0.363c0.081 0.156 0.088 0.194 0.088 0.769v11.125c0 0.563-0.006 0.919-0.056 1.1-0.075 0.169-0.137 0.325-0.331 0.413s-0.181 0.119-0.725 0.119h-1.713l-0.513 3h5.444v4h2.556v-4h1.988v4h2.494v-4.088c1.625-0.081 2.775-0.294 3.706-0.644 1.206-0.45 2.144-1.106 2.806-1.969 0.656-0.863 0.938-2.181 0.994-3.2 0.050-0.906-0.044-2.075-0.325-2.712-0.313-0.719-0.794-1.35-1.756-1.881-0.506-0.281-1.006-0.488-1.587-0.625 0.337-0.156 0.619-0.338 1.019-0.688 0.469-0.412 0.813-0.981 0.975-1.456 0.163-0.469 0.256-1.125 0.219-1.762-0.069-1.050-0.275-2.069-0.825-2.8s-1.356-1.294-2.381-1.688c-0.788-0.3-1.594-0.487-2.844-0.556v-3.931z"></path>
<path fill="#000" d="M16 9.375h-2v4.625h2v-4.625z"></path>
<path fill="#000" d="M16 17h-2v5.625h2v-5.625z"></path>
<path fill="#000" d="M18.5 9.619v4.1c0.375-0.181 0.594-0.425 0.831-0.731 0.288-0.375 0.438-0.806 0.438-1.294 0-0.506-0.15-0.938-0.419-1.3-0.244-0.319-0.475-0.619-0.85-0.775v0z"></path>
<path fill="#000" d="M18.5 17.1v5.175c0.125-0.038 0.238-0.050 0.363-0.1 0.613-0.238 0.988-0.494 1.475-0.919 0.469-0.413 0.606-0.994 0.606-1.663 0-0.569-0.206-1.056-0.494-1.45s-0.731-0.619-1.212-0.825c-0.231-0.106-0.425-0.169-0.738-0.219v0z"></path>
</svg>
