<?xml version="1.0" encoding="utf-8"?>
<!-- Generated by IcoMoon.io -->
<!DOCTYPE svg PUBLIC "-//W3C//DTD SVG 1.1//EN" "http://www.w3.org/Graphics/SVG/1.1/DTD/svg11.dtd">
<svg version="1.1" xmlns="http://www.w3.org/2000/svg" xmlns:xlink="http://www.w3.org/1999/xlink" width="32" height="32" viewBox="0 0 32 32">
<path fill="#000" d="M30.031 15.688c0-1.731-1.387-3.137-3.094-3.137-0.813 0-1.544 0.313-2.1 0.831-2.025-1.425-4.756-2.363-7.806-2.537l1.369-4.575 4.194 0.844c0.144 1.419 1.325 2.525 2.769 2.525 0.006 0 0.006 0 0.012 0s0.006 0 0.012 0c1.538 0 2.781-1.262 2.781-2.819s-1.25-2.819-2.788-2.819c-0.006 0-0.006 0-0.012 0 0 0-0.006 0-0.006 0-1.075 0-2 0.612-2.469 1.519l-5.606-1.125-1.925 6.437-0.156 0.006c-3.144 0.137-5.969 1.088-8.044 2.544-0.55-0.519-1.287-0.831-2.1-0.831-1.706 0-3.094 1.406-3.094 3.137 0 1.225 0.688 2.281 1.694 2.8-0.050 0.306-0.075 0.613-0.075 0.925 0.006 4.738 5.563 8.587 12.412 8.587s12.406-3.85 12.406-8.594c0-0.313-0.025-0.619-0.069-0.925 1.006-0.519 1.694-1.575 1.694-2.794zM4.112 16.944c-0.413-0.281-0.681-0.756-0.681-1.3 0-0.863 0.694-1.569 1.544-1.569 0.35 0 0.675 0.119 0.938 0.319-0.844 0.744-1.469 1.606-1.8 2.55zM24.331 6.819c0-0.575 0.462-1.050 1.031-1.050s1.031 0.469 1.031 1.050c0 0.575-0.462 1.050-1.031 1.050s-1.031-0.469-1.031-1.050zM9.906 18.025c0-1.1 0.887-1.988 1.988-1.988s1.988 0.887 1.988 1.988c0 1.1-0.887 1.988-1.988 1.988s-1.988-0.887-1.988-1.988zM16 25c-2.975-0.012-4.75-1.781-4.825-1.856l0.787-0.775c0.012 0.012 1.481 1.512 4.037 1.525 2.519-0.012 4.012-1.512 4.031-1.525l0.788 0.775c-0.075 0.075-1.844 1.844-4.819 1.856zM20.144 20.012c-1.1 0-1.988-0.887-1.988-1.988s0.887-1.988 1.988-1.988 1.988 0.887 1.988 1.988c0 1.1-0.894 1.988-1.988 1.988zM27.9 16.969c-0.337-0.956-0.975-1.838-1.831-2.588 0.262-0.206 0.594-0.325 0.95-0.325 0.869 0 1.569 0.713 1.569 1.594 0.006 0.55-0.269 1.031-0.688 1.319z"></path>
</svg>
