<?xml version="1.0" encoding="utf-8"?>
<!-- Generated by IcoMoon.io -->
<!DOCTYPE svg PUBLIC "-//W3C//DTD SVG 1.1//EN" "http://www.w3.org/Graphics/SVG/1.1/DTD/svg11.dtd">
<svg version="1.1" xmlns="http://www.w3.org/2000/svg" xmlns:xlink="http://www.w3.org/1999/xlink" width="32" height="32" viewBox="0 0 32 32">
<path fill="#000" d="M12.091 15.566c0.233-0.042 0.474-0.065 0.724-0.065l-0.195-0.001h6.489c0.281 0 0.55-0.039 0.807-0.11 1.211-0.335 2.084-1.409 2.084-2.729v-5.452c0-1.552-1.322-2.718-2.893-2.975-0.996-0.164-2.454-0.239-3.443-0.234s-1.936 0.088-2.767 0.234c-2.45 0.426-2.897 1.323-2.897 2.975v1.79h6v1h-7.949c-2.227 0-4.034 2.661-4.051 5.953-0 0.016-0 0.032-0 0.047 0 0.595 0.059 1.17 0.168 1.713 0.498 2.479 2.048 4.287 3.883 4.287h0.949v-2.871c0-1.677 1.259-3.233 3.091-3.563zM12.729 7.938c-0.6 0-1.087-0.487-1.087-1.088 0-0.604 0.486-1.095 1.087-1.095 0.598 0 1.087 0.491 1.087 1.095 0 0.601-0.488 1.088-1.087 1.088z"></path>
<path fill="#000" d="M27.747 13.909c-0.573-2.283-2.057-3.909-3.798-3.909h-0.949v2.542c0 2.12-1.393 3.655-3.093 3.918-0.171 0.026-0.343 0.040-0.519 0.040h-6.491c-0.282 0-0.556 0.037-0.816 0.105-1.195 0.314-2.081 1.308-2.081 2.598v5.452c0 1.552 1.561 2.464 3.093 2.909 1.833 0.533 3.829 0.629 6.023 0 1.456-0.416 2.885-1.258 2.885-2.909v-1.654h-6v-1h7.949c1.578 0 2.944-1.335 3.613-3.284 0.28-0.815 0.438-1.738 0.438-2.716 0-0.736-0.090-1.44-0.253-2.091zM19.242 23.926c0.599 0 1.086 0.487 1.086 1.087 0 0.603-0.487 1.095-1.086 1.095s-1.087-0.492-1.087-1.095c0-0.602 0.488-1.087 1.087-1.087z"></path>
</svg>
