<?xml version="1.0" encoding="utf-8"?>
<!-- Generated by IcoMoon.io -->
<!DOCTYPE svg PUBLIC "-//W3C//DTD SVG 1.1//EN" "http://www.w3.org/Graphics/SVG/1.1/DTD/svg11.dtd">
<svg version="1.1" xmlns="http://www.w3.org/2000/svg" xmlns:xlink="http://www.w3.org/1999/xlink" width="32" height="32" viewBox="0 0 32 32">
<path fill="#000" d="M11.8 15.995c0 2.309 1.89 4.199 4.2 4.199s4.2-1.889 4.2-4.199c0-2.309-1.89-4.199-4.2-4.199s-4.2 1.89-4.2 4.199z"></path>
<path fill="#000" d="M29.797 13.612c-0.001 0-0.001 0.002-0.002 0.003-0.106-0.617-0.253-1.24-0.437-1.802h-0.007c0.186 0.563 0.334 1.188 0.442 1.813h-0c-0.107-0.625-0.256-1.25-0.442-1.813h-9.712c1.19 1.063 1.96 2.511 1.96 4.191 0 1.050-0.28 1.955-0.77 2.795l-6.39 11.105c0 0-0.001 0.017-0.001 0.017l-0.001 0.018c0 0 0.001 0 0.001 0l-0-0.016c0.513 0.058 1.033 0.079 1.561 0.079 0.428 0 0.851-0.025 1.269-0.063 0.633-0.057 1.255-0.157 1.861-0.296 6.225-1.421 10.87-6.991 10.87-13.645 0-0.812-0.070-1.61-0.203-2.384z"></path>
<path fill="#000" d="M16 21.593c-2.1 0-3.85-1.119-4.83-2.799l-6.428-11.119c-0.643 0.868-1.188 1.814-1.619 2.82-0.722 1.688-1.123 3.547-1.123 5.499 0 3.918 1.611 7.46 4.207 10.001 1.834 1.795 4.159 3.090 6.755 3.664l0.002-0.003 4.855-8.413c-0.56 0.21-1.189 0.35-1.82 0.35z"></path>
<path fill="#000" d="M5.706 6.536l4.834 8.328c0.49-2.52 2.73-4.489 5.46-4.489h12.823c-0.433-0.938-0.975-1.895-1.611-2.746 0.002 0.001 0.005 0.003 0.007 0.005 0.633 0.848 1.173 1.804 1.604 2.742h0.011c-0.43-0.938-0.97-1.899-1.604-2.749-0.007-0.004-0.014-0.011-0.021-0.016-2.554-3.405-6.623-5.61-11.208-5.61-1.648 0-3.23 0.286-4.698 0.808-2.163 0.77-4.081 2.057-5.605 3.713l0.009 0.015c0-0 0-0 0.001-0.001z"></path>
</svg>
