<?xml version="1.0" encoding="utf-8"?>
<!-- Generated by IcoMoon.io -->
<!DOCTYPE svg PUBLIC "-//W3C//DTD SVG 1.1//EN" "http://www.w3.org/Graphics/SVG/1.1/DTD/svg11.dtd">
<svg version="1.1" xmlns="http://www.w3.org/2000/svg" xmlns:xlink="http://www.w3.org/1999/xlink" width="32" height="32" viewBox="0 0 32 32">
<path fill="#000" d="M15.994 4c-6.606 0-11.994 5.387-11.994 12.006 0 6.613 5.387 11.994 11.994 11.994 0.531 0 1.050-0.031 1.556-0.113 5.356-0.688 9.613-4.919 10.331-10.256 0.081-0.531 0.119-1.075 0.119-1.625 0-6.619-5.387-12.006-12.006-12.006zM5.213 16.006c0-1.563 0.338-3.050 0.938-4.387l5.144 14.094c-3.6-1.75-6.081-5.444-6.081-9.706zM17.394 26.706c-0.456 0.056-0.925 0.087-1.4 0.087-1.056 0-2.075-0.156-3.037-0.444l1.175-3.438h0.006l2.044-5.969 3.319 9.088c0.025 0.050 0.056 0.1 0.081 0.144-0.7 0.25-1.431 0.425-2.188 0.531zM17.488 10.944c0.65-0.031 1.231-0.1 1.231-0.1 0.587-0.063 0.512-0.925-0.069-0.887 0 0-1.75 0.137-2.875 0.137-1.056 0-2.844-0.137-2.844-0.137-0.575-0.037-0.65 0.856-0.063 0.887 0 0 0.544 0.069 1.131 0.1l1.681 4.606-2.363 7.081-3.931-11.688c0.656-0.031 1.238-0.1 1.238-0.1 0.575-0.063 0.512-0.925-0.069-0.887 0 0-1.744 0.137-2.875 0.137-0.206 0-0.444-0.006-0.694-0.012 1.925-2.925 5.244-4.856 9.006-4.856 2.813 0 5.369 1.075 7.288 2.825-0.050 0-0.094-0.006-0.144-0.006-1.063 0-1.813 0.925-1.813 1.919 0 0.887 0.512 1.637 1.056 2.525 0.413 0.719 0.894 1.644 0.894 2.975 0 0.925-0.275 2.087-0.819 3.481l-1.081 3.6-3.887-11.6zM21.419 25.331l0.856-2.481 2.438-7.050c0.619-1.537 0.819-2.769 0.819-3.863 0-0.394-0.025-0.769-0.069-1.113 0.844 1.537 1.325 3.3 1.325 5.181 0 0.5-0.031 0.988-0.094 1.469-0.462 3.356-2.469 6.225-5.275 7.856z"></path>
</svg>
