<?xml version="1.0" encoding="utf-8"?>
<!-- Generated by IcoMoon.io -->
<!DOCTYPE svg PUBLIC "-//W3C//DTD SVG 1.1//EN" "http://www.w3.org/Graphics/SVG/1.1/DTD/svg11.dtd">
<svg version="1.1" xmlns="http://www.w3.org/2000/svg" xmlns:xlink="http://www.w3.org/1999/xlink" width="32" height="32" viewBox="0 0 32 32">
<path fill="#000" d="M31.986 20.569c-0.104-0.85-0.577-1.509-1.3-2.026 0.179 0.128 0.33 0.235-0.003-0.003-0.449-0.321-0.211-0.151-0.003-0.002-1.781-1.269-4.105-0.987-6.046-0.282-0.778-1.268-0.812-2.236-0.363-3.621 0.058-0.175 0.018-0.272-0.164-0.35-0.443-0.189-1.081-0.089-1.526 0.029-0.154 0.040-0.266 0.119-0.3 0.274-0.322 1.515-1.313 2.903-2.177 4.18-0.608-1.166-0.56-2.068-0.151-3.282 0.050-0.148 0.027-0.226-0.121-0.305-0.454-0.235-1.15-0.12-1.613 0.017-0.532 0.155-1.331 2.787-1.586 3.309-0.533 1.090-1.006 2.792-1.912 3.656-0.769-0.988 1.408-3.22 0.68-4.116-0.246-0.303-0.691-0.295-0.974-0.038 0.068-0.476 0.103-0.788-0.020-1.191-0.13-0.424-0.46-0.668-0.943-0.656-1.125 0.033-2.115 0.863-2.79 1.65-0.642 0.757-2.336 1.227-3.247 1.683-1.564-1.363-4.951-2.809-5.040-5.13-0.095-2.615 3.020-4.39 5.1-5.452 2.705-1.381 6.873-3.101 9.946-1.59 0.816 0.401 1.144 1.261 0.919 2.084-0.585 2.148-2.95 3.581-5.006 4.238-1.012 0.323-2.123 0.564-3.194 0.502-1.435-0.084-2.552-0.951-2.705-1.005-0.128-0.024-0.118 0.141-0.084 0.229 1.488 3.902 9.026 1.043 10.997-0.961 0.949-0.964 1.526-1.898 1.772-3.368 0.288-1.724-0.977-2.803-1.938-3.247-4.87-2.255-11.602 0.698-15.285 3.708-1.598 1.306-3.597 3.382-2.68 5.559 0.996 2.363 4.046 3.574 6.031 5.020-1.607 0.798-3.616 1.624-4.657 3.121-0.595 0.858-0.806 1.772-0.363 2.748 0.786 1.723 3.643 0.976 4.848 0.217 1.104-0.696 1.848-1.629 2.169-2.827 0.278-1.038 0.221-2.117-0.241-3.095l1.787-0.904c-0.481 1.442-0.694 3.25 0.305 4.553 0.4 0.521 1.439 0.542 1.864 0.019 0.551-0.684 0.916-1.541 1.281-2.325-0.043 0.586-0.116 1.25 0.086 1.76 0.232 0.586 0.758 0.706 1.3 0.334 1.658-1.138 2.712-4.291 3.529-6.129 0.222 0.802 0.467 1.534 0.872 2.273 0.1 0.181 0.088 0.298-0.050 0.45-0.605 0.667-2.052 1.78-2.192 2.681-0.033 0.211 0.107 0.412 0.355 0.461 0.973 0.194 2.052-0.158 2.843-0.692 0.824-0.558 1.090-1.318 0.89-2.22-0.286-1.298 0.687-2.749 1.613-3.814 0.17 0.807 0.426 1.583 0.884 2.288-0.817 0.718-2.036 1.735-1.861 2.934 0.062 0.429 0.446 0.706 0.907 0.608 0.986-0.208 1.838-0.632 2.461-1.384 0.564-0.678 0.362-1.419 0.116-2.165 1.492-0.426 3.001-0.511 4.489-0.002 0.718 0.244 1.297 0.656 1.64 1.301 0.42 0.79 0.184 1.518-0.628 2.038-0.205 0.131-0.348 0.24-0.278 0.296s0.306 0.132 0.83-0.197c0.524-0.329 0.844-0.774 0.926-1.358 0.016-0.161 0.016-0.323-0.002-0.485zM7.059 22.148c-0.085 1.042-0.602 1.887-1.448 2.57-0.476 0.385-1.069 0.698-1.657 0.756s-1.047-0.091-1.086-0.702c-0.11-1.718 2.558-3.401 4.039-3.908 0.126 0.429 0.188 0.854 0.152 1.287l0.001-0.002zM13.503 17.62c-0.244 1.394-0.927 3.897-2.020 4.896-0.147 0.134-0.288 0.126-0.363-0.048-0.647-1.504 0.229-4.604 2.068-5.083 0.216-0.056 0.35 0.036 0.315 0.235zM17.897 22.73c0.526-0.56 1.052-1.12 1.579-1.683 0.065 0.626-1.098 1.873-1.579 1.683zM22.942 21.624c-0.147 0.080-0.476 0.157-0.489 0.052-0.093-0.755 0.738-1.555 1.254-1.929 0.278 0.709-0.051 1.49-0.765 1.877z"></path>
</svg>
