<?xml version="1.0" encoding="utf-8"?>
<!-- Generated by IcoMoon.io -->
<!DOCTYPE svg PUBLIC "-//W3C//DTD SVG 1.1//EN" "http://www.w3.org/Graphics/SVG/1.1/DTD/svg11.dtd">
<svg version="1.1" xmlns="http://www.w3.org/2000/svg" xmlns:xlink="http://www.w3.org/1999/xlink" width="32" height="32" viewBox="0 0 32 32">
<path fill="#000" d="M7.494 21.006c-1.925 0-3.494 1.569-3.494 3.488 0 1.925 1.569 3.475 3.494 3.475 1.931 0 3.494-1.556 3.494-3.475s-1.563-3.488-3.494-3.488zM7.494 26.969c-1.375 0-2.494-1.113-2.494-2.475 0-1.369 1.119-2.488 2.494-2.488s2.494 1.119 2.494 2.488c0 1.363-1.119 2.475-2.494 2.475z"></path>
<path fill="#000" d="M4 12v4.994c3 0 5.881 0.887 8 3.006s3 4.994 3 8h5c0-8.744-7.25-16-16-16zM18.969 27h-3c-0.194-3.106-1.313-5.756-3.262-7.706-1.95-1.956-4.581-3.075-7.706-3.269v-2.988c1.625 0.113 3.256 0.5 4.794 1.156 1.781 0.762 3.388 1.85 4.775 3.238s2.475 2.994 3.238 4.775c0.663 1.538 1.050 3.144 1.163 4.794z"></path>
<path fill="#000" d="M4 4v4.994c10.688 0 18.994 8.312 18.994 19.006h5.006c0-13.231-10.75-24-24-24zM18.212 13.781c-3.5-3.506-8.15-5.531-13.213-5.769v-2.994c11.875 0.513 21.469 10.094 21.981 21.981h-3.012c-0.238-5.056-2.262-9.719-5.756-13.219z"></path>
</svg>
