<?xml version="1.0" encoding="utf-8"?>
<!-- Generated by IcoMoon.io -->
<!DOCTYPE svg PUBLIC "-//W3C//DTD SVG 1.1//EN" "http://www.w3.org/Graphics/SVG/1.1/DTD/svg11.dtd">
<svg version="1.1" xmlns="http://www.w3.org/2000/svg" xmlns:xlink="http://www.w3.org/1999/xlink" width="32" height="32" viewBox="0 0 32 32">
<path fill="#000" d="M20.85 10.619c1.019 0 2.075 0.463 2.962 1.275-0.619 0.531-1.119 1.169-1.481 1.887-0.5 1-0.725 2.144-0.637 3.294 0.081 1.169 0.475 2.288 1.125 3.238 0.5 0.725 1.137 1.325 1.875 1.769-0.313 0.669-0.575 1.15-1.050 1.906-0.525 0.819-1.906 3-3.25 3.012h-0.025c-0.462 0-0.762-0.137-1.206-0.35-0.625-0.294-1.394-0.663-2.712-0.663h-0.038c-1.319 0.006-2.113 0.369-2.744 0.663-0.463 0.212-0.769 0.356-1.244 0.356h-0.025c-1.225-0.012-2.344-1.519-3.175-2.825-1.206-1.9-1.981-4.1-2.181-6.194-0.181-1.906 0.125-3.656 0.844-4.794 0.5-0.794 1.156-1.456 1.9-1.912 0.7-0.425 1.438-0.65 2.137-0.65 0.775 0 1.419 0.238 2.106 0.488 0.719 0.262 1.469 0.537 2.356 0.537 0.85 0 1.519-0.262 2.163-0.512 0.7-0.275 1.337-0.525 2.3-0.525zM20.85 9.619c-2.1 0-2.988 1.031-4.45 1.031-1.5 0-2.644-1.025-4.463-1.025-1.781 0-3.681 1.119-4.888 3.025-1.694 2.688-1.406 7.75 1.337 12.062 0.981 1.544 2.294 3.275 4.013 3.294 0.012 0 0.019 0 0.031 0 1.494 0 1.938-1.006 3.994-1.019 0.012 0 0.019 0 0.031 0 2.025 0 2.431 1.012 3.919 1.012 0.012 0 0.019 0 0.031 0 1.719-0.019 3.1-1.938 4.081-3.475 0.706-1.106 0.969-1.663 1.512-2.913-3.969-1.55-4.606-7.338-0.681-9.556-1.2-1.544-2.881-2.438-4.469-2.438v0z"></path>
<path fill="#000" d="M19.369 5.281c-0.169 0.931-0.656 1.675-0.913 2.013-0.462 0.612-1.125 1.087-1.8 1.319 0.031-0.188 0.081-0.381 0.15-0.575 0.219-0.638 0.556-1.138 0.8-1.444 0.444-0.55 1.1-1.025 1.762-1.313zM20.387 4c-1.25 0.088-2.706 0.906-3.563 1.975-0.775 0.969-1.412 2.406-1.162 3.8 0.031 0 0.063 0 0.1 0 1.331 0 2.694-0.825 3.488-1.881 0.769-1.006 1.35-2.431 1.137-3.894v0z"></path>
</svg>
