<?xml version="1.0" encoding="utf-8"?>
<!-- Generated by IcoMoon.io -->
<!DOCTYPE svg PUBLIC "-//W3C//DTD SVG 1.1//EN" "http://www.w3.org/Graphics/SVG/1.1/DTD/svg11.dtd">
<svg version="1.1" xmlns="http://www.w3.org/2000/svg" xmlns:xlink="http://www.w3.org/1999/xlink" width="32" height="32" viewBox="0 0 32 32">
<path fill="#000" d="M22.131 18.025c0 1.098-0.89 1.988-1.988 1.988s-1.988-0.89-1.988-1.988c0-1.098 0.89-1.988 1.988-1.988s1.988 0.89 1.988 1.988z"></path>
<path fill="#000" d="M13.881 18.025c0 1.098-0.89 1.988-1.988 1.988s-1.988-0.89-1.988-1.988c0-1.098 0.89-1.988 1.988-1.988s1.988 0.89 1.988 1.988z"></path>
<path fill="#000" d="M30.031 15.688c0-1.731-1.387-3.137-3.094-3.137-0.813 0-1.544 0.313-2.1 0.831-2.075-1.463-4.9-2.406-8.044-2.544l1.456-4.856 4.35 0.869c0.012 1.544 1.256 2.794 2.781 2.794 1.538 0 2.781-1.262 2.781-2.819s-1.244-2.825-2.781-2.825c-1.163 0-2.156 0.725-2.575 1.75l-5.325-1.063-1.838 6.138-0.444 0.012c-3.144 0.137-5.969 1.088-8.044 2.544-0.55-0.519-1.287-0.831-2.1-0.831-1.706 0-3.094 1.406-3.094 3.137 0 1.225 0.688 2.281 1.694 2.8-0.050 0.306-0.075 0.613-0.075 0.925 0.013 4.738 5.569 8.587 12.419 8.587s12.406-3.85 12.406-8.594c0-0.313-0.025-0.619-0.069-0.925 1.006-0.519 1.694-1.575 1.694-2.794zM25.381 5.119c0.925 0 1.675 0.763 1.675 1.7s-0.75 1.7-1.675 1.7c-0.925 0-1.675-0.763-1.675-1.7s0.75-1.7 1.675-1.7zM3.075 15.688c0-1.113 0.894-2.012 1.987-2.012 0.45 0 0.869 0.156 1.2 0.412-1.081 0.95-1.881 2.062-2.313 3.275-0.525-0.369-0.875-0.981-0.875-1.675zM24.15 24.556c-2.163 1.494-5.056 2.319-8.15 2.319s-5.987-0.825-8.15-2.319c-2.031-1.406-3.15-3.238-3.15-5.15 0-0.2 0.013-0.406 0.037-0.606 0.044-0.375 0.138-0.744 0.269-1.106 0.35-0.975 1-1.894 1.919-2.713 0.275-0.244 0.575-0.481 0.9-0.706 0.006-0.006 0.019-0.012 0.025-0.019 2.162-1.494 5.056-2.319 8.15-2.319s5.987 0.825 8.15 2.319c0.006 0.006 0.019 0.012 0.025 0.019 0.325 0.225 0.625 0.463 0.9 0.706 0.919 0.819 1.569 1.737 1.919 2.713 0.131 0.363 0.219 0.731 0.269 1.106 0.025 0.2 0.038 0.4 0.038 0.606 0 1.913-1.119 3.744-3.15 5.15zM28.050 17.356c-0.431-1.212-1.231-2.325-2.313-3.275 0.331-0.256 0.75-0.412 1.2-0.412 1.094 0 1.988 0.906 1.988 2.012 0 0.7-0.35 1.313-0.875 1.675z"></path>
<path fill="#000" d="M20.031 22.369c-0.012 0.012-1.512 1.512-4.031 1.525-2.556-0.012-4.025-1.512-4.037-1.525l-0.787 0.775c0.075 0.075 1.85 1.844 4.825 1.856 2.975-0.012 4.744-1.781 4.819-1.856l-0.788-0.775z"></path>
</svg>
