<?xml version="1.0" encoding="utf-8"?>
<!-- Generated by IcoMoon.io -->
<!DOCTYPE svg PUBLIC "-//W3C//DTD SVG 1.1//EN" "http://www.w3.org/Graphics/SVG/1.1/DTD/svg11.dtd">
<svg version="1.1" xmlns="http://www.w3.org/2000/svg" xmlns:xlink="http://www.w3.org/1999/xlink" width="32" height="32" viewBox="0 0 32 32">
<path fill="#000" d="M15.989 9c5.517 0 9.989-1.791 9.989-4s-4.472-4-9.989-4c-5.517 0-9.989 1.791-9.989 4s4.472 4 9.989 4zM15.989 2.065c4.358 0 7.891 1.202 7.891 2.685s-3.533 2.685-7.891 2.685c-4.358 0-7.891-1.202-7.891-2.685s3.533-2.685 7.891-2.685z"></path>
<path fill="#000" d="M16.036 10c-5.517 0-10.035-1.791-10.035-4 0 0-0 2.125 0.5 2.5v15c0 2.209 3.983 4 9.5 4s9.5-1.791 9.5-4v-15c0.5-0.465 0.482-2.178 0.489-2.5-0.072 2.184-4.481 4-9.953 4zM23.5 23.474c0 0.14-0.498 0.668-1.839 1.168-1.483 0.553-3.485 0.858-5.644 0.858s-4.177-0.305-5.66-0.858c-1.341-0.5-1.795-1.028-1.857-1.168v-4.973c1.125 0.608 2.671 1.070 4.51 1.311l0.099 0.015c0.359 1.254 1.512 2.172 2.88 2.172s2.521-0.918 2.88-2.172l0.11-0.015c1.838-0.241 3.396-0.704 4.521-1.311v4.973zM23.5 16.501c-1.125 0.614-2.717 1.080-4.583 1.319l-0.163 0.012c-0.455-1.077-1.521-1.833-2.763-1.833s-2.307 0.756-2.762 1.834l-0.157-0.013c-1.866-0.239-3.447-0.705-4.572-1.319v-5.704c2.125 0.781 4.745 1.203 7.531 1.203 2.76 0 5.406-0.42 7.469-1.185v5.686z"></path>
<path fill="#000" d="M16.017 29c0.018 0 0.036-0 0.055-0-0.022 0-0.044 0-0.066 0 0.004 0 0.007 0 0.011 0z"></path>
<path fill="#000" d="M25.5 26v-1c0 2.25-3.965 4-9.5 4s-9.5-1.791-9.5-4v1l-0.484 1c0 0.437 0.184 0.858 0.507 1.252 1.312 1.596 5.068 2.748 9.493 2.748s8.179-1.152 9.491-2.748c0.324-0.394 0.495-0.814 0.495-1.252l-0.504-1z"></path>
</svg>
