<?xml version="1.0" encoding="utf-8"?>
<!-- Generated by IcoMoon.io -->
<!DOCTYPE svg PUBLIC "-//W3C//DTD SVG 1.1//EN" "http://www.w3.org/Graphics/SVG/1.1/DTD/svg11.dtd">
<svg version="1.1" xmlns="http://www.w3.org/2000/svg" xmlns:xlink="http://www.w3.org/1999/xlink" width="32" height="32" viewBox="0 0 32 32">
<path fill="#000" d="M4.431 11.344c0-2.563 1.563-4.781 3.787-5.719h-0.481c-2.569 0-4.694 2.050-5.069 4.7-0.375 0.063-0.669 0.494-0.669 1.006 0 0.537 0.319 0.963 0.725 0.994 0.45 2.275 2.194 4.113 4.356 4.3 0 0 0.006 0 0.006 0 0.088 0 0.175 0.038 0.263 0.056 0.069 0.012 0.138 0.025 0.206 0.044-1.869-1.069-3.125-3.075-3.125-5.381z"></path>
<path fill="#000" d="M29.069 5.688c-0.069-0.181-0.144-0.35-0.219-0.519-0.406-0.9-0.9-1.625-1.462-2.163-0.7-0.656-1.506-1.006-2.337-1.006-0.519 0-1.025 0.138-1.506 0.4 0 0 0 0-0.006 0-0.075 0.044-0.15 0.081-0.225 0.125-3.063 1.813-6.506 2.887-10.162 3.087-0.406 0.025-0.813 0.013-1.219 0.013h-2.644c-2.125 0.938-3.688 3.156-3.688 5.719 0 2.3 1.2 4.319 2.988 5.381 0.813 0.681 2.606 0.731 2.5 1.494-0.119 0.825-0.344 1.369-0.488 1.919-0.081 0.3-1.475 4.556-1.581 9.044 0 0.125 0 0.231 0.012 0.413s0.137 0.4 0.531 0.4h4.8c0.412 0 0.606-0.206 0.581-0.581-0.012-0.119-0.037-0.269-0.050-0.406-0.15-1.444-0.287-3.113-0.206-5.1 0.081-2.125 0.325-3.244 0.438-3.831 0.131-0.65 0.475-1.4 0.756-1.894 1.925 0.056 5.806 1.206 7.194 1.806 0 0 0.45 0.212 0.631 0.325 0.438 0.212 0.887 0.319 1.35 0.319 0.056 0 0.113 0 0.169-0.006 0.769-0.044 1.512-0.606 2.169-1.219 0.569-0.531 1.056-1.262 1.462-2.163 0.075-0.175 0.15-0.35 0.219-0.538 0.6-1.563 0.925-3.494 0.925-5.506s-0.325-3.95-0.931-5.513zM27.625 16.719c-0.488 1.156-1.137 2.081-1.844 2.081s-1.35-0.919-1.837-2.081c-0.569-1.35-0.931-3.319-0.931-5.506 0-2.2 0.363-4.175 0.938-5.525 0.488-1.15 1.131-1.844 1.831-1.844 0.706 0 1.344 0.7 1.837 1.844 0.575 1.35 0.938 3.325 0.938 5.525 0 2.188-0.363 4.156-0.931 5.506z"></path>
</svg>
