<?xml version="1.0" encoding="utf-8"?>
<!-- Generated by IcoMoon.io -->
<!DOCTYPE svg PUBLIC "-//W3C//DTD SVG 1.1//EN" "http://www.w3.org/Graphics/SVG/1.1/DTD/svg11.dtd">
<svg version="1.1" xmlns="http://www.w3.org/2000/svg" xmlns:xlink="http://www.w3.org/1999/xlink" width="32" height="32" viewBox="0 0 32 32">
<path fill="#000" d="M21.5 16l-5.275 4.012c-0.075-0.006-0.15-0.012-0.225-0.012-1.106 0-2 0.894-2 2s0.894 2 2 2c1.106 0 2-0.894 2-2 0-0.075-0.006-0.15-0.012-0.225l4.012-5.275-0.5-0.5z"></path>
<path fill="#000" d="M16 6c-7.731 0-14 6.269-14 14 0 2.15 0.487 4.181 1.35 6h2.256c-0.963-1.663-1.513-3.538-1.594-5.5h1.987v-1h-1.987c0.075-1.8 0.544-3.531 1.362-5.088l1.719 0.994 0.5-0.869-1.719-0.988c0.463-0.725 1.013-1.412 1.638-2.037 0.638-0.631 1.331-1.188 2.069-1.656l0.988 1.706 0.869-0.5-0.988-1.706c1.55-0.813 3.263-1.269 5.050-1.344v1.988h1v-1.988c1.788 0.075 3.5 0.537 5.050 1.344l-0.981 1.706 0.869 0.5 0.988-1.706c0.738 0.469 1.431 1.025 2.069 1.656 0.625 0.625 1.169 1.306 1.637 2.037l-1.712 0.988 0.5 0.869 1.719-0.994c0.819 1.556 1.288 3.287 1.363 5.088h-2v1h1.988c-0.081 1.962-0.631 3.837-1.594 5.5h2.256c0.863-1.819 1.35-3.85 1.35-6 0-7.731-6.269-14-14-14z"></path>
</svg>
