<?xml version="1.0" encoding="utf-8"?>
<!-- Generated by IcoMoon.io -->
<!DOCTYPE svg PUBLIC "-//W3C//DTD SVG 1.1//EN" "http://www.w3.org/Graphics/SVG/1.1/DTD/svg11.dtd">
<svg version="1.1" xmlns="http://www.w3.org/2000/svg" xmlns:xlink="http://www.w3.org/1999/xlink" width="32" height="32" viewBox="0 0 32 32">
<path fill="#000" d="M20 10c0-4-1.656-8-4-8s-4 4-4 8v0c0.056 1.563 0.981 3.394 2.287 4.019 0.031 0.012 0.056 0.025 0.088 0.037 0 0 0 0 0.006 0 0.213 0.119 0.613 0.344 0.613 0.606 0 0-1 12.419-1 13.131s0.313 1.281 0.656 1.625c0.344 0.344 0.819 0.575 1.331 0.575 0.006 0 0.006 0 0.012 0s0.006 0 0.013 0c0.512 0 0.988-0.231 1.337-0.575 0.344-0.344 0.644-0.806 0.644-1.625s-1-13.131-1-13.131c0-0.262 0.4-0.494 0.613-0.613l0.106-0.056c1.35-0.619 2.294-2.369 2.294-3.994z"></path>
</svg>
