<?xml version="1.0" encoding="utf-8"?>
<!-- Generated by IcoMoon.io -->
<!DOCTYPE svg PUBLIC "-//W3C//DTD SVG 1.1//EN" "http://www.w3.org/Graphics/SVG/1.1/DTD/svg11.dtd">
<svg version="1.1" xmlns="http://www.w3.org/2000/svg" xmlns:xlink="http://www.w3.org/1999/xlink" width="32" height="32" viewBox="0 0 32 32">
<path fill="#000" d="M30 13.012c0 1.281-1.038 2.325-2.325 2.325-1.281 0-2.325-1.037-2.325-2.325 0-1.281 1.038-2.325 2.325-2.325 1.281 0 2.325 1.044 2.325 2.325zM27.663 8.688c-2.381 0-4.313 1.919-4.337 4.294l-2.7 3.875c-0.113-0.012-0.225-0.019-0.337-0.019-0.606 0-1.169 0.169-1.65 0.456l-12.238-4.919c-0.319-1.45-1.619-2.544-3.163-2.544-1.781-0.006-3.237 1.456-3.237 3.238s1.456 3.238 3.237 3.238c0.606 0 1.169-0.169 1.65-0.456l12.238 4.913c0.319 1.456 1.613 2.55 3.163 2.55 1.675 0 3.063-1.288 3.219-2.919l4.156-3.038c2.394 0 4.337-1.938 4.337-4.331s-1.944-4.338-4.337-4.338zM27.663 10.119c1.606 0 2.906 1.306 2.906 2.906 0 1.606-1.306 2.9-2.906 2.9-1.606 0-2.906-1.3-2.906-2.9 0-1.606 1.3-2.906 2.906-2.906zM3.237 10.681c0.912 0 1.706 0.512 2.106 1.262l-1.181-0.475v0.006c-0.956-0.344-2.013 0.125-2.394 1.069-0.381 0.95 0.056 2.019 0.981 2.431v0.006l1.006 0.4c-0.163 0.037-0.337 0.056-0.512 0.056-1.319 0-2.381-1.063-2.381-2.381-0.006-1.306 1.056-2.375 2.375-2.375zM20.288 17.694c1.319 0 2.381 1.063 2.381 2.381s-1.063 2.381-2.381 2.381c-0.919 0-1.712-0.512-2.106-1.269 0.394 0.156 0.781 0.313 1.175 0.475 0.969 0.387 2.075-0.081 2.462-1.050s-0.081-2.069-1.056-2.462l-0.994-0.4c0.175-0.031 0.344-0.056 0.519-0.056z"></path>
</svg>
