<?xml version="1.0" encoding="utf-8"?>
<!-- Generated by IcoMoon.io -->
<!DOCTYPE svg PUBLIC "-//W3C//DTD SVG 1.1//EN" "http://www.w3.org/Graphics/SVG/1.1/DTD/svg11.dtd">
<svg version="1.1" xmlns="http://www.w3.org/2000/svg" xmlns:xlink="http://www.w3.org/1999/xlink" width="32" height="32" viewBox="0 0 32 32">
<path fill="#000" d="M18.938 20.975v-16.075c0-1.606-1.313-2.906-2.938-2.906s-2.938 1.3-2.938 2.906v16.050c-1.25 0.906-2.056 2.387-2.056 4.056 0 2.762 2.25 5 5.013 5s4.988-2.238 4.988-5c-0.006-1.656-0.819-3.125-2.069-4.031zM15.063 4.9c0-0.5 0.419-0.906 0.938-0.906s0.938 0.406 0.938 0.906v3.1h-1.875v-3.1zM17 18h-1v-1h1v1zM17 16h-1v-4h1v4z"></path>
</svg>
