<?xml version="1.0" encoding="utf-8"?>
<!-- Generated by IcoMoon.io -->
<!DOCTYPE svg PUBLIC "-//W3C//DTD SVG 1.1//EN" "http://www.w3.org/Graphics/SVG/1.1/DTD/svg11.dtd">
<svg version="1.1" xmlns="http://www.w3.org/2000/svg" xmlns:xlink="http://www.w3.org/1999/xlink" width="32" height="32" viewBox="0 0 32 32">
<path fill="#000" d="M26.512 16.206c0.863-0.281 1.488-1.094 1.488-2.050 0-1.188-0.962-2.156-2.156-2.156h-6.413c0.125-1.563 0.625-3.35 0.069-5.456-0.469-1.775-2.462-3.106-3.275-2.3-0.313 0.306-0.219 0.95-0.219 2.112 0 2.675-1.113 5.381-2.488 6.794-0.588 0.606-1.575 0.813-2.512 0.85v-1h-7.006v15h7v-2c1.287-0.031 3.287 0.325 4.737 0.413 3.25 0.194 6.375-0.15 7.894-0.506s2.188-0.813 2.188-1.913c0-0.4-0.119-0.769-0.319-1.081 0.738-0.294 1.256-1.012 1.256-1.856 0-0.45-0.15-0.863-0.4-1.2 0.744-0.288 1.275-1.012 1.275-1.863-0.006-0.781-0.462-1.462-1.119-1.788zM7 25.981c-0.55 0-1-0.444-1-1 0-0.55 0.45-1 1-1s1 0.444 1 1c0 0.55-0.45 1-1 1z"></path>
</svg>
