<?xml version="1.0" encoding="utf-8"?>
<!-- Generated by IcoMoon.io -->
<!DOCTYPE svg PUBLIC "-//W3C//DTD SVG 1.1//EN" "http://www.w3.org/Graphics/SVG/1.1/DTD/svg11.dtd">
<svg version="1.1" xmlns="http://www.w3.org/2000/svg" xmlns:xlink="http://www.w3.org/1999/xlink" width="32" height="32" viewBox="0 0 32 32">
<path fill="#000" d="M22 13c-1.654 0-3 1.346-3 3s1.346 3 3 3 3-1.346 3-3c0-1.654-1.346-3-3-3z"></path>
<path fill="#000" d="M22 8h-12c-4.418 0-8 3.582-8 8s3.582 8 8 8h12c4.418 0 8-3.582 8-8s-3.582-8-8-8zM22 21c-2.761 0-5-2.239-5-5s2.239-5 5-5 5 2.239 5 5-2.239 5-5 5z"></path>
</svg>
