<?xml version="1.0" encoding="utf-8"?>
<!-- Generated by IcoMoon.io -->
<!DOCTYPE svg PUBLIC "-//W3C//DTD SVG 1.1//EN" "http://www.w3.org/Graphics/SVG/1.1/DTD/svg11.dtd">
<svg version="1.1" xmlns="http://www.w3.org/2000/svg" xmlns:xlink="http://www.w3.org/1999/xlink" width="32" height="32" viewBox="0 0 32 32">
<path fill="#000" d="M23 0v2.5h4.367l-5.815 5.748c-0.533-0.516-0.946-0.787-0.946-0.787-1.303-0.918-2.892-1.462-4.606-1.462-2.158 0-4.116 0.854-5.556 2.243l-1.083-1.071 2.24-2.24-2.033-2.033-2.251 2.251-2.683-2.651h4.367v-2.5h-9v9h2.5v-4.762l2.88 2.849-2.23 2.23 2.033 2.033 2.241-2.241 1.387 1.371c-0.525 1.067-0.82 2.267-0.82 3.536 0 3.914 2.821 7.171 6.509 7.875v3.234h-4.5v2.875h4.5v4h3v-4h4.5v-2.875h-4.5v-3.234c3.625-0.704 6.514-3.962 6.514-7.877 0-1.263-0.3-2.484-0.818-3.541l6.305-6.236v4.762h2.5v-9h-9zM15.996 19.025c-2.76 0-5.005-2.248-5.005-5.011s2.245-5.011 5.005-5.011c2.76 0 5.005 2.248 5.005 5.011s-2.245 5.011-5.005 5.011z"></path>
</svg>
