<?xml version="1.0" encoding="utf-8"?>
<!-- Generated by IcoMoon.io -->
<!DOCTYPE svg PUBLIC "-//W3C//DTD SVG 1.1//EN" "http://www.w3.org/Graphics/SVG/1.1/DTD/svg11.dtd">
<svg version="1.1" xmlns="http://www.w3.org/2000/svg" xmlns:xlink="http://www.w3.org/1999/xlink" width="32" height="32" viewBox="0 0 32 32">
<path fill="#000" d="M25.856 8.338c-0.15-0.563-0.25-0.875-0.25-0.875-0.163-0.581-0.575-0.581-1.188-0.681l-3.319-0.419c-0.413-0.069-0.413-0.069-0.575-0.425-0.544-1.225-0.712-1.938-1.306-1.938h-6.438c-0.594 0-0.756 0.713-1.3 1.944-0.162 0.35-0.162 0.35-0.575 0.425l-3.325 0.419c-0.606 0.1-1.044 0.156-1.206 0.737 0 0-0.075 0.256-0.231 0.812-0.2 0.744-0.281 0.662 0.406 0.662h18.9c0.688 0.006 0.613 0.081 0.406-0.662z"></path>
<path fill="#000" d="M23.712 11h-15.425c-1.037 0-1.088 0.137-1.025 0.919l1.169 15.162c0.1 0.769 0.175 0.925 1.094 0.925h12.95c0.919 0 0.994-0.156 1.094-0.925l1.169-15.162c0.063-0.787 0.012-0.919-1.025-0.919z"></path>
</svg>
