<?xml version="1.0" encoding="utf-8"?>
<!-- Generated by IcoMoon.io -->
<!DOCTYPE svg PUBLIC "-//W3C//DTD SVG 1.1//EN" "http://www.w3.org/Graphics/SVG/1.1/DTD/svg11.dtd">
<svg version="1.1" xmlns="http://www.w3.org/2000/svg" xmlns:xlink="http://www.w3.org/1999/xlink" width="32" height="32" viewBox="0 0 32 32">
<path fill="#000" d="M21.313 8v-1.813c0-1.194-0.906-2.188-2.156-2.188h-6.319c-1.244 0-2.15 0.994-2.15 2.188v1.813h-5.688v2h0.575c0 0 0.338 0.037 0.513 0.213s0.244 0.563 0.244 0.563l1.188 15.106c0.094 1.837 0.094 2.119 2.25 2.119h12.463c2.156 0 2.156-0.275 2.25-2.113l1.188-15.1c0 0 0.069-0.394 0.244-0.569s0.512-0.213 0.512-0.213h0.575v-2h-5.688v-0.006zM12 6.188c0-0.6 0.488-0.938 1.106-0.938h5.731c0.619 0 1.163 0.344 1.163 0.938v1.813h-8v-1.813zM11.469 24l-0.644-12h1.269l0.656 12h-1.281zM16.694 24h-1.375v-12h1.375v12zM20.544 24h-1.275l0.656-12h1.269l-0.65 12z"></path>
</svg>
