<?xml version="1.0" encoding="utf-8"?>
<!-- Generated by IcoMoon.io -->
<!DOCTYPE svg PUBLIC "-//W3C//DTD SVG 1.1//EN" "http://www.w3.org/Graphics/SVG/1.1/DTD/svg11.dtd">
<svg version="1.1" xmlns="http://www.w3.org/2000/svg" xmlns:xlink="http://www.w3.org/1999/xlink" width="32" height="32" viewBox="0 0 32 32">
<path fill="#000" d="M11.141 5.346c1.173 1.436 2.744 2.126 4.84 2.161l0.017-0.007h0.017c1.415 0 2.573-0.304 3.541-0.943 0.488-0.322 0.92-0.717 1.314-1.211l6.529 1.96-0.737 2.032-4.791-0.58 0.132 2.383 0.883 15.921h-13.772l1.015-18.294-4.79 0.561-0.735-2.022 6.537-1.961zM20 3c-0.874 1.702-1.923 2.514-3.986 2.514-2.032-0.034-3.157-0.826-4.014-2.514l-10 3 2 5.5 4-0.469-1 18.031h18l-1-18.031 4 0.484 2-5.516-10-3z"></path>
</svg>
