<?xml version="1.0" encoding="utf-8"?>
<!-- Generated by IcoMoon.io -->
<!DOCTYPE svg PUBLIC "-//W3C//DTD SVG 1.1//EN" "http://www.w3.org/Graphics/SVG/1.1/DTD/svg11.dtd">
<svg version="1.1" xmlns="http://www.w3.org/2000/svg" xmlns:xlink="http://www.w3.org/1999/xlink" width="32" height="32" viewBox="0 0 32 32">
<path fill="#000" d="M23.512 18c0 0.006 0 0.012 0 0.025 0-0.012 0-0.019 0-0.025v0z"></path>
<path fill="#000" d="M8.512 18c0 0.006 0 0.012 0 0.025 0-0.012 0-0.019 0-0.025v0z"></path>
<path fill="#000" d="M17 3.050c0-0.019 0-0.031 0-0.050 0-0.55-0.45-1-1-1s-1 0.45-1 1c0 0.013 0 0.031 0 0.044-7.269 0.5-13 6.444-13 13.838 0 0.225 0.013 0.887 0.025 1.113 0.169-1.644 1.544-3.231 3.231-3.231 1.794 0 3.244 1.444 3.256 3.231v0c0.012-1.788 1.463-3.231 3.256-3.231 1.656 0 3.181 1.319 3.231 2.844v8.394c0 1.119-0.881 2-2 2-1.069 0-1.938-0.9-1.938-2 0-0.55-0.45-1-1-1s-1 0.45-1 1c0 2.206 1.769 4 3.938 4 1.081 0 2.094-0.419 2.844-1.175 0.744-0.75 1.156-1.756 1.156-2.825v-8.456c0.206-2.044 1.462-2.775 3.256-2.775s3.244 1.444 3.256 3.231v0c0.012-1.788 1.462-3.231 3.256-3.231 1.631 0 2.975 1.669 3.212 3.231 0.006-0.175 0.012-0.569 0.012-0.738 0.006-7.4-5.731-13.681-12.994-14.213z"></path>
</svg>
