<?xml version="1.0" encoding="utf-8"?>
<!-- Generated by IcoMoon.io -->
<!DOCTYPE svg PUBLIC "-//W3C//DTD SVG 1.1//EN" "http://www.w3.org/Graphics/SVG/1.1/DTD/svg11.dtd">
<svg version="1.1" xmlns="http://www.w3.org/2000/svg" xmlns:xlink="http://www.w3.org/1999/xlink" width="32" height="32" viewBox="0 0 32 32">
<path fill="#000" d="M5.4 30h21.2c0.769 0 1.4-0.619 1.4-1.381v-13.244c0-0.762-0.625-1.375-1.4-1.375h-16.538v-1.931c0-1.706 0.619-3.819 1.756-5.019v0-0.019c1.1-1.162 2.619-1.844 4.175-1.844h0.012c1.556 0 3.075 0.681 4.175 1.844v0.019c0.706 0.744 1.212 1.831 1.5 2.956h3.337c-0.369-1.956-1.231-3.862-2.45-5.15-1.637-1.737-3.981-2.856-6.563-2.856-0.006 0-0.006 0-0.006 0s-0.006 0-0.006 0c-2.581 0-4.938 1.119-6.581 2.85-1.65 1.737-2.662 4.619-2.662 7.213v1.938h-1.35c-0.775 0-1.4 0.619-1.4 1.375v13.244c0 0.762 0.625 1.381 1.4 1.381z"></path>
</svg>
