<?xml version="1.0" encoding="utf-8"?>
<!-- Generated by IcoMoon.io -->
<!DOCTYPE svg PUBLIC "-//W3C//DTD SVG 1.1//EN" "http://www.w3.org/Graphics/SVG/1.1/DTD/svg11.dtd">
<svg version="1.1" xmlns="http://www.w3.org/2000/svg" xmlns:xlink="http://www.w3.org/1999/xlink" width="32" height="32" viewBox="0 0 32 32">
<path fill="#000" d="M24.881 14.575c0-0.075 0.012-0.15 0.012-0.225 0-4.063-3.238-7.35-7.231-7.35-2.881 0-5.356 1.713-6.519 4.188-0.506-0.256-1.075-0.406-1.675-0.406-1.844 0-3.381 1.369-3.675 3.156-2.212 0.762-3.794 2.881-3.794 5.375 0 3.137 2.506 5.688 5.594 5.688h6.406v-5h-3.012l5.012-5.231 5.012 5.225h-3.012v5h6.894c2.825 0 5.106-2.344 5.106-5.212s-2.294-5.2-5.119-5.206z"></path>
</svg>
