<?xml version="1.0" encoding="utf-8"?>
<!-- Generated by IcoMoon.io -->
<!DOCTYPE svg PUBLIC "-//W3C//DTD SVG 1.1//EN" "http://www.w3.org/Graphics/SVG/1.1/DTD/svg11.dtd">
<svg version="1.1" xmlns="http://www.w3.org/2000/svg" xmlns:xlink="http://www.w3.org/1999/xlink" width="32" height="32" viewBox="0 0 32 32">
<path fill="#000" d="M9 13.75c0 0 0.006 0.006 0 0v0z"></path>
<path fill="#000" d="M24 8.019c0-1.112-0.9-2.013-2.006-2.013s-2.006 0.9-2.006 2.006c0 0.756 0.419 1.419 1.038 1.762 0.081 0.094 0.137 0.281 0.137 0.375 0 0.006 0 0.012 0 0.025-0.050 1.1-0.238 1.994-0.444 2.606-0.269 0.787-2.387 2.475-3.219 2.637-0.363 0.075-0.494-0.037-0.494-0.637 0 0 0-8.681 0-8.775s0.012-0.219 0.119-0.313c0 0 0 0 0 0 0.538-0.362 0.894-0.975 0.894-1.675 0-1.112-0.9-2.013-2.006-2.013s-2.006 0.9-2.006 2.013c0 0.706 0.363 1.331 0.912 1.688 0 0 0.006 0.006 0.006 0.006 0.006 0.006 0.012 0.006 0.025 0.013s0.025 0.013 0.037 0.025c0.144 0.094 0.206 0.188 0.206 0.263 0 0.081 0 11.831 0 12.269s-0.069 0.769-0.525 0.738-2.606-1.469-3.213-2.756c-0.281-0.594-0.425-1.175-0.425-1.75v0c0 0 0-0.025 0-0.031 0-0.194 0-0.706 0.2-0.85 0.488-0.369 0.8-0.95 0.8-1.606 0-1.113-0.9-2.013-2.006-2.013s-2.025 0.887-2.025 2c0 0.744 0.406 1.394 1 1.738 0.15 0.094 0.188 0.181 0.238 0.662s0.188 1.537 0.569 2.494c0.456 1.163 1.306 2.038 2.481 2.825 0.85 0.581 1.581 1.038 2.006 1.65s0.637 0.844 0.637 1.688c0 0 0-0.056 0 0 0 0.8-0.25 0.875-0.581 1.113-0.881 0.544-1.469 1.512-1.469 2.625 0 0.006 0 0.019 0 0.025 0 0.012 0 0.031 0 0.044 0 1.719 1.394 3.113 3.112 3.113s3.113-1.394 3.113-3.113c0-0.831-0.325-1.587-0.856-2.144-0.181-0.2-0.375-0.375-0.6-0.519-0.469-0.325-0.644-0.719-0.644-1.131v-1.506c0-1.569 0.256-2.569 0.694-3.331 0.456-0.794 1.144-1.413 2.212-2.137 1.175-0.787 2.012-1.662 2.475-2.825 0.356-0.9 0.475-1.938 0.538-3.181 0.006-0.113 0.087-0.363 0.206-0.425v0c0.519-0.363 0.869-0.969 0.869-1.656zM10.006 13.019c-0.556 0-1.006-0.456-1.006-1.012s0.45-1.012 1.006-1.012 1.006 0.456 1.006 1.012-0.45 1.012-1.006 1.012zM16 5.019c-0.556 0-1.006-0.456-1.006-1.013s0.45-1.006 1.006-1.006 1.006 0.456 1.006 1.012-0.45 1.006-1.006 1.006zM21.994 9.019c-0.556 0-1.006-0.456-1.006-1.012s0.45-1.006 1.006-1.006 1.006 0.456 1.006 1.012-0.45 1.006-1.006 1.006z"></path>
</svg>
