<?xml version="1.0" encoding="utf-8"?>
<!-- Generated by IcoMoon.io -->
<!DOCTYPE svg PUBLIC "-//W3C//DTD SVG 1.1//EN" "http://www.w3.org/Graphics/SVG/1.1/DTD/svg11.dtd">
<svg version="1.1" xmlns="http://www.w3.org/2000/svg" xmlns:xlink="http://www.w3.org/1999/xlink" width="32" height="32" viewBox="0 0 32 32">
<path fill="#000" d="M22.938 11.581c0-0.319-0.25-0.581-0.575-0.581h-3.238v-2.012c0-2.2-1.831-3.987-4.056-3.987h-11.131v3h11.006c0.281 0 0.619 0.35 0.619 0.631v2.369h-12.975c-0.325 0-0.587 0.262-0.587 0.581v14.838c0 0.319 0.263 0.581 0.587 0.581h19.775c0.325 0 0.575-0.262 0.575-0.581v-4.031l7.063 2.169v-11.025l-7.063 2.169v-4.119zM16.137 21.313h-7.381c-1.237 0-2.244-1-2.244-2.238s1.006-2.238 2.244-2.238c1.238 0 2.244 1.012 2.244 2.25 0 0.625-0.262 1.163-0.675 1.6h4.244c-0.412-0.438-0.675-0.975-0.675-1.6 0-1.238 1.006-2.244 2.244-2.244s2.244 0.994 2.244 2.231-1.006 2.238-2.244 2.238z"></path>
</svg>
