<?xml version="1.0" encoding="utf-8"?>
<!-- Generated by IcoMoon.io -->
<!DOCTYPE svg PUBLIC "-//W3C//DTD SVG 1.1//EN" "http://www.w3.org/Graphics/SVG/1.1/DTD/svg11.dtd">
<svg version="1.1" xmlns="http://www.w3.org/2000/svg" xmlns:xlink="http://www.w3.org/1999/xlink" width="32" height="32" viewBox="0 0 32 32">
<path fill="#000" d="M16.875 25.481v-18.956l-5.919 5.475h-6.519v8h6.519z"></path>
<path fill="#000" d="M20.394 22.225c1.281-1.738 2.050-3.894 2.050-6.225 0-2.338-0.769-4.488-2.050-6.225l-1.275 0.956c1.087 1.475 1.738 3.294 1.738 5.269s-0.65 3.794-1.738 5.269l1.275 0.956z"></path>
<path fill="#000" d="M24.55 25.1c1.875-2.544 3-5.688 3-9.1s-1.125-6.556-3-9.1l-1.275 0.956c1.681 2.275 2.688 5.088 2.688 8.144s-1.006 5.863-2.688 8.144l1.275 0.956z"></path>
</svg>
