<?xml version="1.0" encoding="utf-8"?>
<!-- Generated by IcoMoon.io -->
<!DOCTYPE svg PUBLIC "-//W3C//DTD SVG 1.1//EN" "http://www.w3.org/Graphics/SVG/1.1/DTD/svg11.dtd">
<svg version="1.1" xmlns="http://www.w3.org/2000/svg" xmlns:xlink="http://www.w3.org/1999/xlink" width="32" height="32" viewBox="0 0 32 32">
<path fill="#000" d="M15.994 13.563h-4.056v4.875h4.056l2.944 3.206v-11.287z"></path>
<path fill="#000" d="M22.781 3.756c-0.025-0.013-0.044-0.025-0.069-0.038-1.994-1.094-4.281-1.719-6.713-1.719-7.731 0-14 6.269-14 14 0 5.269 2.912 9.85 7.213 12.244 0.025 0.012 0.044 0.031 0.069 0.044 2 1.087 4.287 1.712 6.719 1.712 7.731 0 14-6.269 14-14 0-5.269-2.913-9.856-7.219-12.244zM24.619 22.212l-3.619-3.644v4.794l1.225 1.244c-1.75 1.269-3.894 2.044-6.219 2.044-1.35 0-2.644-0.262-3.831-0.719-0.406-0.156-0.806-0.331-1.188-0.538-3.35-1.794-5.631-5.325-5.631-9.394 0-2.325 0.775-4.463 2.044-6.213l2.206 2.213h4.794l-4.6-4.612c1.75-1.263 3.881-2.038 6.213-2.038 1.35 0 2.637 0.263 3.831 0.719 0.381 0.15 0.762 0.313 1.119 0.5 3.387 1.781 5.706 5.331 5.706 9.425-0.012 2.338-0.781 4.469-2.050 6.219z"></path>
</svg>
