<?xml version="1.0" encoding="utf-8"?>
<!-- Generated by IcoMoon.io -->
<!DOCTYPE svg PUBLIC "-//W3C//DTD SVG 1.1//EN" "http://www.w3.org/Graphics/SVG/1.1/DTD/svg11.dtd">
<svg version="1.1" xmlns="http://www.w3.org/2000/svg" xmlns:xlink="http://www.w3.org/1999/xlink" width="32" height="32" viewBox="0 0 32 32">
<path fill="#000" d="M14.438 25.488v-18.969l-5.931 5.481h-6.506v8h6.506z"></path>
<path fill="#000" d="M17.944 22.231c1.281-1.744 2.050-3.894 2.050-6.231s-0.769-4.488-2.050-6.231l-1.275 0.956c1.087 1.475 1.738 3.294 1.738 5.275 0 1.975-0.65 3.8-1.738 5.269l1.275 0.962z"></path>
<path fill="#000" d="M22.106 25.106c1.875-2.544 3-5.694 3-9.106s-1.125-6.556-3-9.106l-1.275 0.956c1.681 2.275 2.688 5.094 2.688 8.15s-1.006 5.869-2.688 8.144l1.275 0.962z"></path>
<path fill="#000" d="M24.794 4.963c2.275 3.081 3.619 6.906 3.619 11.037s-1.344 7.95-3.619 11.038l1.281 0.962c2.462-3.35 3.925-7.5 3.925-12s-1.462-8.65-3.925-12l-1.281 0.963z"></path>
</svg>
