<?xml version="1.0" encoding="utf-8"?>
<!-- Generated by IcoMoon.io -->
<!DOCTYPE svg PUBLIC "-//W3C//DTD SVG 1.1//EN" "http://www.w3.org/Graphics/SVG/1.1/DTD/svg11.dtd">
<svg version="1.1" xmlns="http://www.w3.org/2000/svg" xmlns:xlink="http://www.w3.org/1999/xlink" width="32" height="32" viewBox="0 0 32 32">
<path fill="#000" d="M17 12l3 3-3 3-3-3 3-3z"></path>
<path fill="#000" d="M13 16l3 3-11 11-3-3 11-11z"></path>
<path fill="#000" d="M16 2h2v4h-2v-4z"></path>
<path fill="#000" d="M24.071 9.344l-1.414-1.414 2.828-2.828 1.414 1.414-2.828 2.828z"></path>
<path fill="#000" d="M7.1 6.515l1.414-1.414 2.828 2.828-1.414 1.414-2.828-2.828z"></path>
<path fill="#000" d="M22.657 22.070l1.414-1.414 2.828 2.828-1.414 1.414-2.828-2.828z"></path>
<path fill="#000" d="M26 14h4v2h-4v-2z"></path>
</svg>
