<?xml version="1.0" encoding="utf-8"?>
<!-- Generated by IcoMoon.io -->
<!DOCTYPE svg PUBLIC "-//W3C//DTD SVG 1.1//EN" "http://www.w3.org/Graphics/SVG/1.1/DTD/svg11.dtd">
<svg version="1.1" xmlns="http://www.w3.org/2000/svg" xmlns:xlink="http://www.w3.org/1999/xlink" width="32" height="32" viewBox="0 0 32 32">
<path fill="#000" d="M16.938 2.413c-0.019-0.025-0.044-0.044-0.056-0.063 0 0-0.006-0.006-0.006-0.006-0.225-0.212-0.531-0.344-0.869-0.344-0.344 0-0.65 0.131-0.869 0.344 0 0-0.006 0.006-0.006 0.006-0.019 0.019-0.037 0.038-0.056 0.063-0.381 0.394-0.863 0.9-1.4 1.506-1.088 1.231-2.412 2.875-3.656 4.8-2.088 3.238-3.931 7.256-4.006 11.444 0 0.081-0.006 0.169-0.006 0.25 0 1.231 0.244 2.406 0.681 3.488 0.256 0.625 0.575 1.212 0.95 1.762 1.781 2.613 4.862 4.337 8.363 4.337 5.525 0 10-4.294 10-9.587 0-7.994-6.575-15.463-9.063-18zM16 26.5c-0.988 0-1.919-0.231-2.744-0.631 4.119-0.9 7.4-4.044 8.487-8.094 0.325 0.756 0.512 1.594 0.512 2.475-0.006 3.45-2.806 6.25-6.256 6.25z"></path>
</svg>
