<?xml version="1.0" encoding="utf-8"?>
<!-- Generated by IcoMoon.io -->
<!DOCTYPE svg PUBLIC "-//W3C//DTD SVG 1.1//EN" "http://www.w3.org/Graphics/SVG/1.1/DTD/svg11.dtd">
<svg version="1.1" xmlns="http://www.w3.org/2000/svg" xmlns:xlink="http://www.w3.org/1999/xlink" width="32" height="32" viewBox="0 0 32 32">
<path fill="#000" d="M16.006 6v0c-4.994 0-9.731 1.869-13.369 5.256l-0.638 0.594 3.219 3.188 0.6-0.55c2.781-2.556 6.394-3.969 10.175-3.969s7.4 1.412 10.175 3.969l0.6 0.55 0.581-0.575 2.637-2.612-0.637-0.594c-3.625-3.388-8.369-5.256-13.344-5.256z"></path>
<path fill="#000" d="M24.837 16.025c-2.425-2.194-5.556-3.4-8.819-3.4h-0.556l-0.006 0.012c-3.075 0.125-6 1.319-8.287 3.388l-0.656 0.594 3.244 3.212 0.6-0.525c1.581-1.387 3.588-2.156 5.644-2.156 2.069 0 4.075 0.769 5.656 2.156l0.6 0.525 0.569-0.563 2.675-2.65-0.663-0.594z"></path>
<path fill="#000" d="M16.012 26l4.563-4.512-0.725-0.594c-0.962-0.712-2.025-1.25-3.844-1.25-1.813 0-2.806 0.587-3.844 1.25l-0.719 0.594 0.662 0.656 3.3 3.262 0.606 0.594z"></path>
</svg>
