<?xml version="1.0" encoding="utf-8"?>
<!-- Generated by IcoMoon.io -->
<!DOCTYPE svg PUBLIC "-//W3C//DTD SVG 1.1//EN" "http://www.w3.org/Graphics/SVG/1.1/DTD/svg11.dtd">
<svg version="1.1" xmlns="http://www.w3.org/2000/svg" xmlns:xlink="http://www.w3.org/1999/xlink" width="32" height="32" viewBox="0 0 32 32">
<path fill="#000" d="M18.431 18.462c0.688-0.256 1.125-0.431 1.637-0.731 0.75-0.431 1.425-0.988 1.994-1.631 1.275-1.431 1.938-3.194 1.938-5.381 0-3.119-0.231-6.319-0.506-7.169-0.275-0.862-0.844-1.55-1.919-1.55h-11.156c-1.069 0-1.637 0.694-1.912 1.537s-0.506 4.056-0.506 7.175c0 2.194 0.662 3.95 1.931 5.381 0.569 0.644 1.244 1.194 1.988 1.625 0.512 0.3 0.944 0.488 1.625 0.731s1.394 0.469 1.394 1.988v5.887c0 0.669-0.181 1.188-0.694 1.55-0.175 0.131-0.394 0.269-0.894 0.406-1.969 0.538-2.931 0.975-3.075 1.075-0.125 0.087-0.281 0.225-0.281 0.444 0 0 0.863 0.194 6.012 0.194s6-0.194 6-0.194c0-0.219-0.156-0.356-0.288-0.444-0.144-0.1-1.113-0.538-3.087-1.075-0.5-0.137-0.762-0.275-0.944-0.406-0.5-0.356-0.75-0.875-0.75-1.544v-5.887c0-1.5 0.806-1.731 1.494-1.981zM15.994 16.894c-1.588 0-3.031-0.625-4.094-1.644-0.169-0.15-0.325-0.313-0.475-0.481-0.975-1.094-1.4-2.294-1.444-4.050-0.044-1.762-0.006-4.531 0.456-6.719h11.062c0.394 1.5 0.569 4.8 0.481 6.7-0.087 1.906-0.45 2.956-1.425 4.056-0.125 0.137-0.244 0.269-0.381 0.4-1.069 1.075-2.55 1.738-4.181 1.738z"></path>
<path fill="#000" d="M21.012 10.662c0-0.469-0.006-1.994-0.081-3.287-0.031-0.525-0.075-1-0.131-1.375h-9.563c-0.056 0.188-0.113 0.725-0.156 1.375-0.081 1.181-0.131 2.744-0.094 3.306 0.056 0.863 0.094 1.287 0.281 1.838 0.194 0.569 0.5 1.081 0.912 1.544 0.125 0.144 0.256 0.275 0.4 0.4 0.887 0.85 2.094 1.375 3.419 1.375 1.363 0 2.594-0.55 3.494-1.444 0.113-0.106 0.219-0.219 0.325-0.331 0.413-0.463 0.712-0.969 0.906-1.537 0.194-0.563 0.288-1.206 0.288-1.863zM20 11.188c0 0.313-0.244 0.506-0.519 0.506-0.1 0-0.188-0.031-0.269-0.081-0.137-0.088-0.219-0.244-0.219-0.419v-1.625c0-0.275 0.225-0.5 0.5-0.5s0.5 0.225 0.5 0.5v1.619zM19.931 8.238c-0.075 0.113-0.188 0.188-0.319 0.219-0.131 0.025-0.269 0-0.375-0.069-0.113-0.075-0.188-0.188-0.219-0.319-0.025-0.131 0-0.269 0.069-0.375 0.075-0.112 0.188-0.188 0.319-0.219 0.131-0.025 0.269 0 0.375 0.069 0.113 0.075 0.188 0.188 0.219 0.319 0.031 0.125 0.006 0.262-0.069 0.375z"></path>
</svg>
