<?xml version="1.0" encoding="utf-8"?>
<!-- Generated by IcoMoon.io -->
<!DOCTYPE svg PUBLIC "-//W3C//DTD SVG 1.1//EN" "http://www.w3.org/Graphics/SVG/1.1/DTD/svg11.dtd">
<svg version="1.1" xmlns="http://www.w3.org/2000/svg" xmlns:xlink="http://www.w3.org/1999/xlink" width="32" height="32" viewBox="0 0 32 32">
<path fill="#000" d="M11.9 9.287l-1.838 6.519c-0.394 1.425 1.294 1.981 1.706 0.644l1.644-6.012h0.463l-2.825 10.563h2.637v7.938c0 1.438 2 1.438 2 0v-7.938h0.625v7.938c0 1.438 1.938 1.438 1.938 0v-7.938h2.712l-2.887-10.563h0.525l1.644 6.012c0.406 1.369 2.081 0.781 1.706-0.637l-1.837-6.525c-0.25-0.738-1.137-2.037-2.625-2.1h-2.956c-1.537 0.063-2.419 1.35-2.631 2.1z"></path>
<path fill="#000" d="M18.288 4.325c0-1.288-1.025-2.331-2.288-2.331s-2.287 1.044-2.287 2.331c0 1.288 1.025 2.331 2.287 2.331s2.288-1.044 2.288-2.331z"></path>
</svg>
