<?xml version="1.0" encoding="utf-8"?>
<!-- Generated by IcoMoon.io -->
<!DOCTYPE svg PUBLIC "-//W3C//DTD SVG 1.1//EN" "http://www.w3.org/Graphics/SVG/1.1/DTD/svg11.dtd">
<svg version="1.1" xmlns="http://www.w3.org/2000/svg" xmlns:xlink="http://www.w3.org/1999/xlink" width="32" height="32" viewBox="0 0 32 32">
<path fill="#000" d="M28.869 7.181l-3.531 3.544-3.444-0.625-0.619-3.444 3.531-3.544c-0.794-0.794-1.925-1.156-2.762-1.112-0.844 0.044-2.644 0.519-4.037 2-1.35 1.425-2.769 4.081-1.512 7.031 0.15 0.356 0.319 0.825-0.181 1.325-0.506 0.5-13.438 12.675-13.438 12.675-1.212 1.044-1.125 2.975-0.006 4.1 1.137 1.119 3.056 1.188 4.1-0.019 0 0 12.075-12.863 12.669-13.444 0.531-0.519 1.006-0.344 1.325-0.181 2.225 1.15 5.394 0.15 7.037-1.494s1.944-3.231 1.994-4.044c0.050-0.806-0.231-1.875-1.125-2.769zM5.706 27.7c-0.394 0.387-1.031 0.387-1.419 0-0.388-0.394-0.388-1.031 0-1.419 0.394-0.387 1.031-0.387 1.419 0 0.388 0.394 0.388 1.031 0 1.419z"></path>
</svg>
