<?xml version="1.0" encoding="utf-8"?>
<!-- Generated by IcoMoon.io -->
<!DOCTYPE svg PUBLIC "-//W3C//DTD SVG 1.1//EN" "http://www.w3.org/Graphics/SVG/1.1/DTD/svg11.dtd">
<svg version="1.1" xmlns="http://www.w3.org/2000/svg" xmlns:xlink="http://www.w3.org/1999/xlink" width="32" height="32" viewBox="0 0 32 32">
<path fill="#000" d="M7.925 15.519c2.481-3.662 4.869-5.8 4.869-5.8s-2.631-3.056-5.8-4.213l-0.206-0.050c-2.931 2.569-4.787 6.337-4.787 10.544 0 3.169 1.056 6.094 2.825 8.438 0-0.275 0.037-4.394 3.1-8.919z"></path>
<path fill="#000" d="M30 16c0-4.206-1.856-7.975-4.788-10.544l-0.2 0.056c-3.169 1.156-5.806 4.213-5.806 4.213s2.387 2.137 4.869 5.8c3.063 4.525 3.1 8.644 3.094 8.919 1.781-2.35 2.831-5.275 2.831-8.444z"></path>
<path fill="#000" d="M12.575 5.056c1.831 0.819 3.412 2.162 3.412 2.162s1.594-1.338 3.425-2.162c2.3-1.031 4.056-0.706 4.519-0.594-2.256-1.55-4.988-2.462-7.931-2.462s-5.675 0.913-7.931 2.462c0.45-0.112 2.2-0.444 4.506 0.594z"></path>
<path fill="#000" d="M22.419 18.306c-2.894-3.556-6.431-5.869-6.431-5.869s-3.519 2.313-6.419 5.869c-2.487 3.056-3.412 5.3-3.912 6.738l-0.081 0.3c2.563 2.856 6.281 4.656 10.425 4.656s7.863-1.8 10.425-4.656l-0.087-0.3c-0.5-1.438-1.431-3.681-3.919-6.738z"></path>
</svg>
